  0
SECTION
  2
BLOCKS
  0
ENDSEC
  0
SECTION
  2
ENTITIES
  0
LINE
  8
0
 10
450.2
 20
135
 11
500
 21
135
  0
LINE
  8
0
 10
500
 20
135
 11
500
 21
165
  0
LINE
  8
0
 10
500
 20
165
 11
497.8
 21
165
  0
LINE
  8
0
 10
497.8
 20
165
 11
497.8
 21
179.6
  0
LINE
  8
0
 10
497.8
 20
179.6
 11
500
 21
179.6
  0
LINE
  8
0
 10
500
 20
179.6
 11
500
 21
192
  0
LINE
  8
0
 10
500
 20
192
 11
300
 21
192
  0
LINE
  8
0
 10
300
 20
192
 11
300
 21
179.6
  0
LINE
  8
0
 10
300
 20
179.6
 11
302.2
 21
179.6
  0
LINE
  8
0
 10
302.2
 20
179.6
 11
302.2
 21
165
  0
LINE
  8
0
 10
302.2
 20
165
 11
300
 21
165
  0
LINE
  8
0
 10
300
 20
165
 11
300
 21
135
  0
LINE
  8
0
 10
300
 20
135
 11
349.8
 21
135
  0
LINE
  8
0
 10
349.8
 20
135
 11
349.8
 21
131.6
  0
LINE
  8
0
 10
349.8
 20
131.6
 11
450.2
 21
131.6
  0
LINE
  8
0
 10
450.2
 20
131.6
 11
450.2
 21
135
  0
LINE
  8
0
 10
399.505
 20
162.02
 11
398.527
 21
162.184
  0
LINE
  8
0
 10
398.527
 20
162.184
 11
397.59
 21
162.505
  0
LINE
  8
0
 10
397.59
 20
162.505
 11
396.718
 21
162.977
  0
LINE
  8
0
 10
396.718
 20
162.977
 11
395.936
 21
163.586
  0
LINE
  8
0
 10
395.936
 20
163.586
 11
395.265
 21
164.315
  0
LINE
  8
0
 10
395.265
 20
164.315
 11
394.723
 21
165.144
  0
LINE
  8
0
 10
394.723
 20
165.144
 11
394.325
 21
166.052
  0
LINE
  8
0
 10
394.325
 20
166.052
 11
394.082
 21
167.012
  0
LINE
  8
0
 10
394.082
 20
167.012
 11
394
 21
168
  0
LINE
  8
0
 10
394
 20
168
 11
394.082
 21
168.988
  0
LINE
  8
0
 10
394.082
 20
168.988
 11
394.325
 21
169.948
  0
LINE
  8
0
 10
394.325
 20
169.948
 11
394.723
 21
170.856
  0
LINE
  8
0
 10
394.723
 20
170.856
 11
395.265
 21
171.685
  0
LINE
  8
0
 10
395.265
 20
171.685
 11
395.936
 21
172.414
  0
LINE
  8
0
 10
395.936
 20
172.414
 11
396.718
 21
173.023
  0
LINE
  8
0
 10
396.718
 20
173.023
 11
397.59
 21
173.495
  0
LINE
  8
0
 10
397.59
 20
173.495
 11
398.527
 21
173.816
  0
LINE
  8
0
 10
398.527
 20
173.816
 11
399.505
 21
173.979
  0
LINE
  8
0
 10
399.505
 20
173.979
 11
400.495
 21
173.979
  0
LINE
  8
0
 10
400.495
 20
173.979
 11
401.473
 21
173.816
  0
LINE
  8
0
 10
401.473
 20
173.816
 11
402.41
 21
173.495
  0
LINE
  8
0
 10
402.41
 20
173.495
 11
403.282
 21
173.023
  0
LINE
  8
0
 10
403.282
 20
173.023
 11
404.064
 21
172.414
  0
LINE
  8
0
 10
404.064
 20
172.414
 11
404.735
 21
171.685
  0
LINE
  8
0
 10
404.735
 20
171.685
 11
405.277
 21
170.856
  0
LINE
  8
0
 10
405.277
 20
170.856
 11
405.675
 21
169.948
  0
LINE
  8
0
 10
405.675
 20
169.948
 11
405.918
 21
168.988
  0
LINE
  8
0
 10
405.918
 20
168.988
 11
406
 21
168
  0
LINE
  8
0
 10
406
 20
168
 11
405.918
 21
167.012
  0
LINE
  8
0
 10
405.918
 20
167.012
 11
405.675
 21
166.052
  0
LINE
  8
0
 10
405.675
 20
166.052
 11
405.277
 21
165.144
  0
LINE
  8
0
 10
405.277
 20
165.144
 11
404.735
 21
164.315
  0
LINE
  8
0
 10
404.735
 20
164.315
 11
404.064
 21
163.586
  0
LINE
  8
0
 10
404.064
 20
163.586
 11
403.282
 21
162.977
  0
LINE
  8
0
 10
403.282
 20
162.977
 11
402.41
 21
162.505
  0
LINE
  8
0
 10
402.41
 20
162.505
 11
401.473
 21
162.184
  0
LINE
  8
0
 10
401.473
 20
162.184
 11
400.495
 21
162.02
  0
LINE
  8
0
 10
400.495
 20
162.02
 11
399.505
 21
162.02
  0
LINE
  8
0
 10
50.2
 20
135
 11
100
 21
135
  0
LINE
  8
0
 10
100
 20
135
 11
100
 21
165
  0
LINE
  8
0
 10
100
 20
165
 11
97.8
 21
165
  0
LINE
  8
0
 10
97.8
 20
165
 11
97.8
 21
179.6
  0
LINE
  8
0
 10
97.8
 20
179.6
 11
100
 21
179.6
  0
LINE
  8
0
 10
100
 20
179.6
 11
100
 21
192
  0
LINE
  8
0
 10
100
 20
192
 11
-100
 21
192
  0
LINE
  8
0
 10
-100
 20
192
 11
-100
 21
179.6
  0
LINE
  8
0
 10
-100
 20
179.6
 11
-97.8
 21
179.6
  0
LINE
  8
0
 10
-97.8
 20
179.6
 11
-97.8
 21
165
  0
LINE
  8
0
 10
-97.8
 20
165
 11
-100
 21
165
  0
LINE
  8
0
 10
-100
 20
165
 11
-100
 21
155
  0
LINE
  8
0
 10
-100
 20
155
 11
-92
 21
155
  0
LINE
  8
0
 10
-92
 20
155
 11
-92
 21
135
  0
LINE
  8
0
 10
-92
 20
135
 11
-50.2
 21
135
  0
LINE
  8
0
 10
-50.2
 20
135
 11
-50.2
 21
131.6
  0
LINE
  8
0
 10
-50.2
 20
131.6
 11
50.2
 21
131.6
  0
LINE
  8
0
 10
50.2
 20
131.6
 11
50.2
 21
135
  0
LINE
  8
0
 10
-140
 20
-122
 11
-130
 21
-122
  0
LINE
  8
0
 10
-130
 20
-122
 11
-130
 21
-117.1
  0
LINE
  8
0
 10
-130
 20
-117.1
 11
-110
 21
-117.1
  0
LINE
  8
0
 10
-110
 20
-117.1
 11
-110
 21
-105
  0
LINE
  8
0
 10
-110
 20
-105
 11
-130
 21
-105
  0
LINE
  8
0
 10
-130
 20
-105
 11
-130
 21
-75
  0
LINE
  8
0
 10
-130
 20
-75
 11
-110
 21
-75
  0
LINE
  8
0
 10
-110
 20
-75
 11
-110
 21
-50.2
  0
LINE
  8
0
 10
-110
 20
-50.2
 11
-106.6
 21
-50.2
  0
LINE
  8
0
 10
-106.6
 20
-50.2
 11
-106.6
 21
50.2
  0
LINE
  8
0
 10
-106.6
 20
50.2
 11
-110
 21
50.2
  0
LINE
  8
0
 10
-110
 20
50.2
 11
-110
 21
125.2
  0
LINE
  8
0
 10
-110
 20
125.2
 11
-130
 21
125.2
  0
LINE
  8
0
 10
-130
 20
125.2
 11
-130
 21
122
  0
LINE
  8
0
 10
-130
 20
122
 11
-140
 21
122
  0
LINE
  8
0
 10
-140
 20
122
 11
-140
 21
125
  0
LINE
  8
0
 10
-140
 20
125
 11
-155
 21
125
  0
LINE
  8
0
 10
-155
 20
125
 11
-155
 21
122
  0
LINE
  8
0
 10
-155
 20
122
 11
-167
 21
122
  0
LINE
  8
0
 10
-167
 20
122
 11
-167
 21
-122
  0
LINE
  8
0
 10
-167
 20
-122
 11
-155
 21
-122
  0
LINE
  8
0
 10
-155
 20
-122
 11
-155
 21
-125
  0
LINE
  8
0
 10
-155
 20
-125
 11
-140
 21
-125
  0
LINE
  8
0
 10
-140
 20
-125
 11
-140
 21
-122
  0
LINE
  8
0
 10
-143.495
 20
19.0205
 11
-144.473
 21
19.1836
  0
LINE
  8
0
 10
-144.473
 20
19.1836
 11
-145.41
 21
19.5054
  0
LINE
  8
0
 10
-145.41
 20
19.5054
 11
-146.282
 21
19.977
  0
LINE
  8
0
 10
-146.282
 20
19.977
 11
-147.064
 21
20.5856
  0
LINE
  8
0
 10
-147.064
 20
20.5856
 11
-147.735
 21
21.3147
  0
LINE
  8
0
 10
-147.735
 20
21.3147
 11
-148.277
 21
22.1443
  0
LINE
  8
0
 10
-148.277
 20
22.1443
 11
-148.675
 21
23.0518
  0
LINE
  8
0
 10
-148.675
 20
23.0518
 11
-148.918
 21
24.0124
  0
LINE
  8
0
 10
-148.918
 20
24.0124
 11
-149
 21
25
  0
LINE
  8
0
 10
-149
 20
25
 11
-148.918
 21
25.9876
  0
LINE
  8
0
 10
-148.918
 20
25.9876
 11
-148.675
 21
26.9482
  0
LINE
  8
0
 10
-148.675
 20
26.9482
 11
-148.277
 21
27.8557
  0
LINE
  8
0
 10
-148.277
 20
27.8557
 11
-147.735
 21
28.6853
  0
LINE
  8
0
 10
-147.735
 20
28.6853
 11
-147.064
 21
29.4143
  0
LINE
  8
0
 10
-147.064
 20
29.4143
 11
-146.282
 21
30.023
  0
LINE
  8
0
 10
-146.282
 20
30.023
 11
-145.41
 21
30.4946
  0
LINE
  8
0
 10
-145.41
 20
30.4946
 11
-144.473
 21
30.8164
  0
LINE
  8
0
 10
-144.473
 20
30.8164
 11
-143.495
 21
30.9795
  0
LINE
  8
0
 10
-143.495
 20
30.9795
 11
-142.505
 21
30.9795
  0
LINE
  8
0
 10
-142.505
 20
30.9795
 11
-141.527
 21
30.8164
  0
LINE
  8
0
 10
-141.527
 20
30.8164
 11
-140.59
 21
30.4946
  0
LINE
  8
0
 10
-140.59
 20
30.4946
 11
-139.718
 21
30.023
  0
LINE
  8
0
 10
-139.718
 20
30.023
 11
-138.936
 21
29.4143
  0
LINE
  8
0
 10
-138.936
 20
29.4143
 11
-138.265
 21
28.6853
  0
LINE
  8
0
 10
-138.265
 20
28.6853
 11
-137.723
 21
27.8557
  0
LINE
  8
0
 10
-137.723
 20
27.8557
 11
-137.325
 21
26.9482
  0
LINE
  8
0
 10
-137.325
 20
26.9482
 11
-137.082
 21
25.9876
  0
LINE
  8
0
 10
-137.082
 20
25.9876
 11
-137
 21
25
  0
LINE
  8
0
 10
-137
 20
25
 11
-137.082
 21
24.0124
  0
LINE
  8
0
 10
-137.082
 20
24.0124
 11
-137.325
 21
23.0518
  0
LINE
  8
0
 10
-137.325
 20
23.0518
 11
-137.723
 21
22.1443
  0
LINE
  8
0
 10
-137.723
 20
22.1443
 11
-138.265
 21
21.3147
  0
LINE
  8
0
 10
-138.265
 20
21.3147
 11
-138.936
 21
20.5856
  0
LINE
  8
0
 10
-138.936
 20
20.5856
 11
-139.718
 21
19.977
  0
LINE
  8
0
 10
-139.718
 20
19.977
 11
-140.59
 21
19.5054
  0
LINE
  8
0
 10
-140.59
 20
19.5054
 11
-141.527
 21
19.1836
  0
LINE
  8
0
 10
-141.527
 20
19.1836
 11
-142.505
 21
19.0205
  0
LINE
  8
0
 10
-142.505
 20
19.0205
 11
-143.495
 21
19.0205
  0
LINE
  8
0
 10
-50.2
 20
-122.2
 11
50.2
 21
-122.2
  0
LINE
  8
0
 10
50.2
 20
-122.2
 11
50.2
 21
-125
  0
LINE
  8
0
 10
50.2
 20
-125
 11
100
 21
-125
  0
LINE
  8
0
 10
100
 20
-125
 11
100
 21
-50.2
  0
LINE
  8
0
 10
100
 20
-50.2
 11
97.2
 21
-50.2
  0
LINE
  8
0
 10
97.2
 20
-50.2
 11
97.2
 21
50.2
  0
LINE
  8
0
 10
97.2
 20
50.2
 11
100
 21
50.2
  0
LINE
  8
0
 10
100
 20
50.2
 11
100
 21
125
  0
LINE
  8
0
 10
100
 20
125
 11
50.2
 21
125
  0
LINE
  8
0
 10
50.2
 20
125
 11
50.2
 21
122.2
  0
LINE
  8
0
 10
50.2
 20
122.2
 11
-50.2
 21
122.2
  0
LINE
  8
0
 10
-50.2
 20
122.2
 11
-50.2
 21
125
  0
LINE
  8
0
 10
-50.2
 20
125
 11
-100
 21
125
  0
LINE
  8
0
 10
-100
 20
125
 11
-100
 21
50.2
  0
LINE
  8
0
 10
-100
 20
50.2
 11
-97.2
 21
50.2
  0
LINE
  8
0
 10
-97.2
 20
50.2
 11
-97.2
 21
-50.2
  0
LINE
  8
0
 10
-97.2
 20
-50.2
 11
-100
 21
-50.2
  0
LINE
  8
0
 10
-100
 20
-50.2
 11
-100
 21
-125
  0
LINE
  8
0
 10
-100
 20
-125
 11
-50.2
 21
-125
  0
LINE
  8
0
 10
-50.2
 20
-125
 11
-50.2
 21
-122.2
  0
LINE
  8
0
 10
155
 20
-122
 11
167
 21
-122
  0
LINE
  8
0
 10
167
 20
-122
 11
167
 21
122
  0
LINE
  8
0
 10
167
 20
122
 11
155
 21
122
  0
LINE
  8
0
 10
155
 20
122
 11
155
 21
125
  0
LINE
  8
0
 10
155
 20
125
 11
140
 21
125
  0
LINE
  8
0
 10
140
 20
125
 11
140
 21
122
  0
LINE
  8
0
 10
140
 20
122
 11
110
 21
122
  0
LINE
  8
0
 10
110
 20
122
 11
110
 21
50.2
  0
LINE
  8
0
 10
110
 20
50.2
 11
106.6
 21
50.2
  0
LINE
  8
0
 10
106.6
 20
50.2
 11
106.6
 21
-50.2
  0
LINE
  8
0
 10
106.6
 20
-50.2
 11
110
 21
-50.2
  0
LINE
  8
0
 10
110
 20
-50.2
 11
110
 21
-117.1
  0
LINE
  8
0
 10
110
 20
-117.1
 11
130
 21
-117.1
  0
LINE
  8
0
 10
130
 20
-117.1
 11
130
 21
-122
  0
LINE
  8
0
 10
130
 20
-122
 11
140
 21
-122
  0
LINE
  8
0
 10
140
 20
-122
 11
140
 21
-125
  0
LINE
  8
0
 10
140
 20
-125
 11
155
 21
-125
  0
LINE
  8
0
 10
155
 20
-125
 11
155
 21
-122
  0
LINE
  8
0
 10
349.8
 20
-122.2
 11
450.2
 21
-122.2
  0
LINE
  8
0
 10
450.2
 20
-122.2
 11
450.2
 21
-125
  0
LINE
  8
0
 10
450.2
 20
-125
 11
500
 21
-125
  0
LINE
  8
0
 10
500
 20
-125
 11
500
 21
-50.2
  0
LINE
  8
0
 10
500
 20
-50.2
 11
497.2
 21
-50.2
  0
LINE
  8
0
 10
497.2
 20
-50.2
 11
497.2
 21
50.2
  0
LINE
  8
0
 10
497.2
 20
50.2
 11
500
 21
50.2
  0
LINE
  8
0
 10
500
 20
50.2
 11
500
 21
125
  0
LINE
  8
0
 10
500
 20
125
 11
450.2
 21
125
  0
LINE
  8
0
 10
450.2
 20
125
 11
450.2
 21
122.2
  0
LINE
  8
0
 10
450.2
 20
122.2
 11
349.8
 21
122.2
  0
LINE
  8
0
 10
349.8
 20
122.2
 11
349.8
 21
125
  0
LINE
  8
0
 10
349.8
 20
125
 11
300
 21
125
  0
LINE
  8
0
 10
300
 20
125
 11
300
 21
50.2
  0
LINE
  8
0
 10
300
 20
50.2
 11
302.8
 21
50.2
  0
LINE
  8
0
 10
302.8
 20
50.2
 11
302.8
 21
-50.2
  0
LINE
  8
0
 10
302.8
 20
-50.2
 11
300
 21
-50.2
  0
LINE
  8
0
 10
300
 20
-50.2
 11
300
 21
-125
  0
LINE
  8
0
 10
300
 20
-125
 11
349.8
 21
-125
  0
LINE
  8
0
 10
349.8
 20
-125
 11
349.8
 21
-122.2
  0
LINE
  8
0
 10
555
 20
-122
 11
567
 21
-122
  0
LINE
  8
0
 10
567
 20
-122
 11
567
 21
122
  0
LINE
  8
0
 10
567
 20
122
 11
555
 21
122
  0
LINE
  8
0
 10
555
 20
122
 11
555
 21
125
  0
LINE
  8
0
 10
555
 20
125
 11
540
 21
125
  0
LINE
  8
0
 10
540
 20
125
 11
540
 21
122
  0
LINE
  8
0
 10
540
 20
122
 11
530
 21
122
  0
LINE
  8
0
 10
530
 20
122
 11
530
 21
117.1
  0
LINE
  8
0
 10
530
 20
117.1
 11
510
 21
117.1
  0
LINE
  8
0
 10
510
 20
117.1
 11
510
 21
50.2
  0
LINE
  8
0
 10
510
 20
50.2
 11
506.6
 21
50.2
  0
LINE
  8
0
 10
506.6
 20
50.2
 11
506.6
 21
-50.2
  0
LINE
  8
0
 10
506.6
 20
-50.2
 11
510
 21
-50.2
  0
LINE
  8
0
 10
510
 20
-50.2
 11
510
 21
-117.1
  0
LINE
  8
0
 10
510
 20
-117.1
 11
530
 21
-117.1
  0
LINE
  8
0
 10
530
 20
-117.1
 11
530
 21
-122
  0
LINE
  8
0
 10
530
 20
-122
 11
540
 21
-122
  0
LINE
  8
0
 10
540
 20
-122
 11
540
 21
-125
  0
LINE
  8
0
 10
540
 20
-125
 11
555
 21
-125
  0
LINE
  8
0
 10
555
 20
-125
 11
555
 21
-122
  0
LINE
  8
0
 10
260
 20
-122
 11
270
 21
-122
  0
LINE
  8
0
 10
270
 20
-122
 11
270
 21
-117.1
  0
LINE
  8
0
 10
270
 20
-117.1
 11
290
 21
-117.1
  0
LINE
  8
0
 10
290
 20
-117.1
 11
290
 21
-50.2
  0
LINE
  8
0
 10
290
 20
-50.2
 11
293.4
 21
-50.2
  0
LINE
  8
0
 10
293.4
 20
-50.2
 11
293.4
 21
50.2
  0
LINE
  8
0
 10
293.4
 20
50.2
 11
290
 21
50.2
  0
LINE
  8
0
 10
290
 20
50.2
 11
290
 21
117.1
  0
LINE
  8
0
 10
290
 20
117.1
 11
270
 21
117.1
  0
LINE
  8
0
 10
270
 20
117.1
 11
270
 21
122
  0
LINE
  8
0
 10
270
 20
122
 11
260
 21
122
  0
LINE
  8
0
 10
260
 20
122
 11
260
 21
125
  0
LINE
  8
0
 10
260
 20
125
 11
245
 21
125
  0
LINE
  8
0
 10
245
 20
125
 11
245
 21
122
  0
LINE
  8
0
 10
245
 20
122
 11
233
 21
122
  0
LINE
  8
0
 10
233
 20
122
 11
233
 21
-122
  0
LINE
  8
0
 10
233
 20
-122
 11
245
 21
-122
  0
LINE
  8
0
 10
245
 20
-122
 11
245
 21
-125
  0
LINE
  8
0
 10
245
 20
-125
 11
260
 21
-125
  0
LINE
  8
0
 10
260
 20
-125
 11
260
 21
-122
  0
LINE
  8
0
 10
100
 20
-179.6
 11
97.8
 21
-179.6
  0
LINE
  8
0
 10
97.8
 20
-179.6
 11
97.8
 21
-165
  0
LINE
  8
0
 10
97.8
 20
-165
 11
100
 21
-165
  0
LINE
  8
0
 10
100
 20
-165
 11
100
 21
-135
  0
LINE
  8
0
 10
100
 20
-135
 11
50.2
 21
-135
  0
LINE
  8
0
 10
50.2
 20
-135
 11
50.2
 21
-131.6
  0
LINE
  8
0
 10
50.2
 20
-131.6
 11
-50.2
 21
-131.6
  0
LINE
  8
0
 10
-50.2
 20
-131.6
 11
-50.2
 21
-135
  0
LINE
  8
0
 10
-50.2
 20
-135
 11
-100
 21
-135
  0
LINE
  8
0
 10
-100
 20
-135
 11
-100
 21
-165
  0
LINE
  8
0
 10
-100
 20
-165
 11
-97.8
 21
-165
  0
LINE
  8
0
 10
-97.8
 20
-165
 11
-97.8
 21
-179.6
  0
LINE
  8
0
 10
-97.8
 20
-179.6
 11
-100
 21
-179.6
  0
LINE
  8
0
 10
-100
 20
-179.6
 11
-100
 21
-192
  0
LINE
  8
0
 10
-100
 20
-192
 11
100
 21
-192
  0
LINE
  8
0
 10
100
 20
-192
 11
100
 21
-179.6
  0
LINE
  8
0
 10
-0.495468
 20
-173.979
 11
-1.4729
 21
-173.816
  0
LINE
  8
0
 10
-1.4729
 20
-173.816
 11
-2.41017
 21
-173.495
  0
LINE
  8
0
 10
-2.41017
 20
-173.495
 11
-3.28168
 21
-173.023
  0
LINE
  8
0
 10
-3.28168
 20
-173.023
 11
-4.06367
 21
-172.414
  0
LINE
  8
0
 10
-4.06367
 20
-172.414
 11
-4.73483
 21
-171.685
  0
LINE
  8
0
 10
-4.73483
 20
-171.685
 11
-5.27684
 21
-170.856
  0
LINE
  8
0
 10
-5.27684
 20
-170.856
 11
-5.6749
 21
-169.948
  0
LINE
  8
0
 10
-5.6749
 20
-169.948
 11
-5.91817
 21
-168.988
  0
LINE
  8
0
 10
-5.91817
 20
-168.988
 11
-6
 21
-168
  0
LINE
  8
0
 10
-6
 20
-168
 11
-5.91817
 21
-167.012
  0
LINE
  8
0
 10
-5.91817
 20
-167.012
 11
-5.6749
 21
-166.052
  0
LINE
  8
0
 10
-5.6749
 20
-166.052
 11
-5.27684
 21
-165.144
  0
LINE
  8
0
 10
-5.27684
 20
-165.144
 11
-4.73483
 21
-164.315
  0
LINE
  8
0
 10
-4.73483
 20
-164.315
 11
-4.06367
 21
-163.586
  0
LINE
  8
0
 10
-4.06367
 20
-163.586
 11
-3.28168
 21
-162.977
  0
LINE
  8
0
 10
-3.28168
 20
-162.977
 11
-2.41017
 21
-162.505
  0
LINE
  8
0
 10
-2.41017
 20
-162.505
 11
-1.4729
 21
-162.184
  0
LINE
  8
0
 10
-1.4729
 20
-162.184
 11
-0.495468
 21
-162.02
  0
LINE
  8
0
 10
-0.495468
 20
-162.02
 11
0.495468
 21
-162.02
  0
LINE
  8
0
 10
0.495468
 20
-162.02
 11
1.4729
 21
-162.184
  0
LINE
  8
0
 10
1.4729
 20
-162.184
 11
2.41017
 21
-162.505
  0
LINE
  8
0
 10
2.41017
 20
-162.505
 11
3.28168
 21
-162.977
  0
LINE
  8
0
 10
3.28168
 20
-162.977
 11
4.06367
 21
-163.586
  0
LINE
  8
0
 10
4.06367
 20
-163.586
 11
4.73483
 21
-164.315
  0
LINE
  8
0
 10
4.73483
 20
-164.315
 11
5.27684
 21
-165.144
  0
LINE
  8
0
 10
5.27684
 20
-165.144
 11
5.6749
 21
-166.052
  0
LINE
  8
0
 10
5.6749
 20
-166.052
 11
5.91817
 21
-167.012
  0
LINE
  8
0
 10
5.91817
 20
-167.012
 11
6
 21
-168
  0
LINE
  8
0
 10
6
 20
-168
 11
5.91817
 21
-168.988
  0
LINE
  8
0
 10
5.91817
 20
-168.988
 11
5.6749
 21
-169.948
  0
LINE
  8
0
 10
5.6749
 20
-169.948
 11
5.27684
 21
-170.856
  0
LINE
  8
0
 10
5.27684
 20
-170.856
 11
4.73483
 21
-171.685
  0
LINE
  8
0
 10
4.73483
 20
-171.685
 11
4.06367
 21
-172.414
  0
LINE
  8
0
 10
4.06367
 20
-172.414
 11
3.28168
 21
-173.023
  0
LINE
  8
0
 10
3.28168
 20
-173.023
 11
2.41017
 21
-173.495
  0
LINE
  8
0
 10
2.41017
 20
-173.495
 11
1.4729
 21
-173.816
  0
LINE
  8
0
 10
1.4729
 20
-173.816
 11
0.495468
 21
-173.979
  0
LINE
  8
0
 10
0.495468
 20
-173.979
 11
-0.495468
 21
-173.979
  0
LINE
  8
0
 10
500
 20
-179.6
 11
497.8
 21
-179.6
  0
LINE
  8
0
 10
497.8
 20
-179.6
 11
497.8
 21
-165
  0
LINE
  8
0
 10
497.8
 20
-165
 11
500
 21
-165
  0
LINE
  8
0
 10
500
 20
-165
 11
500
 21
-135
  0
LINE
  8
0
 10
500
 20
-135
 11
450.2
 21
-135
  0
LINE
  8
0
 10
450.2
 20
-135
 11
450.2
 21
-131.6
  0
LINE
  8
0
 10
450.2
 20
-131.6
 11
349.8
 21
-131.6
  0
LINE
  8
0
 10
349.8
 20
-131.6
 11
349.8
 21
-135
  0
LINE
  8
0
 10
349.8
 20
-135
 11
300
 21
-135
  0
LINE
  8
0
 10
300
 20
-135
 11
300
 21
-165
  0
LINE
  8
0
 10
300
 20
-165
 11
302.2
 21
-165
  0
LINE
  8
0
 10
302.2
 20
-165
 11
302.2
 21
-179.6
  0
LINE
  8
0
 10
302.2
 20
-179.6
 11
300
 21
-179.6
  0
LINE
  8
0
 10
300
 20
-179.6
 11
300
 21
-192
  0
LINE
  8
0
 10
300
 20
-192
 11
500
 21
-192
  0
LINE
  8
0
 10
500
 20
-192
 11
500
 21
-179.6
  0
LINE
  8
0
 10
399.505
 20
-173.979
 11
398.527
 21
-173.816
  0
LINE
  8
0
 10
398.527
 20
-173.816
 11
397.59
 21
-173.495
  0
LINE
  8
0
 10
397.59
 20
-173.495
 11
396.718
 21
-173.023
  0
LINE
  8
0
 10
396.718
 20
-173.023
 11
395.936
 21
-172.414
  0
LINE
  8
0
 10
395.936
 20
-172.414
 11
395.265
 21
-171.685
  0
LINE
  8
0
 10
395.265
 20
-171.685
 11
394.723
 21
-170.856
  0
LINE
  8
0
 10
394.723
 20
-170.856
 11
394.325
 21
-169.948
  0
LINE
  8
0
 10
394.325
 20
-169.948
 11
394.082
 21
-168.988
  0
LINE
  8
0
 10
394.082
 20
-168.988
 11
394
 21
-168
  0
LINE
  8
0
 10
394
 20
-168
 11
394.082
 21
-167.012
  0
LINE
  8
0
 10
394.082
 20
-167.012
 11
394.325
 21
-166.052
  0
LINE
  8
0
 10
394.325
 20
-166.052
 11
394.723
 21
-165.144
  0
LINE
  8
0
 10
394.723
 20
-165.144
 11
395.265
 21
-164.315
  0
LINE
  8
0
 10
395.265
 20
-164.315
 11
395.936
 21
-163.586
  0
LINE
  8
0
 10
395.936
 20
-163.586
 11
396.718
 21
-162.977
  0
LINE
  8
0
 10
396.718
 20
-162.977
 11
397.59
 21
-162.505
  0
LINE
  8
0
 10
397.59
 20
-162.505
 11
398.527
 21
-162.184
  0
LINE
  8
0
 10
398.527
 20
-162.184
 11
399.505
 21
-162.02
  0
LINE
  8
0
 10
399.505
 20
-162.02
 11
400.495
 21
-162.02
  0
LINE
  8
0
 10
400.495
 20
-162.02
 11
401.473
 21
-162.184
  0
LINE
  8
0
 10
401.473
 20
-162.184
 11
402.41
 21
-162.505
  0
LINE
  8
0
 10
402.41
 20
-162.505
 11
403.282
 21
-162.977
  0
LINE
  8
0
 10
403.282
 20
-162.977
 11
404.064
 21
-163.586
  0
LINE
  8
0
 10
404.064
 20
-163.586
 11
404.735
 21
-164.315
  0
LINE
  8
0
 10
404.735
 20
-164.315
 11
405.277
 21
-165.144
  0
LINE
  8
0
 10
405.277
 20
-165.144
 11
405.675
 21
-166.052
  0
LINE
  8
0
 10
405.675
 20
-166.052
 11
405.918
 21
-167.012
  0
LINE
  8
0
 10
405.918
 20
-167.012
 11
406
 21
-168
  0
LINE
  8
0
 10
406
 20
-168
 11
405.918
 21
-168.988
  0
LINE
  8
0
 10
405.918
 20
-168.988
 11
405.675
 21
-169.948
  0
LINE
  8
0
 10
405.675
 20
-169.948
 11
405.277
 21
-170.856
  0
LINE
  8
0
 10
405.277
 20
-170.856
 11
404.735
 21
-171.685
  0
LINE
  8
0
 10
404.735
 20
-171.685
 11
404.064
 21
-172.414
  0
LINE
  8
0
 10
404.064
 20
-172.414
 11
403.282
 21
-173.023
  0
LINE
  8
0
 10
403.282
 20
-173.023
 11
402.41
 21
-173.495
  0
LINE
  8
0
 10
402.41
 20
-173.495
 11
401.473
 21
-173.816
  0
LINE
  8
0
 10
401.473
 20
-173.816
 11
400.495
 21
-173.979
  0
LINE
  8
0
 10
400.495
 20
-173.979
 11
399.505
 21
-173.979
  0
ENDSEC
  0
SECTION
  2
OBJECTS
  0
DICTIONARY
  0
ENDSEC
  0
EOF
