  0
SECTION
  2
BLOCKS
  0
ENDSEC
  0
SECTION
  2
ENTITIES
  0
LINE
  8
0
 10
50.2
 20
135
 11
100
 21
135
  0
LINE
  8
0
 10
100
 20
135
 11
100
 21
165
  0
LINE
  8
0
 10
100
 20
165
 11
97.8
 21
165
  0
LINE
  8
0
 10
97.8
 20
165
 11
97.8
 21
179.6
  0
LINE
  8
0
 10
97.8
 20
179.6
 11
100
 21
179.6
  0
LINE
  8
0
 10
100
 20
179.6
 11
100
 21
192
  0
LINE
  8
0
 10
100
 20
192
 11
-100
 21
192
  0
LINE
  8
0
 10
-100
 20
192
 11
-100
 21
179.6
  0
LINE
  8
0
 10
-100
 20
179.6
 11
-97.8
 21
179.6
  0
LINE
  8
0
 10
-97.8
 20
179.6
 11
-97.8
 21
165
  0
LINE
  8
0
 10
-97.8
 20
165
 11
-100
 21
165
  0
LINE
  8
0
 10
-100
 20
165
 11
-100
 21
154.8
  0
LINE
  8
0
 10
-100
 20
154.8
 11
-92.1
 21
154.8
  0
LINE
  8
0
 10
-92.1
 20
154.8
 11
-92.1
 21
139.2
  0
LINE
  8
0
 10
-92.1
 20
139.2
 11
-100
 21
139.2
  0
LINE
  8
0
 10
-100
 20
139.2
 11
-100
 21
135
  0
LINE
  8
0
 10
-100
 20
135
 11
-50.2
 21
135
  0
LINE
  8
0
 10
-50.2
 20
135
 11
-50.2
 21
131.6
  0
LINE
  8
0
 10
-50.2
 20
131.6
 11
50.2
 21
131.6
  0
LINE
  8
0
 10
50.2
 20
131.6
 11
50.2
 21
135
  0
LINE
  8
0
 10
450.2
 20
135
 11
500
 21
135
  0
LINE
  8
0
 10
500
 20
135
 11
500
 21
165
  0
LINE
  8
0
 10
500
 20
165
 11
497.8
 21
165
  0
LINE
  8
0
 10
497.8
 20
165
 11
497.8
 21
179.6
  0
LINE
  8
0
 10
497.8
 20
179.6
 11
500
 21
179.6
  0
LINE
  8
0
 10
500
 20
179.6
 11
500
 21
192
  0
LINE
  8
0
 10
500
 20
192
 11
300
 21
192
  0
LINE
  8
0
 10
300
 20
192
 11
300
 21
179.6
  0
LINE
  8
0
 10
300
 20
179.6
 11
302.2
 21
179.6
  0
LINE
  8
0
 10
302.2
 20
179.6
 11
302.2
 21
165
  0
LINE
  8
0
 10
302.2
 20
165
 11
300
 21
165
  0
LINE
  8
0
 10
300
 20
165
 11
300
 21
135
  0
LINE
  8
0
 10
300
 20
135
 11
349.8
 21
135
  0
LINE
  8
0
 10
349.8
 20
135
 11
349.8
 21
131.6
  0
LINE
  8
0
 10
349.8
 20
131.6
 11
450.2
 21
131.6
  0
LINE
  8
0
 10
450.2
 20
131.6
 11
450.2
 21
135
  0
LINE
  8
0
 10
399.009
 20
156.041
 11
398.025
 21
156.164
  0
LINE
  8
0
 10
398.025
 20
156.164
 11
397.054
 21
156.367
  0
LINE
  8
0
 10
397.054
 20
156.367
 11
396.104
 21
156.65
  0
LINE
  8
0
 10
396.104
 20
156.65
 11
395.18
 21
157.011
  0
LINE
  8
0
 10
395.18
 20
157.011
 11
394.289
 21
157.446
  0
LINE
  8
0
 10
394.289
 20
157.446
 11
393.437
 21
157.954
  0
LINE
  8
0
 10
393.437
 20
157.954
 11
392.629
 21
158.53
  0
LINE
  8
0
 10
392.629
 20
158.53
 11
391.873
 21
159.171
  0
LINE
  8
0
 10
391.873
 20
159.171
 11
391.171
 21
159.873
  0
LINE
  8
0
 10
391.171
 20
159.873
 11
390.53
 21
160.629
  0
LINE
  8
0
 10
390.53
 20
160.629
 11
389.954
 21
161.437
  0
LINE
  8
0
 10
389.954
 20
161.437
 11
389.446
 21
162.289
  0
LINE
  8
0
 10
389.446
 20
162.289
 11
389.011
 21
163.18
  0
LINE
  8
0
 10
389.011
 20
163.18
 11
388.65
 21
164.104
  0
LINE
  8
0
 10
388.65
 20
164.104
 11
388.367
 21
165.054
  0
LINE
  8
0
 10
388.367
 20
165.054
 11
388.164
 21
166.025
  0
LINE
  8
0
 10
388.164
 20
166.025
 11
388.041
 21
167.009
  0
LINE
  8
0
 10
388.041
 20
167.009
 11
388
 21
168
  0
LINE
  8
0
 10
388
 20
168
 11
388.041
 21
168.991
  0
LINE
  8
0
 10
388.041
 20
168.991
 11
388.164
 21
169.975
  0
LINE
  8
0
 10
388.164
 20
169.975
 11
388.367
 21
170.946
  0
LINE
  8
0
 10
388.367
 20
170.946
 11
388.65
 21
171.896
  0
LINE
  8
0
 10
388.65
 20
171.896
 11
389.011
 21
172.82
  0
LINE
  8
0
 10
389.011
 20
172.82
 11
389.446
 21
173.711
  0
LINE
  8
0
 10
389.446
 20
173.711
 11
389.954
 21
174.563
  0
LINE
  8
0
 10
389.954
 20
174.563
 11
390.53
 21
175.371
  0
LINE
  8
0
 10
390.53
 20
175.371
 11
391.171
 21
176.127
  0
LINE
  8
0
 10
391.171
 20
176.127
 11
391.873
 21
176.829
  0
LINE
  8
0
 10
391.873
 20
176.829
 11
392.629
 21
177.47
  0
LINE
  8
0
 10
392.629
 20
177.47
 11
393.437
 21
178.046
  0
LINE
  8
0
 10
393.437
 20
178.046
 11
394.289
 21
178.554
  0
LINE
  8
0
 10
394.289
 20
178.554
 11
395.18
 21
178.989
  0
LINE
  8
0
 10
395.18
 20
178.989
 11
396.104
 21
179.35
  0
LINE
  8
0
 10
396.104
 20
179.35
 11
397.054
 21
179.633
  0
LINE
  8
0
 10
397.054
 20
179.633
 11
398.025
 21
179.836
  0
LINE
  8
0
 10
398.025
 20
179.836
 11
399.009
 21
179.959
  0
LINE
  8
0
 10
399.009
 20
179.959
 11
400
 21
180
  0
LINE
  8
0
 10
400
 20
180
 11
400.991
 21
179.959
  0
LINE
  8
0
 10
400.991
 20
179.959
 11
401.975
 21
179.836
  0
LINE
  8
0
 10
401.975
 20
179.836
 11
402.946
 21
179.633
  0
LINE
  8
0
 10
402.946
 20
179.633
 11
403.896
 21
179.35
  0
LINE
  8
0
 10
403.896
 20
179.35
 11
404.82
 21
178.989
  0
LINE
  8
0
 10
404.82
 20
178.989
 11
405.711
 21
178.554
  0
LINE
  8
0
 10
405.711
 20
178.554
 11
406.563
 21
178.046
  0
LINE
  8
0
 10
406.563
 20
178.046
 11
407.371
 21
177.47
  0
LINE
  8
0
 10
407.371
 20
177.47
 11
408.127
 21
176.829
  0
LINE
  8
0
 10
408.127
 20
176.829
 11
408.829
 21
176.127
  0
LINE
  8
0
 10
408.829
 20
176.127
 11
409.47
 21
175.371
  0
LINE
  8
0
 10
409.47
 20
175.371
 11
410.046
 21
174.563
  0
LINE
  8
0
 10
410.046
 20
174.563
 11
410.554
 21
173.711
  0
LINE
  8
0
 10
410.554
 20
173.711
 11
410.989
 21
172.82
  0
LINE
  8
0
 10
410.989
 20
172.82
 11
411.35
 21
171.896
  0
LINE
  8
0
 10
411.35
 20
171.896
 11
411.633
 21
170.946
  0
LINE
  8
0
 10
411.633
 20
170.946
 11
411.836
 21
169.975
  0
LINE
  8
0
 10
411.836
 20
169.975
 11
411.959
 21
168.991
  0
LINE
  8
0
 10
411.959
 20
168.991
 11
412
 21
168
  0
LINE
  8
0
 10
412
 20
168
 11
411.959
 21
167.009
  0
LINE
  8
0
 10
411.959
 20
167.009
 11
411.836
 21
166.025
  0
LINE
  8
0
 10
411.836
 20
166.025
 11
411.633
 21
165.054
  0
LINE
  8
0
 10
411.633
 20
165.054
 11
411.35
 21
164.104
  0
LINE
  8
0
 10
411.35
 20
164.104
 11
410.989
 21
163.18
  0
LINE
  8
0
 10
410.989
 20
163.18
 11
410.554
 21
162.289
  0
LINE
  8
0
 10
410.554
 20
162.289
 11
410.046
 21
161.437
  0
LINE
  8
0
 10
410.046
 20
161.437
 11
409.47
 21
160.629
  0
LINE
  8
0
 10
409.47
 20
160.629
 11
408.829
 21
159.873
  0
LINE
  8
0
 10
408.829
 20
159.873
 11
408.127
 21
159.171
  0
LINE
  8
0
 10
408.127
 20
159.171
 11
407.371
 21
158.53
  0
LINE
  8
0
 10
407.371
 20
158.53
 11
406.563
 21
157.954
  0
LINE
  8
0
 10
406.563
 20
157.954
 11
405.711
 21
157.446
  0
LINE
  8
0
 10
405.711
 20
157.446
 11
404.82
 21
157.011
  0
LINE
  8
0
 10
404.82
 20
157.011
 11
403.896
 21
156.65
  0
LINE
  8
0
 10
403.896
 20
156.65
 11
402.946
 21
156.367
  0
LINE
  8
0
 10
402.946
 20
156.367
 11
401.975
 21
156.164
  0
LINE
  8
0
 10
401.975
 20
156.164
 11
400.991
 21
156.041
  0
LINE
  8
0
 10
400.991
 20
156.041
 11
400
 21
156
  0
LINE
  8
0
 10
400
 20
156
 11
399.009
 21
156.041
  0
LINE
  8
0
 10
-140
 20
-122
 11
-130
 21
-122
  0
LINE
  8
0
 10
-130
 20
-122
 11
-130
 21
-117.1
  0
LINE
  8
0
 10
-130
 20
-117.1
 11
-114
 21
-117.1
  0
LINE
  8
0
 10
-114
 20
-117.1
 11
-114
 21
-122
  0
LINE
  8
0
 10
-114
 20
-122
 11
-110
 21
-122
  0
LINE
  8
0
 10
-110
 20
-122
 11
-110
 21
-50.2
  0
LINE
  8
0
 10
-110
 20
-50.2
 11
-106.6
 21
-50.2
  0
LINE
  8
0
 10
-106.6
 20
-50.2
 11
-106.6
 21
50.2
  0
LINE
  8
0
 10
-106.6
 20
50.2
 11
-110
 21
50.2
  0
LINE
  8
0
 10
-110
 20
50.2
 11
-110
 21
122
  0
LINE
  8
0
 10
-110
 20
122
 11
-114
 21
122
  0
LINE
  8
0
 10
-114
 20
122
 11
-114
 21
125.2
  0
LINE
  8
0
 10
-114
 20
125.2
 11
-130
 21
125.2
  0
LINE
  8
0
 10
-130
 20
125.2
 11
-130
 21
122
  0
LINE
  8
0
 10
-130
 20
122
 11
-140
 21
122
  0
LINE
  8
0
 10
-140
 20
122
 11
-140
 21
125
  0
LINE
  8
0
 10
-140
 20
125
 11
-155
 21
125
  0
LINE
  8
0
 10
-155
 20
125
 11
-155
 21
122
  0
LINE
  8
0
 10
-155
 20
122
 11
-167
 21
122
  0
LINE
  8
0
 10
-167
 20
122
 11
-167
 21
-122
  0
LINE
  8
0
 10
-167
 20
-122
 11
-155
 21
-122
  0
LINE
  8
0
 10
-155
 20
-122
 11
-155
 21
-125
  0
LINE
  8
0
 10
-155
 20
-125
 11
-140
 21
-125
  0
LINE
  8
0
 10
-140
 20
-125
 11
-140
 21
-122
  0
LINE
  8
0
 10
-143.991
 20
13.041
 11
-144.975
 21
13.1637
  0
LINE
  8
0
 10
-144.975
 20
13.1637
 11
-145.946
 21
13.3672
  0
LINE
  8
0
 10
-145.946
 20
13.3672
 11
-146.896
 21
13.6502
  0
LINE
  8
0
 10
-146.896
 20
13.6502
 11
-147.82
 21
14.0107
  0
LINE
  8
0
 10
-147.82
 20
14.0107
 11
-148.711
 21
14.4463
  0
LINE
  8
0
 10
-148.711
 20
14.4463
 11
-149.563
 21
14.954
  0
LINE
  8
0
 10
-149.563
 20
14.954
 11
-150.371
 21
15.5303
  0
LINE
  8
0
 10
-150.371
 20
15.5303
 11
-151.127
 21
16.1713
  0
LINE
  8
0
 10
-151.127
 20
16.1713
 11
-151.829
 21
16.8726
  0
LINE
  8
0
 10
-151.829
 20
16.8726
 11
-152.47
 21
17.6294
  0
LINE
  8
0
 10
-152.47
 20
17.6294
 11
-153.046
 21
18.4366
  0
LINE
  8
0
 10
-153.046
 20
18.4366
 11
-153.554
 21
19.2886
  0
LINE
  8
0
 10
-153.554
 20
19.2886
 11
-153.989
 21
20.1796
  0
LINE
  8
0
 10
-153.989
 20
20.1796
 11
-154.35
 21
21.1036
  0
LINE
  8
0
 10
-154.35
 20
21.1036
 11
-154.633
 21
22.0542
  0
LINE
  8
0
 10
-154.633
 20
22.0542
 11
-154.836
 21
23.0249
  0
LINE
  8
0
 10
-154.836
 20
23.0249
 11
-154.959
 21
24.009
  0
LINE
  8
0
 10
-154.959
 20
24.009
 11
-155
 21
25
  0
LINE
  8
0
 10
-155
 20
25
 11
-154.959
 21
25.991
  0
LINE
  8
0
 10
-154.959
 20
25.991
 11
-154.836
 21
26.9751
  0
LINE
  8
0
 10
-154.836
 20
26.9751
 11
-154.633
 21
27.9458
  0
LINE
  8
0
 10
-154.633
 20
27.9458
 11
-154.35
 21
28.8964
  0
LINE
  8
0
 10
-154.35
 20
28.8964
 11
-153.989
 21
29.8203
  0
LINE
  8
0
 10
-153.989
 20
29.8203
 11
-153.554
 21
30.7114
  0
LINE
  8
0
 10
-153.554
 20
30.7114
 11
-153.046
 21
31.5634
  0
LINE
  8
0
 10
-153.046
 20
31.5634
 11
-152.47
 21
32.3705
  0
LINE
  8
0
 10
-152.47
 20
32.3705
 11
-151.829
 21
33.1274
  0
LINE
  8
0
 10
-151.829
 20
33.1274
 11
-151.127
 21
33.8287
  0
LINE
  8
0
 10
-151.127
 20
33.8287
 11
-150.371
 21
34.4697
  0
LINE
  8
0
 10
-150.371
 20
34.4697
 11
-149.563
 21
35.046
  0
LINE
  8
0
 10
-149.563
 20
35.046
 11
-148.711
 21
35.5537
  0
LINE
  8
0
 10
-148.711
 20
35.5537
 11
-147.82
 21
35.9893
  0
LINE
  8
0
 10
-147.82
 20
35.9893
 11
-146.896
 21
36.3498
  0
LINE
  8
0
 10
-146.896
 20
36.3498
 11
-145.946
 21
36.6328
  0
LINE
  8
0
 10
-145.946
 20
36.6328
 11
-144.975
 21
36.8363
  0
LINE
  8
0
 10
-144.975
 20
36.8363
 11
-143.991
 21
36.959
  0
LINE
  8
0
 10
-143.991
 20
36.959
 11
-143
 21
37
  0
LINE
  8
0
 10
-143
 20
37
 11
-142.009
 21
36.959
  0
LINE
  8
0
 10
-142.009
 20
36.959
 11
-141.025
 21
36.8363
  0
LINE
  8
0
 10
-141.025
 20
36.8363
 11
-140.054
 21
36.6328
  0
LINE
  8
0
 10
-140.054
 20
36.6328
 11
-139.104
 21
36.3498
  0
LINE
  8
0
 10
-139.104
 20
36.3498
 11
-138.18
 21
35.9893
  0
LINE
  8
0
 10
-138.18
 20
35.9893
 11
-137.289
 21
35.5537
  0
LINE
  8
0
 10
-137.289
 20
35.5537
 11
-136.437
 21
35.046
  0
LINE
  8
0
 10
-136.437
 20
35.046
 11
-135.629
 21
34.4697
  0
LINE
  8
0
 10
-135.629
 20
34.4697
 11
-134.873
 21
33.8287
  0
LINE
  8
0
 10
-134.873
 20
33.8287
 11
-134.171
 21
33.1274
  0
LINE
  8
0
 10
-134.171
 20
33.1274
 11
-133.53
 21
32.3705
  0
LINE
  8
0
 10
-133.53
 20
32.3705
 11
-132.954
 21
31.5634
  0
LINE
  8
0
 10
-132.954
 20
31.5634
 11
-132.446
 21
30.7114
  0
LINE
  8
0
 10
-132.446
 20
30.7114
 11
-132.011
 21
29.8203
  0
LINE
  8
0
 10
-132.011
 20
29.8203
 11
-131.65
 21
28.8964
  0
LINE
  8
0
 10
-131.65
 20
28.8964
 11
-131.367
 21
27.9458
  0
LINE
  8
0
 10
-131.367
 20
27.9458
 11
-131.164
 21
26.9751
  0
LINE
  8
0
 10
-131.164
 20
26.9751
 11
-131.041
 21
25.991
  0
LINE
  8
0
 10
-131.041
 20
25.991
 11
-131
 21
25
  0
LINE
  8
0
 10
-131
 20
25
 11
-131.041
 21
24.009
  0
LINE
  8
0
 10
-131.041
 20
24.009
 11
-131.164
 21
23.0249
  0
LINE
  8
0
 10
-131.164
 20
23.0249
 11
-131.367
 21
22.0542
  0
LINE
  8
0
 10
-131.367
 20
22.0542
 11
-131.65
 21
21.1036
  0
LINE
  8
0
 10
-131.65
 20
21.1036
 11
-132.011
 21
20.1796
  0
LINE
  8
0
 10
-132.011
 20
20.1796
 11
-132.446
 21
19.2886
  0
LINE
  8
0
 10
-132.446
 20
19.2886
 11
-132.954
 21
18.4366
  0
LINE
  8
0
 10
-132.954
 20
18.4366
 11
-133.53
 21
17.6294
  0
LINE
  8
0
 10
-133.53
 20
17.6294
 11
-134.171
 21
16.8726
  0
LINE
  8
0
 10
-134.171
 20
16.8726
 11
-134.873
 21
16.1713
  0
LINE
  8
0
 10
-134.873
 20
16.1713
 11
-135.629
 21
15.5303
  0
LINE
  8
0
 10
-135.629
 20
15.5303
 11
-136.437
 21
14.954
  0
LINE
  8
0
 10
-136.437
 20
14.954
 11
-137.289
 21
14.4463
  0
LINE
  8
0
 10
-137.289
 20
14.4463
 11
-138.18
 21
14.0107
  0
LINE
  8
0
 10
-138.18
 20
14.0107
 11
-139.104
 21
13.6502
  0
LINE
  8
0
 10
-139.104
 20
13.6502
 11
-140.054
 21
13.3672
  0
LINE
  8
0
 10
-140.054
 20
13.3672
 11
-141.025
 21
13.1637
  0
LINE
  8
0
 10
-141.025
 20
13.1637
 11
-142.009
 21
13.041
  0
LINE
  8
0
 10
-142.009
 20
13.041
 11
-143
 21
13
  0
LINE
  8
0
 10
-143
 20
13
 11
-143.991
 21
13.041
  0
LINE
  8
0
 10
-130
 20
-95
 11
-130
 21
-75
  0
LINE
  8
0
 10
-130
 20
-75
 11
-114
 21
-75
  0
LINE
  8
0
 10
-114
 20
-75
 11
-114
 21
-95
  0
LINE
  8
0
 10
-114
 20
-95
 11
-130
 21
-95
  0
LINE
  8
0
 10
555
 20
-122
 11
567
 21
-122
  0
LINE
  8
0
 10
567
 20
-122
 11
567
 21
122
  0
LINE
  8
0
 10
567
 20
122
 11
555
 21
122
  0
LINE
  8
0
 10
555
 20
122
 11
555
 21
125
  0
LINE
  8
0
 10
555
 20
125
 11
540
 21
125
  0
LINE
  8
0
 10
540
 20
125
 11
540
 21
122
  0
LINE
  8
0
 10
540
 20
122
 11
530
 21
122
  0
LINE
  8
0
 10
530
 20
122
 11
530
 21
117.1
  0
LINE
  8
0
 10
530
 20
117.1
 11
514
 21
117.1
  0
LINE
  8
0
 10
514
 20
117.1
 11
514
 21
122
  0
LINE
  8
0
 10
514
 20
122
 11
510
 21
122
  0
LINE
  8
0
 10
510
 20
122
 11
510
 21
50.2
  0
LINE
  8
0
 10
510
 20
50.2
 11
506.6
 21
50.2
  0
LINE
  8
0
 10
506.6
 20
50.2
 11
506.6
 21
-50.2
  0
LINE
  8
0
 10
506.6
 20
-50.2
 11
510
 21
-50.2
  0
LINE
  8
0
 10
510
 20
-50.2
 11
510
 21
-122
  0
LINE
  8
0
 10
510
 20
-122
 11
514
 21
-122
  0
LINE
  8
0
 10
514
 20
-122
 11
514
 21
-117.1
  0
LINE
  8
0
 10
514
 20
-117.1
 11
530
 21
-117.1
  0
LINE
  8
0
 10
530
 20
-117.1
 11
530
 21
-122
  0
LINE
  8
0
 10
530
 20
-122
 11
540
 21
-122
  0
LINE
  8
0
 10
540
 20
-122
 11
540
 21
-125
  0
LINE
  8
0
 10
540
 20
-125
 11
555
 21
-125
  0
LINE
  8
0
 10
555
 20
-125
 11
555
 21
-122
  0
LINE
  8
0
 10
349.8
 20
-122.2
 11
450.2
 21
-122.2
  0
LINE
  8
0
 10
450.2
 20
-122.2
 11
450.2
 21
-125
  0
LINE
  8
0
 10
450.2
 20
-125
 11
500
 21
-125
  0
LINE
  8
0
 10
500
 20
-125
 11
500
 21
-50.2
  0
LINE
  8
0
 10
500
 20
-50.2
 11
497.2
 21
-50.2
  0
LINE
  8
0
 10
497.2
 20
-50.2
 11
497.2
 21
50.2
  0
LINE
  8
0
 10
497.2
 20
50.2
 11
500
 21
50.2
  0
LINE
  8
0
 10
500
 20
50.2
 11
500
 21
125
  0
LINE
  8
0
 10
500
 20
125
 11
450.2
 21
125
  0
LINE
  8
0
 10
450.2
 20
125
 11
450.2
 21
122.2
  0
LINE
  8
0
 10
450.2
 20
122.2
 11
349.8
 21
122.2
  0
LINE
  8
0
 10
349.8
 20
122.2
 11
349.8
 21
125
  0
LINE
  8
0
 10
349.8
 20
125
 11
300
 21
125
  0
LINE
  8
0
 10
300
 20
125
 11
300
 21
50.2
  0
LINE
  8
0
 10
300
 20
50.2
 11
302.8
 21
50.2
  0
LINE
  8
0
 10
302.8
 20
50.2
 11
302.8
 21
-50.2
  0
LINE
  8
0
 10
302.8
 20
-50.2
 11
300
 21
-50.2
  0
LINE
  8
0
 10
300
 20
-50.2
 11
300
 21
-125
  0
LINE
  8
0
 10
300
 20
-125
 11
349.8
 21
-125
  0
LINE
  8
0
 10
349.8
 20
-125
 11
349.8
 21
-122.2
  0
LINE
  8
0
 10
155
 20
-122
 11
167
 21
-122
  0
LINE
  8
0
 10
167
 20
-122
 11
167
 21
122
  0
LINE
  8
0
 10
167
 20
122
 11
155
 21
122
  0
LINE
  8
0
 10
155
 20
122
 11
155
 21
125
  0
LINE
  8
0
 10
155
 20
125
 11
140
 21
125
  0
LINE
  8
0
 10
140
 20
125
 11
140
 21
122
  0
LINE
  8
0
 10
140
 20
122
 11
110
 21
122
  0
LINE
  8
0
 10
110
 20
122
 11
110
 21
50.2
  0
LINE
  8
0
 10
110
 20
50.2
 11
106.6
 21
50.2
  0
LINE
  8
0
 10
106.6
 20
50.2
 11
106.6
 21
-50.2
  0
LINE
  8
0
 10
106.6
 20
-50.2
 11
110
 21
-50.2
  0
LINE
  8
0
 10
110
 20
-50.2
 11
110
 21
-122
  0
LINE
  8
0
 10
110
 20
-122
 11
114
 21
-122
  0
LINE
  8
0
 10
114
 20
-122
 11
114
 21
-117.1
  0
LINE
  8
0
 10
114
 20
-117.1
 11
130
 21
-117.1
  0
LINE
  8
0
 10
130
 20
-117.1
 11
130
 21
-122
  0
LINE
  8
0
 10
130
 20
-122
 11
140
 21
-122
  0
LINE
  8
0
 10
140
 20
-122
 11
140
 21
-125
  0
LINE
  8
0
 10
140
 20
-125
 11
155
 21
-125
  0
LINE
  8
0
 10
155
 20
-125
 11
155
 21
-122
  0
LINE
  8
0
 10
-50.2
 20
-122.2
 11
50.2
 21
-122.2
  0
LINE
  8
0
 10
50.2
 20
-122.2
 11
50.2
 21
-125
  0
LINE
  8
0
 10
50.2
 20
-125
 11
100
 21
-125
  0
LINE
  8
0
 10
100
 20
-125
 11
100
 21
-50.2
  0
LINE
  8
0
 10
100
 20
-50.2
 11
97.2
 21
-50.2
  0
LINE
  8
0
 10
97.2
 20
-50.2
 11
97.2
 21
50.2
  0
LINE
  8
0
 10
97.2
 20
50.2
 11
100
 21
50.2
  0
LINE
  8
0
 10
100
 20
50.2
 11
100
 21
125
  0
LINE
  8
0
 10
100
 20
125
 11
50.2
 21
125
  0
LINE
  8
0
 10
50.2
 20
125
 11
50.2
 21
122.2
  0
LINE
  8
0
 10
50.2
 20
122.2
 11
-50.2
 21
122.2
  0
LINE
  8
0
 10
-50.2
 20
122.2
 11
-50.2
 21
125
  0
LINE
  8
0
 10
-50.2
 20
125
 11
-100
 21
125
  0
LINE
  8
0
 10
-100
 20
125
 11
-100
 21
50.2
  0
LINE
  8
0
 10
-100
 20
50.2
 11
-97.2
 21
50.2
  0
LINE
  8
0
 10
-97.2
 20
50.2
 11
-97.2
 21
-50.2
  0
LINE
  8
0
 10
-97.2
 20
-50.2
 11
-100
 21
-50.2
  0
LINE
  8
0
 10
-100
 20
-50.2
 11
-100
 21
-125
  0
LINE
  8
0
 10
-100
 20
-125
 11
-50.2
 21
-125
  0
LINE
  8
0
 10
-50.2
 20
-125
 11
-50.2
 21
-122.2
  0
LINE
  8
0
 10
260
 20
-122
 11
270
 21
-122
  0
LINE
  8
0
 10
270
 20
-122
 11
270
 21
-117.1
  0
LINE
  8
0
 10
270
 20
-117.1
 11
286
 21
-117.1
  0
LINE
  8
0
 10
286
 20
-117.1
 11
286
 21
-122
  0
LINE
  8
0
 10
286
 20
-122
 11
290
 21
-122
  0
LINE
  8
0
 10
290
 20
-122
 11
290
 21
-50.2
  0
LINE
  8
0
 10
290
 20
-50.2
 11
293.4
 21
-50.2
  0
LINE
  8
0
 10
293.4
 20
-50.2
 11
293.4
 21
50.2
  0
LINE
  8
0
 10
293.4
 20
50.2
 11
290
 21
50.2
  0
LINE
  8
0
 10
290
 20
50.2
 11
290
 21
122
  0
LINE
  8
0
 10
290
 20
122
 11
286
 21
122
  0
LINE
  8
0
 10
286
 20
122
 11
286
 21
117.1
  0
LINE
  8
0
 10
286
 20
117.1
 11
270
 21
117.1
  0
LINE
  8
0
 10
270
 20
117.1
 11
270
 21
122
  0
LINE
  8
0
 10
270
 20
122
 11
260
 21
122
  0
LINE
  8
0
 10
260
 20
122
 11
260
 21
125
  0
LINE
  8
0
 10
260
 20
125
 11
245
 21
125
  0
LINE
  8
0
 10
245
 20
125
 11
245
 21
122
  0
LINE
  8
0
 10
245
 20
122
 11
233
 21
122
  0
LINE
  8
0
 10
233
 20
122
 11
233
 21
-122
  0
LINE
  8
0
 10
233
 20
-122
 11
245
 21
-122
  0
LINE
  8
0
 10
245
 20
-122
 11
245
 21
-125
  0
LINE
  8
0
 10
245
 20
-125
 11
260
 21
-125
  0
LINE
  8
0
 10
260
 20
-125
 11
260
 21
-122
  0
LINE
  8
0
 10
100
 20
-179.6
 11
97.8
 21
-179.6
  0
LINE
  8
0
 10
97.8
 20
-179.6
 11
97.8
 21
-165
  0
LINE
  8
0
 10
97.8
 20
-165
 11
100
 21
-165
  0
LINE
  8
0
 10
100
 20
-165
 11
100
 21
-135
  0
LINE
  8
0
 10
100
 20
-135
 11
50.2
 21
-135
  0
LINE
  8
0
 10
50.2
 20
-135
 11
50.2
 21
-131.6
  0
LINE
  8
0
 10
50.2
 20
-131.6
 11
-50.2
 21
-131.6
  0
LINE
  8
0
 10
-50.2
 20
-131.6
 11
-50.2
 21
-135
  0
LINE
  8
0
 10
-50.2
 20
-135
 11
-100
 21
-135
  0
LINE
  8
0
 10
-100
 20
-135
 11
-100
 21
-165
  0
LINE
  8
0
 10
-100
 20
-165
 11
-97.8
 21
-165
  0
LINE
  8
0
 10
-97.8
 20
-165
 11
-97.8
 21
-179.6
  0
LINE
  8
0
 10
-97.8
 20
-179.6
 11
-100
 21
-179.6
  0
LINE
  8
0
 10
-100
 20
-179.6
 11
-100
 21
-192
  0
LINE
  8
0
 10
-100
 20
-192
 11
100
 21
-192
  0
LINE
  8
0
 10
100
 20
-192
 11
100
 21
-179.6
  0
LINE
  8
0
 10
-0.990952
 20
-179.959
 11
-1.97513
 21
-179.836
  0
LINE
  8
0
 10
-1.97513
 20
-179.836
 11
-2.94582
 21
-179.633
  0
LINE
  8
0
 10
-2.94582
 20
-179.633
 11
-3.89639
 21
-179.35
  0
LINE
  8
0
 10
-3.89639
 20
-179.35
 11
-4.82034
 21
-178.989
  0
LINE
  8
0
 10
-4.82034
 20
-178.989
 11
-5.71136
 21
-178.554
  0
LINE
  8
0
 10
-5.71136
 20
-178.554
 11
-6.56337
 21
-178.046
  0
LINE
  8
0
 10
-6.56337
 20
-178.046
 11
-7.37054
 21
-177.47
  0
LINE
  8
0
 10
-7.37054
 20
-177.47
 11
-8.12737
 21
-176.829
  0
LINE
  8
0
 10
-8.12737
 20
-176.829
 11
-8.82867
 21
-176.127
  0
LINE
  8
0
 10
-8.82867
 20
-176.127
 11
-9.46968
 21
-175.371
  0
LINE
  8
0
 10
-9.46968
 20
-175.371
 11
-10.046
 21
-174.563
  0
LINE
  8
0
 10
-10.046
 20
-174.563
 11
-10.5537
 21
-173.711
  0
LINE
  8
0
 10
-10.5537
 20
-173.711
 11
-10.9893
 21
-172.82
  0
LINE
  8
0
 10
-10.9893
 20
-172.82
 11
-11.3498
 21
-171.896
  0
LINE
  8
0
 10
-11.3498
 20
-171.896
 11
-11.6328
 21
-170.946
  0
LINE
  8
0
 10
-11.6328
 20
-170.946
 11
-11.8363
 21
-169.975
  0
LINE
  8
0
 10
-11.8363
 20
-169.975
 11
-11.959
 21
-168.991
  0
LINE
  8
0
 10
-11.959
 20
-168.991
 11
-12
 21
-168
  0
LINE
  8
0
 10
-12
 20
-168
 11
-11.959
 21
-167.009
  0
LINE
  8
0
 10
-11.959
 20
-167.009
 11
-11.8363
 21
-166.025
  0
LINE
  8
0
 10
-11.8363
 20
-166.025
 11
-11.6328
 21
-165.054
  0
LINE
  8
0
 10
-11.6328
 20
-165.054
 11
-11.3498
 21
-164.104
  0
LINE
  8
0
 10
-11.3498
 20
-164.104
 11
-10.9893
 21
-163.18
  0
LINE
  8
0
 10
-10.9893
 20
-163.18
 11
-10.5537
 21
-162.289
  0
LINE
  8
0
 10
-10.5537
 20
-162.289
 11
-10.046
 21
-161.437
  0
LINE
  8
0
 10
-10.046
 20
-161.437
 11
-9.46968
 21
-160.629
  0
LINE
  8
0
 10
-9.46968
 20
-160.629
 11
-8.82867
 21
-159.873
  0
LINE
  8
0
 10
-8.82867
 20
-159.873
 11
-8.12737
 21
-159.171
  0
LINE
  8
0
 10
-8.12737
 20
-159.171
 11
-7.37054
 21
-158.53
  0
LINE
  8
0
 10
-7.37054
 20
-158.53
 11
-6.56337
 21
-157.954
  0
LINE
  8
0
 10
-6.56337
 20
-157.954
 11
-5.71136
 21
-157.446
  0
LINE
  8
0
 10
-5.71136
 20
-157.446
 11
-4.82034
 21
-157.011
  0
LINE
  8
0
 10
-4.82034
 20
-157.011
 11
-3.89639
 21
-156.65
  0
LINE
  8
0
 10
-3.89639
 20
-156.65
 11
-2.94582
 21
-156.367
  0
LINE
  8
0
 10
-2.94582
 20
-156.367
 11
-1.97513
 21
-156.164
  0
LINE
  8
0
 10
-1.97513
 20
-156.164
 11
-0.990952
 21
-156.041
  0
LINE
  8
0
 10
-0.990952
 20
-156.041
 11
0
 21
-156
  0
LINE
  8
0
 10
0
 20
-156
 11
0.990952
 21
-156.041
  0
LINE
  8
0
 10
0.990952
 20
-156.041
 11
1.97513
 21
-156.164
  0
LINE
  8
0
 10
1.97513
 20
-156.164
 11
2.94582
 21
-156.367
  0
LINE
  8
0
 10
2.94582
 20
-156.367
 11
3.89639
 21
-156.65
  0
LINE
  8
0
 10
3.89639
 20
-156.65
 11
4.82034
 21
-157.011
  0
LINE
  8
0
 10
4.82034
 20
-157.011
 11
5.71136
 21
-157.446
  0
LINE
  8
0
 10
5.71136
 20
-157.446
 11
6.56337
 21
-157.954
  0
LINE
  8
0
 10
6.56337
 20
-157.954
 11
7.37054
 21
-158.53
  0
LINE
  8
0
 10
7.37054
 20
-158.53
 11
8.12737
 21
-159.171
  0
LINE
  8
0
 10
8.12737
 20
-159.171
 11
8.82867
 21
-159.873
  0
LINE
  8
0
 10
8.82867
 20
-159.873
 11
9.46968
 21
-160.629
  0
LINE
  8
0
 10
9.46968
 20
-160.629
 11
10.046
 21
-161.437
  0
LINE
  8
0
 10
10.046
 20
-161.437
 11
10.5537
 21
-162.289
  0
LINE
  8
0
 10
10.5537
 20
-162.289
 11
10.9893
 21
-163.18
  0
LINE
  8
0
 10
10.9893
 20
-163.18
 11
11.3498
 21
-164.104
  0
LINE
  8
0
 10
11.3498
 20
-164.104
 11
11.6328
 21
-165.054
  0
LINE
  8
0
 10
11.6328
 20
-165.054
 11
11.8363
 21
-166.025
  0
LINE
  8
0
 10
11.8363
 20
-166.025
 11
11.959
 21
-167.009
  0
LINE
  8
0
 10
11.959
 20
-167.009
 11
12
 21
-168
  0
LINE
  8
0
 10
12
 20
-168
 11
11.959
 21
-168.991
  0
LINE
  8
0
 10
11.959
 20
-168.991
 11
11.8363
 21
-169.975
  0
LINE
  8
0
 10
11.8363
 20
-169.975
 11
11.6328
 21
-170.946
  0
LINE
  8
0
 10
11.6328
 20
-170.946
 11
11.3498
 21
-171.896
  0
LINE
  8
0
 10
11.3498
 20
-171.896
 11
10.9893
 21
-172.82
  0
LINE
  8
0
 10
10.9893
 20
-172.82
 11
10.5537
 21
-173.711
  0
LINE
  8
0
 10
10.5537
 20
-173.711
 11
10.046
 21
-174.563
  0
LINE
  8
0
 10
10.046
 20
-174.563
 11
9.46968
 21
-175.371
  0
LINE
  8
0
 10
9.46968
 20
-175.371
 11
8.82867
 21
-176.127
  0
LINE
  8
0
 10
8.82867
 20
-176.127
 11
8.12737
 21
-176.829
  0
LINE
  8
0
 10
8.12737
 20
-176.829
 11
7.37054
 21
-177.47
  0
LINE
  8
0
 10
7.37054
 20
-177.47
 11
6.56337
 21
-178.046
  0
LINE
  8
0
 10
6.56337
 20
-178.046
 11
5.71136
 21
-178.554
  0
LINE
  8
0
 10
5.71136
 20
-178.554
 11
4.82034
 21
-178.989
  0
LINE
  8
0
 10
4.82034
 20
-178.989
 11
3.89639
 21
-179.35
  0
LINE
  8
0
 10
3.89639
 20
-179.35
 11
2.94582
 21
-179.633
  0
LINE
  8
0
 10
2.94582
 20
-179.633
 11
1.97513
 21
-179.836
  0
LINE
  8
0
 10
1.97513
 20
-179.836
 11
0.990952
 21
-179.959
  0
LINE
  8
0
 10
0.990952
 20
-179.959
 11
0
 21
-180
  0
LINE
  8
0
 10
0
 20
-180
 11
-0.990952
 21
-179.959
  0
LINE
  8
0
 10
500
 20
-179.6
 11
497.8
 21
-179.6
  0
LINE
  8
0
 10
497.8
 20
-179.6
 11
497.8
 21
-165
  0
LINE
  8
0
 10
497.8
 20
-165
 11
500
 21
-165
  0
LINE
  8
0
 10
500
 20
-165
 11
500
 21
-135
  0
LINE
  8
0
 10
500
 20
-135
 11
450.2
 21
-135
  0
LINE
  8
0
 10
450.2
 20
-135
 11
450.2
 21
-131.6
  0
LINE
  8
0
 10
450.2
 20
-131.6
 11
349.8
 21
-131.6
  0
LINE
  8
0
 10
349.8
 20
-131.6
 11
349.8
 21
-135
  0
LINE
  8
0
 10
349.8
 20
-135
 11
300
 21
-135
  0
LINE
  8
0
 10
300
 20
-135
 11
300
 21
-165
  0
LINE
  8
0
 10
300
 20
-165
 11
302.2
 21
-165
  0
LINE
  8
0
 10
302.2
 20
-165
 11
302.2
 21
-179.6
  0
LINE
  8
0
 10
302.2
 20
-179.6
 11
300
 21
-179.6
  0
LINE
  8
0
 10
300
 20
-179.6
 11
300
 21
-192
  0
LINE
  8
0
 10
300
 20
-192
 11
500
 21
-192
  0
LINE
  8
0
 10
500
 20
-192
 11
500
 21
-179.6
  0
LINE
  8
0
 10
399.009
 20
-179.959
 11
398.025
 21
-179.836
  0
LINE
  8
0
 10
398.025
 20
-179.836
 11
397.054
 21
-179.633
  0
LINE
  8
0
 10
397.054
 20
-179.633
 11
396.104
 21
-179.35
  0
LINE
  8
0
 10
396.104
 20
-179.35
 11
395.18
 21
-178.989
  0
LINE
  8
0
 10
395.18
 20
-178.989
 11
394.289
 21
-178.554
  0
LINE
  8
0
 10
394.289
 20
-178.554
 11
393.437
 21
-178.046
  0
LINE
  8
0
 10
393.437
 20
-178.046
 11
392.629
 21
-177.47
  0
LINE
  8
0
 10
392.629
 20
-177.47
 11
391.873
 21
-176.829
  0
LINE
  8
0
 10
391.873
 20
-176.829
 11
391.171
 21
-176.127
  0
LINE
  8
0
 10
391.171
 20
-176.127
 11
390.53
 21
-175.371
  0
LINE
  8
0
 10
390.53
 20
-175.371
 11
389.954
 21
-174.563
  0
LINE
  8
0
 10
389.954
 20
-174.563
 11
389.446
 21
-173.711
  0
LINE
  8
0
 10
389.446
 20
-173.711
 11
389.011
 21
-172.82
  0
LINE
  8
0
 10
389.011
 20
-172.82
 11
388.65
 21
-171.896
  0
LINE
  8
0
 10
388.65
 20
-171.896
 11
388.367
 21
-170.946
  0
LINE
  8
0
 10
388.367
 20
-170.946
 11
388.164
 21
-169.975
  0
LINE
  8
0
 10
388.164
 20
-169.975
 11
388.041
 21
-168.991
  0
LINE
  8
0
 10
388.041
 20
-168.991
 11
388
 21
-168
  0
LINE
  8
0
 10
388
 20
-168
 11
388.041
 21
-167.009
  0
LINE
  8
0
 10
388.041
 20
-167.009
 11
388.164
 21
-166.025
  0
LINE
  8
0
 10
388.164
 20
-166.025
 11
388.367
 21
-165.054
  0
LINE
  8
0
 10
388.367
 20
-165.054
 11
388.65
 21
-164.104
  0
LINE
  8
0
 10
388.65
 20
-164.104
 11
389.011
 21
-163.18
  0
LINE
  8
0
 10
389.011
 20
-163.18
 11
389.446
 21
-162.289
  0
LINE
  8
0
 10
389.446
 20
-162.289
 11
389.954
 21
-161.437
  0
LINE
  8
0
 10
389.954
 20
-161.437
 11
390.53
 21
-160.629
  0
LINE
  8
0
 10
390.53
 20
-160.629
 11
391.171
 21
-159.873
  0
LINE
  8
0
 10
391.171
 20
-159.873
 11
391.873
 21
-159.171
  0
LINE
  8
0
 10
391.873
 20
-159.171
 11
392.629
 21
-158.53
  0
LINE
  8
0
 10
392.629
 20
-158.53
 11
393.437
 21
-157.954
  0
LINE
  8
0
 10
393.437
 20
-157.954
 11
394.289
 21
-157.446
  0
LINE
  8
0
 10
394.289
 20
-157.446
 11
395.18
 21
-157.011
  0
LINE
  8
0
 10
395.18
 20
-157.011
 11
396.104
 21
-156.65
  0
LINE
  8
0
 10
396.104
 20
-156.65
 11
397.054
 21
-156.367
  0
LINE
  8
0
 10
397.054
 20
-156.367
 11
398.025
 21
-156.164
  0
LINE
  8
0
 10
398.025
 20
-156.164
 11
399.009
 21
-156.041
  0
LINE
  8
0
 10
399.009
 20
-156.041
 11
400
 21
-156
  0
LINE
  8
0
 10
400
 20
-156
 11
400.991
 21
-156.041
  0
LINE
  8
0
 10
400.991
 20
-156.041
 11
401.975
 21
-156.164
  0
LINE
  8
0
 10
401.975
 20
-156.164
 11
402.946
 21
-156.367
  0
LINE
  8
0
 10
402.946
 20
-156.367
 11
403.896
 21
-156.65
  0
LINE
  8
0
 10
403.896
 20
-156.65
 11
404.82
 21
-157.011
  0
LINE
  8
0
 10
404.82
 20
-157.011
 11
405.711
 21
-157.446
  0
LINE
  8
0
 10
405.711
 20
-157.446
 11
406.563
 21
-157.954
  0
LINE
  8
0
 10
406.563
 20
-157.954
 11
407.371
 21
-158.53
  0
LINE
  8
0
 10
407.371
 20
-158.53
 11
408.127
 21
-159.171
  0
LINE
  8
0
 10
408.127
 20
-159.171
 11
408.829
 21
-159.873
  0
LINE
  8
0
 10
408.829
 20
-159.873
 11
409.47
 21
-160.629
  0
LINE
  8
0
 10
409.47
 20
-160.629
 11
410.046
 21
-161.437
  0
LINE
  8
0
 10
410.046
 20
-161.437
 11
410.554
 21
-162.289
  0
LINE
  8
0
 10
410.554
 20
-162.289
 11
410.989
 21
-163.18
  0
LINE
  8
0
 10
410.989
 20
-163.18
 11
411.35
 21
-164.104
  0
LINE
  8
0
 10
411.35
 20
-164.104
 11
411.633
 21
-165.054
  0
LINE
  8
0
 10
411.633
 20
-165.054
 11
411.836
 21
-166.025
  0
LINE
  8
0
 10
411.836
 20
-166.025
 11
411.959
 21
-167.009
  0
LINE
  8
0
 10
411.959
 20
-167.009
 11
412
 21
-168
  0
LINE
  8
0
 10
412
 20
-168
 11
411.959
 21
-168.991
  0
LINE
  8
0
 10
411.959
 20
-168.991
 11
411.836
 21
-169.975
  0
LINE
  8
0
 10
411.836
 20
-169.975
 11
411.633
 21
-170.946
  0
LINE
  8
0
 10
411.633
 20
-170.946
 11
411.35
 21
-171.896
  0
LINE
  8
0
 10
411.35
 20
-171.896
 11
410.989
 21
-172.82
  0
LINE
  8
0
 10
410.989
 20
-172.82
 11
410.554
 21
-173.711
  0
LINE
  8
0
 10
410.554
 20
-173.711
 11
410.046
 21
-174.563
  0
LINE
  8
0
 10
410.046
 20
-174.563
 11
409.47
 21
-175.371
  0
LINE
  8
0
 10
409.47
 20
-175.371
 11
408.829
 21
-176.127
  0
LINE
  8
0
 10
408.829
 20
-176.127
 11
408.127
 21
-176.829
  0
LINE
  8
0
 10
408.127
 20
-176.829
 11
407.371
 21
-177.47
  0
LINE
  8
0
 10
407.371
 20
-177.47
 11
406.563
 21
-178.046
  0
LINE
  8
0
 10
406.563
 20
-178.046
 11
405.711
 21
-178.554
  0
LINE
  8
0
 10
405.711
 20
-178.554
 11
404.82
 21
-178.989
  0
LINE
  8
0
 10
404.82
 20
-178.989
 11
403.896
 21
-179.35
  0
LINE
  8
0
 10
403.896
 20
-179.35
 11
402.946
 21
-179.633
  0
LINE
  8
0
 10
402.946
 20
-179.633
 11
401.975
 21
-179.836
  0
LINE
  8
0
 10
401.975
 20
-179.836
 11
400.991
 21
-179.959
  0
LINE
  8
0
 10
400.991
 20
-179.959
 11
400
 21
-180
  0
LINE
  8
0
 10
400
 20
-180
 11
399.009
 21
-179.959
  0
ENDSEC
  0
SECTION
  2
OBJECTS
  0
DICTIONARY
  0
ENDSEC
  0
EOF
