<?xml version="1.0" standalone="no"?>
<!DOCTYPE svg PUBLIC "-//W3C//DTD SVG 1.1//EN" "http://www.w3.org/Graphics/SVG/1.1/DTD/svg11.dtd">
<svg width="740mm" height="390mm" viewBox="-170 -195 740 390" xmlns="http://www.w3.org/2000/svg" version="1.1">
<title>OpenSCAD Model</title>
<path d="
M 97,-195 L -97,-195 L -97,-155 L -92,-155 L -92,-135 L 97,-135
 z
M -90.193,-173.321 L -90.6461,-173.528 L -91.0226,-173.854 L -91.2919,-174.273 L -91.4322,-174.751 L -91.4322,-175.249
 L -91.2919,-175.727 L -91.0226,-176.146 L -90.6461,-176.472 L -90.193,-176.679 L -89.7,-176.75 L -89.207,-176.679
 L -88.7539,-176.472 L -88.3774,-176.146 L -88.1081,-175.727 L -87.9678,-175.249 L -87.9678,-174.751 L -88.1081,-174.273
 L -88.3774,-173.854 L -88.7539,-173.528 L -89.207,-173.321 L -89.7,-173.25 z
M 89.207,-173.321 L 88.7539,-173.528 L 88.3774,-173.854 L 88.1081,-174.273 L 87.9678,-174.751 L 87.9678,-175.249
 L 88.1081,-175.727 L 88.3774,-176.146 L 88.7539,-176.472 L 89.207,-176.679 L 89.7,-176.75 L 90.193,-176.679
 L 90.6461,-176.472 L 91.0226,-176.146 L 91.2919,-175.727 L 91.4322,-175.249 L 91.4322,-174.751 L 91.2919,-174.273
 L 91.0226,-173.854 L 90.6461,-173.528 L 90.193,-173.321 L 89.7,-173.25 z
M -5,-151.7 L -5,-153.5 L 5,-153.5 L 5,-151.7 z
M -0.249039,-143.568 L -0.726974,-143.708 L -1.146,-143.977 L -1.47218,-144.354 L -1.67911,-144.807 L -1.75,-145.3
 L -1.67911,-145.793 L -1.47218,-146.246 L -1.146,-146.623 L -0.726974,-146.892 L -0.249039,-147.032 L 0.249039,-147.032
 L 0.726974,-146.892 L 1.146,-146.623 L 1.47218,-146.246 L 1.67911,-145.793 L 1.75,-145.3 L 1.67911,-144.807
 L 1.47218,-144.354 L 1.146,-143.977 L 0.726974,-143.708 L 0.249039,-143.568 z
M 497,-195 L 303,-195 L 303,-135 L 497,-135 z
M 399.505,-165.02 L 399.012,-165.082 L 398.527,-165.184 L 398.052,-165.325 L 397.59,-165.505 L 397.144,-165.723
 L 396.718,-165.977 L 396.315,-166.265 L 395.936,-166.586 L 395.586,-166.936 L 395.265,-167.315 L 394.977,-167.718
 L 394.723,-168.144 L 394.505,-168.59 L 394.325,-169.052 L 394.184,-169.527 L 394.082,-170.012 L 394.021,-170.505
 L 394,-171 L 394.021,-171.495 L 394.082,-171.988 L 394.184,-172.473 L 394.325,-172.948 L 394.505,-173.41
 L 394.723,-173.856 L 394.977,-174.282 L 395.265,-174.685 L 395.586,-175.064 L 395.936,-175.414 L 396.315,-175.735
 L 396.718,-176.023 L 397.144,-176.277 L 397.59,-176.495 L 398.052,-176.675 L 398.527,-176.816 L 399.012,-176.918
 L 399.505,-176.979 L 400,-177 L 400.495,-176.979 L 400.988,-176.918 L 401.473,-176.816 L 401.948,-176.675
 L 402.41,-176.495 L 402.856,-176.277 L 403.282,-176.023 L 403.685,-175.735 L 404.064,-175.414 L 404.414,-175.064
 L 404.735,-174.685 L 405.023,-174.282 L 405.277,-173.856 L 405.495,-173.41 L 405.675,-172.948 L 405.816,-172.473
 L 405.918,-171.988 L 405.979,-171.495 L 406,-171 L 405.979,-170.505 L 405.918,-170.012 L 405.816,-169.527
 L 405.675,-169.052 L 405.495,-168.59 L 405.277,-168.144 L 405.023,-167.718 L 404.735,-167.315 L 404.414,-166.936
 L 404.064,-166.586 L 403.685,-166.265 L 403.282,-165.977 L 402.856,-165.723 L 402.41,-165.505 L 401.948,-165.325
 L 401.473,-165.184 L 400.988,-165.082 L 400.495,-165.02 L 400,-165 z
M 309.807,-173.321 L 309.354,-173.528 L 308.977,-173.854 L 308.708,-174.273 L 308.568,-174.751 L 308.568,-175.249
 L 308.708,-175.727 L 308.977,-176.146 L 309.354,-176.472 L 309.807,-176.679 L 310.3,-176.75 L 310.793,-176.679
 L 311.246,-176.472 L 311.623,-176.146 L 311.892,-175.727 L 312.032,-175.249 L 312.032,-174.751 L 311.892,-174.273
 L 311.623,-173.854 L 311.246,-173.528 L 310.793,-173.321 L 310.3,-173.25 z
M 489.207,-173.321 L 488.754,-173.528 L 488.377,-173.854 L 488.108,-174.273 L 487.968,-174.751 L 487.968,-175.249
 L 488.108,-175.727 L 488.377,-176.146 L 488.754,-176.472 L 489.207,-176.679 L 489.7,-176.75 L 490.193,-176.679
 L 490.646,-176.472 L 491.023,-176.146 L 491.292,-175.727 L 491.432,-175.249 L 491.432,-174.751 L 491.292,-174.273
 L 491.023,-173.854 L 490.646,-173.528 L 490.193,-173.321 L 489.7,-173.25 z
M 395,-151.7 L 395,-153.5 L 405,-153.5 L 405,-151.7 z
M 399.751,-143.568 L 399.273,-143.708 L 398.854,-143.977 L 398.528,-144.354 L 398.321,-144.807 L 398.25,-145.3
 L 398.321,-145.793 L 398.528,-146.246 L 398.854,-146.623 L 399.273,-146.892 L 399.751,-147.032 L 400.249,-147.032
 L 400.727,-146.892 L 401.146,-146.623 L 401.472,-146.246 L 401.679,-145.793 L 401.75,-145.3 L 401.679,-144.807
 L 401.472,-144.354 L 401.146,-143.977 L 400.727,-143.708 L 400.249,-143.568 z
M 170,-125 L 110,-125 L 110,125 L 170,125 z
M 149.751,-112.968 L 149.273,-113.108 L 148.854,-113.377 L 148.528,-113.754 L 148.321,-114.207 L 148.25,-114.7
 L 148.321,-115.193 L 148.528,-115.646 L 148.854,-116.023 L 149.273,-116.292 L 149.751,-116.432 L 150.249,-116.432
 L 150.727,-116.292 L 151.146,-116.023 L 151.472,-115.646 L 151.679,-115.193 L 151.75,-114.7 L 151.679,-114.207
 L 151.472,-113.754 L 151.146,-113.377 L 150.727,-113.108 L 150.249,-112.968 z
M 145,-106.5 L 145,-108.3 L 155,-108.3 L 155,-106.5 z
M 126.7,-55 L 126.7,-65 L 128.5,-65 L 128.5,-55 z
M 119.807,-58.3209 L 119.354,-58.5278 L 118.977,-58.854 L 118.708,-59.273 L 118.568,-59.751 L 118.568,-60.249
 L 118.708,-60.727 L 118.977,-61.146 L 119.354,-61.4722 L 119.807,-61.6791 L 120.3,-61.75 L 120.793,-61.6791
 L 121.246,-61.4722 L 121.623,-61.146 L 121.892,-60.727 L 122.032,-60.249 L 122.032,-59.751 L 121.892,-59.273
 L 121.623,-58.854 L 121.246,-58.5278 L 120.793,-58.3209 L 120.3,-58.25 z
M 126.7,65 L 126.7,55 L 128.5,55 L 128.5,65 z
M 119.807,61.6791 L 119.354,61.4722 L 118.977,61.146 L 118.708,60.727 L 118.568,60.249 L 118.568,59.751
 L 118.708,59.273 L 118.977,58.854 L 119.354,58.5278 L 119.807,58.3209 L 120.3,58.25 L 120.793,58.3209
 L 121.246,58.5278 L 121.623,58.854 L 121.892,59.273 L 122.032,59.751 L 122.032,60.249 L 121.892,60.727
 L 121.623,61.146 L 121.246,61.4722 L 120.793,61.6791 L 120.3,61.75 z
M 145,108.3 L 145,106.5 L 155,106.5 L 155,108.3 z
M 149.751,116.432 L 149.273,116.292 L 148.854,116.023 L 148.528,115.646 L 148.321,115.193 L 148.25,114.7
 L 148.321,114.207 L 148.528,113.754 L 148.854,113.377 L 149.273,113.108 L 149.751,112.968 L 150.249,112.968
 L 150.727,113.108 L 151.146,113.377 L 151.472,113.754 L 151.679,114.207 L 151.75,114.7 L 151.679,115.193
 L 151.472,115.646 L 151.146,116.023 L 150.727,116.292 L 150.249,116.432 z
M 113,122.1 L 113,117.1 L 133,117.1 L 133,122.1 z
M -110,-125 L -170,-125 L -170,125 L -110,125 z
M -150.249,-112.968 L -150.727,-113.108 L -151.146,-113.377 L -151.472,-113.754 L -151.679,-114.207 L -151.75,-114.7
 L -151.679,-115.193 L -151.472,-115.646 L -151.146,-116.023 L -150.727,-116.292 L -150.249,-116.432 L -149.751,-116.432
 L -149.273,-116.292 L -148.854,-116.023 L -148.528,-115.646 L -148.321,-115.193 L -148.25,-114.7 L -148.321,-114.207
 L -148.528,-113.754 L -148.854,-113.377 L -149.273,-113.108 L -149.751,-112.968 z
M -155,-106.5 L -155,-108.3 L -145,-108.3 L -145,-106.5 z
M -128.5,-55 L -128.5,-65 L -126.7,-65 L -126.7,-55 z
M -120.793,-58.3209 L -121.246,-58.5278 L -121.623,-58.854 L -121.892,-59.273 L -122.032,-59.751 L -122.032,-60.249
 L -121.892,-60.727 L -121.623,-61.146 L -121.246,-61.4722 L -120.793,-61.6791 L -120.3,-61.75 L -119.807,-61.6791
 L -119.354,-61.4722 L -118.977,-61.146 L -118.708,-60.727 L -118.568,-60.249 L -118.568,-59.751 L -118.708,-59.273
 L -118.977,-58.854 L -119.354,-58.5278 L -119.807,-58.3209 L -120.3,-58.25 z
M -146.495,-19.0205 L -146.988,-19.0818 L -147.473,-19.1836 L -147.948,-19.3251 L -148.41,-19.5054 L -148.856,-19.7231
 L -149.282,-19.977 L -149.685,-20.2652 L -150.064,-20.5856 L -150.414,-20.9363 L -150.735,-21.3147 L -151.023,-21.7183
 L -151.277,-22.1443 L -151.495,-22.5898 L -151.675,-23.0518 L -151.816,-23.5271 L -151.918,-24.0124 L -151.979,-24.5045
 L -152,-25 L -151.979,-25.4955 L -151.918,-25.9876 L -151.816,-26.4729 L -151.675,-26.9482 L -151.495,-27.4102
 L -151.277,-27.8557 L -151.023,-28.2817 L -150.735,-28.6853 L -150.414,-29.0637 L -150.064,-29.4143 L -149.685,-29.7348
 L -149.282,-30.023 L -148.856,-30.2768 L -148.41,-30.4946 L -147.948,-30.6749 L -147.473,-30.8164 L -146.988,-30.9182
 L -146.495,-30.9795 L -146,-31 L -145.505,-30.9795 L -145.012,-30.9182 L -144.527,-30.8164 L -144.052,-30.6749
 L -143.59,-30.4946 L -143.144,-30.2768 L -142.718,-30.023 L -142.315,-29.7348 L -141.936,-29.4143 L -141.586,-29.0637
 L -141.265,-28.6853 L -140.977,-28.2817 L -140.723,-27.8557 L -140.505,-27.4102 L -140.325,-26.9482 L -140.184,-26.4729
 L -140.082,-25.9876 L -140.02,-25.4955 L -140,-25 L -140.02,-24.5045 L -140.082,-24.0124 L -140.184,-23.5271
 L -140.325,-23.0518 L -140.505,-22.5898 L -140.723,-22.1443 L -140.977,-21.7183 L -141.265,-21.3147 L -141.586,-20.9363
 L -141.936,-20.5856 L -142.315,-20.2652 L -142.718,-19.977 L -143.144,-19.7231 L -143.59,-19.5054 L -144.052,-19.3251
 L -144.527,-19.1836 L -145.012,-19.0818 L -145.505,-19.0205 L -146,-19 z
M -128.5,65 L -128.5,55 L -126.7,55 L -126.7,65 z
M -120.793,61.6791 L -121.246,61.4722 L -121.623,61.146 L -121.892,60.727 L -122.032,60.249 L -122.032,59.751
 L -121.892,59.273 L -121.623,58.854 L -121.246,58.5278 L -120.793,58.3209 L -120.3,58.25 L -119.807,58.3209
 L -119.354,58.5278 L -118.977,58.854 L -118.708,59.273 L -118.568,59.751 L -118.568,60.249 L -118.708,60.727
 L -118.977,61.146 L -119.354,61.4722 L -119.807,61.6791 L -120.3,61.75 z
M -133,105 L -133,75 L -113,75 L -113,105 z
M -155,108.3 L -155,106.5 L -145,106.5 L -145,108.3 z
M -150.249,116.432 L -150.727,116.292 L -151.146,116.023 L -151.472,115.646 L -151.679,115.193 L -151.75,114.7
 L -151.679,114.207 L -151.472,113.754 L -151.146,113.377 L -150.727,113.108 L -150.249,112.968 L -149.751,112.968
 L -149.273,113.108 L -148.854,113.377 L -148.528,113.754 L -148.321,114.207 L -148.25,114.7 L -148.321,115.193
 L -148.528,115.646 L -148.854,116.023 L -149.273,116.292 L -149.751,116.432 z
M -133,122.1 L -133,117.1 L -113,117.1 L -113,122.1 z
M 570,-125 L 510,-125 L 510,125 L 570,125 z
M 513,-117.1 L 513,-122.1 L 533,-122.1 L 533,-117.1 z
M 549.751,-112.968 L 549.273,-113.108 L 548.854,-113.377 L 548.528,-113.754 L 548.321,-114.207 L 548.25,-114.7
 L 548.321,-115.193 L 548.528,-115.646 L 548.854,-116.023 L 549.273,-116.292 L 549.751,-116.432 L 550.249,-116.432
 L 550.727,-116.292 L 551.146,-116.023 L 551.472,-115.646 L 551.679,-115.193 L 551.75,-114.7 L 551.679,-114.207
 L 551.472,-113.754 L 551.146,-113.377 L 550.727,-113.108 L 550.249,-112.968 z
M 545,-106.5 L 545,-108.3 L 555,-108.3 L 555,-106.5 z
M 526.7,-55 L 526.7,-65 L 528.5,-65 L 528.5,-55 z
M 519.807,-58.3209 L 519.354,-58.5278 L 518.977,-58.854 L 518.708,-59.273 L 518.568,-59.751 L 518.568,-60.249
 L 518.708,-60.727 L 518.977,-61.146 L 519.354,-61.4722 L 519.807,-61.6791 L 520.3,-61.75 L 520.793,-61.6791
 L 521.246,-61.4722 L 521.623,-61.146 L 521.892,-60.727 L 522.032,-60.249 L 522.032,-59.751 L 521.892,-59.273
 L 521.623,-58.854 L 521.246,-58.5278 L 520.793,-58.3209 L 520.3,-58.25 z
M 526.7,65 L 526.7,55 L 528.5,55 L 528.5,65 z
M 519.807,61.6791 L 519.354,61.4722 L 518.977,61.146 L 518.708,60.727 L 518.568,60.249 L 518.568,59.751
 L 518.708,59.273 L 518.977,58.854 L 519.354,58.5278 L 519.807,58.3209 L 520.3,58.25 L 520.793,58.3209
 L 521.246,58.5278 L 521.623,58.854 L 521.892,59.273 L 522.032,59.751 L 522.032,60.249 L 521.892,60.727
 L 521.623,61.146 L 521.246,61.4722 L 520.793,61.6791 L 520.3,61.75 z
M 545,108.3 L 545,106.5 L 555,106.5 L 555,108.3 z
M 549.751,116.432 L 549.273,116.292 L 548.854,116.023 L 548.528,115.646 L 548.321,115.193 L 548.25,114.7
 L 548.321,114.207 L 548.528,113.754 L 548.854,113.377 L 549.273,113.108 L 549.751,112.968 L 550.249,112.968
 L 550.727,113.108 L 551.146,113.377 L 551.472,113.754 L 551.679,114.207 L 551.75,114.7 L 551.679,115.193
 L 551.472,115.646 L 551.146,116.023 L 550.727,116.292 L 550.249,116.432 z
M 513,122.1 L 513,117.1 L 533,117.1 L 533,122.1 z
M 290,-125 L 230,-125 L 230,125 L 290,125 z
M 267,-117.1 L 267,-122.1 L 287,-122.1 L 287,-117.1 z
M 249.751,-112.968 L 249.273,-113.108 L 248.854,-113.377 L 248.528,-113.754 L 248.321,-114.207 L 248.25,-114.7
 L 248.321,-115.193 L 248.528,-115.646 L 248.854,-116.023 L 249.273,-116.292 L 249.751,-116.432 L 250.249,-116.432
 L 250.727,-116.292 L 251.146,-116.023 L 251.472,-115.646 L 251.679,-115.193 L 251.75,-114.7 L 251.679,-114.207
 L 251.472,-113.754 L 251.146,-113.377 L 250.727,-113.108 L 250.249,-112.968 z
M 245,-106.5 L 245,-108.3 L 255,-108.3 L 255,-106.5 z
M 271.5,-55 L 271.5,-65 L 273.3,-65 L 273.3,-55 z
M 279.207,-58.3209 L 278.754,-58.5278 L 278.377,-58.854 L 278.108,-59.273 L 277.968,-59.751 L 277.968,-60.249
 L 278.108,-60.727 L 278.377,-61.146 L 278.754,-61.4722 L 279.207,-61.6791 L 279.7,-61.75 L 280.193,-61.6791
 L 280.646,-61.4722 L 281.023,-61.146 L 281.292,-60.727 L 281.432,-60.249 L 281.432,-59.751 L 281.292,-59.273
 L 281.023,-58.854 L 280.646,-58.5278 L 280.193,-58.3209 L 279.7,-58.25 z
M 271.5,65 L 271.5,55 L 273.3,55 L 273.3,65 z
M 279.207,61.6791 L 278.754,61.4722 L 278.377,61.146 L 278.108,60.727 L 277.968,60.249 L 277.968,59.751
 L 278.108,59.273 L 278.377,58.854 L 278.754,58.5278 L 279.207,58.3209 L 279.7,58.25 L 280.193,58.3209
 L 280.646,58.5278 L 281.023,58.854 L 281.292,59.273 L 281.432,59.751 L 281.432,60.249 L 281.292,60.727
 L 281.023,61.146 L 280.646,61.4722 L 280.193,61.6791 L 279.7,61.75 z
M 245,108.3 L 245,106.5 L 255,106.5 L 255,108.3 z
M 249.751,116.432 L 249.273,116.292 L 248.854,116.023 L 248.528,115.646 L 248.321,115.193 L 248.25,114.7
 L 248.321,114.207 L 248.528,113.754 L 248.854,113.377 L 249.273,113.108 L 249.751,112.968 L 250.249,112.968
 L 250.727,113.108 L 251.146,113.377 L 251.472,113.754 L 251.679,114.207 L 251.75,114.7 L 251.679,115.193
 L 251.472,115.646 L 251.146,116.023 L 250.727,116.292 L 250.249,116.432 z
M 267,122.1 L 267,117.1 L 287,117.1 L 287,122.1 z
M 497,-122 L 303,-122 L 303,122 L 497,122 z
M 399.751,-112.968 L 399.273,-113.108 L 398.854,-113.377 L 398.528,-113.754 L 398.321,-114.207 L 398.25,-114.7
 L 398.321,-115.193 L 398.528,-115.646 L 398.854,-116.023 L 399.273,-116.292 L 399.751,-116.432 L 400.249,-116.432
 L 400.727,-116.292 L 401.146,-116.023 L 401.472,-115.646 L 401.679,-115.193 L 401.75,-114.7 L 401.679,-114.207
 L 401.472,-113.754 L 401.146,-113.377 L 400.727,-113.108 L 400.249,-112.968 z
M 309.807,-58.3209 L 309.354,-58.5278 L 308.977,-58.854 L 308.708,-59.273 L 308.568,-59.7509 L 308.568,-60.249
 L 308.708,-60.727 L 308.977,-61.146 L 309.354,-61.4722 L 309.807,-61.6791 L 310.3,-61.75 L 310.793,-61.6791
 L 311.246,-61.4722 L 311.623,-61.146 L 311.892,-60.727 L 312.032,-60.249 L 312.032,-59.7509 L 311.892,-59.273
 L 311.623,-58.854 L 311.246,-58.5278 L 310.793,-58.3209 L 310.3,-58.25 z
M 489.207,-58.3209 L 488.754,-58.5278 L 488.377,-58.854 L 488.108,-59.273 L 487.968,-59.7509 L 487.968,-60.249
 L 488.108,-60.727 L 488.377,-61.146 L 488.754,-61.4722 L 489.207,-61.6791 L 489.7,-61.75 L 490.193,-61.6791
 L 490.646,-61.4722 L 491.023,-61.146 L 491.292,-60.727 L 491.432,-60.249 L 491.432,-59.7509 L 491.292,-59.273
 L 491.023,-58.854 L 490.646,-58.5278 L 490.193,-58.3209 L 489.7,-58.25 z
M 489.207,61.6791 L 488.754,61.4722 L 488.377,61.146 L 488.108,60.727 L 487.968,60.249 L 487.968,59.7509
 L 488.108,59.273 L 488.377,58.854 L 488.754,58.5278 L 489.207,58.3209 L 489.7,58.25 L 490.193,58.3209
 L 490.646,58.5278 L 491.023,58.854 L 491.292,59.273 L 491.432,59.7509 L 491.432,60.249 L 491.292,60.727
 L 491.023,61.146 L 490.646,61.4722 L 490.193,61.6791 L 489.7,61.75 z
M 309.807,61.6791 L 309.354,61.4722 L 308.977,61.146 L 308.708,60.727 L 308.568,60.249 L 308.568,59.7509
 L 308.708,59.273 L 308.977,58.854 L 309.354,58.5278 L 309.807,58.3209 L 310.3,58.25 L 310.793,58.3209
 L 311.246,58.5278 L 311.623,58.854 L 311.892,59.273 L 312.032,59.7509 L 312.032,60.249 L 311.892,60.727
 L 311.623,61.146 L 311.246,61.4722 L 310.793,61.6791 L 310.3,61.75 z
M 399.751,116.432 L 399.273,116.292 L 398.854,116.023 L 398.528,115.646 L 398.321,115.193 L 398.25,114.7
 L 398.321,114.207 L 398.528,113.754 L 398.854,113.377 L 399.273,113.108 L 399.751,112.968 L 400.249,112.968
 L 400.727,113.108 L 401.146,113.377 L 401.472,113.754 L 401.679,114.207 L 401.75,114.7 L 401.679,115.193
 L 401.472,115.646 L 401.146,116.023 L 400.727,116.292 L 400.249,116.432 z
M 97,-122 L -97,-122 L -97,122 L 97,122 z
M -0.249039,-112.968 L -0.726974,-113.108 L -1.146,-113.377 L -1.47218,-113.754 L -1.67911,-114.207 L -1.74998,-114.7
 L -1.67911,-115.193 L -1.47218,-115.646 L -1.146,-116.023 L -0.726974,-116.292 L -0.249039,-116.432 L 0.249039,-116.432
 L 0.726974,-116.292 L 1.146,-116.023 L 1.47218,-115.646 L 1.67911,-115.193 L 1.75,-114.7 L 1.67911,-114.207
 L 1.47218,-113.754 L 1.146,-113.377 L 0.726974,-113.108 L 0.249039,-112.968 z
M -90.193,-58.3209 L -90.6461,-58.5278 L -91.0226,-58.854 L -91.2919,-59.273 L -91.4322,-59.7509 L -91.4322,-60.249
 L -91.2919,-60.727 L -91.0226,-61.146 L -90.6461,-61.4722 L -90.193,-61.6791 L -89.7,-61.75 L -89.207,-61.6791
 L -88.7539,-61.4722 L -88.3774,-61.146 L -88.1081,-60.727 L -87.9678,-60.249 L -87.9678,-59.7509 L -88.1081,-59.273
 L -88.3774,-58.854 L -88.7539,-58.5278 L -89.207,-58.3209 L -89.7,-58.25 z
M 89.207,-58.3209 L 88.7539,-58.5278 L 88.3774,-58.854 L 88.1081,-59.273 L 87.9678,-59.7509 L 87.9678,-60.249
 L 88.1081,-60.727 L 88.3774,-61.146 L 88.7539,-61.4722 L 89.207,-61.6791 L 89.7,-61.75 L 90.193,-61.6791
 L 90.6461,-61.4722 L 91.0226,-61.146 L 91.2919,-60.727 L 91.4322,-60.249 L 91.4322,-59.7509 L 91.2919,-59.273
 L 91.0226,-58.854 L 90.6461,-58.5278 L 90.193,-58.3209 L 89.7,-58.25 z
M -90.193,61.6791 L -90.6461,61.4722 L -91.0226,61.146 L -91.2919,60.727 L -91.4322,60.249 L -91.4322,59.7509
 L -91.2919,59.273 L -91.0226,58.854 L -90.6461,58.5278 L -90.193,58.3209 L -89.7,58.25 L -89.207,58.3209
 L -88.7539,58.5278 L -88.3774,58.854 L -88.1081,59.273 L -87.9678,59.7509 L -87.9678,60.249 L -88.1081,60.727
 L -88.3774,61.146 L -88.7539,61.4722 L -89.207,61.6791 L -89.7,61.75 z
M 89.207,61.6791 L 88.7539,61.4722 L 88.3774,61.146 L 88.1081,60.727 L 87.9678,60.249 L 87.9678,59.7509
 L 88.1081,59.273 L 88.3774,58.854 L 88.7539,58.5278 L 89.207,58.3209 L 89.7,58.25 L 90.193,58.3209
 L 90.6461,58.5278 L 91.0226,58.854 L 91.2919,59.273 L 91.4322,59.7509 L 91.4322,60.249 L 91.2919,60.727
 L 91.0226,61.146 L 90.6461,61.4722 L 90.193,61.6791 L 89.7,61.75 z
M -0.249039,116.432 L -0.726974,116.292 L -1.146,116.023 L -1.47218,115.646 L -1.67911,115.193 L -1.75,114.7
 L -1.67911,114.207 L -1.47218,113.754 L -1.146,113.377 L -0.726974,113.108 L -0.249039,112.968 L 0.249039,112.968
 L 0.726974,113.108 L 1.146,113.377 L 1.47218,113.754 L 1.67911,114.207 L 1.75,114.7 L 1.67911,115.193
 L 1.47218,115.646 L 1.146,116.023 L 0.726974,116.292 L 0.249039,116.432 z
M 497,135 L 303,135 L 303,195 L 497,195 z
M 399.751,147.032 L 399.273,146.892 L 398.854,146.623 L 398.528,146.246 L 398.321,145.793 L 398.25,145.3
 L 398.321,144.807 L 398.528,144.354 L 398.854,143.977 L 399.273,143.708 L 399.751,143.568 L 400.249,143.568
 L 400.727,143.708 L 401.146,143.977 L 401.472,144.354 L 401.679,144.807 L 401.75,145.3 L 401.679,145.793
 L 401.472,146.246 L 401.146,146.623 L 400.727,146.892 L 400.249,147.032 z
M 395,153.5 L 395,151.7 L 405,151.7 L 405,153.5 z
M 399.505,176.979 L 399.012,176.918 L 398.527,176.816 L 398.052,176.675 L 397.59,176.495 L 397.144,176.277
 L 396.718,176.023 L 396.315,175.735 L 395.936,175.414 L 395.586,175.064 L 395.265,174.685 L 394.977,174.282
 L 394.723,173.856 L 394.505,173.41 L 394.325,172.948 L 394.184,172.473 L 394.082,171.988 L 394.021,171.495
 L 394,171 L 394.021,170.505 L 394.082,170.012 L 394.184,169.527 L 394.325,169.052 L 394.505,168.59
 L 394.723,168.144 L 394.977,167.718 L 395.265,167.315 L 395.586,166.936 L 395.936,166.586 L 396.315,166.265
 L 396.718,165.977 L 397.144,165.723 L 397.59,165.505 L 398.052,165.325 L 398.527,165.184 L 399.012,165.082
 L 399.505,165.02 L 400,165 L 400.495,165.02 L 400.988,165.082 L 401.473,165.184 L 401.948,165.325
 L 402.41,165.505 L 402.856,165.723 L 403.282,165.977 L 403.685,166.265 L 404.064,166.586 L 404.414,166.936
 L 404.735,167.315 L 405.023,167.718 L 405.277,168.144 L 405.495,168.59 L 405.675,169.052 L 405.816,169.527
 L 405.918,170.012 L 405.979,170.505 L 406,171 L 405.979,171.495 L 405.918,171.988 L 405.816,172.473
 L 405.675,172.948 L 405.495,173.41 L 405.277,173.856 L 405.023,174.282 L 404.735,174.685 L 404.414,175.064
 L 404.064,175.414 L 403.685,175.735 L 403.282,176.023 L 402.856,176.277 L 402.41,176.495 L 401.948,176.675
 L 401.473,176.816 L 400.988,176.918 L 400.495,176.979 L 400,177 z
M 489.207,176.679 L 488.754,176.472 L 488.377,176.146 L 488.108,175.727 L 487.968,175.249 L 487.968,174.751
 L 488.108,174.273 L 488.377,173.854 L 488.754,173.528 L 489.207,173.321 L 489.7,173.25 L 490.193,173.321
 L 490.646,173.528 L 491.023,173.854 L 491.292,174.273 L 491.432,174.751 L 491.432,175.249 L 491.292,175.727
 L 491.023,176.146 L 490.646,176.472 L 490.193,176.679 L 489.7,176.75 z
M 309.807,176.679 L 309.354,176.472 L 308.977,176.146 L 308.708,175.727 L 308.568,175.249 L 308.568,174.751
 L 308.708,174.273 L 308.977,173.854 L 309.354,173.528 L 309.807,173.321 L 310.3,173.25 L 310.793,173.321
 L 311.246,173.528 L 311.623,173.854 L 311.892,174.273 L 312.032,174.751 L 312.032,175.249 L 311.892,175.727
 L 311.623,176.146 L 311.246,176.472 L 310.793,176.679 L 310.3,176.75 z
M 97,135 L -97,135 L -97,195 L 97,195 z
M -0.249039,147.032 L -0.726974,146.892 L -1.146,146.623 L -1.47218,146.246 L -1.67911,145.793 L -1.75,145.3
 L -1.67911,144.807 L -1.47218,144.354 L -1.146,143.977 L -0.726974,143.708 L -0.249039,143.568 L 0.249039,143.568
 L 0.726974,143.708 L 1.146,143.977 L 1.47218,144.354 L 1.67911,144.807 L 1.75,145.3 L 1.67911,145.793
 L 1.47218,146.246 L 1.146,146.623 L 0.726974,146.892 L 0.249039,147.032 z
M -5,153.5 L -5,151.7 L 5,151.7 L 5,153.5 z
M -0.495468,176.979 L -0.987564,176.918 L -1.4729,176.816 L -1.9482,176.675 L -2.41017,176.495 L -2.85568,176.277
 L -3.28168,176.023 L -3.68527,175.735 L -4.06367,175.414 L -4.41434,175.064 L -4.73483,174.685 L -5.02299,174.282
 L -5.27684,173.856 L -5.49463,173.41 L -5.6749,172.948 L -5.81639,172.473 L -5.91817,171.988 L -5.97949,171.495
 L -6,171 L -5.97949,170.505 L -5.91817,170.012 L -5.81639,169.527 L -5.6749,169.052 L -5.49463,168.59
 L -5.27684,168.144 L -5.02299,167.718 L -4.73483,167.315 L -4.41434,166.936 L -4.06367,166.586 L -3.68527,166.265
 L -3.28168,165.977 L -2.85568,165.723 L -2.41017,165.505 L -1.9482,165.325 L -1.4729,165.184 L -0.987564,165.082
 L -0.495468,165.02 L 0,165 L 0.495468,165.02 L 0.987564,165.082 L 1.4729,165.184 L 1.9482,165.325
 L 2.41017,165.505 L 2.85568,165.723 L 3.28168,165.977 L 3.68527,166.265 L 4.06367,166.586 L 4.41434,166.936
 L 4.73483,167.315 L 5.02299,167.718 L 5.27684,168.144 L 5.49463,168.59 L 5.6749,169.052 L 5.81639,169.527
 L 5.91817,170.012 L 5.97949,170.505 L 6,171 L 5.97949,171.495 L 5.91817,171.988 L 5.81639,172.473
 L 5.6749,172.948 L 5.49463,173.41 L 5.27684,173.856 L 5.02299,174.282 L 4.73483,174.685 L 4.41434,175.064
 L 4.06367,175.414 L 3.68527,175.735 L 3.28168,176.023 L 2.85568,176.277 L 2.41017,176.495 L 1.9482,176.675
 L 1.4729,176.816 L 0.987564,176.918 L 0.495468,176.979 L 0,177 z
M 89.207,176.679 L 88.7539,176.472 L 88.3774,176.146 L 88.1081,175.727 L 87.9678,175.249 L 87.9678,174.751
 L 88.1081,174.273 L 88.3774,173.854 L 88.7539,173.528 L 89.207,173.321 L 89.7,173.25 L 90.193,173.321
 L 90.6461,173.528 L 91.0226,173.854 L 91.2919,174.273 L 91.4322,174.751 L 91.4322,175.249 L 91.2919,175.727
 L 91.0226,176.146 L 90.6461,176.472 L 90.193,176.679 L 89.7,176.75 z
M -90.193,176.679 L -90.6461,176.472 L -91.0226,176.146 L -91.2919,175.727 L -91.4322,175.249 L -91.4322,174.751
 L -91.2919,174.273 L -91.0226,173.854 L -90.6461,173.528 L -90.193,173.321 L -89.7,173.25 L -89.207,173.321
 L -88.7539,173.528 L -88.3774,173.854 L -88.1081,174.273 L -87.9678,174.751 L -87.9678,175.249 L -88.1081,175.727
 L -88.3774,176.146 L -88.7539,176.472 L -89.207,176.679 L -89.7,176.75 z
" stroke="black" fill="lightgray" stroke-width="0.5"/>
</svg>
