<?xml version="1.0" standalone="no"?>
<!DOCTYPE svg PUBLIC "-//W3C//DTD SVG 1.1//EN" "http://www.w3.org/Graphics/SVG/1.1/DTD/svg11.dtd">
<svg width="734mm" height="384mm" viewBox="-167 -192 734 384" xmlns="http://www.w3.org/2000/svg" version="1.1">
<title>OpenSCAD Model</title>
<path d="
M 97,-192 L -97,-192 L -97,-155 L -92,-155 L -92,-135 L -97,-135
 L -97,-132 L 97,-132 z
M -90.493,-173.321 L -90.9461,-173.528 L -91.3226,-173.854 L -91.5918,-174.273 L -91.7322,-174.751 L -91.7322,-175.249
 L -91.5918,-175.727 L -91.3226,-176.146 L -90.9461,-176.472 L -90.493,-176.679 L -90,-176.75 L -89.507,-176.679
 L -89.0539,-176.472 L -88.6774,-176.146 L -88.4081,-175.727 L -88.2678,-175.249 L -88.2678,-174.751 L -88.4081,-174.273
 L -88.6774,-173.854 L -89.0539,-173.528 L -89.507,-173.321 L -90,-173.25 z
M 89.507,-173.321 L 89.0539,-173.528 L 88.6774,-173.854 L 88.4081,-174.273 L 88.2678,-174.751 L 88.2678,-175.249
 L 88.4081,-175.727 L 88.6774,-176.146 L 89.0539,-176.472 L 89.507,-176.679 L 90,-176.75 L 90.493,-176.679
 L 90.9461,-176.472 L 91.3226,-176.146 L 91.5918,-175.727 L 91.7322,-175.249 L 91.7322,-174.751 L 91.5918,-174.273
 L 91.3226,-173.854 L 90.9461,-173.528 L 90.493,-173.321 L 90,-173.25 z
M -5,-148 L -5,-150 L 5,-150 L 5,-148 z
M -0.249039,-140.268 L -0.726974,-140.408 L -1.146,-140.677 L -1.47218,-141.054 L -1.67911,-141.507 L -1.75,-142
 L -1.67911,-142.493 L -1.47218,-142.946 L -1.146,-143.323 L -0.726974,-143.592 L -0.249039,-143.732 L 0.249039,-143.732
 L 0.726974,-143.592 L 1.146,-143.323 L 1.47218,-142.946 L 1.67911,-142.493 L 1.75,-142 L 1.67911,-141.507
 L 1.47218,-141.054 L 1.146,-140.677 L 0.726974,-140.408 L 0.249039,-140.268 z
M 497,-192 L 303,-192 L 303,-132 L 497,-132 z
M 309.507,-173.321 L 309.054,-173.528 L 308.677,-173.854 L 308.408,-174.273 L 308.268,-174.751 L 308.268,-175.249
 L 308.408,-175.727 L 308.677,-176.146 L 309.054,-176.472 L 309.507,-176.679 L 310,-176.75 L 310.493,-176.679
 L 310.946,-176.472 L 311.323,-176.146 L 311.592,-175.727 L 311.732,-175.249 L 311.732,-174.751 L 311.592,-174.273
 L 311.323,-173.854 L 310.946,-173.528 L 310.493,-173.321 L 310,-173.25 z
M 489.507,-173.321 L 489.054,-173.528 L 488.677,-173.854 L 488.408,-174.273 L 488.268,-174.751 L 488.268,-175.249
 L 488.408,-175.727 L 488.677,-176.146 L 489.054,-176.472 L 489.507,-176.679 L 490,-176.75 L 490.493,-176.679
 L 490.946,-176.472 L 491.323,-176.146 L 491.592,-175.727 L 491.732,-175.249 L 491.732,-174.751 L 491.592,-174.273
 L 491.323,-173.854 L 490.946,-173.528 L 490.493,-173.321 L 490,-173.25 z
M 399.505,-162.02 L 399.012,-162.082 L 398.527,-162.184 L 398.052,-162.325 L 397.59,-162.505 L 397.144,-162.723
 L 396.718,-162.977 L 396.315,-163.265 L 395.936,-163.586 L 395.586,-163.936 L 395.265,-164.315 L 394.977,-164.718
 L 394.723,-165.144 L 394.505,-165.59 L 394.325,-166.052 L 394.184,-166.527 L 394.082,-167.012 L 394.021,-167.505
 L 394,-168 L 394.021,-168.495 L 394.082,-168.988 L 394.184,-169.473 L 394.325,-169.948 L 394.505,-170.41
 L 394.723,-170.856 L 394.977,-171.282 L 395.265,-171.685 L 395.586,-172.064 L 395.936,-172.414 L 396.315,-172.735
 L 396.718,-173.023 L 397.144,-173.277 L 397.59,-173.495 L 398.052,-173.675 L 398.527,-173.816 L 399.012,-173.918
 L 399.505,-173.979 L 400,-174 L 400.495,-173.979 L 400.988,-173.918 L 401.473,-173.816 L 401.948,-173.675
 L 402.41,-173.495 L 402.856,-173.277 L 403.282,-173.023 L 403.685,-172.735 L 404.064,-172.414 L 404.414,-172.064
 L 404.735,-171.685 L 405.023,-171.282 L 405.277,-170.856 L 405.495,-170.41 L 405.675,-169.948 L 405.816,-169.473
 L 405.918,-168.988 L 405.979,-168.495 L 406,-168 L 405.979,-167.505 L 405.918,-167.012 L 405.816,-166.527
 L 405.675,-166.052 L 405.495,-165.59 L 405.277,-165.144 L 405.023,-164.718 L 404.735,-164.315 L 404.414,-163.936
 L 404.064,-163.586 L 403.685,-163.265 L 403.282,-162.977 L 402.856,-162.723 L 402.41,-162.505 L 401.948,-162.325
 L 401.473,-162.184 L 400.988,-162.082 L 400.495,-162.02 L 400,-162 z
M 395,-148 L 395,-150 L 405,-150 L 405,-148 z
M 399.751,-140.268 L 399.273,-140.408 L 398.854,-140.677 L 398.528,-141.054 L 398.321,-141.507 L 398.25,-142
 L 398.321,-142.493 L 398.528,-142.946 L 398.854,-143.323 L 399.273,-143.592 L 399.751,-143.732 L 400.249,-143.732
 L 400.727,-143.592 L 401.146,-143.323 L 401.472,-142.946 L 401.679,-142.493 L 401.75,-142 L 401.679,-141.507
 L 401.472,-141.054 L 401.146,-140.677 L 400.727,-140.408 L 400.249,-140.268 z
M -107,-125 L -110,-125 L -110,-125.2 L -130,-125.2 L -130,-125 L -167,-125
 L -167,125 L -107,125 z
M -150.249,-113.268 L -150.727,-113.408 L -151.146,-113.677 L -151.472,-114.054 L -151.679,-114.507 L -151.75,-115
 L -151.679,-115.493 L -151.472,-115.946 L -151.146,-116.323 L -150.727,-116.592 L -150.249,-116.732 L -149.751,-116.732
 L -149.273,-116.592 L -148.854,-116.323 L -148.528,-115.946 L -148.321,-115.493 L -148.25,-115 L -148.321,-114.507
 L -148.528,-114.054 L -148.854,-113.677 L -149.273,-113.408 L -149.751,-113.268 z
M -155,-107 L -155,-109 L -145,-109 L -145,-107 z
M -125,-55 L -125,-65 L -123,-65 L -123,-55 z
M -117.493,-58.3209 L -117.946,-58.5278 L -118.323,-58.854 L -118.592,-59.273 L -118.732,-59.751 L -118.732,-60.249
 L -118.592,-60.727 L -118.323,-61.146 L -117.946,-61.4722 L -117.493,-61.6791 L -117,-61.75 L -116.507,-61.6791
 L -116.054,-61.4722 L -115.677,-61.146 L -115.408,-60.727 L -115.268,-60.249 L -115.268,-59.751 L -115.408,-59.273
 L -115.677,-58.854 L -116.054,-58.5278 L -116.507,-58.3209 L -117,-58.25 z
M -143.495,-19.0205 L -143.988,-19.0818 L -144.473,-19.1836 L -144.948,-19.3251 L -145.41,-19.5054 L -145.856,-19.7231
 L -146.282,-19.977 L -146.685,-20.2652 L -147.064,-20.5856 L -147.414,-20.9363 L -147.735,-21.3147 L -148.023,-21.7183
 L -148.277,-22.1443 L -148.495,-22.5898 L -148.675,-23.0518 L -148.816,-23.5271 L -148.918,-24.0124 L -148.979,-24.5045
 L -149,-25 L -148.979,-25.4955 L -148.918,-25.9876 L -148.816,-26.4729 L -148.675,-26.9482 L -148.495,-27.4102
 L -148.277,-27.8557 L -148.023,-28.2817 L -147.735,-28.6853 L -147.414,-29.0637 L -147.064,-29.4143 L -146.685,-29.7348
 L -146.282,-30.023 L -145.856,-30.2768 L -145.41,-30.4946 L -144.948,-30.6749 L -144.473,-30.8164 L -143.988,-30.9182
 L -143.495,-30.9795 L -143,-31 L -142.505,-30.9795 L -142.012,-30.9182 L -141.527,-30.8164 L -141.052,-30.6749
 L -140.59,-30.4946 L -140.144,-30.2768 L -139.718,-30.023 L -139.315,-29.7348 L -138.936,-29.4143 L -138.586,-29.0637
 L -138.265,-28.6853 L -137.977,-28.2817 L -137.723,-27.8557 L -137.505,-27.4102 L -137.325,-26.9482 L -137.184,-26.4729
 L -137.082,-25.9876 L -137.02,-25.4955 L -137,-25 L -137.02,-24.5045 L -137.082,-24.0124 L -137.184,-23.5271
 L -137.325,-23.0518 L -137.505,-22.5898 L -137.723,-22.1443 L -137.977,-21.7183 L -138.265,-21.3147 L -138.586,-20.9363
 L -138.936,-20.5856 L -139.315,-20.2652 L -139.718,-19.977 L -140.144,-19.7231 L -140.59,-19.5054 L -141.052,-19.3251
 L -141.527,-19.1836 L -142.012,-19.0818 L -142.505,-19.0205 L -143,-19 z
M -125,65 L -125,55 L -123,55 L -123,65 z
M -117.493,61.6791 L -117.946,61.4722 L -118.323,61.146 L -118.592,60.727 L -118.732,60.249 L -118.732,59.751
 L -118.592,59.273 L -118.323,58.854 L -117.946,58.5278 L -117.493,58.3209 L -117,58.25 L -116.507,58.3209
 L -116.054,58.5278 L -115.677,58.854 L -115.408,59.273 L -115.268,59.751 L -115.268,60.249 L -115.408,60.727
 L -115.677,61.146 L -116.054,61.4722 L -116.507,61.6791 L -117,61.75 z
M -130,105 L -130,75 L -110,75 L -110,105 z
M -155,109 L -155,107 L -145,107 L -145,109 z
M -150.249,116.732 L -150.727,116.592 L -151.146,116.323 L -151.472,115.946 L -151.679,115.493 L -151.75,115
 L -151.679,114.507 L -151.472,114.054 L -151.146,113.677 L -150.727,113.408 L -150.249,113.268 L -149.751,113.268
 L -149.273,113.408 L -148.854,113.677 L -148.528,114.054 L -148.321,114.507 L -148.25,115 L -148.321,115.493
 L -148.528,115.946 L -148.854,116.323 L -149.273,116.592 L -149.751,116.732 z
M -130,122.1 L -130,117.1 L -110,117.1 L -110,122.1 z
M 293,-125 L 233,-125 L 233,125 L 293,125 z
M 270,-117.1 L 270,-122.1 L 290,-122.1 L 290,-117.1 z
M 249.751,-113.268 L 249.273,-113.408 L 248.854,-113.677 L 248.528,-114.054 L 248.321,-114.507 L 248.25,-115
 L 248.321,-115.493 L 248.528,-115.946 L 248.854,-116.323 L 249.273,-116.592 L 249.751,-116.732 L 250.249,-116.732
 L 250.727,-116.592 L 251.146,-116.323 L 251.472,-115.946 L 251.679,-115.493 L 251.75,-115 L 251.679,-114.507
 L 251.472,-114.054 L 251.146,-113.677 L 250.727,-113.408 L 250.249,-113.268 z
M 245,-107 L 245,-109 L 255,-109 L 255,-107 z
M 275,-55 L 275,-65 L 277,-65 L 277,-55 z
M 282.507,-58.3209 L 282.054,-58.5278 L 281.677,-58.854 L 281.408,-59.273 L 281.268,-59.751 L 281.268,-60.249
 L 281.408,-60.727 L 281.677,-61.146 L 282.054,-61.4722 L 282.507,-61.6791 L 283,-61.75 L 283.493,-61.6791
 L 283.946,-61.4722 L 284.323,-61.146 L 284.592,-60.727 L 284.732,-60.249 L 284.732,-59.751 L 284.592,-59.273
 L 284.323,-58.854 L 283.946,-58.5278 L 283.493,-58.3209 L 283,-58.25 z
M 275,65 L 275,55 L 277,55 L 277,65 z
M 282.507,61.6791 L 282.054,61.4722 L 281.677,61.146 L 281.408,60.727 L 281.268,60.249 L 281.268,59.751
 L 281.408,59.273 L 281.677,58.854 L 282.054,58.5278 L 282.507,58.3209 L 283,58.25 L 283.493,58.3209
 L 283.946,58.5278 L 284.323,58.854 L 284.592,59.273 L 284.732,59.751 L 284.732,60.249 L 284.592,60.727
 L 284.323,61.146 L 283.946,61.4722 L 283.493,61.6791 L 283,61.75 z
M 245,109 L 245,107 L 255,107 L 255,109 z
M 249.751,116.732 L 249.273,116.592 L 248.854,116.323 L 248.528,115.946 L 248.321,115.493 L 248.25,115
 L 248.321,114.507 L 248.528,114.054 L 248.854,113.677 L 249.273,113.408 L 249.751,113.268 L 250.249,113.268
 L 250.727,113.408 L 251.146,113.677 L 251.472,114.054 L 251.679,114.507 L 251.75,115 L 251.679,115.493
 L 251.472,115.946 L 251.146,116.323 L 250.727,116.592 L 250.249,116.732 z
M 270,122.1 L 270,117.1 L 290,117.1 L 290,122.1 z
M 567,-125 L 507,-125 L 507,125 L 567,125 z
M 510,-117.1 L 510,-122.1 L 530,-122.1 L 530,-117.1 z
M 549.751,-113.268 L 549.273,-113.408 L 548.854,-113.677 L 548.528,-114.054 L 548.321,-114.507 L 548.25,-115
 L 548.321,-115.493 L 548.528,-115.946 L 548.854,-116.323 L 549.273,-116.592 L 549.751,-116.732 L 550.249,-116.732
 L 550.727,-116.592 L 551.146,-116.323 L 551.472,-115.946 L 551.679,-115.493 L 551.75,-115 L 551.679,-114.507
 L 551.472,-114.054 L 551.146,-113.677 L 550.727,-113.408 L 550.249,-113.268 z
M 545,-107 L 545,-109 L 555,-109 L 555,-107 z
M 523,-55 L 523,-65 L 525,-65 L 525,-55 z
M 516.507,-58.3209 L 516.054,-58.5278 L 515.677,-58.854 L 515.408,-59.273 L 515.268,-59.751 L 515.268,-60.249
 L 515.408,-60.727 L 515.677,-61.146 L 516.054,-61.4722 L 516.507,-61.6791 L 517,-61.75 L 517.493,-61.6791
 L 517.946,-61.4722 L 518.323,-61.146 L 518.592,-60.727 L 518.732,-60.249 L 518.732,-59.751 L 518.592,-59.273
 L 518.323,-58.854 L 517.946,-58.5278 L 517.493,-58.3209 L 517,-58.25 z
M 523,65 L 523,55 L 525,55 L 525,65 z
M 516.507,61.6791 L 516.054,61.4722 L 515.677,61.146 L 515.408,60.727 L 515.268,60.249 L 515.268,59.751
 L 515.408,59.273 L 515.677,58.854 L 516.054,58.5278 L 516.507,58.3209 L 517,58.25 L 517.493,58.3209
 L 517.946,58.5278 L 518.323,58.854 L 518.592,59.273 L 518.732,59.751 L 518.732,60.249 L 518.592,60.727
 L 518.323,61.146 L 517.946,61.4722 L 517.493,61.6791 L 517,61.75 z
M 545,109 L 545,107 L 555,107 L 555,109 z
M 549.751,116.732 L 549.273,116.592 L 548.854,116.323 L 548.528,115.946 L 548.321,115.493 L 548.25,115
 L 548.321,114.507 L 548.528,114.054 L 548.854,113.677 L 549.273,113.408 L 549.751,113.268 L 550.249,113.268
 L 550.727,113.408 L 551.146,113.677 L 551.472,114.054 L 551.679,114.507 L 551.75,115 L 551.679,115.493
 L 551.472,115.946 L 551.146,116.323 L 550.727,116.592 L 550.249,116.732 z
M 510,122.1 L 510,117.1 L 530,117.1 L 530,122.1 z
M 167,-125 L 107,-125 L 107,125 L 167,125 z
M 149.751,-113.268 L 149.273,-113.408 L 148.854,-113.677 L 148.528,-114.054 L 148.321,-114.507 L 148.25,-115
 L 148.321,-115.493 L 148.528,-115.946 L 148.854,-116.323 L 149.273,-116.592 L 149.751,-116.732 L 150.249,-116.732
 L 150.727,-116.592 L 151.146,-116.323 L 151.472,-115.946 L 151.679,-115.493 L 151.75,-115 L 151.679,-114.507
 L 151.472,-114.054 L 151.146,-113.677 L 150.727,-113.408 L 150.249,-113.268 z
M 145,-107 L 145,-109 L 155,-109 L 155,-107 z
M 123,-55 L 123,-65 L 125,-65 L 125,-55 z
M 116.507,-58.3209 L 116.054,-58.5278 L 115.677,-58.854 L 115.408,-59.273 L 115.268,-59.751 L 115.268,-60.249
 L 115.408,-60.727 L 115.677,-61.146 L 116.054,-61.4722 L 116.507,-61.6791 L 117,-61.75 L 117.493,-61.6791
 L 117.946,-61.4722 L 118.323,-61.146 L 118.592,-60.727 L 118.732,-60.249 L 118.732,-59.751 L 118.592,-59.273
 L 118.323,-58.854 L 117.946,-58.5278 L 117.493,-58.3209 L 117,-58.25 z
M 123,65 L 123,55 L 125,55 L 125,65 z
M 116.507,61.6791 L 116.054,61.4722 L 115.677,61.146 L 115.408,60.727 L 115.268,60.249 L 115.268,59.751
 L 115.408,59.273 L 115.677,58.854 L 116.054,58.5278 L 116.507,58.3209 L 117,58.25 L 117.493,58.3209
 L 117.946,58.5278 L 118.323,58.854 L 118.592,59.273 L 118.732,59.751 L 118.732,60.249 L 118.592,60.727
 L 118.323,61.146 L 117.946,61.4722 L 117.493,61.6791 L 117,61.75 z
M 145,109 L 145,107 L 155,107 L 155,109 z
M 149.751,116.732 L 149.273,116.592 L 148.854,116.323 L 148.528,115.946 L 148.321,115.493 L 148.25,115
 L 148.321,114.507 L 148.528,114.054 L 148.854,113.677 L 149.273,113.408 L 149.751,113.268 L 150.249,113.268
 L 150.727,113.408 L 151.146,113.677 L 151.472,114.054 L 151.679,114.507 L 151.75,115 L 151.679,115.493
 L 151.472,115.946 L 151.146,116.323 L 150.727,116.592 L 150.249,116.732 z
M 110,122.1 L 110,117.1 L 130,117.1 L 130,122.1 z
M 497,-122 L 303,-122 L 303,122 L 497,122 z
M 399.751,-113.268 L 399.273,-113.408 L 398.854,-113.677 L 398.528,-114.054 L 398.321,-114.507 L 398.25,-115
 L 398.321,-115.493 L 398.528,-115.946 L 398.854,-116.323 L 399.273,-116.592 L 399.751,-116.732 L 400.249,-116.732
 L 400.727,-116.592 L 401.146,-116.323 L 401.472,-115.946 L 401.679,-115.493 L 401.75,-115 L 401.679,-114.507
 L 401.472,-114.054 L 401.146,-113.677 L 400.727,-113.408 L 400.249,-113.268 z
M 309.507,-58.3209 L 309.054,-58.5278 L 308.677,-58.854 L 308.408,-59.273 L 308.268,-59.7509 L 308.268,-60.249
 L 308.408,-60.727 L 308.677,-61.146 L 309.054,-61.4722 L 309.507,-61.6791 L 310,-61.75 L 310.493,-61.6791
 L 310.946,-61.4722 L 311.323,-61.146 L 311.592,-60.727 L 311.732,-60.249 L 311.732,-59.7509 L 311.592,-59.273
 L 311.323,-58.854 L 310.946,-58.5278 L 310.493,-58.3209 L 310,-58.25 z
M 489.507,-58.3209 L 489.054,-58.5278 L 488.677,-58.854 L 488.408,-59.273 L 488.268,-59.7509 L 488.268,-60.249
 L 488.408,-60.727 L 488.677,-61.146 L 489.054,-61.4722 L 489.507,-61.6791 L 490,-61.75 L 490.493,-61.6791
 L 490.946,-61.4722 L 491.323,-61.146 L 491.592,-60.727 L 491.732,-60.249 L 491.732,-59.7509 L 491.592,-59.273
 L 491.323,-58.854 L 490.946,-58.5278 L 490.493,-58.3209 L 490,-58.25 z
M 489.507,61.6791 L 489.054,61.4722 L 488.677,61.146 L 488.408,60.727 L 488.268,60.249 L 488.268,59.7509
 L 488.408,59.273 L 488.677,58.854 L 489.054,58.5278 L 489.507,58.3209 L 490,58.25 L 490.493,58.3209
 L 490.946,58.5278 L 491.323,58.854 L 491.592,59.273 L 491.732,59.7509 L 491.732,60.249 L 491.592,60.727
 L 491.323,61.146 L 490.946,61.4722 L 490.493,61.6791 L 490,61.75 z
M 309.507,61.6791 L 309.054,61.4722 L 308.677,61.146 L 308.408,60.727 L 308.268,60.249 L 308.268,59.7509
 L 308.408,59.273 L 308.677,58.854 L 309.054,58.5278 L 309.507,58.3209 L 310,58.25 L 310.493,58.3209
 L 310.946,58.5278 L 311.323,58.854 L 311.592,59.273 L 311.732,59.7509 L 311.732,60.249 L 311.592,60.727
 L 311.323,61.146 L 310.946,61.4722 L 310.493,61.6791 L 310,61.75 z
M 399.751,116.732 L 399.273,116.592 L 398.854,116.323 L 398.528,115.946 L 398.321,115.493 L 398.25,115
 L 398.321,114.507 L 398.528,114.054 L 398.854,113.677 L 399.273,113.408 L 399.751,113.268 L 400.249,113.268
 L 400.727,113.408 L 401.146,113.677 L 401.472,114.054 L 401.679,114.507 L 401.75,115 L 401.679,115.493
 L 401.472,115.946 L 401.146,116.323 L 400.727,116.592 L 400.249,116.732 z
M 97,-122 L -97,-122 L -97,122 L 97,122 z
M -0.249039,-113.268 L -0.726974,-113.408 L -1.146,-113.677 L -1.47218,-114.054 L -1.67911,-114.507 L -1.74998,-115
 L -1.67911,-115.493 L -1.47218,-115.946 L -1.146,-116.323 L -0.726974,-116.592 L -0.249039,-116.732 L 0.249039,-116.732
 L 0.726974,-116.592 L 1.146,-116.323 L 1.47218,-115.946 L 1.67911,-115.493 L 1.75,-115 L 1.67911,-114.507
 L 1.47218,-114.054 L 1.146,-113.677 L 0.726974,-113.408 L 0.249039,-113.268 z
M -90.493,-58.3209 L -90.9461,-58.5278 L -91.3226,-58.854 L -91.5918,-59.273 L -91.7322,-59.7509 L -91.7322,-60.249
 L -91.5918,-60.727 L -91.3226,-61.146 L -90.9461,-61.4722 L -90.493,-61.6791 L -90,-61.75 L -89.507,-61.6791
 L -89.0539,-61.4722 L -88.6774,-61.146 L -88.4081,-60.727 L -88.2678,-60.249 L -88.2678,-59.7509 L -88.4081,-59.273
 L -88.6774,-58.854 L -89.0539,-58.5278 L -89.507,-58.3209 L -90,-58.25 z
M 89.507,-58.3209 L 89.0539,-58.5278 L 88.6774,-58.854 L 88.4081,-59.273 L 88.2678,-59.7509 L 88.2678,-60.249
 L 88.4081,-60.727 L 88.6774,-61.146 L 89.0539,-61.4722 L 89.507,-61.6791 L 90,-61.75 L 90.493,-61.6791
 L 90.9461,-61.4722 L 91.3226,-61.146 L 91.5918,-60.727 L 91.7322,-60.249 L 91.7322,-59.7509 L 91.5918,-59.273
 L 91.3226,-58.854 L 90.9461,-58.5278 L 90.493,-58.3209 L 90,-58.25 z
M -90.493,61.6791 L -90.9461,61.4722 L -91.3226,61.146 L -91.5918,60.727 L -91.7322,60.249 L -91.7322,59.7509
 L -91.5918,59.273 L -91.3226,58.854 L -90.9461,58.5278 L -90.493,58.3209 L -90,58.25 L -89.507,58.3209
 L -89.0539,58.5278 L -88.6774,58.854 L -88.4081,59.273 L -88.2678,59.7509 L -88.2678,60.249 L -88.4081,60.727
 L -88.6774,61.146 L -89.0539,61.4722 L -89.507,61.6791 L -90,61.75 z
M 89.507,61.6791 L 89.0539,61.4722 L 88.6774,61.146 L 88.4081,60.727 L 88.2678,60.249 L 88.2678,59.7509
 L 88.4081,59.273 L 88.6774,58.854 L 89.0539,58.5278 L 89.507,58.3209 L 90,58.25 L 90.493,58.3209
 L 90.9461,58.5278 L 91.3226,58.854 L 91.5918,59.273 L 91.7322,59.7509 L 91.7322,60.249 L 91.5918,60.727
 L 91.3226,61.146 L 90.9461,61.4722 L 90.493,61.6791 L 90,61.75 z
M -0.249039,116.732 L -0.726974,116.592 L -1.146,116.323 L -1.47218,115.946 L -1.67911,115.493 L -1.75,115
 L -1.67911,114.507 L -1.47218,114.054 L -1.146,113.677 L -0.726974,113.408 L -0.249039,113.268 L 0.249039,113.268
 L 0.726974,113.408 L 1.146,113.677 L 1.47218,114.054 L 1.67911,114.507 L 1.75,115 L 1.67911,115.493
 L 1.47218,115.946 L 1.146,116.323 L 0.726974,116.592 L 0.249039,116.732 z
M 97,132 L -97,132 L -97,192 L 97,192 z
M -0.249039,143.732 L -0.726974,143.592 L -1.146,143.323 L -1.47218,142.946 L -1.67911,142.493 L -1.75,142
 L -1.67911,141.507 L -1.47218,141.054 L -1.146,140.677 L -0.726974,140.408 L -0.249039,140.268 L 0.249039,140.268
 L 0.726974,140.408 L 1.146,140.677 L 1.47218,141.054 L 1.67911,141.507 L 1.75,142 L 1.67911,142.493
 L 1.47218,142.946 L 1.146,143.323 L 0.726974,143.592 L 0.249039,143.732 z
M -5,150 L -5,148 L 5,148 L 5,150 z
M -0.495468,173.979 L -0.987564,173.918 L -1.4729,173.816 L -1.9482,173.675 L -2.41017,173.495 L -2.85568,173.277
 L -3.28168,173.023 L -3.68527,172.735 L -4.06367,172.414 L -4.41434,172.064 L -4.73483,171.685 L -5.02299,171.282
 L -5.27684,170.856 L -5.49463,170.41 L -5.6749,169.948 L -5.81639,169.473 L -5.91817,168.988 L -5.97949,168.495
 L -6,168 L -5.97949,167.505 L -5.91817,167.012 L -5.81639,166.527 L -5.6749,166.052 L -5.49463,165.59
 L -5.27684,165.144 L -5.02299,164.718 L -4.73483,164.315 L -4.41434,163.936 L -4.06367,163.586 L -3.68527,163.265
 L -3.28168,162.977 L -2.85568,162.723 L -2.41017,162.505 L -1.9482,162.325 L -1.4729,162.184 L -0.987564,162.082
 L -0.495468,162.02 L 0,162 L 0.495468,162.02 L 0.987564,162.082 L 1.4729,162.184 L 1.9482,162.325
 L 2.41017,162.505 L 2.85568,162.723 L 3.28168,162.977 L 3.68527,163.265 L 4.06367,163.586 L 4.41434,163.936
 L 4.73483,164.315 L 5.02299,164.718 L 5.27684,165.144 L 5.49463,165.59 L 5.6749,166.052 L 5.81639,166.527
 L 5.91817,167.012 L 5.97949,167.505 L 6,168 L 5.97949,168.495 L 5.91817,168.988 L 5.81639,169.473
 L 5.6749,169.948 L 5.49463,170.41 L 5.27684,170.856 L 5.02299,171.282 L 4.73483,171.685 L 4.41434,172.064
 L 4.06367,172.414 L 3.68527,172.735 L 3.28168,173.023 L 2.85568,173.277 L 2.41017,173.495 L 1.9482,173.675
 L 1.4729,173.816 L 0.987564,173.918 L 0.495468,173.979 L 0,174 z
M 89.507,176.679 L 89.0539,176.472 L 88.6774,176.146 L 88.4081,175.727 L 88.2678,175.249 L 88.2678,174.751
 L 88.4081,174.273 L 88.6774,173.854 L 89.0539,173.528 L 89.507,173.321 L 90,173.25 L 90.493,173.321
 L 90.9461,173.528 L 91.3226,173.854 L 91.5918,174.273 L 91.7322,174.751 L 91.7322,175.249 L 91.5918,175.727
 L 91.3226,176.146 L 90.9461,176.472 L 90.493,176.679 L 90,176.75 z
M -90.493,176.679 L -90.9461,176.472 L -91.3226,176.146 L -91.5918,175.727 L -91.7322,175.249 L -91.7322,174.751
 L -91.5918,174.273 L -91.3226,173.854 L -90.9461,173.528 L -90.493,173.321 L -90,173.25 L -89.507,173.321
 L -89.0539,173.528 L -88.6774,173.854 L -88.4081,174.273 L -88.2678,174.751 L -88.2678,175.249 L -88.4081,175.727
 L -88.6774,176.146 L -89.0539,176.472 L -89.507,176.679 L -90,176.75 z
M 497,132 L 303,132 L 303,192 L 497,192 z
M 399.751,143.732 L 399.273,143.592 L 398.854,143.323 L 398.528,142.946 L 398.321,142.493 L 398.25,142
 L 398.321,141.507 L 398.528,141.054 L 398.854,140.677 L 399.273,140.408 L 399.751,140.268 L 400.249,140.268
 L 400.727,140.408 L 401.146,140.677 L 401.472,141.054 L 401.679,141.507 L 401.75,142 L 401.679,142.493
 L 401.472,142.946 L 401.146,143.323 L 400.727,143.592 L 400.249,143.732 z
M 395,150 L 395,148 L 405,148 L 405,150 z
M 399.505,173.979 L 399.012,173.918 L 398.527,173.816 L 398.052,173.675 L 397.59,173.495 L 397.144,173.277
 L 396.718,173.023 L 396.315,172.735 L 395.936,172.414 L 395.586,172.064 L 395.265,171.685 L 394.977,171.282
 L 394.723,170.856 L 394.505,170.41 L 394.325,169.948 L 394.184,169.473 L 394.082,168.988 L 394.021,168.495
 L 394,168 L 394.021,167.505 L 394.082,167.012 L 394.184,166.527 L 394.325,166.052 L 394.505,165.59
 L 394.723,165.144 L 394.977,164.718 L 395.265,164.315 L 395.586,163.936 L 395.936,163.586 L 396.315,163.265
 L 396.718,162.977 L 397.144,162.723 L 397.59,162.505 L 398.052,162.325 L 398.527,162.184 L 399.012,162.082
 L 399.505,162.02 L 400,162 L 400.495,162.02 L 400.988,162.082 L 401.473,162.184 L 401.948,162.325
 L 402.41,162.505 L 402.856,162.723 L 403.282,162.977 L 403.685,163.265 L 404.064,163.586 L 404.414,163.936
 L 404.735,164.315 L 405.023,164.718 L 405.277,165.144 L 405.495,165.59 L 405.675,166.052 L 405.816,166.527
 L 405.918,167.012 L 405.979,167.505 L 406,168 L 405.979,168.495 L 405.918,168.988 L 405.816,169.473
 L 405.675,169.948 L 405.495,170.41 L 405.277,170.856 L 405.023,171.282 L 404.735,171.685 L 404.414,172.064
 L 404.064,172.414 L 403.685,172.735 L 403.282,173.023 L 402.856,173.277 L 402.41,173.495 L 401.948,173.675
 L 401.473,173.816 L 400.988,173.918 L 400.495,173.979 L 400,174 z
M 489.507,176.679 L 489.054,176.472 L 488.677,176.146 L 488.408,175.727 L 488.268,175.249 L 488.268,174.751
 L 488.408,174.273 L 488.677,173.854 L 489.054,173.528 L 489.507,173.321 L 490,173.25 L 490.493,173.321
 L 490.946,173.528 L 491.323,173.854 L 491.592,174.273 L 491.732,174.751 L 491.732,175.249 L 491.592,175.727
 L 491.323,176.146 L 490.946,176.472 L 490.493,176.679 L 490,176.75 z
M 309.507,176.679 L 309.054,176.472 L 308.677,176.146 L 308.408,175.727 L 308.268,175.249 L 308.268,174.751
 L 308.408,174.273 L 308.677,173.854 L 309.054,173.528 L 309.507,173.321 L 310,173.25 L 310.493,173.321
 L 310.946,173.528 L 311.323,173.854 L 311.592,174.273 L 311.732,174.751 L 311.732,175.249 L 311.592,175.727
 L 311.323,176.146 L 310.946,176.472 L 310.493,176.679 L 310,176.75 z
" stroke="black" fill="lightgray" stroke-width="0.5"/>
</svg>
