  0
SECTION
  2
BLOCKS
  0
ENDSEC
  0
SECTION
  2
ENTITIES
  0
LINE
  8
0
 10
97
 20
195
 11
-97
 21
195
  0
LINE
  8
0
 10
-97
 20
195
 11
-97
 21
155
  0
LINE
  8
0
 10
-97
 20
155
 11
-92
 21
155
  0
LINE
  8
0
 10
-92
 20
155
 11
-92
 21
135
  0
LINE
  8
0
 10
-92
 20
135
 11
97
 21
135
  0
LINE
  8
0
 10
97
 20
135
 11
97
 21
195
  0
LINE
  8
0
 10
-90.193
 20
173.321
 11
-90.6461
 21
173.528
  0
LINE
  8
0
 10
-90.6461
 20
173.528
 11
-91.0226
 21
173.854
  0
LINE
  8
0
 10
-91.0226
 20
173.854
 11
-91.2919
 21
174.273
  0
LINE
  8
0
 10
-91.2919
 20
174.273
 11
-91.4322
 21
174.751
  0
LINE
  8
0
 10
-91.4322
 20
174.751
 11
-91.4322
 21
175.249
  0
LINE
  8
0
 10
-91.4322
 20
175.249
 11
-91.2919
 21
175.727
  0
LINE
  8
0
 10
-91.2919
 20
175.727
 11
-91.0226
 21
176.146
  0
LINE
  8
0
 10
-91.0226
 20
176.146
 11
-90.6461
 21
176.472
  0
LINE
  8
0
 10
-90.6461
 20
176.472
 11
-90.193
 21
176.679
  0
LINE
  8
0
 10
-90.193
 20
176.679
 11
-89.7
 21
176.75
  0
LINE
  8
0
 10
-89.7
 20
176.75
 11
-89.207
 21
176.679
  0
LINE
  8
0
 10
-89.207
 20
176.679
 11
-88.7539
 21
176.472
  0
LINE
  8
0
 10
-88.7539
 20
176.472
 11
-88.3774
 21
176.146
  0
LINE
  8
0
 10
-88.3774
 20
176.146
 11
-88.1081
 21
175.727
  0
LINE
  8
0
 10
-88.1081
 20
175.727
 11
-87.9678
 21
175.249
  0
LINE
  8
0
 10
-87.9678
 20
175.249
 11
-87.9678
 21
174.751
  0
LINE
  8
0
 10
-87.9678
 20
174.751
 11
-88.1081
 21
174.273
  0
LINE
  8
0
 10
-88.1081
 20
174.273
 11
-88.3774
 21
173.854
  0
LINE
  8
0
 10
-88.3774
 20
173.854
 11
-88.7539
 21
173.528
  0
LINE
  8
0
 10
-88.7539
 20
173.528
 11
-89.207
 21
173.321
  0
LINE
  8
0
 10
-89.207
 20
173.321
 11
-89.7
 21
173.25
  0
LINE
  8
0
 10
-89.7
 20
173.25
 11
-90.193
 21
173.321
  0
LINE
  8
0
 10
89.207
 20
173.321
 11
88.7539
 21
173.528
  0
LINE
  8
0
 10
88.7539
 20
173.528
 11
88.3774
 21
173.854
  0
LINE
  8
0
 10
88.3774
 20
173.854
 11
88.1081
 21
174.273
  0
LINE
  8
0
 10
88.1081
 20
174.273
 11
87.9678
 21
174.751
  0
LINE
  8
0
 10
87.9678
 20
174.751
 11
87.9678
 21
175.249
  0
LINE
  8
0
 10
87.9678
 20
175.249
 11
88.1081
 21
175.727
  0
LINE
  8
0
 10
88.1081
 20
175.727
 11
88.3774
 21
176.146
  0
LINE
  8
0
 10
88.3774
 20
176.146
 11
88.7539
 21
176.472
  0
LINE
  8
0
 10
88.7539
 20
176.472
 11
89.207
 21
176.679
  0
LINE
  8
0
 10
89.207
 20
176.679
 11
89.7
 21
176.75
  0
LINE
  8
0
 10
89.7
 20
176.75
 11
90.193
 21
176.679
  0
LINE
  8
0
 10
90.193
 20
176.679
 11
90.6461
 21
176.472
  0
LINE
  8
0
 10
90.6461
 20
176.472
 11
91.0226
 21
176.146
  0
LINE
  8
0
 10
91.0226
 20
176.146
 11
91.2919
 21
175.727
  0
LINE
  8
0
 10
91.2919
 20
175.727
 11
91.4322
 21
175.249
  0
LINE
  8
0
 10
91.4322
 20
175.249
 11
91.4322
 21
174.751
  0
LINE
  8
0
 10
91.4322
 20
174.751
 11
91.2919
 21
174.273
  0
LINE
  8
0
 10
91.2919
 20
174.273
 11
91.0226
 21
173.854
  0
LINE
  8
0
 10
91.0226
 20
173.854
 11
90.6461
 21
173.528
  0
LINE
  8
0
 10
90.6461
 20
173.528
 11
90.193
 21
173.321
  0
LINE
  8
0
 10
90.193
 20
173.321
 11
89.7
 21
173.25
  0
LINE
  8
0
 10
89.7
 20
173.25
 11
89.207
 21
173.321
  0
LINE
  8
0
 10
-5
 20
151.7
 11
-5
 21
153.5
  0
LINE
  8
0
 10
-5
 20
153.5
 11
5
 21
153.5
  0
LINE
  8
0
 10
5
 20
153.5
 11
5
 21
151.7
  0
LINE
  8
0
 10
5
 20
151.7
 11
-5
 21
151.7
  0
LINE
  8
0
 10
-0.249039
 20
143.568
 11
-0.726974
 21
143.708
  0
LINE
  8
0
 10
-0.726974
 20
143.708
 11
-1.146
 21
143.977
  0
LINE
  8
0
 10
-1.146
 20
143.977
 11
-1.47218
 21
144.354
  0
LINE
  8
0
 10
-1.47218
 20
144.354
 11
-1.67911
 21
144.807
  0
LINE
  8
0
 10
-1.67911
 20
144.807
 11
-1.75
 21
145.3
  0
LINE
  8
0
 10
-1.75
 20
145.3
 11
-1.67911
 21
145.793
  0
LINE
  8
0
 10
-1.67911
 20
145.793
 11
-1.47218
 21
146.246
  0
LINE
  8
0
 10
-1.47218
 20
146.246
 11
-1.146
 21
146.623
  0
LINE
  8
0
 10
-1.146
 20
146.623
 11
-0.726974
 21
146.892
  0
LINE
  8
0
 10
-0.726974
 20
146.892
 11
-0.249039
 21
147.032
  0
LINE
  8
0
 10
-0.249039
 20
147.032
 11
0.249039
 21
147.032
  0
LINE
  8
0
 10
0.249039
 20
147.032
 11
0.726974
 21
146.892
  0
LINE
  8
0
 10
0.726974
 20
146.892
 11
1.146
 21
146.623
  0
LINE
  8
0
 10
1.146
 20
146.623
 11
1.47218
 21
146.246
  0
LINE
  8
0
 10
1.47218
 20
146.246
 11
1.67911
 21
145.793
  0
LINE
  8
0
 10
1.67911
 20
145.793
 11
1.75
 21
145.3
  0
LINE
  8
0
 10
1.75
 20
145.3
 11
1.67911
 21
144.807
  0
LINE
  8
0
 10
1.67911
 20
144.807
 11
1.47218
 21
144.354
  0
LINE
  8
0
 10
1.47218
 20
144.354
 11
1.146
 21
143.977
  0
LINE
  8
0
 10
1.146
 20
143.977
 11
0.726974
 21
143.708
  0
LINE
  8
0
 10
0.726974
 20
143.708
 11
0.249039
 21
143.568
  0
LINE
  8
0
 10
0.249039
 20
143.568
 11
-0.249039
 21
143.568
  0
LINE
  8
0
 10
497
 20
195
 11
303
 21
195
  0
LINE
  8
0
 10
303
 20
195
 11
303
 21
135
  0
LINE
  8
0
 10
303
 20
135
 11
497
 21
135
  0
LINE
  8
0
 10
497
 20
135
 11
497
 21
195
  0
LINE
  8
0
 10
399.505
 20
165.02
 11
399.012
 21
165.082
  0
LINE
  8
0
 10
399.012
 20
165.082
 11
398.527
 21
165.184
  0
LINE
  8
0
 10
398.527
 20
165.184
 11
398.052
 21
165.325
  0
LINE
  8
0
 10
398.052
 20
165.325
 11
397.59
 21
165.505
  0
LINE
  8
0
 10
397.59
 20
165.505
 11
397.144
 21
165.723
  0
LINE
  8
0
 10
397.144
 20
165.723
 11
396.718
 21
165.977
  0
LINE
  8
0
 10
396.718
 20
165.977
 11
396.315
 21
166.265
  0
LINE
  8
0
 10
396.315
 20
166.265
 11
395.936
 21
166.586
  0
LINE
  8
0
 10
395.936
 20
166.586
 11
395.586
 21
166.936
  0
LINE
  8
0
 10
395.586
 20
166.936
 11
395.265
 21
167.315
  0
LINE
  8
0
 10
395.265
 20
167.315
 11
394.977
 21
167.718
  0
LINE
  8
0
 10
394.977
 20
167.718
 11
394.723
 21
168.144
  0
LINE
  8
0
 10
394.723
 20
168.144
 11
394.505
 21
168.59
  0
LINE
  8
0
 10
394.505
 20
168.59
 11
394.325
 21
169.052
  0
LINE
  8
0
 10
394.325
 20
169.052
 11
394.184
 21
169.527
  0
LINE
  8
0
 10
394.184
 20
169.527
 11
394.082
 21
170.012
  0
LINE
  8
0
 10
394.082
 20
170.012
 11
394.021
 21
170.505
  0
LINE
  8
0
 10
394.021
 20
170.505
 11
394
 21
171
  0
LINE
  8
0
 10
394
 20
171
 11
394.021
 21
171.495
  0
LINE
  8
0
 10
394.021
 20
171.495
 11
394.082
 21
171.988
  0
LINE
  8
0
 10
394.082
 20
171.988
 11
394.184
 21
172.473
  0
LINE
  8
0
 10
394.184
 20
172.473
 11
394.325
 21
172.948
  0
LINE
  8
0
 10
394.325
 20
172.948
 11
394.505
 21
173.41
  0
LINE
  8
0
 10
394.505
 20
173.41
 11
394.723
 21
173.856
  0
LINE
  8
0
 10
394.723
 20
173.856
 11
394.977
 21
174.282
  0
LINE
  8
0
 10
394.977
 20
174.282
 11
395.265
 21
174.685
  0
LINE
  8
0
 10
395.265
 20
174.685
 11
395.586
 21
175.064
  0
LINE
  8
0
 10
395.586
 20
175.064
 11
395.936
 21
175.414
  0
LINE
  8
0
 10
395.936
 20
175.414
 11
396.315
 21
175.735
  0
LINE
  8
0
 10
396.315
 20
175.735
 11
396.718
 21
176.023
  0
LINE
  8
0
 10
396.718
 20
176.023
 11
397.144
 21
176.277
  0
LINE
  8
0
 10
397.144
 20
176.277
 11
397.59
 21
176.495
  0
LINE
  8
0
 10
397.59
 20
176.495
 11
398.052
 21
176.675
  0
LINE
  8
0
 10
398.052
 20
176.675
 11
398.527
 21
176.816
  0
LINE
  8
0
 10
398.527
 20
176.816
 11
399.012
 21
176.918
  0
LINE
  8
0
 10
399.012
 20
176.918
 11
399.505
 21
176.979
  0
LINE
  8
0
 10
399.505
 20
176.979
 11
400
 21
177
  0
LINE
  8
0
 10
400
 20
177
 11
400.495
 21
176.979
  0
LINE
  8
0
 10
400.495
 20
176.979
 11
400.988
 21
176.918
  0
LINE
  8
0
 10
400.988
 20
176.918
 11
401.473
 21
176.816
  0
LINE
  8
0
 10
401.473
 20
176.816
 11
401.948
 21
176.675
  0
LINE
  8
0
 10
401.948
 20
176.675
 11
402.41
 21
176.495
  0
LINE
  8
0
 10
402.41
 20
176.495
 11
402.856
 21
176.277
  0
LINE
  8
0
 10
402.856
 20
176.277
 11
403.282
 21
176.023
  0
LINE
  8
0
 10
403.282
 20
176.023
 11
403.685
 21
175.735
  0
LINE
  8
0
 10
403.685
 20
175.735
 11
404.064
 21
175.414
  0
LINE
  8
0
 10
404.064
 20
175.414
 11
404.414
 21
175.064
  0
LINE
  8
0
 10
404.414
 20
175.064
 11
404.735
 21
174.685
  0
LINE
  8
0
 10
404.735
 20
174.685
 11
405.023
 21
174.282
  0
LINE
  8
0
 10
405.023
 20
174.282
 11
405.277
 21
173.856
  0
LINE
  8
0
 10
405.277
 20
173.856
 11
405.495
 21
173.41
  0
LINE
  8
0
 10
405.495
 20
173.41
 11
405.675
 21
172.948
  0
LINE
  8
0
 10
405.675
 20
172.948
 11
405.816
 21
172.473
  0
LINE
  8
0
 10
405.816
 20
172.473
 11
405.918
 21
171.988
  0
LINE
  8
0
 10
405.918
 20
171.988
 11
405.979
 21
171.495
  0
LINE
  8
0
 10
405.979
 20
171.495
 11
406
 21
171
  0
LINE
  8
0
 10
406
 20
171
 11
405.979
 21
170.505
  0
LINE
  8
0
 10
405.979
 20
170.505
 11
405.918
 21
170.012
  0
LINE
  8
0
 10
405.918
 20
170.012
 11
405.816
 21
169.527
  0
LINE
  8
0
 10
405.816
 20
169.527
 11
405.675
 21
169.052
  0
LINE
  8
0
 10
405.675
 20
169.052
 11
405.495
 21
168.59
  0
LINE
  8
0
 10
405.495
 20
168.59
 11
405.277
 21
168.144
  0
LINE
  8
0
 10
405.277
 20
168.144
 11
405.023
 21
167.718
  0
LINE
  8
0
 10
405.023
 20
167.718
 11
404.735
 21
167.315
  0
LINE
  8
0
 10
404.735
 20
167.315
 11
404.414
 21
166.936
  0
LINE
  8
0
 10
404.414
 20
166.936
 11
404.064
 21
166.586
  0
LINE
  8
0
 10
404.064
 20
166.586
 11
403.685
 21
166.265
  0
LINE
  8
0
 10
403.685
 20
166.265
 11
403.282
 21
165.977
  0
LINE
  8
0
 10
403.282
 20
165.977
 11
402.856
 21
165.723
  0
LINE
  8
0
 10
402.856
 20
165.723
 11
402.41
 21
165.505
  0
LINE
  8
0
 10
402.41
 20
165.505
 11
401.948
 21
165.325
  0
LINE
  8
0
 10
401.948
 20
165.325
 11
401.473
 21
165.184
  0
LINE
  8
0
 10
401.473
 20
165.184
 11
400.988
 21
165.082
  0
LINE
  8
0
 10
400.988
 20
165.082
 11
400.495
 21
165.02
  0
LINE
  8
0
 10
400.495
 20
165.02
 11
400
 21
165
  0
LINE
  8
0
 10
400
 20
165
 11
399.505
 21
165.02
  0
LINE
  8
0
 10
309.807
 20
173.321
 11
309.354
 21
173.528
  0
LINE
  8
0
 10
309.354
 20
173.528
 11
308.977
 21
173.854
  0
LINE
  8
0
 10
308.977
 20
173.854
 11
308.708
 21
174.273
  0
LINE
  8
0
 10
308.708
 20
174.273
 11
308.568
 21
174.751
  0
LINE
  8
0
 10
308.568
 20
174.751
 11
308.568
 21
175.249
  0
LINE
  8
0
 10
308.568
 20
175.249
 11
308.708
 21
175.727
  0
LINE
  8
0
 10
308.708
 20
175.727
 11
308.977
 21
176.146
  0
LINE
  8
0
 10
308.977
 20
176.146
 11
309.354
 21
176.472
  0
LINE
  8
0
 10
309.354
 20
176.472
 11
309.807
 21
176.679
  0
LINE
  8
0
 10
309.807
 20
176.679
 11
310.3
 21
176.75
  0
LINE
  8
0
 10
310.3
 20
176.75
 11
310.793
 21
176.679
  0
LINE
  8
0
 10
310.793
 20
176.679
 11
311.246
 21
176.472
  0
LINE
  8
0
 10
311.246
 20
176.472
 11
311.623
 21
176.146
  0
LINE
  8
0
 10
311.623
 20
176.146
 11
311.892
 21
175.727
  0
LINE
  8
0
 10
311.892
 20
175.727
 11
312.032
 21
175.249
  0
LINE
  8
0
 10
312.032
 20
175.249
 11
312.032
 21
174.751
  0
LINE
  8
0
 10
312.032
 20
174.751
 11
311.892
 21
174.273
  0
LINE
  8
0
 10
311.892
 20
174.273
 11
311.623
 21
173.854
  0
LINE
  8
0
 10
311.623
 20
173.854
 11
311.246
 21
173.528
  0
LINE
  8
0
 10
311.246
 20
173.528
 11
310.793
 21
173.321
  0
LINE
  8
0
 10
310.793
 20
173.321
 11
310.3
 21
173.25
  0
LINE
  8
0
 10
310.3
 20
173.25
 11
309.807
 21
173.321
  0
LINE
  8
0
 10
489.207
 20
173.321
 11
488.754
 21
173.528
  0
LINE
  8
0
 10
488.754
 20
173.528
 11
488.377
 21
173.854
  0
LINE
  8
0
 10
488.377
 20
173.854
 11
488.108
 21
174.273
  0
LINE
  8
0
 10
488.108
 20
174.273
 11
487.968
 21
174.751
  0
LINE
  8
0
 10
487.968
 20
174.751
 11
487.968
 21
175.249
  0
LINE
  8
0
 10
487.968
 20
175.249
 11
488.108
 21
175.727
  0
LINE
  8
0
 10
488.108
 20
175.727
 11
488.377
 21
176.146
  0
LINE
  8
0
 10
488.377
 20
176.146
 11
488.754
 21
176.472
  0
LINE
  8
0
 10
488.754
 20
176.472
 11
489.207
 21
176.679
  0
LINE
  8
0
 10
489.207
 20
176.679
 11
489.7
 21
176.75
  0
LINE
  8
0
 10
489.7
 20
176.75
 11
490.193
 21
176.679
  0
LINE
  8
0
 10
490.193
 20
176.679
 11
490.646
 21
176.472
  0
LINE
  8
0
 10
490.646
 20
176.472
 11
491.023
 21
176.146
  0
LINE
  8
0
 10
491.023
 20
176.146
 11
491.292
 21
175.727
  0
LINE
  8
0
 10
491.292
 20
175.727
 11
491.432
 21
175.249
  0
LINE
  8
0
 10
491.432
 20
175.249
 11
491.432
 21
174.751
  0
LINE
  8
0
 10
491.432
 20
174.751
 11
491.292
 21
174.273
  0
LINE
  8
0
 10
491.292
 20
174.273
 11
491.023
 21
173.854
  0
LINE
  8
0
 10
491.023
 20
173.854
 11
490.646
 21
173.528
  0
LINE
  8
0
 10
490.646
 20
173.528
 11
490.193
 21
173.321
  0
LINE
  8
0
 10
490.193
 20
173.321
 11
489.7
 21
173.25
  0
LINE
  8
0
 10
489.7
 20
173.25
 11
489.207
 21
173.321
  0
LINE
  8
0
 10
395
 20
151.7
 11
395
 21
153.5
  0
LINE
  8
0
 10
395
 20
153.5
 11
405
 21
153.5
  0
LINE
  8
0
 10
405
 20
153.5
 11
405
 21
151.7
  0
LINE
  8
0
 10
405
 20
151.7
 11
395
 21
151.7
  0
LINE
  8
0
 10
399.751
 20
143.568
 11
399.273
 21
143.708
  0
LINE
  8
0
 10
399.273
 20
143.708
 11
398.854
 21
143.977
  0
LINE
  8
0
 10
398.854
 20
143.977
 11
398.528
 21
144.354
  0
LINE
  8
0
 10
398.528
 20
144.354
 11
398.321
 21
144.807
  0
LINE
  8
0
 10
398.321
 20
144.807
 11
398.25
 21
145.3
  0
LINE
  8
0
 10
398.25
 20
145.3
 11
398.321
 21
145.793
  0
LINE
  8
0
 10
398.321
 20
145.793
 11
398.528
 21
146.246
  0
LINE
  8
0
 10
398.528
 20
146.246
 11
398.854
 21
146.623
  0
LINE
  8
0
 10
398.854
 20
146.623
 11
399.273
 21
146.892
  0
LINE
  8
0
 10
399.273
 20
146.892
 11
399.751
 21
147.032
  0
LINE
  8
0
 10
399.751
 20
147.032
 11
400.249
 21
147.032
  0
LINE
  8
0
 10
400.249
 20
147.032
 11
400.727
 21
146.892
  0
LINE
  8
0
 10
400.727
 20
146.892
 11
401.146
 21
146.623
  0
LINE
  8
0
 10
401.146
 20
146.623
 11
401.472
 21
146.246
  0
LINE
  8
0
 10
401.472
 20
146.246
 11
401.679
 21
145.793
  0
LINE
  8
0
 10
401.679
 20
145.793
 11
401.75
 21
145.3
  0
LINE
  8
0
 10
401.75
 20
145.3
 11
401.679
 21
144.807
  0
LINE
  8
0
 10
401.679
 20
144.807
 11
401.472
 21
144.354
  0
LINE
  8
0
 10
401.472
 20
144.354
 11
401.146
 21
143.977
  0
LINE
  8
0
 10
401.146
 20
143.977
 11
400.727
 21
143.708
  0
LINE
  8
0
 10
400.727
 20
143.708
 11
400.249
 21
143.568
  0
LINE
  8
0
 10
400.249
 20
143.568
 11
399.751
 21
143.568
  0
LINE
  8
0
 10
170
 20
125
 11
110
 21
125
  0
LINE
  8
0
 10
110
 20
125
 11
110
 21
-125
  0
LINE
  8
0
 10
110
 20
-125
 11
170
 21
-125
  0
LINE
  8
0
 10
170
 20
-125
 11
170
 21
125
  0
LINE
  8
0
 10
149.751
 20
112.968
 11
149.273
 21
113.108
  0
LINE
  8
0
 10
149.273
 20
113.108
 11
148.854
 21
113.377
  0
LINE
  8
0
 10
148.854
 20
113.377
 11
148.528
 21
113.754
  0
LINE
  8
0
 10
148.528
 20
113.754
 11
148.321
 21
114.207
  0
LINE
  8
0
 10
148.321
 20
114.207
 11
148.25
 21
114.7
  0
LINE
  8
0
 10
148.25
 20
114.7
 11
148.321
 21
115.193
  0
LINE
  8
0
 10
148.321
 20
115.193
 11
148.528
 21
115.646
  0
LINE
  8
0
 10
148.528
 20
115.646
 11
148.854
 21
116.023
  0
LINE
  8
0
 10
148.854
 20
116.023
 11
149.273
 21
116.292
  0
LINE
  8
0
 10
149.273
 20
116.292
 11
149.751
 21
116.432
  0
LINE
  8
0
 10
149.751
 20
116.432
 11
150.249
 21
116.432
  0
LINE
  8
0
 10
150.249
 20
116.432
 11
150.727
 21
116.292
  0
LINE
  8
0
 10
150.727
 20
116.292
 11
151.146
 21
116.023
  0
LINE
  8
0
 10
151.146
 20
116.023
 11
151.472
 21
115.646
  0
LINE
  8
0
 10
151.472
 20
115.646
 11
151.679
 21
115.193
  0
LINE
  8
0
 10
151.679
 20
115.193
 11
151.75
 21
114.7
  0
LINE
  8
0
 10
151.75
 20
114.7
 11
151.679
 21
114.207
  0
LINE
  8
0
 10
151.679
 20
114.207
 11
151.472
 21
113.754
  0
LINE
  8
0
 10
151.472
 20
113.754
 11
151.146
 21
113.377
  0
LINE
  8
0
 10
151.146
 20
113.377
 11
150.727
 21
113.108
  0
LINE
  8
0
 10
150.727
 20
113.108
 11
150.249
 21
112.968
  0
LINE
  8
0
 10
150.249
 20
112.968
 11
149.751
 21
112.968
  0
LINE
  8
0
 10
145
 20
106.5
 11
145
 21
108.3
  0
LINE
  8
0
 10
145
 20
108.3
 11
155
 21
108.3
  0
LINE
  8
0
 10
155
 20
108.3
 11
155
 21
106.5
  0
LINE
  8
0
 10
155
 20
106.5
 11
145
 21
106.5
  0
LINE
  8
0
 10
126.7
 20
55
 11
126.7
 21
65
  0
LINE
  8
0
 10
126.7
 20
65
 11
128.5
 21
65
  0
LINE
  8
0
 10
128.5
 20
65
 11
128.5
 21
55
  0
LINE
  8
0
 10
128.5
 20
55
 11
126.7
 21
55
  0
LINE
  8
0
 10
119.807
 20
58.3209
 11
119.354
 21
58.5278
  0
LINE
  8
0
 10
119.354
 20
58.5278
 11
118.977
 21
58.854
  0
LINE
  8
0
 10
118.977
 20
58.854
 11
118.708
 21
59.273
  0
LINE
  8
0
 10
118.708
 20
59.273
 11
118.568
 21
59.751
  0
LINE
  8
0
 10
118.568
 20
59.751
 11
118.568
 21
60.249
  0
LINE
  8
0
 10
118.568
 20
60.249
 11
118.708
 21
60.727
  0
LINE
  8
0
 10
118.708
 20
60.727
 11
118.977
 21
61.146
  0
LINE
  8
0
 10
118.977
 20
61.146
 11
119.354
 21
61.4722
  0
LINE
  8
0
 10
119.354
 20
61.4722
 11
119.807
 21
61.6791
  0
LINE
  8
0
 10
119.807
 20
61.6791
 11
120.3
 21
61.75
  0
LINE
  8
0
 10
120.3
 20
61.75
 11
120.793
 21
61.6791
  0
LINE
  8
0
 10
120.793
 20
61.6791
 11
121.246
 21
61.4722
  0
LINE
  8
0
 10
121.246
 20
61.4722
 11
121.623
 21
61.146
  0
LINE
  8
0
 10
121.623
 20
61.146
 11
121.892
 21
60.727
  0
LINE
  8
0
 10
121.892
 20
60.727
 11
122.032
 21
60.249
  0
LINE
  8
0
 10
122.032
 20
60.249
 11
122.032
 21
59.751
  0
LINE
  8
0
 10
122.032
 20
59.751
 11
121.892
 21
59.273
  0
LINE
  8
0
 10
121.892
 20
59.273
 11
121.623
 21
58.854
  0
LINE
  8
0
 10
121.623
 20
58.854
 11
121.246
 21
58.5278
  0
LINE
  8
0
 10
121.246
 20
58.5278
 11
120.793
 21
58.3209
  0
LINE
  8
0
 10
120.793
 20
58.3209
 11
120.3
 21
58.25
  0
LINE
  8
0
 10
120.3
 20
58.25
 11
119.807
 21
58.3209
  0
LINE
  8
0
 10
126.7
 20
-65
 11
126.7
 21
-55
  0
LINE
  8
0
 10
126.7
 20
-55
 11
128.5
 21
-55
  0
LINE
  8
0
 10
128.5
 20
-55
 11
128.5
 21
-65
  0
LINE
  8
0
 10
128.5
 20
-65
 11
126.7
 21
-65
  0
LINE
  8
0
 10
119.807
 20
-61.6791
 11
119.354
 21
-61.4722
  0
LINE
  8
0
 10
119.354
 20
-61.4722
 11
118.977
 21
-61.146
  0
LINE
  8
0
 10
118.977
 20
-61.146
 11
118.708
 21
-60.727
  0
LINE
  8
0
 10
118.708
 20
-60.727
 11
118.568
 21
-60.249
  0
LINE
  8
0
 10
118.568
 20
-60.249
 11
118.568
 21
-59.751
  0
LINE
  8
0
 10
118.568
 20
-59.751
 11
118.708
 21
-59.273
  0
LINE
  8
0
 10
118.708
 20
-59.273
 11
118.977
 21
-58.854
  0
LINE
  8
0
 10
118.977
 20
-58.854
 11
119.354
 21
-58.5278
  0
LINE
  8
0
 10
119.354
 20
-58.5278
 11
119.807
 21
-58.3209
  0
LINE
  8
0
 10
119.807
 20
-58.3209
 11
120.3
 21
-58.25
  0
LINE
  8
0
 10
120.3
 20
-58.25
 11
120.793
 21
-58.3209
  0
LINE
  8
0
 10
120.793
 20
-58.3209
 11
121.246
 21
-58.5278
  0
LINE
  8
0
 10
121.246
 20
-58.5278
 11
121.623
 21
-58.854
  0
LINE
  8
0
 10
121.623
 20
-58.854
 11
121.892
 21
-59.273
  0
LINE
  8
0
 10
121.892
 20
-59.273
 11
122.032
 21
-59.751
  0
LINE
  8
0
 10
122.032
 20
-59.751
 11
122.032
 21
-60.249
  0
LINE
  8
0
 10
122.032
 20
-60.249
 11
121.892
 21
-60.727
  0
LINE
  8
0
 10
121.892
 20
-60.727
 11
121.623
 21
-61.146
  0
LINE
  8
0
 10
121.623
 20
-61.146
 11
121.246
 21
-61.4722
  0
LINE
  8
0
 10
121.246
 20
-61.4722
 11
120.793
 21
-61.6791
  0
LINE
  8
0
 10
120.793
 20
-61.6791
 11
120.3
 21
-61.75
  0
LINE
  8
0
 10
120.3
 20
-61.75
 11
119.807
 21
-61.6791
  0
LINE
  8
0
 10
145
 20
-108.3
 11
145
 21
-106.5
  0
LINE
  8
0
 10
145
 20
-106.5
 11
155
 21
-106.5
  0
LINE
  8
0
 10
155
 20
-106.5
 11
155
 21
-108.3
  0
LINE
  8
0
 10
155
 20
-108.3
 11
145
 21
-108.3
  0
LINE
  8
0
 10
149.751
 20
-116.432
 11
149.273
 21
-116.292
  0
LINE
  8
0
 10
149.273
 20
-116.292
 11
148.854
 21
-116.023
  0
LINE
  8
0
 10
148.854
 20
-116.023
 11
148.528
 21
-115.646
  0
LINE
  8
0
 10
148.528
 20
-115.646
 11
148.321
 21
-115.193
  0
LINE
  8
0
 10
148.321
 20
-115.193
 11
148.25
 21
-114.7
  0
LINE
  8
0
 10
148.25
 20
-114.7
 11
148.321
 21
-114.207
  0
LINE
  8
0
 10
148.321
 20
-114.207
 11
148.528
 21
-113.754
  0
LINE
  8
0
 10
148.528
 20
-113.754
 11
148.854
 21
-113.377
  0
LINE
  8
0
 10
148.854
 20
-113.377
 11
149.273
 21
-113.108
  0
LINE
  8
0
 10
149.273
 20
-113.108
 11
149.751
 21
-112.968
  0
LINE
  8
0
 10
149.751
 20
-112.968
 11
150.249
 21
-112.968
  0
LINE
  8
0
 10
150.249
 20
-112.968
 11
150.727
 21
-113.108
  0
LINE
  8
0
 10
150.727
 20
-113.108
 11
151.146
 21
-113.377
  0
LINE
  8
0
 10
151.146
 20
-113.377
 11
151.472
 21
-113.754
  0
LINE
  8
0
 10
151.472
 20
-113.754
 11
151.679
 21
-114.207
  0
LINE
  8
0
 10
151.679
 20
-114.207
 11
151.75
 21
-114.7
  0
LINE
  8
0
 10
151.75
 20
-114.7
 11
151.679
 21
-115.193
  0
LINE
  8
0
 10
151.679
 20
-115.193
 11
151.472
 21
-115.646
  0
LINE
  8
0
 10
151.472
 20
-115.646
 11
151.146
 21
-116.023
  0
LINE
  8
0
 10
151.146
 20
-116.023
 11
150.727
 21
-116.292
  0
LINE
  8
0
 10
150.727
 20
-116.292
 11
150.249
 21
-116.432
  0
LINE
  8
0
 10
150.249
 20
-116.432
 11
149.751
 21
-116.432
  0
LINE
  8
0
 10
113
 20
-122.1
 11
113
 21
-117.1
  0
LINE
  8
0
 10
113
 20
-117.1
 11
133
 21
-117.1
  0
LINE
  8
0
 10
133
 20
-117.1
 11
133
 21
-122.1
  0
LINE
  8
0
 10
133
 20
-122.1
 11
113
 21
-122.1
  0
LINE
  8
0
 10
-110
 20
125
 11
-170
 21
125
  0
LINE
  8
0
 10
-170
 20
125
 11
-170
 21
-125
  0
LINE
  8
0
 10
-170
 20
-125
 11
-110
 21
-125
  0
LINE
  8
0
 10
-110
 20
-125
 11
-110
 21
125
  0
LINE
  8
0
 10
-150.249
 20
112.968
 11
-150.727
 21
113.108
  0
LINE
  8
0
 10
-150.727
 20
113.108
 11
-151.146
 21
113.377
  0
LINE
  8
0
 10
-151.146
 20
113.377
 11
-151.472
 21
113.754
  0
LINE
  8
0
 10
-151.472
 20
113.754
 11
-151.679
 21
114.207
  0
LINE
  8
0
 10
-151.679
 20
114.207
 11
-151.75
 21
114.7
  0
LINE
  8
0
 10
-151.75
 20
114.7
 11
-151.679
 21
115.193
  0
LINE
  8
0
 10
-151.679
 20
115.193
 11
-151.472
 21
115.646
  0
LINE
  8
0
 10
-151.472
 20
115.646
 11
-151.146
 21
116.023
  0
LINE
  8
0
 10
-151.146
 20
116.023
 11
-150.727
 21
116.292
  0
LINE
  8
0
 10
-150.727
 20
116.292
 11
-150.249
 21
116.432
  0
LINE
  8
0
 10
-150.249
 20
116.432
 11
-149.751
 21
116.432
  0
LINE
  8
0
 10
-149.751
 20
116.432
 11
-149.273
 21
116.292
  0
LINE
  8
0
 10
-149.273
 20
116.292
 11
-148.854
 21
116.023
  0
LINE
  8
0
 10
-148.854
 20
116.023
 11
-148.528
 21
115.646
  0
LINE
  8
0
 10
-148.528
 20
115.646
 11
-148.321
 21
115.193
  0
LINE
  8
0
 10
-148.321
 20
115.193
 11
-148.25
 21
114.7
  0
LINE
  8
0
 10
-148.25
 20
114.7
 11
-148.321
 21
114.207
  0
LINE
  8
0
 10
-148.321
 20
114.207
 11
-148.528
 21
113.754
  0
LINE
  8
0
 10
-148.528
 20
113.754
 11
-148.854
 21
113.377
  0
LINE
  8
0
 10
-148.854
 20
113.377
 11
-149.273
 21
113.108
  0
LINE
  8
0
 10
-149.273
 20
113.108
 11
-149.751
 21
112.968
  0
LINE
  8
0
 10
-149.751
 20
112.968
 11
-150.249
 21
112.968
  0
LINE
  8
0
 10
-155
 20
106.5
 11
-155
 21
108.3
  0
LINE
  8
0
 10
-155
 20
108.3
 11
-145
 21
108.3
  0
LINE
  8
0
 10
-145
 20
108.3
 11
-145
 21
106.5
  0
LINE
  8
0
 10
-145
 20
106.5
 11
-155
 21
106.5
  0
LINE
  8
0
 10
-128.5
 20
55
 11
-128.5
 21
65
  0
LINE
  8
0
 10
-128.5
 20
65
 11
-126.7
 21
65
  0
LINE
  8
0
 10
-126.7
 20
65
 11
-126.7
 21
55
  0
LINE
  8
0
 10
-126.7
 20
55
 11
-128.5
 21
55
  0
LINE
  8
0
 10
-120.793
 20
58.3209
 11
-121.246
 21
58.5278
  0
LINE
  8
0
 10
-121.246
 20
58.5278
 11
-121.623
 21
58.854
  0
LINE
  8
0
 10
-121.623
 20
58.854
 11
-121.892
 21
59.273
  0
LINE
  8
0
 10
-121.892
 20
59.273
 11
-122.032
 21
59.751
  0
LINE
  8
0
 10
-122.032
 20
59.751
 11
-122.032
 21
60.249
  0
LINE
  8
0
 10
-122.032
 20
60.249
 11
-121.892
 21
60.727
  0
LINE
  8
0
 10
-121.892
 20
60.727
 11
-121.623
 21
61.146
  0
LINE
  8
0
 10
-121.623
 20
61.146
 11
-121.246
 21
61.4722
  0
LINE
  8
0
 10
-121.246
 20
61.4722
 11
-120.793
 21
61.6791
  0
LINE
  8
0
 10
-120.793
 20
61.6791
 11
-120.3
 21
61.75
  0
LINE
  8
0
 10
-120.3
 20
61.75
 11
-119.807
 21
61.6791
  0
LINE
  8
0
 10
-119.807
 20
61.6791
 11
-119.354
 21
61.4722
  0
LINE
  8
0
 10
-119.354
 20
61.4722
 11
-118.977
 21
61.146
  0
LINE
  8
0
 10
-118.977
 20
61.146
 11
-118.708
 21
60.727
  0
LINE
  8
0
 10
-118.708
 20
60.727
 11
-118.568
 21
60.249
  0
LINE
  8
0
 10
-118.568
 20
60.249
 11
-118.568
 21
59.751
  0
LINE
  8
0
 10
-118.568
 20
59.751
 11
-118.708
 21
59.273
  0
LINE
  8
0
 10
-118.708
 20
59.273
 11
-118.977
 21
58.854
  0
LINE
  8
0
 10
-118.977
 20
58.854
 11
-119.354
 21
58.5278
  0
LINE
  8
0
 10
-119.354
 20
58.5278
 11
-119.807
 21
58.3209
  0
LINE
  8
0
 10
-119.807
 20
58.3209
 11
-120.3
 21
58.25
  0
LINE
  8
0
 10
-120.3
 20
58.25
 11
-120.793
 21
58.3209
  0
LINE
  8
0
 10
-146.495
 20
19.0205
 11
-146.988
 21
19.0818
  0
LINE
  8
0
 10
-146.988
 20
19.0818
 11
-147.473
 21
19.1836
  0
LINE
  8
0
 10
-147.473
 20
19.1836
 11
-147.948
 21
19.3251
  0
LINE
  8
0
 10
-147.948
 20
19.3251
 11
-148.41
 21
19.5054
  0
LINE
  8
0
 10
-148.41
 20
19.5054
 11
-148.856
 21
19.7231
  0
LINE
  8
0
 10
-148.856
 20
19.7231
 11
-149.282
 21
19.977
  0
LINE
  8
0
 10
-149.282
 20
19.977
 11
-149.685
 21
20.2652
  0
LINE
  8
0
 10
-149.685
 20
20.2652
 11
-150.064
 21
20.5856
  0
LINE
  8
0
 10
-150.064
 20
20.5856
 11
-150.414
 21
20.9363
  0
LINE
  8
0
 10
-150.414
 20
20.9363
 11
-150.735
 21
21.3147
  0
LINE
  8
0
 10
-150.735
 20
21.3147
 11
-151.023
 21
21.7183
  0
LINE
  8
0
 10
-151.023
 20
21.7183
 11
-151.277
 21
22.1443
  0
LINE
  8
0
 10
-151.277
 20
22.1443
 11
-151.495
 21
22.5898
  0
LINE
  8
0
 10
-151.495
 20
22.5898
 11
-151.675
 21
23.0518
  0
LINE
  8
0
 10
-151.675
 20
23.0518
 11
-151.816
 21
23.5271
  0
LINE
  8
0
 10
-151.816
 20
23.5271
 11
-151.918
 21
24.0124
  0
LINE
  8
0
 10
-151.918
 20
24.0124
 11
-151.979
 21
24.5045
  0
LINE
  8
0
 10
-151.979
 20
24.5045
 11
-152
 21
25
  0
LINE
  8
0
 10
-152
 20
25
 11
-151.979
 21
25.4955
  0
LINE
  8
0
 10
-151.979
 20
25.4955
 11
-151.918
 21
25.9876
  0
LINE
  8
0
 10
-151.918
 20
25.9876
 11
-151.816
 21
26.4729
  0
LINE
  8
0
 10
-151.816
 20
26.4729
 11
-151.675
 21
26.9482
  0
LINE
  8
0
 10
-151.675
 20
26.9482
 11
-151.495
 21
27.4102
  0
LINE
  8
0
 10
-151.495
 20
27.4102
 11
-151.277
 21
27.8557
  0
LINE
  8
0
 10
-151.277
 20
27.8557
 11
-151.023
 21
28.2817
  0
LINE
  8
0
 10
-151.023
 20
28.2817
 11
-150.735
 21
28.6853
  0
LINE
  8
0
 10
-150.735
 20
28.6853
 11
-150.414
 21
29.0637
  0
LINE
  8
0
 10
-150.414
 20
29.0637
 11
-150.064
 21
29.4143
  0
LINE
  8
0
 10
-150.064
 20
29.4143
 11
-149.685
 21
29.7348
  0
LINE
  8
0
 10
-149.685
 20
29.7348
 11
-149.282
 21
30.023
  0
LINE
  8
0
 10
-149.282
 20
30.023
 11
-148.856
 21
30.2768
  0
LINE
  8
0
 10
-148.856
 20
30.2768
 11
-148.41
 21
30.4946
  0
LINE
  8
0
 10
-148.41
 20
30.4946
 11
-147.948
 21
30.6749
  0
LINE
  8
0
 10
-147.948
 20
30.6749
 11
-147.473
 21
30.8164
  0
LINE
  8
0
 10
-147.473
 20
30.8164
 11
-146.988
 21
30.9182
  0
LINE
  8
0
 10
-146.988
 20
30.9182
 11
-146.495
 21
30.9795
  0
LINE
  8
0
 10
-146.495
 20
30.9795
 11
-146
 21
31
  0
LINE
  8
0
 10
-146
 20
31
 11
-145.505
 21
30.9795
  0
LINE
  8
0
 10
-145.505
 20
30.9795
 11
-145.012
 21
30.9182
  0
LINE
  8
0
 10
-145.012
 20
30.9182
 11
-144.527
 21
30.8164
  0
LINE
  8
0
 10
-144.527
 20
30.8164
 11
-144.052
 21
30.6749
  0
LINE
  8
0
 10
-144.052
 20
30.6749
 11
-143.59
 21
30.4946
  0
LINE
  8
0
 10
-143.59
 20
30.4946
 11
-143.144
 21
30.2768
  0
LINE
  8
0
 10
-143.144
 20
30.2768
 11
-142.718
 21
30.023
  0
LINE
  8
0
 10
-142.718
 20
30.023
 11
-142.315
 21
29.7348
  0
LINE
  8
0
 10
-142.315
 20
29.7348
 11
-141.936
 21
29.4143
  0
LINE
  8
0
 10
-141.936
 20
29.4143
 11
-141.586
 21
29.0637
  0
LINE
  8
0
 10
-141.586
 20
29.0637
 11
-141.265
 21
28.6853
  0
LINE
  8
0
 10
-141.265
 20
28.6853
 11
-140.977
 21
28.2817
  0
LINE
  8
0
 10
-140.977
 20
28.2817
 11
-140.723
 21
27.8557
  0
LINE
  8
0
 10
-140.723
 20
27.8557
 11
-140.505
 21
27.4102
  0
LINE
  8
0
 10
-140.505
 20
27.4102
 11
-140.325
 21
26.9482
  0
LINE
  8
0
 10
-140.325
 20
26.9482
 11
-140.184
 21
26.4729
  0
LINE
  8
0
 10
-140.184
 20
26.4729
 11
-140.082
 21
25.9876
  0
LINE
  8
0
 10
-140.082
 20
25.9876
 11
-140.02
 21
25.4955
  0
LINE
  8
0
 10
-140.02
 20
25.4955
 11
-140
 21
25
  0
LINE
  8
0
 10
-140
 20
25
 11
-140.02
 21
24.5045
  0
LINE
  8
0
 10
-140.02
 20
24.5045
 11
-140.082
 21
24.0124
  0
LINE
  8
0
 10
-140.082
 20
24.0124
 11
-140.184
 21
23.5271
  0
LINE
  8
0
 10
-140.184
 20
23.5271
 11
-140.325
 21
23.0518
  0
LINE
  8
0
 10
-140.325
 20
23.0518
 11
-140.505
 21
22.5898
  0
LINE
  8
0
 10
-140.505
 20
22.5898
 11
-140.723
 21
22.1443
  0
LINE
  8
0
 10
-140.723
 20
22.1443
 11
-140.977
 21
21.7183
  0
LINE
  8
0
 10
-140.977
 20
21.7183
 11
-141.265
 21
21.3147
  0
LINE
  8
0
 10
-141.265
 20
21.3147
 11
-141.586
 21
20.9363
  0
LINE
  8
0
 10
-141.586
 20
20.9363
 11
-141.936
 21
20.5856
  0
LINE
  8
0
 10
-141.936
 20
20.5856
 11
-142.315
 21
20.2652
  0
LINE
  8
0
 10
-142.315
 20
20.2652
 11
-142.718
 21
19.977
  0
LINE
  8
0
 10
-142.718
 20
19.977
 11
-143.144
 21
19.7231
  0
LINE
  8
0
 10
-143.144
 20
19.7231
 11
-143.59
 21
19.5054
  0
LINE
  8
0
 10
-143.59
 20
19.5054
 11
-144.052
 21
19.3251
  0
LINE
  8
0
 10
-144.052
 20
19.3251
 11
-144.527
 21
19.1836
  0
LINE
  8
0
 10
-144.527
 20
19.1836
 11
-145.012
 21
19.0818
  0
LINE
  8
0
 10
-145.012
 20
19.0818
 11
-145.505
 21
19.0205
  0
LINE
  8
0
 10
-145.505
 20
19.0205
 11
-146
 21
19
  0
LINE
  8
0
 10
-146
 20
19
 11
-146.495
 21
19.0205
  0
LINE
  8
0
 10
-128.5
 20
-65
 11
-128.5
 21
-55
  0
LINE
  8
0
 10
-128.5
 20
-55
 11
-126.7
 21
-55
  0
LINE
  8
0
 10
-126.7
 20
-55
 11
-126.7
 21
-65
  0
LINE
  8
0
 10
-126.7
 20
-65
 11
-128.5
 21
-65
  0
LINE
  8
0
 10
-120.793
 20
-61.6791
 11
-121.246
 21
-61.4722
  0
LINE
  8
0
 10
-121.246
 20
-61.4722
 11
-121.623
 21
-61.146
  0
LINE
  8
0
 10
-121.623
 20
-61.146
 11
-121.892
 21
-60.727
  0
LINE
  8
0
 10
-121.892
 20
-60.727
 11
-122.032
 21
-60.249
  0
LINE
  8
0
 10
-122.032
 20
-60.249
 11
-122.032
 21
-59.751
  0
LINE
  8
0
 10
-122.032
 20
-59.751
 11
-121.892
 21
-59.273
  0
LINE
  8
0
 10
-121.892
 20
-59.273
 11
-121.623
 21
-58.854
  0
LINE
  8
0
 10
-121.623
 20
-58.854
 11
-121.246
 21
-58.5278
  0
LINE
  8
0
 10
-121.246
 20
-58.5278
 11
-120.793
 21
-58.3209
  0
LINE
  8
0
 10
-120.793
 20
-58.3209
 11
-120.3
 21
-58.25
  0
LINE
  8
0
 10
-120.3
 20
-58.25
 11
-119.807
 21
-58.3209
  0
LINE
  8
0
 10
-119.807
 20
-58.3209
 11
-119.354
 21
-58.5278
  0
LINE
  8
0
 10
-119.354
 20
-58.5278
 11
-118.977
 21
-58.854
  0
LINE
  8
0
 10
-118.977
 20
-58.854
 11
-118.708
 21
-59.273
  0
LINE
  8
0
 10
-118.708
 20
-59.273
 11
-118.568
 21
-59.751
  0
LINE
  8
0
 10
-118.568
 20
-59.751
 11
-118.568
 21
-60.249
  0
LINE
  8
0
 10
-118.568
 20
-60.249
 11
-118.708
 21
-60.727
  0
LINE
  8
0
 10
-118.708
 20
-60.727
 11
-118.977
 21
-61.146
  0
LINE
  8
0
 10
-118.977
 20
-61.146
 11
-119.354
 21
-61.4722
  0
LINE
  8
0
 10
-119.354
 20
-61.4722
 11
-119.807
 21
-61.6791
  0
LINE
  8
0
 10
-119.807
 20
-61.6791
 11
-120.3
 21
-61.75
  0
LINE
  8
0
 10
-120.3
 20
-61.75
 11
-120.793
 21
-61.6791
  0
LINE
  8
0
 10
-133
 20
-105
 11
-133
 21
-75
  0
LINE
  8
0
 10
-133
 20
-75
 11
-113
 21
-75
  0
LINE
  8
0
 10
-113
 20
-75
 11
-113
 21
-105
  0
LINE
  8
0
 10
-113
 20
-105
 11
-133
 21
-105
  0
LINE
  8
0
 10
-155
 20
-108.3
 11
-155
 21
-106.5
  0
LINE
  8
0
 10
-155
 20
-106.5
 11
-145
 21
-106.5
  0
LINE
  8
0
 10
-145
 20
-106.5
 11
-145
 21
-108.3
  0
LINE
  8
0
 10
-145
 20
-108.3
 11
-155
 21
-108.3
  0
LINE
  8
0
 10
-150.249
 20
-116.432
 11
-150.727
 21
-116.292
  0
LINE
  8
0
 10
-150.727
 20
-116.292
 11
-151.146
 21
-116.023
  0
LINE
  8
0
 10
-151.146
 20
-116.023
 11
-151.472
 21
-115.646
  0
LINE
  8
0
 10
-151.472
 20
-115.646
 11
-151.679
 21
-115.193
  0
LINE
  8
0
 10
-151.679
 20
-115.193
 11
-151.75
 21
-114.7
  0
LINE
  8
0
 10
-151.75
 20
-114.7
 11
-151.679
 21
-114.207
  0
LINE
  8
0
 10
-151.679
 20
-114.207
 11
-151.472
 21
-113.754
  0
LINE
  8
0
 10
-151.472
 20
-113.754
 11
-151.146
 21
-113.377
  0
LINE
  8
0
 10
-151.146
 20
-113.377
 11
-150.727
 21
-113.108
  0
LINE
  8
0
 10
-150.727
 20
-113.108
 11
-150.249
 21
-112.968
  0
LINE
  8
0
 10
-150.249
 20
-112.968
 11
-149.751
 21
-112.968
  0
LINE
  8
0
 10
-149.751
 20
-112.968
 11
-149.273
 21
-113.108
  0
LINE
  8
0
 10
-149.273
 20
-113.108
 11
-148.854
 21
-113.377
  0
LINE
  8
0
 10
-148.854
 20
-113.377
 11
-148.528
 21
-113.754
  0
LINE
  8
0
 10
-148.528
 20
-113.754
 11
-148.321
 21
-114.207
  0
LINE
  8
0
 10
-148.321
 20
-114.207
 11
-148.25
 21
-114.7
  0
LINE
  8
0
 10
-148.25
 20
-114.7
 11
-148.321
 21
-115.193
  0
LINE
  8
0
 10
-148.321
 20
-115.193
 11
-148.528
 21
-115.646
  0
LINE
  8
0
 10
-148.528
 20
-115.646
 11
-148.854
 21
-116.023
  0
LINE
  8
0
 10
-148.854
 20
-116.023
 11
-149.273
 21
-116.292
  0
LINE
  8
0
 10
-149.273
 20
-116.292
 11
-149.751
 21
-116.432
  0
LINE
  8
0
 10
-149.751
 20
-116.432
 11
-150.249
 21
-116.432
  0
LINE
  8
0
 10
-133
 20
-122.1
 11
-133
 21
-117.1
  0
LINE
  8
0
 10
-133
 20
-117.1
 11
-113
 21
-117.1
  0
LINE
  8
0
 10
-113
 20
-117.1
 11
-113
 21
-122.1
  0
LINE
  8
0
 10
-113
 20
-122.1
 11
-133
 21
-122.1
  0
LINE
  8
0
 10
570
 20
125
 11
510
 21
125
  0
LINE
  8
0
 10
510
 20
125
 11
510
 21
-125
  0
LINE
  8
0
 10
510
 20
-125
 11
570
 21
-125
  0
LINE
  8
0
 10
570
 20
-125
 11
570
 21
125
  0
LINE
  8
0
 10
513
 20
117.1
 11
513
 21
122.1
  0
LINE
  8
0
 10
513
 20
122.1
 11
533
 21
122.1
  0
LINE
  8
0
 10
533
 20
122.1
 11
533
 21
117.1
  0
LINE
  8
0
 10
533
 20
117.1
 11
513
 21
117.1
  0
LINE
  8
0
 10
549.751
 20
112.968
 11
549.273
 21
113.108
  0
LINE
  8
0
 10
549.273
 20
113.108
 11
548.854
 21
113.377
  0
LINE
  8
0
 10
548.854
 20
113.377
 11
548.528
 21
113.754
  0
LINE
  8
0
 10
548.528
 20
113.754
 11
548.321
 21
114.207
  0
LINE
  8
0
 10
548.321
 20
114.207
 11
548.25
 21
114.7
  0
LINE
  8
0
 10
548.25
 20
114.7
 11
548.321
 21
115.193
  0
LINE
  8
0
 10
548.321
 20
115.193
 11
548.528
 21
115.646
  0
LINE
  8
0
 10
548.528
 20
115.646
 11
548.854
 21
116.023
  0
LINE
  8
0
 10
548.854
 20
116.023
 11
549.273
 21
116.292
  0
LINE
  8
0
 10
549.273
 20
116.292
 11
549.751
 21
116.432
  0
LINE
  8
0
 10
549.751
 20
116.432
 11
550.249
 21
116.432
  0
LINE
  8
0
 10
550.249
 20
116.432
 11
550.727
 21
116.292
  0
LINE
  8
0
 10
550.727
 20
116.292
 11
551.146
 21
116.023
  0
LINE
  8
0
 10
551.146
 20
116.023
 11
551.472
 21
115.646
  0
LINE
  8
0
 10
551.472
 20
115.646
 11
551.679
 21
115.193
  0
LINE
  8
0
 10
551.679
 20
115.193
 11
551.75
 21
114.7
  0
LINE
  8
0
 10
551.75
 20
114.7
 11
551.679
 21
114.207
  0
LINE
  8
0
 10
551.679
 20
114.207
 11
551.472
 21
113.754
  0
LINE
  8
0
 10
551.472
 20
113.754
 11
551.146
 21
113.377
  0
LINE
  8
0
 10
551.146
 20
113.377
 11
550.727
 21
113.108
  0
LINE
  8
0
 10
550.727
 20
113.108
 11
550.249
 21
112.968
  0
LINE
  8
0
 10
550.249
 20
112.968
 11
549.751
 21
112.968
  0
LINE
  8
0
 10
545
 20
106.5
 11
545
 21
108.3
  0
LINE
  8
0
 10
545
 20
108.3
 11
555
 21
108.3
  0
LINE
  8
0
 10
555
 20
108.3
 11
555
 21
106.5
  0
LINE
  8
0
 10
555
 20
106.5
 11
545
 21
106.5
  0
LINE
  8
0
 10
526.7
 20
55
 11
526.7
 21
65
  0
LINE
  8
0
 10
526.7
 20
65
 11
528.5
 21
65
  0
LINE
  8
0
 10
528.5
 20
65
 11
528.5
 21
55
  0
LINE
  8
0
 10
528.5
 20
55
 11
526.7
 21
55
  0
LINE
  8
0
 10
519.807
 20
58.3209
 11
519.354
 21
58.5278
  0
LINE
  8
0
 10
519.354
 20
58.5278
 11
518.977
 21
58.854
  0
LINE
  8
0
 10
518.977
 20
58.854
 11
518.708
 21
59.273
  0
LINE
  8
0
 10
518.708
 20
59.273
 11
518.568
 21
59.751
  0
LINE
  8
0
 10
518.568
 20
59.751
 11
518.568
 21
60.249
  0
LINE
  8
0
 10
518.568
 20
60.249
 11
518.708
 21
60.727
  0
LINE
  8
0
 10
518.708
 20
60.727
 11
518.977
 21
61.146
  0
LINE
  8
0
 10
518.977
 20
61.146
 11
519.354
 21
61.4722
  0
LINE
  8
0
 10
519.354
 20
61.4722
 11
519.807
 21
61.6791
  0
LINE
  8
0
 10
519.807
 20
61.6791
 11
520.3
 21
61.75
  0
LINE
  8
0
 10
520.3
 20
61.75
 11
520.793
 21
61.6791
  0
LINE
  8
0
 10
520.793
 20
61.6791
 11
521.246
 21
61.4722
  0
LINE
  8
0
 10
521.246
 20
61.4722
 11
521.623
 21
61.146
  0
LINE
  8
0
 10
521.623
 20
61.146
 11
521.892
 21
60.727
  0
LINE
  8
0
 10
521.892
 20
60.727
 11
522.032
 21
60.249
  0
LINE
  8
0
 10
522.032
 20
60.249
 11
522.032
 21
59.751
  0
LINE
  8
0
 10
522.032
 20
59.751
 11
521.892
 21
59.273
  0
LINE
  8
0
 10
521.892
 20
59.273
 11
521.623
 21
58.854
  0
LINE
  8
0
 10
521.623
 20
58.854
 11
521.246
 21
58.5278
  0
LINE
  8
0
 10
521.246
 20
58.5278
 11
520.793
 21
58.3209
  0
LINE
  8
0
 10
520.793
 20
58.3209
 11
520.3
 21
58.25
  0
LINE
  8
0
 10
520.3
 20
58.25
 11
519.807
 21
58.3209
  0
LINE
  8
0
 10
526.7
 20
-65
 11
526.7
 21
-55
  0
LINE
  8
0
 10
526.7
 20
-55
 11
528.5
 21
-55
  0
LINE
  8
0
 10
528.5
 20
-55
 11
528.5
 21
-65
  0
LINE
  8
0
 10
528.5
 20
-65
 11
526.7
 21
-65
  0
LINE
  8
0
 10
519.807
 20
-61.6791
 11
519.354
 21
-61.4722
  0
LINE
  8
0
 10
519.354
 20
-61.4722
 11
518.977
 21
-61.146
  0
LINE
  8
0
 10
518.977
 20
-61.146
 11
518.708
 21
-60.727
  0
LINE
  8
0
 10
518.708
 20
-60.727
 11
518.568
 21
-60.249
  0
LINE
  8
0
 10
518.568
 20
-60.249
 11
518.568
 21
-59.751
  0
LINE
  8
0
 10
518.568
 20
-59.751
 11
518.708
 21
-59.273
  0
LINE
  8
0
 10
518.708
 20
-59.273
 11
518.977
 21
-58.854
  0
LINE
  8
0
 10
518.977
 20
-58.854
 11
519.354
 21
-58.5278
  0
LINE
  8
0
 10
519.354
 20
-58.5278
 11
519.807
 21
-58.3209
  0
LINE
  8
0
 10
519.807
 20
-58.3209
 11
520.3
 21
-58.25
  0
LINE
  8
0
 10
520.3
 20
-58.25
 11
520.793
 21
-58.3209
  0
LINE
  8
0
 10
520.793
 20
-58.3209
 11
521.246
 21
-58.5278
  0
LINE
  8
0
 10
521.246
 20
-58.5278
 11
521.623
 21
-58.854
  0
LINE
  8
0
 10
521.623
 20
-58.854
 11
521.892
 21
-59.273
  0
LINE
  8
0
 10
521.892
 20
-59.273
 11
522.032
 21
-59.751
  0
LINE
  8
0
 10
522.032
 20
-59.751
 11
522.032
 21
-60.249
  0
LINE
  8
0
 10
522.032
 20
-60.249
 11
521.892
 21
-60.727
  0
LINE
  8
0
 10
521.892
 20
-60.727
 11
521.623
 21
-61.146
  0
LINE
  8
0
 10
521.623
 20
-61.146
 11
521.246
 21
-61.4722
  0
LINE
  8
0
 10
521.246
 20
-61.4722
 11
520.793
 21
-61.6791
  0
LINE
  8
0
 10
520.793
 20
-61.6791
 11
520.3
 21
-61.75
  0
LINE
  8
0
 10
520.3
 20
-61.75
 11
519.807
 21
-61.6791
  0
LINE
  8
0
 10
545
 20
-108.3
 11
545
 21
-106.5
  0
LINE
  8
0
 10
545
 20
-106.5
 11
555
 21
-106.5
  0
LINE
  8
0
 10
555
 20
-106.5
 11
555
 21
-108.3
  0
LINE
  8
0
 10
555
 20
-108.3
 11
545
 21
-108.3
  0
LINE
  8
0
 10
549.751
 20
-116.432
 11
549.273
 21
-116.292
  0
LINE
  8
0
 10
549.273
 20
-116.292
 11
548.854
 21
-116.023
  0
LINE
  8
0
 10
548.854
 20
-116.023
 11
548.528
 21
-115.646
  0
LINE
  8
0
 10
548.528
 20
-115.646
 11
548.321
 21
-115.193
  0
LINE
  8
0
 10
548.321
 20
-115.193
 11
548.25
 21
-114.7
  0
LINE
  8
0
 10
548.25
 20
-114.7
 11
548.321
 21
-114.207
  0
LINE
  8
0
 10
548.321
 20
-114.207
 11
548.528
 21
-113.754
  0
LINE
  8
0
 10
548.528
 20
-113.754
 11
548.854
 21
-113.377
  0
LINE
  8
0
 10
548.854
 20
-113.377
 11
549.273
 21
-113.108
  0
LINE
  8
0
 10
549.273
 20
-113.108
 11
549.751
 21
-112.968
  0
LINE
  8
0
 10
549.751
 20
-112.968
 11
550.249
 21
-112.968
  0
LINE
  8
0
 10
550.249
 20
-112.968
 11
550.727
 21
-113.108
  0
LINE
  8
0
 10
550.727
 20
-113.108
 11
551.146
 21
-113.377
  0
LINE
  8
0
 10
551.146
 20
-113.377
 11
551.472
 21
-113.754
  0
LINE
  8
0
 10
551.472
 20
-113.754
 11
551.679
 21
-114.207
  0
LINE
  8
0
 10
551.679
 20
-114.207
 11
551.75
 21
-114.7
  0
LINE
  8
0
 10
551.75
 20
-114.7
 11
551.679
 21
-115.193
  0
LINE
  8
0
 10
551.679
 20
-115.193
 11
551.472
 21
-115.646
  0
LINE
  8
0
 10
551.472
 20
-115.646
 11
551.146
 21
-116.023
  0
LINE
  8
0
 10
551.146
 20
-116.023
 11
550.727
 21
-116.292
  0
LINE
  8
0
 10
550.727
 20
-116.292
 11
550.249
 21
-116.432
  0
LINE
  8
0
 10
550.249
 20
-116.432
 11
549.751
 21
-116.432
  0
LINE
  8
0
 10
513
 20
-122.1
 11
513
 21
-117.1
  0
LINE
  8
0
 10
513
 20
-117.1
 11
533
 21
-117.1
  0
LINE
  8
0
 10
533
 20
-117.1
 11
533
 21
-122.1
  0
LINE
  8
0
 10
533
 20
-122.1
 11
513
 21
-122.1
  0
LINE
  8
0
 10
290
 20
125
 11
230
 21
125
  0
LINE
  8
0
 10
230
 20
125
 11
230
 21
-125
  0
LINE
  8
0
 10
230
 20
-125
 11
290
 21
-125
  0
LINE
  8
0
 10
290
 20
-125
 11
290
 21
125
  0
LINE
  8
0
 10
267
 20
117.1
 11
267
 21
122.1
  0
LINE
  8
0
 10
267
 20
122.1
 11
287
 21
122.1
  0
LINE
  8
0
 10
287
 20
122.1
 11
287
 21
117.1
  0
LINE
  8
0
 10
287
 20
117.1
 11
267
 21
117.1
  0
LINE
  8
0
 10
249.751
 20
112.968
 11
249.273
 21
113.108
  0
LINE
  8
0
 10
249.273
 20
113.108
 11
248.854
 21
113.377
  0
LINE
  8
0
 10
248.854
 20
113.377
 11
248.528
 21
113.754
  0
LINE
  8
0
 10
248.528
 20
113.754
 11
248.321
 21
114.207
  0
LINE
  8
0
 10
248.321
 20
114.207
 11
248.25
 21
114.7
  0
LINE
  8
0
 10
248.25
 20
114.7
 11
248.321
 21
115.193
  0
LINE
  8
0
 10
248.321
 20
115.193
 11
248.528
 21
115.646
  0
LINE
  8
0
 10
248.528
 20
115.646
 11
248.854
 21
116.023
  0
LINE
  8
0
 10
248.854
 20
116.023
 11
249.273
 21
116.292
  0
LINE
  8
0
 10
249.273
 20
116.292
 11
249.751
 21
116.432
  0
LINE
  8
0
 10
249.751
 20
116.432
 11
250.249
 21
116.432
  0
LINE
  8
0
 10
250.249
 20
116.432
 11
250.727
 21
116.292
  0
LINE
  8
0
 10
250.727
 20
116.292
 11
251.146
 21
116.023
  0
LINE
  8
0
 10
251.146
 20
116.023
 11
251.472
 21
115.646
  0
LINE
  8
0
 10
251.472
 20
115.646
 11
251.679
 21
115.193
  0
LINE
  8
0
 10
251.679
 20
115.193
 11
251.75
 21
114.7
  0
LINE
  8
0
 10
251.75
 20
114.7
 11
251.679
 21
114.207
  0
LINE
  8
0
 10
251.679
 20
114.207
 11
251.472
 21
113.754
  0
LINE
  8
0
 10
251.472
 20
113.754
 11
251.146
 21
113.377
  0
LINE
  8
0
 10
251.146
 20
113.377
 11
250.727
 21
113.108
  0
LINE
  8
0
 10
250.727
 20
113.108
 11
250.249
 21
112.968
  0
LINE
  8
0
 10
250.249
 20
112.968
 11
249.751
 21
112.968
  0
LINE
  8
0
 10
245
 20
106.5
 11
245
 21
108.3
  0
LINE
  8
0
 10
245
 20
108.3
 11
255
 21
108.3
  0
LINE
  8
0
 10
255
 20
108.3
 11
255
 21
106.5
  0
LINE
  8
0
 10
255
 20
106.5
 11
245
 21
106.5
  0
LINE
  8
0
 10
271.5
 20
55
 11
271.5
 21
65
  0
LINE
  8
0
 10
271.5
 20
65
 11
273.3
 21
65
  0
LINE
  8
0
 10
273.3
 20
65
 11
273.3
 21
55
  0
LINE
  8
0
 10
273.3
 20
55
 11
271.5
 21
55
  0
LINE
  8
0
 10
279.207
 20
58.3209
 11
278.754
 21
58.5278
  0
LINE
  8
0
 10
278.754
 20
58.5278
 11
278.377
 21
58.854
  0
LINE
  8
0
 10
278.377
 20
58.854
 11
278.108
 21
59.273
  0
LINE
  8
0
 10
278.108
 20
59.273
 11
277.968
 21
59.751
  0
LINE
  8
0
 10
277.968
 20
59.751
 11
277.968
 21
60.249
  0
LINE
  8
0
 10
277.968
 20
60.249
 11
278.108
 21
60.727
  0
LINE
  8
0
 10
278.108
 20
60.727
 11
278.377
 21
61.146
  0
LINE
  8
0
 10
278.377
 20
61.146
 11
278.754
 21
61.4722
  0
LINE
  8
0
 10
278.754
 20
61.4722
 11
279.207
 21
61.6791
  0
LINE
  8
0
 10
279.207
 20
61.6791
 11
279.7
 21
61.75
  0
LINE
  8
0
 10
279.7
 20
61.75
 11
280.193
 21
61.6791
  0
LINE
  8
0
 10
280.193
 20
61.6791
 11
280.646
 21
61.4722
  0
LINE
  8
0
 10
280.646
 20
61.4722
 11
281.023
 21
61.146
  0
LINE
  8
0
 10
281.023
 20
61.146
 11
281.292
 21
60.727
  0
LINE
  8
0
 10
281.292
 20
60.727
 11
281.432
 21
60.249
  0
LINE
  8
0
 10
281.432
 20
60.249
 11
281.432
 21
59.751
  0
LINE
  8
0
 10
281.432
 20
59.751
 11
281.292
 21
59.273
  0
LINE
  8
0
 10
281.292
 20
59.273
 11
281.023
 21
58.854
  0
LINE
  8
0
 10
281.023
 20
58.854
 11
280.646
 21
58.5278
  0
LINE
  8
0
 10
280.646
 20
58.5278
 11
280.193
 21
58.3209
  0
LINE
  8
0
 10
280.193
 20
58.3209
 11
279.7
 21
58.25
  0
LINE
  8
0
 10
279.7
 20
58.25
 11
279.207
 21
58.3209
  0
LINE
  8
0
 10
271.5
 20
-65
 11
271.5
 21
-55
  0
LINE
  8
0
 10
271.5
 20
-55
 11
273.3
 21
-55
  0
LINE
  8
0
 10
273.3
 20
-55
 11
273.3
 21
-65
  0
LINE
  8
0
 10
273.3
 20
-65
 11
271.5
 21
-65
  0
LINE
  8
0
 10
279.207
 20
-61.6791
 11
278.754
 21
-61.4722
  0
LINE
  8
0
 10
278.754
 20
-61.4722
 11
278.377
 21
-61.146
  0
LINE
  8
0
 10
278.377
 20
-61.146
 11
278.108
 21
-60.727
  0
LINE
  8
0
 10
278.108
 20
-60.727
 11
277.968
 21
-60.249
  0
LINE
  8
0
 10
277.968
 20
-60.249
 11
277.968
 21
-59.751
  0
LINE
  8
0
 10
277.968
 20
-59.751
 11
278.108
 21
-59.273
  0
LINE
  8
0
 10
278.108
 20
-59.273
 11
278.377
 21
-58.854
  0
LINE
  8
0
 10
278.377
 20
-58.854
 11
278.754
 21
-58.5278
  0
LINE
  8
0
 10
278.754
 20
-58.5278
 11
279.207
 21
-58.3209
  0
LINE
  8
0
 10
279.207
 20
-58.3209
 11
279.7
 21
-58.25
  0
LINE
  8
0
 10
279.7
 20
-58.25
 11
280.193
 21
-58.3209
  0
LINE
  8
0
 10
280.193
 20
-58.3209
 11
280.646
 21
-58.5278
  0
LINE
  8
0
 10
280.646
 20
-58.5278
 11
281.023
 21
-58.854
  0
LINE
  8
0
 10
281.023
 20
-58.854
 11
281.292
 21
-59.273
  0
LINE
  8
0
 10
281.292
 20
-59.273
 11
281.432
 21
-59.751
  0
LINE
  8
0
 10
281.432
 20
-59.751
 11
281.432
 21
-60.249
  0
LINE
  8
0
 10
281.432
 20
-60.249
 11
281.292
 21
-60.727
  0
LINE
  8
0
 10
281.292
 20
-60.727
 11
281.023
 21
-61.146
  0
LINE
  8
0
 10
281.023
 20
-61.146
 11
280.646
 21
-61.4722
  0
LINE
  8
0
 10
280.646
 20
-61.4722
 11
280.193
 21
-61.6791
  0
LINE
  8
0
 10
280.193
 20
-61.6791
 11
279.7
 21
-61.75
  0
LINE
  8
0
 10
279.7
 20
-61.75
 11
279.207
 21
-61.6791
  0
LINE
  8
0
 10
245
 20
-108.3
 11
245
 21
-106.5
  0
LINE
  8
0
 10
245
 20
-106.5
 11
255
 21
-106.5
  0
LINE
  8
0
 10
255
 20
-106.5
 11
255
 21
-108.3
  0
LINE
  8
0
 10
255
 20
-108.3
 11
245
 21
-108.3
  0
LINE
  8
0
 10
249.751
 20
-116.432
 11
249.273
 21
-116.292
  0
LINE
  8
0
 10
249.273
 20
-116.292
 11
248.854
 21
-116.023
  0
LINE
  8
0
 10
248.854
 20
-116.023
 11
248.528
 21
-115.646
  0
LINE
  8
0
 10
248.528
 20
-115.646
 11
248.321
 21
-115.193
  0
LINE
  8
0
 10
248.321
 20
-115.193
 11
248.25
 21
-114.7
  0
LINE
  8
0
 10
248.25
 20
-114.7
 11
248.321
 21
-114.207
  0
LINE
  8
0
 10
248.321
 20
-114.207
 11
248.528
 21
-113.754
  0
LINE
  8
0
 10
248.528
 20
-113.754
 11
248.854
 21
-113.377
  0
LINE
  8
0
 10
248.854
 20
-113.377
 11
249.273
 21
-113.108
  0
LINE
  8
0
 10
249.273
 20
-113.108
 11
249.751
 21
-112.968
  0
LINE
  8
0
 10
249.751
 20
-112.968
 11
250.249
 21
-112.968
  0
LINE
  8
0
 10
250.249
 20
-112.968
 11
250.727
 21
-113.108
  0
LINE
  8
0
 10
250.727
 20
-113.108
 11
251.146
 21
-113.377
  0
LINE
  8
0
 10
251.146
 20
-113.377
 11
251.472
 21
-113.754
  0
LINE
  8
0
 10
251.472
 20
-113.754
 11
251.679
 21
-114.207
  0
LINE
  8
0
 10
251.679
 20
-114.207
 11
251.75
 21
-114.7
  0
LINE
  8
0
 10
251.75
 20
-114.7
 11
251.679
 21
-115.193
  0
LINE
  8
0
 10
251.679
 20
-115.193
 11
251.472
 21
-115.646
  0
LINE
  8
0
 10
251.472
 20
-115.646
 11
251.146
 21
-116.023
  0
LINE
  8
0
 10
251.146
 20
-116.023
 11
250.727
 21
-116.292
  0
LINE
  8
0
 10
250.727
 20
-116.292
 11
250.249
 21
-116.432
  0
LINE
  8
0
 10
250.249
 20
-116.432
 11
249.751
 21
-116.432
  0
LINE
  8
0
 10
267
 20
-122.1
 11
267
 21
-117.1
  0
LINE
  8
0
 10
267
 20
-117.1
 11
287
 21
-117.1
  0
LINE
  8
0
 10
287
 20
-117.1
 11
287
 21
-122.1
  0
LINE
  8
0
 10
287
 20
-122.1
 11
267
 21
-122.1
  0
LINE
  8
0
 10
497
 20
122
 11
303
 21
122
  0
LINE
  8
0
 10
303
 20
122
 11
303
 21
-122
  0
LINE
  8
0
 10
303
 20
-122
 11
497
 21
-122
  0
LINE
  8
0
 10
497
 20
-122
 11
497
 21
122
  0
LINE
  8
0
 10
399.751
 20
112.968
 11
399.273
 21
113.108
  0
LINE
  8
0
 10
399.273
 20
113.108
 11
398.854
 21
113.377
  0
LINE
  8
0
 10
398.854
 20
113.377
 11
398.528
 21
113.754
  0
LINE
  8
0
 10
398.528
 20
113.754
 11
398.321
 21
114.207
  0
LINE
  8
0
 10
398.321
 20
114.207
 11
398.25
 21
114.7
  0
LINE
  8
0
 10
398.25
 20
114.7
 11
398.321
 21
115.193
  0
LINE
  8
0
 10
398.321
 20
115.193
 11
398.528
 21
115.646
  0
LINE
  8
0
 10
398.528
 20
115.646
 11
398.854
 21
116.023
  0
LINE
  8
0
 10
398.854
 20
116.023
 11
399.273
 21
116.292
  0
LINE
  8
0
 10
399.273
 20
116.292
 11
399.751
 21
116.432
  0
LINE
  8
0
 10
399.751
 20
116.432
 11
400.249
 21
116.432
  0
LINE
  8
0
 10
400.249
 20
116.432
 11
400.727
 21
116.292
  0
LINE
  8
0
 10
400.727
 20
116.292
 11
401.146
 21
116.023
  0
LINE
  8
0
 10
401.146
 20
116.023
 11
401.472
 21
115.646
  0
LINE
  8
0
 10
401.472
 20
115.646
 11
401.679
 21
115.193
  0
LINE
  8
0
 10
401.679
 20
115.193
 11
401.75
 21
114.7
  0
LINE
  8
0
 10
401.75
 20
114.7
 11
401.679
 21
114.207
  0
LINE
  8
0
 10
401.679
 20
114.207
 11
401.472
 21
113.754
  0
LINE
  8
0
 10
401.472
 20
113.754
 11
401.146
 21
113.377
  0
LINE
  8
0
 10
401.146
 20
113.377
 11
400.727
 21
113.108
  0
LINE
  8
0
 10
400.727
 20
113.108
 11
400.249
 21
112.968
  0
LINE
  8
0
 10
400.249
 20
112.968
 11
399.751
 21
112.968
  0
LINE
  8
0
 10
309.807
 20
58.3209
 11
309.354
 21
58.5278
  0
LINE
  8
0
 10
309.354
 20
58.5278
 11
308.977
 21
58.854
  0
LINE
  8
0
 10
308.977
 20
58.854
 11
308.708
 21
59.273
  0
LINE
  8
0
 10
308.708
 20
59.273
 11
308.568
 21
59.7509
  0
LINE
  8
0
 10
308.568
 20
59.7509
 11
308.568
 21
60.249
  0
LINE
  8
0
 10
308.568
 20
60.249
 11
308.708
 21
60.727
  0
LINE
  8
0
 10
308.708
 20
60.727
 11
308.977
 21
61.146
  0
LINE
  8
0
 10
308.977
 20
61.146
 11
309.354
 21
61.4722
  0
LINE
  8
0
 10
309.354
 20
61.4722
 11
309.807
 21
61.6791
  0
LINE
  8
0
 10
309.807
 20
61.6791
 11
310.3
 21
61.75
  0
LINE
  8
0
 10
310.3
 20
61.75
 11
310.793
 21
61.6791
  0
LINE
  8
0
 10
310.793
 20
61.6791
 11
311.246
 21
61.4722
  0
LINE
  8
0
 10
311.246
 20
61.4722
 11
311.623
 21
61.146
  0
LINE
  8
0
 10
311.623
 20
61.146
 11
311.892
 21
60.727
  0
LINE
  8
0
 10
311.892
 20
60.727
 11
312.032
 21
60.249
  0
LINE
  8
0
 10
312.032
 20
60.249
 11
312.032
 21
59.7509
  0
LINE
  8
0
 10
312.032
 20
59.7509
 11
311.892
 21
59.273
  0
LINE
  8
0
 10
311.892
 20
59.273
 11
311.623
 21
58.854
  0
LINE
  8
0
 10
311.623
 20
58.854
 11
311.246
 21
58.5278
  0
LINE
  8
0
 10
311.246
 20
58.5278
 11
310.793
 21
58.3209
  0
LINE
  8
0
 10
310.793
 20
58.3209
 11
310.3
 21
58.25
  0
LINE
  8
0
 10
310.3
 20
58.25
 11
309.807
 21
58.3209
  0
LINE
  8
0
 10
489.207
 20
58.3209
 11
488.754
 21
58.5278
  0
LINE
  8
0
 10
488.754
 20
58.5278
 11
488.377
 21
58.854
  0
LINE
  8
0
 10
488.377
 20
58.854
 11
488.108
 21
59.273
  0
LINE
  8
0
 10
488.108
 20
59.273
 11
487.968
 21
59.7509
  0
LINE
  8
0
 10
487.968
 20
59.7509
 11
487.968
 21
60.249
  0
LINE
  8
0
 10
487.968
 20
60.249
 11
488.108
 21
60.727
  0
LINE
  8
0
 10
488.108
 20
60.727
 11
488.377
 21
61.146
  0
LINE
  8
0
 10
488.377
 20
61.146
 11
488.754
 21
61.4722
  0
LINE
  8
0
 10
488.754
 20
61.4722
 11
489.207
 21
61.6791
  0
LINE
  8
0
 10
489.207
 20
61.6791
 11
489.7
 21
61.75
  0
LINE
  8
0
 10
489.7
 20
61.75
 11
490.193
 21
61.6791
  0
LINE
  8
0
 10
490.193
 20
61.6791
 11
490.646
 21
61.4722
  0
LINE
  8
0
 10
490.646
 20
61.4722
 11
491.023
 21
61.146
  0
LINE
  8
0
 10
491.023
 20
61.146
 11
491.292
 21
60.727
  0
LINE
  8
0
 10
491.292
 20
60.727
 11
491.432
 21
60.249
  0
LINE
  8
0
 10
491.432
 20
60.249
 11
491.432
 21
59.7509
  0
LINE
  8
0
 10
491.432
 20
59.7509
 11
491.292
 21
59.273
  0
LINE
  8
0
 10
491.292
 20
59.273
 11
491.023
 21
58.854
  0
LINE
  8
0
 10
491.023
 20
58.854
 11
490.646
 21
58.5278
  0
LINE
  8
0
 10
490.646
 20
58.5278
 11
490.193
 21
58.3209
  0
LINE
  8
0
 10
490.193
 20
58.3209
 11
489.7
 21
58.25
  0
LINE
  8
0
 10
489.7
 20
58.25
 11
489.207
 21
58.3209
  0
LINE
  8
0
 10
489.207
 20
-61.6791
 11
488.754
 21
-61.4722
  0
LINE
  8
0
 10
488.754
 20
-61.4722
 11
488.377
 21
-61.146
  0
LINE
  8
0
 10
488.377
 20
-61.146
 11
488.108
 21
-60.727
  0
LINE
  8
0
 10
488.108
 20
-60.727
 11
487.968
 21
-60.249
  0
LINE
  8
0
 10
487.968
 20
-60.249
 11
487.968
 21
-59.7509
  0
LINE
  8
0
 10
487.968
 20
-59.7509
 11
488.108
 21
-59.273
  0
LINE
  8
0
 10
488.108
 20
-59.273
 11
488.377
 21
-58.854
  0
LINE
  8
0
 10
488.377
 20
-58.854
 11
488.754
 21
-58.5278
  0
LINE
  8
0
 10
488.754
 20
-58.5278
 11
489.207
 21
-58.3209
  0
LINE
  8
0
 10
489.207
 20
-58.3209
 11
489.7
 21
-58.25
  0
LINE
  8
0
 10
489.7
 20
-58.25
 11
490.193
 21
-58.3209
  0
LINE
  8
0
 10
490.193
 20
-58.3209
 11
490.646
 21
-58.5278
  0
LINE
  8
0
 10
490.646
 20
-58.5278
 11
491.023
 21
-58.854
  0
LINE
  8
0
 10
491.023
 20
-58.854
 11
491.292
 21
-59.273
  0
LINE
  8
0
 10
491.292
 20
-59.273
 11
491.432
 21
-59.7509
  0
LINE
  8
0
 10
491.432
 20
-59.7509
 11
491.432
 21
-60.249
  0
LINE
  8
0
 10
491.432
 20
-60.249
 11
491.292
 21
-60.727
  0
LINE
  8
0
 10
491.292
 20
-60.727
 11
491.023
 21
-61.146
  0
LINE
  8
0
 10
491.023
 20
-61.146
 11
490.646
 21
-61.4722
  0
LINE
  8
0
 10
490.646
 20
-61.4722
 11
490.193
 21
-61.6791
  0
LINE
  8
0
 10
490.193
 20
-61.6791
 11
489.7
 21
-61.75
  0
LINE
  8
0
 10
489.7
 20
-61.75
 11
489.207
 21
-61.6791
  0
LINE
  8
0
 10
309.807
 20
-61.6791
 11
309.354
 21
-61.4722
  0
LINE
  8
0
 10
309.354
 20
-61.4722
 11
308.977
 21
-61.146
  0
LINE
  8
0
 10
308.977
 20
-61.146
 11
308.708
 21
-60.727
  0
LINE
  8
0
 10
308.708
 20
-60.727
 11
308.568
 21
-60.249
  0
LINE
  8
0
 10
308.568
 20
-60.249
 11
308.568
 21
-59.7509
  0
LINE
  8
0
 10
308.568
 20
-59.7509
 11
308.708
 21
-59.273
  0
LINE
  8
0
 10
308.708
 20
-59.273
 11
308.977
 21
-58.854
  0
LINE
  8
0
 10
308.977
 20
-58.854
 11
309.354
 21
-58.5278
  0
LINE
  8
0
 10
309.354
 20
-58.5278
 11
309.807
 21
-58.3209
  0
LINE
  8
0
 10
309.807
 20
-58.3209
 11
310.3
 21
-58.25
  0
LINE
  8
0
 10
310.3
 20
-58.25
 11
310.793
 21
-58.3209
  0
LINE
  8
0
 10
310.793
 20
-58.3209
 11
311.246
 21
-58.5278
  0
LINE
  8
0
 10
311.246
 20
-58.5278
 11
311.623
 21
-58.854
  0
LINE
  8
0
 10
311.623
 20
-58.854
 11
311.892
 21
-59.273
  0
LINE
  8
0
 10
311.892
 20
-59.273
 11
312.032
 21
-59.7509
  0
LINE
  8
0
 10
312.032
 20
-59.7509
 11
312.032
 21
-60.249
  0
LINE
  8
0
 10
312.032
 20
-60.249
 11
311.892
 21
-60.727
  0
LINE
  8
0
 10
311.892
 20
-60.727
 11
311.623
 21
-61.146
  0
LINE
  8
0
 10
311.623
 20
-61.146
 11
311.246
 21
-61.4722
  0
LINE
  8
0
 10
311.246
 20
-61.4722
 11
310.793
 21
-61.6791
  0
LINE
  8
0
 10
310.793
 20
-61.6791
 11
310.3
 21
-61.75
  0
LINE
  8
0
 10
310.3
 20
-61.75
 11
309.807
 21
-61.6791
  0
LINE
  8
0
 10
399.751
 20
-116.432
 11
399.273
 21
-116.292
  0
LINE
  8
0
 10
399.273
 20
-116.292
 11
398.854
 21
-116.023
  0
LINE
  8
0
 10
398.854
 20
-116.023
 11
398.528
 21
-115.646
  0
LINE
  8
0
 10
398.528
 20
-115.646
 11
398.321
 21
-115.193
  0
LINE
  8
0
 10
398.321
 20
-115.193
 11
398.25
 21
-114.7
  0
LINE
  8
0
 10
398.25
 20
-114.7
 11
398.321
 21
-114.207
  0
LINE
  8
0
 10
398.321
 20
-114.207
 11
398.528
 21
-113.754
  0
LINE
  8
0
 10
398.528
 20
-113.754
 11
398.854
 21
-113.377
  0
LINE
  8
0
 10
398.854
 20
-113.377
 11
399.273
 21
-113.108
  0
LINE
  8
0
 10
399.273
 20
-113.108
 11
399.751
 21
-112.968
  0
LINE
  8
0
 10
399.751
 20
-112.968
 11
400.249
 21
-112.968
  0
LINE
  8
0
 10
400.249
 20
-112.968
 11
400.727
 21
-113.108
  0
LINE
  8
0
 10
400.727
 20
-113.108
 11
401.146
 21
-113.377
  0
LINE
  8
0
 10
401.146
 20
-113.377
 11
401.472
 21
-113.754
  0
LINE
  8
0
 10
401.472
 20
-113.754
 11
401.679
 21
-114.207
  0
LINE
  8
0
 10
401.679
 20
-114.207
 11
401.75
 21
-114.7
  0
LINE
  8
0
 10
401.75
 20
-114.7
 11
401.679
 21
-115.193
  0
LINE
  8
0
 10
401.679
 20
-115.193
 11
401.472
 21
-115.646
  0
LINE
  8
0
 10
401.472
 20
-115.646
 11
401.146
 21
-116.023
  0
LINE
  8
0
 10
401.146
 20
-116.023
 11
400.727
 21
-116.292
  0
LINE
  8
0
 10
400.727
 20
-116.292
 11
400.249
 21
-116.432
  0
LINE
  8
0
 10
400.249
 20
-116.432
 11
399.751
 21
-116.432
  0
LINE
  8
0
 10
97
 20
122
 11
-97
 21
122
  0
LINE
  8
0
 10
-97
 20
122
 11
-97
 21
-122
  0
LINE
  8
0
 10
-97
 20
-122
 11
97
 21
-122
  0
LINE
  8
0
 10
97
 20
-122
 11
97
 21
122
  0
LINE
  8
0
 10
-0.249039
 20
112.968
 11
-0.726974
 21
113.108
  0
LINE
  8
0
 10
-0.726974
 20
113.108
 11
-1.146
 21
113.377
  0
LINE
  8
0
 10
-1.146
 20
113.377
 11
-1.47218
 21
113.754
  0
LINE
  8
0
 10
-1.47218
 20
113.754
 11
-1.67911
 21
114.207
  0
LINE
  8
0
 10
-1.67911
 20
114.207
 11
-1.74998
 21
114.7
  0
LINE
  8
0
 10
-1.74998
 20
114.7
 11
-1.67911
 21
115.193
  0
LINE
  8
0
 10
-1.67911
 20
115.193
 11
-1.47218
 21
115.646
  0
LINE
  8
0
 10
-1.47218
 20
115.646
 11
-1.146
 21
116.023
  0
LINE
  8
0
 10
-1.146
 20
116.023
 11
-0.726974
 21
116.292
  0
LINE
  8
0
 10
-0.726974
 20
116.292
 11
-0.249039
 21
116.432
  0
LINE
  8
0
 10
-0.249039
 20
116.432
 11
0.249039
 21
116.432
  0
LINE
  8
0
 10
0.249039
 20
116.432
 11
0.726974
 21
116.292
  0
LINE
  8
0
 10
0.726974
 20
116.292
 11
1.146
 21
116.023
  0
LINE
  8
0
 10
1.146
 20
116.023
 11
1.47218
 21
115.646
  0
LINE
  8
0
 10
1.47218
 20
115.646
 11
1.67911
 21
115.193
  0
LINE
  8
0
 10
1.67911
 20
115.193
 11
1.75
 21
114.7
  0
LINE
  8
0
 10
1.75
 20
114.7
 11
1.67911
 21
114.207
  0
LINE
  8
0
 10
1.67911
 20
114.207
 11
1.47218
 21
113.754
  0
LINE
  8
0
 10
1.47218
 20
113.754
 11
1.146
 21
113.377
  0
LINE
  8
0
 10
1.146
 20
113.377
 11
0.726974
 21
113.108
  0
LINE
  8
0
 10
0.726974
 20
113.108
 11
0.249039
 21
112.968
  0
LINE
  8
0
 10
0.249039
 20
112.968
 11
-0.249039
 21
112.968
  0
LINE
  8
0
 10
-90.193
 20
58.3209
 11
-90.6461
 21
58.5278
  0
LINE
  8
0
 10
-90.6461
 20
58.5278
 11
-91.0226
 21
58.854
  0
LINE
  8
0
 10
-91.0226
 20
58.854
 11
-91.2919
 21
59.273
  0
LINE
  8
0
 10
-91.2919
 20
59.273
 11
-91.4322
 21
59.7509
  0
LINE
  8
0
 10
-91.4322
 20
59.7509
 11
-91.4322
 21
60.249
  0
LINE
  8
0
 10
-91.4322
 20
60.249
 11
-91.2919
 21
60.727
  0
LINE
  8
0
 10
-91.2919
 20
60.727
 11
-91.0226
 21
61.146
  0
LINE
  8
0
 10
-91.0226
 20
61.146
 11
-90.6461
 21
61.4722
  0
LINE
  8
0
 10
-90.6461
 20
61.4722
 11
-90.193
 21
61.6791
  0
LINE
  8
0
 10
-90.193
 20
61.6791
 11
-89.7
 21
61.75
  0
LINE
  8
0
 10
-89.7
 20
61.75
 11
-89.207
 21
61.6791
  0
LINE
  8
0
 10
-89.207
 20
61.6791
 11
-88.7539
 21
61.4722
  0
LINE
  8
0
 10
-88.7539
 20
61.4722
 11
-88.3774
 21
61.146
  0
LINE
  8
0
 10
-88.3774
 20
61.146
 11
-88.1081
 21
60.727
  0
LINE
  8
0
 10
-88.1081
 20
60.727
 11
-87.9678
 21
60.249
  0
LINE
  8
0
 10
-87.9678
 20
60.249
 11
-87.9678
 21
59.7509
  0
LINE
  8
0
 10
-87.9678
 20
59.7509
 11
-88.1081
 21
59.273
  0
LINE
  8
0
 10
-88.1081
 20
59.273
 11
-88.3774
 21
58.854
  0
LINE
  8
0
 10
-88.3774
 20
58.854
 11
-88.7539
 21
58.5278
  0
LINE
  8
0
 10
-88.7539
 20
58.5278
 11
-89.207
 21
58.3209
  0
LINE
  8
0
 10
-89.207
 20
58.3209
 11
-89.7
 21
58.25
  0
LINE
  8
0
 10
-89.7
 20
58.25
 11
-90.193
 21
58.3209
  0
LINE
  8
0
 10
89.207
 20
58.3209
 11
88.7539
 21
58.5278
  0
LINE
  8
0
 10
88.7539
 20
58.5278
 11
88.3774
 21
58.854
  0
LINE
  8
0
 10
88.3774
 20
58.854
 11
88.1081
 21
59.273
  0
LINE
  8
0
 10
88.1081
 20
59.273
 11
87.9678
 21
59.7509
  0
LINE
  8
0
 10
87.9678
 20
59.7509
 11
87.9678
 21
60.249
  0
LINE
  8
0
 10
87.9678
 20
60.249
 11
88.1081
 21
60.727
  0
LINE
  8
0
 10
88.1081
 20
60.727
 11
88.3774
 21
61.146
  0
LINE
  8
0
 10
88.3774
 20
61.146
 11
88.7539
 21
61.4722
  0
LINE
  8
0
 10
88.7539
 20
61.4722
 11
89.207
 21
61.6791
  0
LINE
  8
0
 10
89.207
 20
61.6791
 11
89.7
 21
61.75
  0
LINE
  8
0
 10
89.7
 20
61.75
 11
90.193
 21
61.6791
  0
LINE
  8
0
 10
90.193
 20
61.6791
 11
90.6461
 21
61.4722
  0
LINE
  8
0
 10
90.6461
 20
61.4722
 11
91.0226
 21
61.146
  0
LINE
  8
0
 10
91.0226
 20
61.146
 11
91.2919
 21
60.727
  0
LINE
  8
0
 10
91.2919
 20
60.727
 11
91.4322
 21
60.249
  0
LINE
  8
0
 10
91.4322
 20
60.249
 11
91.4322
 21
59.7509
  0
LINE
  8
0
 10
91.4322
 20
59.7509
 11
91.2919
 21
59.273
  0
LINE
  8
0
 10
91.2919
 20
59.273
 11
91.0226
 21
58.854
  0
LINE
  8
0
 10
91.0226
 20
58.854
 11
90.6461
 21
58.5278
  0
LINE
  8
0
 10
90.6461
 20
58.5278
 11
90.193
 21
58.3209
  0
LINE
  8
0
 10
90.193
 20
58.3209
 11
89.7
 21
58.25
  0
LINE
  8
0
 10
89.7
 20
58.25
 11
89.207
 21
58.3209
  0
LINE
  8
0
 10
-90.193
 20
-61.6791
 11
-90.6461
 21
-61.4722
  0
LINE
  8
0
 10
-90.6461
 20
-61.4722
 11
-91.0226
 21
-61.146
  0
LINE
  8
0
 10
-91.0226
 20
-61.146
 11
-91.2919
 21
-60.727
  0
LINE
  8
0
 10
-91.2919
 20
-60.727
 11
-91.4322
 21
-60.249
  0
LINE
  8
0
 10
-91.4322
 20
-60.249
 11
-91.4322
 21
-59.7509
  0
LINE
  8
0
 10
-91.4322
 20
-59.7509
 11
-91.2919
 21
-59.273
  0
LINE
  8
0
 10
-91.2919
 20
-59.273
 11
-91.0226
 21
-58.854
  0
LINE
  8
0
 10
-91.0226
 20
-58.854
 11
-90.6461
 21
-58.5278
  0
LINE
  8
0
 10
-90.6461
 20
-58.5278
 11
-90.193
 21
-58.3209
  0
LINE
  8
0
 10
-90.193
 20
-58.3209
 11
-89.7
 21
-58.25
  0
LINE
  8
0
 10
-89.7
 20
-58.25
 11
-89.207
 21
-58.3209
  0
LINE
  8
0
 10
-89.207
 20
-58.3209
 11
-88.7539
 21
-58.5278
  0
LINE
  8
0
 10
-88.7539
 20
-58.5278
 11
-88.3774
 21
-58.854
  0
LINE
  8
0
 10
-88.3774
 20
-58.854
 11
-88.1081
 21
-59.273
  0
LINE
  8
0
 10
-88.1081
 20
-59.273
 11
-87.9678
 21
-59.7509
  0
LINE
  8
0
 10
-87.9678
 20
-59.7509
 11
-87.9678
 21
-60.249
  0
LINE
  8
0
 10
-87.9678
 20
-60.249
 11
-88.1081
 21
-60.727
  0
LINE
  8
0
 10
-88.1081
 20
-60.727
 11
-88.3774
 21
-61.146
  0
LINE
  8
0
 10
-88.3774
 20
-61.146
 11
-88.7539
 21
-61.4722
  0
LINE
  8
0
 10
-88.7539
 20
-61.4722
 11
-89.207
 21
-61.6791
  0
LINE
  8
0
 10
-89.207
 20
-61.6791
 11
-89.7
 21
-61.75
  0
LINE
  8
0
 10
-89.7
 20
-61.75
 11
-90.193
 21
-61.6791
  0
LINE
  8
0
 10
89.207
 20
-61.6791
 11
88.7539
 21
-61.4722
  0
LINE
  8
0
 10
88.7539
 20
-61.4722
 11
88.3774
 21
-61.146
  0
LINE
  8
0
 10
88.3774
 20
-61.146
 11
88.1081
 21
-60.727
  0
LINE
  8
0
 10
88.1081
 20
-60.727
 11
87.9678
 21
-60.249
  0
LINE
  8
0
 10
87.9678
 20
-60.249
 11
87.9678
 21
-59.7509
  0
LINE
  8
0
 10
87.9678
 20
-59.7509
 11
88.1081
 21
-59.273
  0
LINE
  8
0
 10
88.1081
 20
-59.273
 11
88.3774
 21
-58.854
  0
LINE
  8
0
 10
88.3774
 20
-58.854
 11
88.7539
 21
-58.5278
  0
LINE
  8
0
 10
88.7539
 20
-58.5278
 11
89.207
 21
-58.3209
  0
LINE
  8
0
 10
89.207
 20
-58.3209
 11
89.7
 21
-58.25
  0
LINE
  8
0
 10
89.7
 20
-58.25
 11
90.193
 21
-58.3209
  0
LINE
  8
0
 10
90.193
 20
-58.3209
 11
90.6461
 21
-58.5278
  0
LINE
  8
0
 10
90.6461
 20
-58.5278
 11
91.0226
 21
-58.854
  0
LINE
  8
0
 10
91.0226
 20
-58.854
 11
91.2919
 21
-59.273
  0
LINE
  8
0
 10
91.2919
 20
-59.273
 11
91.4322
 21
-59.7509
  0
LINE
  8
0
 10
91.4322
 20
-59.7509
 11
91.4322
 21
-60.249
  0
LINE
  8
0
 10
91.4322
 20
-60.249
 11
91.2919
 21
-60.727
  0
LINE
  8
0
 10
91.2919
 20
-60.727
 11
91.0226
 21
-61.146
  0
LINE
  8
0
 10
91.0226
 20
-61.146
 11
90.6461
 21
-61.4722
  0
LINE
  8
0
 10
90.6461
 20
-61.4722
 11
90.193
 21
-61.6791
  0
LINE
  8
0
 10
90.193
 20
-61.6791
 11
89.7
 21
-61.75
  0
LINE
  8
0
 10
89.7
 20
-61.75
 11
89.207
 21
-61.6791
  0
LINE
  8
0
 10
-0.249039
 20
-116.432
 11
-0.726974
 21
-116.292
  0
LINE
  8
0
 10
-0.726974
 20
-116.292
 11
-1.146
 21
-116.023
  0
LINE
  8
0
 10
-1.146
 20
-116.023
 11
-1.47218
 21
-115.646
  0
LINE
  8
0
 10
-1.47218
 20
-115.646
 11
-1.67911
 21
-115.193
  0
LINE
  8
0
 10
-1.67911
 20
-115.193
 11
-1.75
 21
-114.7
  0
LINE
  8
0
 10
-1.75
 20
-114.7
 11
-1.67911
 21
-114.207
  0
LINE
  8
0
 10
-1.67911
 20
-114.207
 11
-1.47218
 21
-113.754
  0
LINE
  8
0
 10
-1.47218
 20
-113.754
 11
-1.146
 21
-113.377
  0
LINE
  8
0
 10
-1.146
 20
-113.377
 11
-0.726974
 21
-113.108
  0
LINE
  8
0
 10
-0.726974
 20
-113.108
 11
-0.249039
 21
-112.968
  0
LINE
  8
0
 10
-0.249039
 20
-112.968
 11
0.249039
 21
-112.968
  0
LINE
  8
0
 10
0.249039
 20
-112.968
 11
0.726974
 21
-113.108
  0
LINE
  8
0
 10
0.726974
 20
-113.108
 11
1.146
 21
-113.377
  0
LINE
  8
0
 10
1.146
 20
-113.377
 11
1.47218
 21
-113.754
  0
LINE
  8
0
 10
1.47218
 20
-113.754
 11
1.67911
 21
-114.207
  0
LINE
  8
0
 10
1.67911
 20
-114.207
 11
1.75
 21
-114.7
  0
LINE
  8
0
 10
1.75
 20
-114.7
 11
1.67911
 21
-115.193
  0
LINE
  8
0
 10
1.67911
 20
-115.193
 11
1.47218
 21
-115.646
  0
LINE
  8
0
 10
1.47218
 20
-115.646
 11
1.146
 21
-116.023
  0
LINE
  8
0
 10
1.146
 20
-116.023
 11
0.726974
 21
-116.292
  0
LINE
  8
0
 10
0.726974
 20
-116.292
 11
0.249039
 21
-116.432
  0
LINE
  8
0
 10
0.249039
 20
-116.432
 11
-0.249039
 21
-116.432
  0
LINE
  8
0
 10
497
 20
-135
 11
303
 21
-135
  0
LINE
  8
0
 10
303
 20
-135
 11
303
 21
-195
  0
LINE
  8
0
 10
303
 20
-195
 11
497
 21
-195
  0
LINE
  8
0
 10
497
 20
-195
 11
497
 21
-135
  0
LINE
  8
0
 10
399.751
 20
-147.032
 11
399.273
 21
-146.892
  0
LINE
  8
0
 10
399.273
 20
-146.892
 11
398.854
 21
-146.623
  0
LINE
  8
0
 10
398.854
 20
-146.623
 11
398.528
 21
-146.246
  0
LINE
  8
0
 10
398.528
 20
-146.246
 11
398.321
 21
-145.793
  0
LINE
  8
0
 10
398.321
 20
-145.793
 11
398.25
 21
-145.3
  0
LINE
  8
0
 10
398.25
 20
-145.3
 11
398.321
 21
-144.807
  0
LINE
  8
0
 10
398.321
 20
-144.807
 11
398.528
 21
-144.354
  0
LINE
  8
0
 10
398.528
 20
-144.354
 11
398.854
 21
-143.977
  0
LINE
  8
0
 10
398.854
 20
-143.977
 11
399.273
 21
-143.708
  0
LINE
  8
0
 10
399.273
 20
-143.708
 11
399.751
 21
-143.568
  0
LINE
  8
0
 10
399.751
 20
-143.568
 11
400.249
 21
-143.568
  0
LINE
  8
0
 10
400.249
 20
-143.568
 11
400.727
 21
-143.708
  0
LINE
  8
0
 10
400.727
 20
-143.708
 11
401.146
 21
-143.977
  0
LINE
  8
0
 10
401.146
 20
-143.977
 11
401.472
 21
-144.354
  0
LINE
  8
0
 10
401.472
 20
-144.354
 11
401.679
 21
-144.807
  0
LINE
  8
0
 10
401.679
 20
-144.807
 11
401.75
 21
-145.3
  0
LINE
  8
0
 10
401.75
 20
-145.3
 11
401.679
 21
-145.793
  0
LINE
  8
0
 10
401.679
 20
-145.793
 11
401.472
 21
-146.246
  0
LINE
  8
0
 10
401.472
 20
-146.246
 11
401.146
 21
-146.623
  0
LINE
  8
0
 10
401.146
 20
-146.623
 11
400.727
 21
-146.892
  0
LINE
  8
0
 10
400.727
 20
-146.892
 11
400.249
 21
-147.032
  0
LINE
  8
0
 10
400.249
 20
-147.032
 11
399.751
 21
-147.032
  0
LINE
  8
0
 10
395
 20
-153.5
 11
395
 21
-151.7
  0
LINE
  8
0
 10
395
 20
-151.7
 11
405
 21
-151.7
  0
LINE
  8
0
 10
405
 20
-151.7
 11
405
 21
-153.5
  0
LINE
  8
0
 10
405
 20
-153.5
 11
395
 21
-153.5
  0
LINE
  8
0
 10
399.505
 20
-176.979
 11
399.012
 21
-176.918
  0
LINE
  8
0
 10
399.012
 20
-176.918
 11
398.527
 21
-176.816
  0
LINE
  8
0
 10
398.527
 20
-176.816
 11
398.052
 21
-176.675
  0
LINE
  8
0
 10
398.052
 20
-176.675
 11
397.59
 21
-176.495
  0
LINE
  8
0
 10
397.59
 20
-176.495
 11
397.144
 21
-176.277
  0
LINE
  8
0
 10
397.144
 20
-176.277
 11
396.718
 21
-176.023
  0
LINE
  8
0
 10
396.718
 20
-176.023
 11
396.315
 21
-175.735
  0
LINE
  8
0
 10
396.315
 20
-175.735
 11
395.936
 21
-175.414
  0
LINE
  8
0
 10
395.936
 20
-175.414
 11
395.586
 21
-175.064
  0
LINE
  8
0
 10
395.586
 20
-175.064
 11
395.265
 21
-174.685
  0
LINE
  8
0
 10
395.265
 20
-174.685
 11
394.977
 21
-174.282
  0
LINE
  8
0
 10
394.977
 20
-174.282
 11
394.723
 21
-173.856
  0
LINE
  8
0
 10
394.723
 20
-173.856
 11
394.505
 21
-173.41
  0
LINE
  8
0
 10
394.505
 20
-173.41
 11
394.325
 21
-172.948
  0
LINE
  8
0
 10
394.325
 20
-172.948
 11
394.184
 21
-172.473
  0
LINE
  8
0
 10
394.184
 20
-172.473
 11
394.082
 21
-171.988
  0
LINE
  8
0
 10
394.082
 20
-171.988
 11
394.021
 21
-171.495
  0
LINE
  8
0
 10
394.021
 20
-171.495
 11
394
 21
-171
  0
LINE
  8
0
 10
394
 20
-171
 11
394.021
 21
-170.505
  0
LINE
  8
0
 10
394.021
 20
-170.505
 11
394.082
 21
-170.012
  0
LINE
  8
0
 10
394.082
 20
-170.012
 11
394.184
 21
-169.527
  0
LINE
  8
0
 10
394.184
 20
-169.527
 11
394.325
 21
-169.052
  0
LINE
  8
0
 10
394.325
 20
-169.052
 11
394.505
 21
-168.59
  0
LINE
  8
0
 10
394.505
 20
-168.59
 11
394.723
 21
-168.144
  0
LINE
  8
0
 10
394.723
 20
-168.144
 11
394.977
 21
-167.718
  0
LINE
  8
0
 10
394.977
 20
-167.718
 11
395.265
 21
-167.315
  0
LINE
  8
0
 10
395.265
 20
-167.315
 11
395.586
 21
-166.936
  0
LINE
  8
0
 10
395.586
 20
-166.936
 11
395.936
 21
-166.586
  0
LINE
  8
0
 10
395.936
 20
-166.586
 11
396.315
 21
-166.265
  0
LINE
  8
0
 10
396.315
 20
-166.265
 11
396.718
 21
-165.977
  0
LINE
  8
0
 10
396.718
 20
-165.977
 11
397.144
 21
-165.723
  0
LINE
  8
0
 10
397.144
 20
-165.723
 11
397.59
 21
-165.505
  0
LINE
  8
0
 10
397.59
 20
-165.505
 11
398.052
 21
-165.325
  0
LINE
  8
0
 10
398.052
 20
-165.325
 11
398.527
 21
-165.184
  0
LINE
  8
0
 10
398.527
 20
-165.184
 11
399.012
 21
-165.082
  0
LINE
  8
0
 10
399.012
 20
-165.082
 11
399.505
 21
-165.02
  0
LINE
  8
0
 10
399.505
 20
-165.02
 11
400
 21
-165
  0
LINE
  8
0
 10
400
 20
-165
 11
400.495
 21
-165.02
  0
LINE
  8
0
 10
400.495
 20
-165.02
 11
400.988
 21
-165.082
  0
LINE
  8
0
 10
400.988
 20
-165.082
 11
401.473
 21
-165.184
  0
LINE
  8
0
 10
401.473
 20
-165.184
 11
401.948
 21
-165.325
  0
LINE
  8
0
 10
401.948
 20
-165.325
 11
402.41
 21
-165.505
  0
LINE
  8
0
 10
402.41
 20
-165.505
 11
402.856
 21
-165.723
  0
LINE
  8
0
 10
402.856
 20
-165.723
 11
403.282
 21
-165.977
  0
LINE
  8
0
 10
403.282
 20
-165.977
 11
403.685
 21
-166.265
  0
LINE
  8
0
 10
403.685
 20
-166.265
 11
404.064
 21
-166.586
  0
LINE
  8
0
 10
404.064
 20
-166.586
 11
404.414
 21
-166.936
  0
LINE
  8
0
 10
404.414
 20
-166.936
 11
404.735
 21
-167.315
  0
LINE
  8
0
 10
404.735
 20
-167.315
 11
405.023
 21
-167.718
  0
LINE
  8
0
 10
405.023
 20
-167.718
 11
405.277
 21
-168.144
  0
LINE
  8
0
 10
405.277
 20
-168.144
 11
405.495
 21
-168.59
  0
LINE
  8
0
 10
405.495
 20
-168.59
 11
405.675
 21
-169.052
  0
LINE
  8
0
 10
405.675
 20
-169.052
 11
405.816
 21
-169.527
  0
LINE
  8
0
 10
405.816
 20
-169.527
 11
405.918
 21
-170.012
  0
LINE
  8
0
 10
405.918
 20
-170.012
 11
405.979
 21
-170.505
  0
LINE
  8
0
 10
405.979
 20
-170.505
 11
406
 21
-171
  0
LINE
  8
0
 10
406
 20
-171
 11
405.979
 21
-171.495
  0
LINE
  8
0
 10
405.979
 20
-171.495
 11
405.918
 21
-171.988
  0
LINE
  8
0
 10
405.918
 20
-171.988
 11
405.816
 21
-172.473
  0
LINE
  8
0
 10
405.816
 20
-172.473
 11
405.675
 21
-172.948
  0
LINE
  8
0
 10
405.675
 20
-172.948
 11
405.495
 21
-173.41
  0
LINE
  8
0
 10
405.495
 20
-173.41
 11
405.277
 21
-173.856
  0
LINE
  8
0
 10
405.277
 20
-173.856
 11
405.023
 21
-174.282
  0
LINE
  8
0
 10
405.023
 20
-174.282
 11
404.735
 21
-174.685
  0
LINE
  8
0
 10
404.735
 20
-174.685
 11
404.414
 21
-175.064
  0
LINE
  8
0
 10
404.414
 20
-175.064
 11
404.064
 21
-175.414
  0
LINE
  8
0
 10
404.064
 20
-175.414
 11
403.685
 21
-175.735
  0
LINE
  8
0
 10
403.685
 20
-175.735
 11
403.282
 21
-176.023
  0
LINE
  8
0
 10
403.282
 20
-176.023
 11
402.856
 21
-176.277
  0
LINE
  8
0
 10
402.856
 20
-176.277
 11
402.41
 21
-176.495
  0
LINE
  8
0
 10
402.41
 20
-176.495
 11
401.948
 21
-176.675
  0
LINE
  8
0
 10
401.948
 20
-176.675
 11
401.473
 21
-176.816
  0
LINE
  8
0
 10
401.473
 20
-176.816
 11
400.988
 21
-176.918
  0
LINE
  8
0
 10
400.988
 20
-176.918
 11
400.495
 21
-176.979
  0
LINE
  8
0
 10
400.495
 20
-176.979
 11
400
 21
-177
  0
LINE
  8
0
 10
400
 20
-177
 11
399.505
 21
-176.979
  0
LINE
  8
0
 10
489.207
 20
-176.679
 11
488.754
 21
-176.472
  0
LINE
  8
0
 10
488.754
 20
-176.472
 11
488.377
 21
-176.146
  0
LINE
  8
0
 10
488.377
 20
-176.146
 11
488.108
 21
-175.727
  0
LINE
  8
0
 10
488.108
 20
-175.727
 11
487.968
 21
-175.249
  0
LINE
  8
0
 10
487.968
 20
-175.249
 11
487.968
 21
-174.751
  0
LINE
  8
0
 10
487.968
 20
-174.751
 11
488.108
 21
-174.273
  0
LINE
  8
0
 10
488.108
 20
-174.273
 11
488.377
 21
-173.854
  0
LINE
  8
0
 10
488.377
 20
-173.854
 11
488.754
 21
-173.528
  0
LINE
  8
0
 10
488.754
 20
-173.528
 11
489.207
 21
-173.321
  0
LINE
  8
0
 10
489.207
 20
-173.321
 11
489.7
 21
-173.25
  0
LINE
  8
0
 10
489.7
 20
-173.25
 11
490.193
 21
-173.321
  0
LINE
  8
0
 10
490.193
 20
-173.321
 11
490.646
 21
-173.528
  0
LINE
  8
0
 10
490.646
 20
-173.528
 11
491.023
 21
-173.854
  0
LINE
  8
0
 10
491.023
 20
-173.854
 11
491.292
 21
-174.273
  0
LINE
  8
0
 10
491.292
 20
-174.273
 11
491.432
 21
-174.751
  0
LINE
  8
0
 10
491.432
 20
-174.751
 11
491.432
 21
-175.249
  0
LINE
  8
0
 10
491.432
 20
-175.249
 11
491.292
 21
-175.727
  0
LINE
  8
0
 10
491.292
 20
-175.727
 11
491.023
 21
-176.146
  0
LINE
  8
0
 10
491.023
 20
-176.146
 11
490.646
 21
-176.472
  0
LINE
  8
0
 10
490.646
 20
-176.472
 11
490.193
 21
-176.679
  0
LINE
  8
0
 10
490.193
 20
-176.679
 11
489.7
 21
-176.75
  0
LINE
  8
0
 10
489.7
 20
-176.75
 11
489.207
 21
-176.679
  0
LINE
  8
0
 10
309.807
 20
-176.679
 11
309.354
 21
-176.472
  0
LINE
  8
0
 10
309.354
 20
-176.472
 11
308.977
 21
-176.146
  0
LINE
  8
0
 10
308.977
 20
-176.146
 11
308.708
 21
-175.727
  0
LINE
  8
0
 10
308.708
 20
-175.727
 11
308.568
 21
-175.249
  0
LINE
  8
0
 10
308.568
 20
-175.249
 11
308.568
 21
-174.751
  0
LINE
  8
0
 10
308.568
 20
-174.751
 11
308.708
 21
-174.273
  0
LINE
  8
0
 10
308.708
 20
-174.273
 11
308.977
 21
-173.854
  0
LINE
  8
0
 10
308.977
 20
-173.854
 11
309.354
 21
-173.528
  0
LINE
  8
0
 10
309.354
 20
-173.528
 11
309.807
 21
-173.321
  0
LINE
  8
0
 10
309.807
 20
-173.321
 11
310.3
 21
-173.25
  0
LINE
  8
0
 10
310.3
 20
-173.25
 11
310.793
 21
-173.321
  0
LINE
  8
0
 10
310.793
 20
-173.321
 11
311.246
 21
-173.528
  0
LINE
  8
0
 10
311.246
 20
-173.528
 11
311.623
 21
-173.854
  0
LINE
  8
0
 10
311.623
 20
-173.854
 11
311.892
 21
-174.273
  0
LINE
  8
0
 10
311.892
 20
-174.273
 11
312.032
 21
-174.751
  0
LINE
  8
0
 10
312.032
 20
-174.751
 11
312.032
 21
-175.249
  0
LINE
  8
0
 10
312.032
 20
-175.249
 11
311.892
 21
-175.727
  0
LINE
  8
0
 10
311.892
 20
-175.727
 11
311.623
 21
-176.146
  0
LINE
  8
0
 10
311.623
 20
-176.146
 11
311.246
 21
-176.472
  0
LINE
  8
0
 10
311.246
 20
-176.472
 11
310.793
 21
-176.679
  0
LINE
  8
0
 10
310.793
 20
-176.679
 11
310.3
 21
-176.75
  0
LINE
  8
0
 10
310.3
 20
-176.75
 11
309.807
 21
-176.679
  0
LINE
  8
0
 10
97
 20
-135
 11
-97
 21
-135
  0
LINE
  8
0
 10
-97
 20
-135
 11
-97
 21
-195
  0
LINE
  8
0
 10
-97
 20
-195
 11
97
 21
-195
  0
LINE
  8
0
 10
97
 20
-195
 11
97
 21
-135
  0
LINE
  8
0
 10
-0.249039
 20
-147.032
 11
-0.726974
 21
-146.892
  0
LINE
  8
0
 10
-0.726974
 20
-146.892
 11
-1.146
 21
-146.623
  0
LINE
  8
0
 10
-1.146
 20
-146.623
 11
-1.47218
 21
-146.246
  0
LINE
  8
0
 10
-1.47218
 20
-146.246
 11
-1.67911
 21
-145.793
  0
LINE
  8
0
 10
-1.67911
 20
-145.793
 11
-1.75
 21
-145.3
  0
LINE
  8
0
 10
-1.75
 20
-145.3
 11
-1.67911
 21
-144.807
  0
LINE
  8
0
 10
-1.67911
 20
-144.807
 11
-1.47218
 21
-144.354
  0
LINE
  8
0
 10
-1.47218
 20
-144.354
 11
-1.146
 21
-143.977
  0
LINE
  8
0
 10
-1.146
 20
-143.977
 11
-0.726974
 21
-143.708
  0
LINE
  8
0
 10
-0.726974
 20
-143.708
 11
-0.249039
 21
-143.568
  0
LINE
  8
0
 10
-0.249039
 20
-143.568
 11
0.249039
 21
-143.568
  0
LINE
  8
0
 10
0.249039
 20
-143.568
 11
0.726974
 21
-143.708
  0
LINE
  8
0
 10
0.726974
 20
-143.708
 11
1.146
 21
-143.977
  0
LINE
  8
0
 10
1.146
 20
-143.977
 11
1.47218
 21
-144.354
  0
LINE
  8
0
 10
1.47218
 20
-144.354
 11
1.67911
 21
-144.807
  0
LINE
  8
0
 10
1.67911
 20
-144.807
 11
1.75
 21
-145.3
  0
LINE
  8
0
 10
1.75
 20
-145.3
 11
1.67911
 21
-145.793
  0
LINE
  8
0
 10
1.67911
 20
-145.793
 11
1.47218
 21
-146.246
  0
LINE
  8
0
 10
1.47218
 20
-146.246
 11
1.146
 21
-146.623
  0
LINE
  8
0
 10
1.146
 20
-146.623
 11
0.726974
 21
-146.892
  0
LINE
  8
0
 10
0.726974
 20
-146.892
 11
0.249039
 21
-147.032
  0
LINE
  8
0
 10
0.249039
 20
-147.032
 11
-0.249039
 21
-147.032
  0
LINE
  8
0
 10
-5
 20
-153.5
 11
-5
 21
-151.7
  0
LINE
  8
0
 10
-5
 20
-151.7
 11
5
 21
-151.7
  0
LINE
  8
0
 10
5
 20
-151.7
 11
5
 21
-153.5
  0
LINE
  8
0
 10
5
 20
-153.5
 11
-5
 21
-153.5
  0
LINE
  8
0
 10
-0.495468
 20
-176.979
 11
-0.987564
 21
-176.918
  0
LINE
  8
0
 10
-0.987564
 20
-176.918
 11
-1.4729
 21
-176.816
  0
LINE
  8
0
 10
-1.4729
 20
-176.816
 11
-1.9482
 21
-176.675
  0
LINE
  8
0
 10
-1.9482
 20
-176.675
 11
-2.41017
 21
-176.495
  0
LINE
  8
0
 10
-2.41017
 20
-176.495
 11
-2.85568
 21
-176.277
  0
LINE
  8
0
 10
-2.85568
 20
-176.277
 11
-3.28168
 21
-176.023
  0
LINE
  8
0
 10
-3.28168
 20
-176.023
 11
-3.68527
 21
-175.735
  0
LINE
  8
0
 10
-3.68527
 20
-175.735
 11
-4.06367
 21
-175.414
  0
LINE
  8
0
 10
-4.06367
 20
-175.414
 11
-4.41434
 21
-175.064
  0
LINE
  8
0
 10
-4.41434
 20
-175.064
 11
-4.73483
 21
-174.685
  0
LINE
  8
0
 10
-4.73483
 20
-174.685
 11
-5.02299
 21
-174.282
  0
LINE
  8
0
 10
-5.02299
 20
-174.282
 11
-5.27684
 21
-173.856
  0
LINE
  8
0
 10
-5.27684
 20
-173.856
 11
-5.49463
 21
-173.41
  0
LINE
  8
0
 10
-5.49463
 20
-173.41
 11
-5.6749
 21
-172.948
  0
LINE
  8
0
 10
-5.6749
 20
-172.948
 11
-5.81639
 21
-172.473
  0
LINE
  8
0
 10
-5.81639
 20
-172.473
 11
-5.91817
 21
-171.988
  0
LINE
  8
0
 10
-5.91817
 20
-171.988
 11
-5.97949
 21
-171.495
  0
LINE
  8
0
 10
-5.97949
 20
-171.495
 11
-6
 21
-171
  0
LINE
  8
0
 10
-6
 20
-171
 11
-5.97949
 21
-170.505
  0
LINE
  8
0
 10
-5.97949
 20
-170.505
 11
-5.91817
 21
-170.012
  0
LINE
  8
0
 10
-5.91817
 20
-170.012
 11
-5.81639
 21
-169.527
  0
LINE
  8
0
 10
-5.81639
 20
-169.527
 11
-5.6749
 21
-169.052
  0
LINE
  8
0
 10
-5.6749
 20
-169.052
 11
-5.49463
 21
-168.59
  0
LINE
  8
0
 10
-5.49463
 20
-168.59
 11
-5.27684
 21
-168.144
  0
LINE
  8
0
 10
-5.27684
 20
-168.144
 11
-5.02299
 21
-167.718
  0
LINE
  8
0
 10
-5.02299
 20
-167.718
 11
-4.73483
 21
-167.315
  0
LINE
  8
0
 10
-4.73483
 20
-167.315
 11
-4.41434
 21
-166.936
  0
LINE
  8
0
 10
-4.41434
 20
-166.936
 11
-4.06367
 21
-166.586
  0
LINE
  8
0
 10
-4.06367
 20
-166.586
 11
-3.68527
 21
-166.265
  0
LINE
  8
0
 10
-3.68527
 20
-166.265
 11
-3.28168
 21
-165.977
  0
LINE
  8
0
 10
-3.28168
 20
-165.977
 11
-2.85568
 21
-165.723
  0
LINE
  8
0
 10
-2.85568
 20
-165.723
 11
-2.41017
 21
-165.505
  0
LINE
  8
0
 10
-2.41017
 20
-165.505
 11
-1.9482
 21
-165.325
  0
LINE
  8
0
 10
-1.9482
 20
-165.325
 11
-1.4729
 21
-165.184
  0
LINE
  8
0
 10
-1.4729
 20
-165.184
 11
-0.987564
 21
-165.082
  0
LINE
  8
0
 10
-0.987564
 20
-165.082
 11
-0.495468
 21
-165.02
  0
LINE
  8
0
 10
-0.495468
 20
-165.02
 11
0
 21
-165
  0
LINE
  8
0
 10
0
 20
-165
 11
0.495468
 21
-165.02
  0
LINE
  8
0
 10
0.495468
 20
-165.02
 11
0.987564
 21
-165.082
  0
LINE
  8
0
 10
0.987564
 20
-165.082
 11
1.4729
 21
-165.184
  0
LINE
  8
0
 10
1.4729
 20
-165.184
 11
1.9482
 21
-165.325
  0
LINE
  8
0
 10
1.9482
 20
-165.325
 11
2.41017
 21
-165.505
  0
LINE
  8
0
 10
2.41017
 20
-165.505
 11
2.85568
 21
-165.723
  0
LINE
  8
0
 10
2.85568
 20
-165.723
 11
3.28168
 21
-165.977
  0
LINE
  8
0
 10
3.28168
 20
-165.977
 11
3.68527
 21
-166.265
  0
LINE
  8
0
 10
3.68527
 20
-166.265
 11
4.06367
 21
-166.586
  0
LINE
  8
0
 10
4.06367
 20
-166.586
 11
4.41434
 21
-166.936
  0
LINE
  8
0
 10
4.41434
 20
-166.936
 11
4.73483
 21
-167.315
  0
LINE
  8
0
 10
4.73483
 20
-167.315
 11
5.02299
 21
-167.718
  0
LINE
  8
0
 10
5.02299
 20
-167.718
 11
5.27684
 21
-168.144
  0
LINE
  8
0
 10
5.27684
 20
-168.144
 11
5.49463
 21
-168.59
  0
LINE
  8
0
 10
5.49463
 20
-168.59
 11
5.6749
 21
-169.052
  0
LINE
  8
0
 10
5.6749
 20
-169.052
 11
5.81639
 21
-169.527
  0
LINE
  8
0
 10
5.81639
 20
-169.527
 11
5.91817
 21
-170.012
  0
LINE
  8
0
 10
5.91817
 20
-170.012
 11
5.97949
 21
-170.505
  0
LINE
  8
0
 10
5.97949
 20
-170.505
 11
6
 21
-171
  0
LINE
  8
0
 10
6
 20
-171
 11
5.97949
 21
-171.495
  0
LINE
  8
0
 10
5.97949
 20
-171.495
 11
5.91817
 21
-171.988
  0
LINE
  8
0
 10
5.91817
 20
-171.988
 11
5.81639
 21
-172.473
  0
LINE
  8
0
 10
5.81639
 20
-172.473
 11
5.6749
 21
-172.948
  0
LINE
  8
0
 10
5.6749
 20
-172.948
 11
5.49463
 21
-173.41
  0
LINE
  8
0
 10
5.49463
 20
-173.41
 11
5.27684
 21
-173.856
  0
LINE
  8
0
 10
5.27684
 20
-173.856
 11
5.02299
 21
-174.282
  0
LINE
  8
0
 10
5.02299
 20
-174.282
 11
4.73483
 21
-174.685
  0
LINE
  8
0
 10
4.73483
 20
-174.685
 11
4.41434
 21
-175.064
  0
LINE
  8
0
 10
4.41434
 20
-175.064
 11
4.06367
 21
-175.414
  0
LINE
  8
0
 10
4.06367
 20
-175.414
 11
3.68527
 21
-175.735
  0
LINE
  8
0
 10
3.68527
 20
-175.735
 11
3.28168
 21
-176.023
  0
LINE
  8
0
 10
3.28168
 20
-176.023
 11
2.85568
 21
-176.277
  0
LINE
  8
0
 10
2.85568
 20
-176.277
 11
2.41017
 21
-176.495
  0
LINE
  8
0
 10
2.41017
 20
-176.495
 11
1.9482
 21
-176.675
  0
LINE
  8
0
 10
1.9482
 20
-176.675
 11
1.4729
 21
-176.816
  0
LINE
  8
0
 10
1.4729
 20
-176.816
 11
0.987564
 21
-176.918
  0
LINE
  8
0
 10
0.987564
 20
-176.918
 11
0.495468
 21
-176.979
  0
LINE
  8
0
 10
0.495468
 20
-176.979
 11
0
 21
-177
  0
LINE
  8
0
 10
0
 20
-177
 11
-0.495468
 21
-176.979
  0
LINE
  8
0
 10
89.207
 20
-176.679
 11
88.7539
 21
-176.472
  0
LINE
  8
0
 10
88.7539
 20
-176.472
 11
88.3774
 21
-176.146
  0
LINE
  8
0
 10
88.3774
 20
-176.146
 11
88.1081
 21
-175.727
  0
LINE
  8
0
 10
88.1081
 20
-175.727
 11
87.9678
 21
-175.249
  0
LINE
  8
0
 10
87.9678
 20
-175.249
 11
87.9678
 21
-174.751
  0
LINE
  8
0
 10
87.9678
 20
-174.751
 11
88.1081
 21
-174.273
  0
LINE
  8
0
 10
88.1081
 20
-174.273
 11
88.3774
 21
-173.854
  0
LINE
  8
0
 10
88.3774
 20
-173.854
 11
88.7539
 21
-173.528
  0
LINE
  8
0
 10
88.7539
 20
-173.528
 11
89.207
 21
-173.321
  0
LINE
  8
0
 10
89.207
 20
-173.321
 11
89.7
 21
-173.25
  0
LINE
  8
0
 10
89.7
 20
-173.25
 11
90.193
 21
-173.321
  0
LINE
  8
0
 10
90.193
 20
-173.321
 11
90.6461
 21
-173.528
  0
LINE
  8
0
 10
90.6461
 20
-173.528
 11
91.0226
 21
-173.854
  0
LINE
  8
0
 10
91.0226
 20
-173.854
 11
91.2919
 21
-174.273
  0
LINE
  8
0
 10
91.2919
 20
-174.273
 11
91.4322
 21
-174.751
  0
LINE
  8
0
 10
91.4322
 20
-174.751
 11
91.4322
 21
-175.249
  0
LINE
  8
0
 10
91.4322
 20
-175.249
 11
91.2919
 21
-175.727
  0
LINE
  8
0
 10
91.2919
 20
-175.727
 11
91.0226
 21
-176.146
  0
LINE
  8
0
 10
91.0226
 20
-176.146
 11
90.6461
 21
-176.472
  0
LINE
  8
0
 10
90.6461
 20
-176.472
 11
90.193
 21
-176.679
  0
LINE
  8
0
 10
90.193
 20
-176.679
 11
89.7
 21
-176.75
  0
LINE
  8
0
 10
89.7
 20
-176.75
 11
89.207
 21
-176.679
  0
LINE
  8
0
 10
-90.193
 20
-176.679
 11
-90.6461
 21
-176.472
  0
LINE
  8
0
 10
-90.6461
 20
-176.472
 11
-91.0226
 21
-176.146
  0
LINE
  8
0
 10
-91.0226
 20
-176.146
 11
-91.2919
 21
-175.727
  0
LINE
  8
0
 10
-91.2919
 20
-175.727
 11
-91.4322
 21
-175.249
  0
LINE
  8
0
 10
-91.4322
 20
-175.249
 11
-91.4322
 21
-174.751
  0
LINE
  8
0
 10
-91.4322
 20
-174.751
 11
-91.2919
 21
-174.273
  0
LINE
  8
0
 10
-91.2919
 20
-174.273
 11
-91.0226
 21
-173.854
  0
LINE
  8
0
 10
-91.0226
 20
-173.854
 11
-90.6461
 21
-173.528
  0
LINE
  8
0
 10
-90.6461
 20
-173.528
 11
-90.193
 21
-173.321
  0
LINE
  8
0
 10
-90.193
 20
-173.321
 11
-89.7
 21
-173.25
  0
LINE
  8
0
 10
-89.7
 20
-173.25
 11
-89.207
 21
-173.321
  0
LINE
  8
0
 10
-89.207
 20
-173.321
 11
-88.7539
 21
-173.528
  0
LINE
  8
0
 10
-88.7539
 20
-173.528
 11
-88.3774
 21
-173.854
  0
LINE
  8
0
 10
-88.3774
 20
-173.854
 11
-88.1081
 21
-174.273
  0
LINE
  8
0
 10
-88.1081
 20
-174.273
 11
-87.9678
 21
-174.751
  0
LINE
  8
0
 10
-87.9678
 20
-174.751
 11
-87.9678
 21
-175.249
  0
LINE
  8
0
 10
-87.9678
 20
-175.249
 11
-88.1081
 21
-175.727
  0
LINE
  8
0
 10
-88.1081
 20
-175.727
 11
-88.3774
 21
-176.146
  0
LINE
  8
0
 10
-88.3774
 20
-176.146
 11
-88.7539
 21
-176.472
  0
LINE
  8
0
 10
-88.7539
 20
-176.472
 11
-89.207
 21
-176.679
  0
LINE
  8
0
 10
-89.207
 20
-176.679
 11
-89.7
 21
-176.75
  0
LINE
  8
0
 10
-89.7
 20
-176.75
 11
-90.193
 21
-176.679
  0
ENDSEC
  0
SECTION
  2
OBJECTS
  0
DICTIONARY
  0
ENDSEC
  0
EOF
