<?xml version="1.0" standalone="no"?>
<!DOCTYPE svg PUBLIC "-//W3C//DTD SVG 1.1//EN" "http://www.w3.org/Graphics/SVG/1.1/DTD/svg11.dtd">
<svg width="734mm" height="384mm" viewBox="-167 -192 734 384" xmlns="http://www.w3.org/2000/svg" version="1.1">
<title>OpenSCAD Model</title>
<path d="
M 450.1,-135 L 500,-135 L 500,-165 L 497.2,-165 L 497.2,-179.8 L 500,-179.8
 L 500,-192 L 300,-192 L 300,-179.8 L 302.8,-179.8 L 302.8,-165 L 300,-165
 L 300,-135 L 349.9,-135 L 349.9,-131.8 L 450.1,-131.8 z
M 399.505,-162.02 L 398.527,-162.184 L 397.59,-162.505 L 396.718,-162.977 L 395.936,-163.586 L 395.265,-164.315
 L 394.723,-165.144 L 394.325,-166.052 L 394.082,-167.012 L 394,-168 L 394.082,-168.988 L 394.325,-169.948
 L 394.723,-170.856 L 395.265,-171.685 L 395.936,-172.414 L 396.718,-173.023 L 397.59,-173.495 L 398.527,-173.816
 L 399.505,-173.979 L 400.495,-173.979 L 401.473,-173.816 L 402.41,-173.495 L 403.282,-173.023 L 404.064,-172.414
 L 404.735,-171.685 L 405.277,-170.856 L 405.675,-169.948 L 405.918,-168.988 L 406,-168 L 405.918,-167.012
 L 405.675,-166.052 L 405.277,-165.144 L 404.735,-164.315 L 404.064,-163.586 L 403.282,-162.977 L 402.41,-162.505
 L 401.473,-162.184 L 400.495,-162.02 z
M 50.1,-135 L 100,-135 L 100,-165 L 97.2,-165 L 97.2,-179.8 L 100,-179.8
 L 100,-192 L -100,-192 L -100,-179.8 L -97.2,-179.8 L -97.2,-165 L -100,-165
 L -100,-155 L -92,-155 L -92,-135 L -50.1,-135 L -50.1,-131.8 L 50.1,-131.8
 z
M -140,122 L -130,122 L -130,117.1 L -110,117.1 L -110,105 L -130,105
 L -130,75 L -110,75 L -110,50.1 L -106.8,50.1 L -106.8,-50.1 L -110,-50.1
 L -110,-125.1 L -130,-125.1 L -130,-122 L -140,-122 L -140,-125 L -155,-125
 L -155,-122 L -167,-122 L -167,122 L -155,122 L -155,125 L -140,125
 z
M -143.495,-19.0205 L -144.473,-19.1836 L -145.41,-19.5054 L -146.282,-19.977 L -147.064,-20.5856 L -147.735,-21.3147
 L -148.277,-22.1443 L -148.675,-23.0518 L -148.918,-24.0124 L -149,-25 L -148.918,-25.9876 L -148.675,-26.9482
 L -148.277,-27.8557 L -147.735,-28.6853 L -147.064,-29.4143 L -146.282,-30.023 L -145.41,-30.4946 L -144.473,-30.8164
 L -143.495,-30.9795 L -142.505,-30.9795 L -141.527,-30.8164 L -140.59,-30.4946 L -139.718,-30.023 L -138.936,-29.4143
 L -138.265,-28.6853 L -137.723,-27.8557 L -137.325,-26.9482 L -137.082,-25.9876 L -137,-25 L -137.082,-24.0124
 L -137.325,-23.0518 L -137.723,-22.1443 L -138.265,-21.3147 L -138.936,-20.5856 L -139.718,-19.977 L -140.59,-19.5054
 L -141.527,-19.1836 L -142.505,-19.0205 z
M -50.1,122.1 L 50.1,122.1 L 50.1,125 L 100,125 L 100,50.1 L 97.1,50.1
 L 97.1,-50.1 L 100,-50.1 L 100,-125 L 50.1,-125 L 50.1,-122.1 L -50.1,-122.1
 L -50.1,-125 L -100,-125 L -100,-50.1 L -97.1,-50.1 L -97.1,50.1 L -100,50.1
 L -100,125 L -50.1,125 z
M 155,122 L 167,122 L 167,-122 L 155,-122 L 155,-125 L 140,-125
 L 140,-122 L 110,-122 L 110,-50.1 L 106.8,-50.1 L 106.8,50.1 L 110,50.1
 L 110,117.1 L 130,117.1 L 130,122 L 140,122 L 140,125 L 155,125
 z
M 349.9,122.1 L 450.1,122.1 L 450.1,125 L 500,125 L 500,50.1 L 497.1,50.1
 L 497.1,-50.1 L 500,-50.1 L 500,-125 L 450.1,-125 L 450.1,-122.1 L 349.9,-122.1
 L 349.9,-125 L 300,-125 L 300,-50.1 L 302.9,-50.1 L 302.9,50.1 L 300,50.1
 L 300,125 L 349.9,125 z
M 555,122 L 567,122 L 567,-122 L 555,-122 L 555,-125 L 540,-125
 L 540,-122 L 530,-122 L 530,-117.1 L 510,-117.1 L 510,-50.1 L 506.8,-50.1
 L 506.8,50.1 L 510,50.1 L 510,117.1 L 530,117.1 L 530,122 L 540,122
 L 540,125 L 555,125 z
M 260,122 L 270,122 L 270,117.1 L 290,117.1 L 290,50.1 L 293.2,50.1
 L 293.2,-50.1 L 290,-50.1 L 290,-117.1 L 270,-117.1 L 270,-122 L 260,-122
 L 260,-125 L 245,-125 L 245,-122 L 233,-122 L 233,122 L 245,122
 L 245,125 L 260,125 z
M 100,179.8 L 97.2,179.8 L 97.2,165 L 100,165 L 100,135 L 50.1,135
 L 50.1,131.8 L -50.1,131.8 L -50.1,135 L -100,135 L -100,165 L -97.2,165
 L -97.2,179.8 L -100,179.8 L -100,192 L 100,192 z
M -0.495468,173.979 L -1.4729,173.816 L -2.41017,173.495 L -3.28168,173.023 L -4.06367,172.414 L -4.73483,171.685
 L -5.27684,170.856 L -5.6749,169.948 L -5.91817,168.988 L -6,168 L -5.91817,167.012 L -5.6749,166.052
 L -5.27684,165.144 L -4.73483,164.315 L -4.06367,163.586 L -3.28168,162.977 L -2.41017,162.505 L -1.4729,162.184
 L -0.495468,162.02 L 0.495468,162.02 L 1.4729,162.184 L 2.41017,162.505 L 3.28168,162.977 L 4.06367,163.586
 L 4.73483,164.315 L 5.27684,165.144 L 5.6749,166.052 L 5.91817,167.012 L 6,168 L 5.91817,168.988
 L 5.6749,169.948 L 5.27684,170.856 L 4.73483,171.685 L 4.06367,172.414 L 3.28168,173.023 L 2.41017,173.495
 L 1.4729,173.816 L 0.495468,173.979 z
M 500,179.8 L 497.2,179.8 L 497.2,165 L 500,165 L 500,135 L 450.1,135
 L 450.1,131.8 L 349.9,131.8 L 349.9,135 L 300,135 L 300,165 L 302.8,165
 L 302.8,179.8 L 300,179.8 L 300,192 L 500,192 z
M 399.505,173.979 L 398.527,173.816 L 397.59,173.495 L 396.718,173.023 L 395.936,172.414 L 395.265,171.685
 L 394.723,170.856 L 394.325,169.948 L 394.082,168.988 L 394,168 L 394.082,167.012 L 394.325,166.052
 L 394.723,165.144 L 395.265,164.315 L 395.936,163.586 L 396.718,162.977 L 397.59,162.505 L 398.527,162.184
 L 399.505,162.02 L 400.495,162.02 L 401.473,162.184 L 402.41,162.505 L 403.282,162.977 L 404.064,163.586
 L 404.735,164.315 L 405.277,165.144 L 405.675,166.052 L 405.918,167.012 L 406,168 L 405.918,168.988
 L 405.675,169.948 L 405.277,170.856 L 404.735,171.685 L 404.064,172.414 L 403.282,173.023 L 402.41,173.495
 L 401.473,173.816 L 400.495,173.979 z
" stroke="black" fill="lightgray" stroke-width="0.5"/>
</svg>
