  0
SECTION
  2
BLOCKS
  0
ENDSEC
  0
SECTION
  2
ENTITIES
  0
LINE
  8
0
 10
97
 20
192
 11
-97
 21
192
  0
LINE
  8
0
 10
-97
 20
192
 11
-97
 21
155
  0
LINE
  8
0
 10
-97
 20
155
 11
-92
 21
155
  0
LINE
  8
0
 10
-92
 20
155
 11
-92
 21
135
  0
LINE
  8
0
 10
-92
 20
135
 11
-97
 21
135
  0
LINE
  8
0
 10
-97
 20
135
 11
-97
 21
132
  0
LINE
  8
0
 10
-97
 20
132
 11
97
 21
132
  0
LINE
  8
0
 10
97
 20
132
 11
97
 21
192
  0
LINE
  8
0
 10
-90.493
 20
173.321
 11
-90.9461
 21
173.528
  0
LINE
  8
0
 10
-90.9461
 20
173.528
 11
-91.3226
 21
173.854
  0
LINE
  8
0
 10
-91.3226
 20
173.854
 11
-91.5918
 21
174.273
  0
LINE
  8
0
 10
-91.5918
 20
174.273
 11
-91.7322
 21
174.751
  0
LINE
  8
0
 10
-91.7322
 20
174.751
 11
-91.7322
 21
175.249
  0
LINE
  8
0
 10
-91.7322
 20
175.249
 11
-91.5918
 21
175.727
  0
LINE
  8
0
 10
-91.5918
 20
175.727
 11
-91.3226
 21
176.146
  0
LINE
  8
0
 10
-91.3226
 20
176.146
 11
-90.9461
 21
176.472
  0
LINE
  8
0
 10
-90.9461
 20
176.472
 11
-90.493
 21
176.679
  0
LINE
  8
0
 10
-90.493
 20
176.679
 11
-90
 21
176.75
  0
LINE
  8
0
 10
-90
 20
176.75
 11
-89.507
 21
176.679
  0
LINE
  8
0
 10
-89.507
 20
176.679
 11
-89.0539
 21
176.472
  0
LINE
  8
0
 10
-89.0539
 20
176.472
 11
-88.6774
 21
176.146
  0
LINE
  8
0
 10
-88.6774
 20
176.146
 11
-88.4081
 21
175.727
  0
LINE
  8
0
 10
-88.4081
 20
175.727
 11
-88.2678
 21
175.249
  0
LINE
  8
0
 10
-88.2678
 20
175.249
 11
-88.2678
 21
174.751
  0
LINE
  8
0
 10
-88.2678
 20
174.751
 11
-88.4081
 21
174.273
  0
LINE
  8
0
 10
-88.4081
 20
174.273
 11
-88.6774
 21
173.854
  0
LINE
  8
0
 10
-88.6774
 20
173.854
 11
-89.0539
 21
173.528
  0
LINE
  8
0
 10
-89.0539
 20
173.528
 11
-89.507
 21
173.321
  0
LINE
  8
0
 10
-89.507
 20
173.321
 11
-90
 21
173.25
  0
LINE
  8
0
 10
-90
 20
173.25
 11
-90.493
 21
173.321
  0
LINE
  8
0
 10
89.507
 20
173.321
 11
89.0539
 21
173.528
  0
LINE
  8
0
 10
89.0539
 20
173.528
 11
88.6774
 21
173.854
  0
LINE
  8
0
 10
88.6774
 20
173.854
 11
88.4081
 21
174.273
  0
LINE
  8
0
 10
88.4081
 20
174.273
 11
88.2678
 21
174.751
  0
LINE
  8
0
 10
88.2678
 20
174.751
 11
88.2678
 21
175.249
  0
LINE
  8
0
 10
88.2678
 20
175.249
 11
88.4081
 21
175.727
  0
LINE
  8
0
 10
88.4081
 20
175.727
 11
88.6774
 21
176.146
  0
LINE
  8
0
 10
88.6774
 20
176.146
 11
89.0539
 21
176.472
  0
LINE
  8
0
 10
89.0539
 20
176.472
 11
89.507
 21
176.679
  0
LINE
  8
0
 10
89.507
 20
176.679
 11
90
 21
176.75
  0
LINE
  8
0
 10
90
 20
176.75
 11
90.493
 21
176.679
  0
LINE
  8
0
 10
90.493
 20
176.679
 11
90.9461
 21
176.472
  0
LINE
  8
0
 10
90.9461
 20
176.472
 11
91.3226
 21
176.146
  0
LINE
  8
0
 10
91.3226
 20
176.146
 11
91.5918
 21
175.727
  0
LINE
  8
0
 10
91.5918
 20
175.727
 11
91.7322
 21
175.249
  0
LINE
  8
0
 10
91.7322
 20
175.249
 11
91.7322
 21
174.751
  0
LINE
  8
0
 10
91.7322
 20
174.751
 11
91.5918
 21
174.273
  0
LINE
  8
0
 10
91.5918
 20
174.273
 11
91.3226
 21
173.854
  0
LINE
  8
0
 10
91.3226
 20
173.854
 11
90.9461
 21
173.528
  0
LINE
  8
0
 10
90.9461
 20
173.528
 11
90.493
 21
173.321
  0
LINE
  8
0
 10
90.493
 20
173.321
 11
90
 21
173.25
  0
LINE
  8
0
 10
90
 20
173.25
 11
89.507
 21
173.321
  0
LINE
  8
0
 10
-5
 20
148
 11
-5
 21
150
  0
LINE
  8
0
 10
-5
 20
150
 11
5
 21
150
  0
LINE
  8
0
 10
5
 20
150
 11
5
 21
148
  0
LINE
  8
0
 10
5
 20
148
 11
-5
 21
148
  0
LINE
  8
0
 10
-0.249039
 20
140.268
 11
-0.726974
 21
140.408
  0
LINE
  8
0
 10
-0.726974
 20
140.408
 11
-1.146
 21
140.677
  0
LINE
  8
0
 10
-1.146
 20
140.677
 11
-1.47218
 21
141.054
  0
LINE
  8
0
 10
-1.47218
 20
141.054
 11
-1.67911
 21
141.507
  0
LINE
  8
0
 10
-1.67911
 20
141.507
 11
-1.75
 21
142
  0
LINE
  8
0
 10
-1.75
 20
142
 11
-1.67911
 21
142.493
  0
LINE
  8
0
 10
-1.67911
 20
142.493
 11
-1.47218
 21
142.946
  0
LINE
  8
0
 10
-1.47218
 20
142.946
 11
-1.146
 21
143.323
  0
LINE
  8
0
 10
-1.146
 20
143.323
 11
-0.726974
 21
143.592
  0
LINE
  8
0
 10
-0.726974
 20
143.592
 11
-0.249039
 21
143.732
  0
LINE
  8
0
 10
-0.249039
 20
143.732
 11
0.249039
 21
143.732
  0
LINE
  8
0
 10
0.249039
 20
143.732
 11
0.726974
 21
143.592
  0
LINE
  8
0
 10
0.726974
 20
143.592
 11
1.146
 21
143.323
  0
LINE
  8
0
 10
1.146
 20
143.323
 11
1.47218
 21
142.946
  0
LINE
  8
0
 10
1.47218
 20
142.946
 11
1.67911
 21
142.493
  0
LINE
  8
0
 10
1.67911
 20
142.493
 11
1.75
 21
142
  0
LINE
  8
0
 10
1.75
 20
142
 11
1.67911
 21
141.507
  0
LINE
  8
0
 10
1.67911
 20
141.507
 11
1.47218
 21
141.054
  0
LINE
  8
0
 10
1.47218
 20
141.054
 11
1.146
 21
140.677
  0
LINE
  8
0
 10
1.146
 20
140.677
 11
0.726974
 21
140.408
  0
LINE
  8
0
 10
0.726974
 20
140.408
 11
0.249039
 21
140.268
  0
LINE
  8
0
 10
0.249039
 20
140.268
 11
-0.249039
 21
140.268
  0
LINE
  8
0
 10
497
 20
192
 11
303
 21
192
  0
LINE
  8
0
 10
303
 20
192
 11
303
 21
132
  0
LINE
  8
0
 10
303
 20
132
 11
497
 21
132
  0
LINE
  8
0
 10
497
 20
132
 11
497
 21
192
  0
LINE
  8
0
 10
309.507
 20
173.321
 11
309.054
 21
173.528
  0
LINE
  8
0
 10
309.054
 20
173.528
 11
308.677
 21
173.854
  0
LINE
  8
0
 10
308.677
 20
173.854
 11
308.408
 21
174.273
  0
LINE
  8
0
 10
308.408
 20
174.273
 11
308.268
 21
174.751
  0
LINE
  8
0
 10
308.268
 20
174.751
 11
308.268
 21
175.249
  0
LINE
  8
0
 10
308.268
 20
175.249
 11
308.408
 21
175.727
  0
LINE
  8
0
 10
308.408
 20
175.727
 11
308.677
 21
176.146
  0
LINE
  8
0
 10
308.677
 20
176.146
 11
309.054
 21
176.472
  0
LINE
  8
0
 10
309.054
 20
176.472
 11
309.507
 21
176.679
  0
LINE
  8
0
 10
309.507
 20
176.679
 11
310
 21
176.75
  0
LINE
  8
0
 10
310
 20
176.75
 11
310.493
 21
176.679
  0
LINE
  8
0
 10
310.493
 20
176.679
 11
310.946
 21
176.472
  0
LINE
  8
0
 10
310.946
 20
176.472
 11
311.323
 21
176.146
  0
LINE
  8
0
 10
311.323
 20
176.146
 11
311.592
 21
175.727
  0
LINE
  8
0
 10
311.592
 20
175.727
 11
311.732
 21
175.249
  0
LINE
  8
0
 10
311.732
 20
175.249
 11
311.732
 21
174.751
  0
LINE
  8
0
 10
311.732
 20
174.751
 11
311.592
 21
174.273
  0
LINE
  8
0
 10
311.592
 20
174.273
 11
311.323
 21
173.854
  0
LINE
  8
0
 10
311.323
 20
173.854
 11
310.946
 21
173.528
  0
LINE
  8
0
 10
310.946
 20
173.528
 11
310.493
 21
173.321
  0
LINE
  8
0
 10
310.493
 20
173.321
 11
310
 21
173.25
  0
LINE
  8
0
 10
310
 20
173.25
 11
309.507
 21
173.321
  0
LINE
  8
0
 10
489.507
 20
173.321
 11
489.054
 21
173.528
  0
LINE
  8
0
 10
489.054
 20
173.528
 11
488.677
 21
173.854
  0
LINE
  8
0
 10
488.677
 20
173.854
 11
488.408
 21
174.273
  0
LINE
  8
0
 10
488.408
 20
174.273
 11
488.268
 21
174.751
  0
LINE
  8
0
 10
488.268
 20
174.751
 11
488.268
 21
175.249
  0
LINE
  8
0
 10
488.268
 20
175.249
 11
488.408
 21
175.727
  0
LINE
  8
0
 10
488.408
 20
175.727
 11
488.677
 21
176.146
  0
LINE
  8
0
 10
488.677
 20
176.146
 11
489.054
 21
176.472
  0
LINE
  8
0
 10
489.054
 20
176.472
 11
489.507
 21
176.679
  0
LINE
  8
0
 10
489.507
 20
176.679
 11
490
 21
176.75
  0
LINE
  8
0
 10
490
 20
176.75
 11
490.493
 21
176.679
  0
LINE
  8
0
 10
490.493
 20
176.679
 11
490.946
 21
176.472
  0
LINE
  8
0
 10
490.946
 20
176.472
 11
491.323
 21
176.146
  0
LINE
  8
0
 10
491.323
 20
176.146
 11
491.592
 21
175.727
  0
LINE
  8
0
 10
491.592
 20
175.727
 11
491.732
 21
175.249
  0
LINE
  8
0
 10
491.732
 20
175.249
 11
491.732
 21
174.751
  0
LINE
  8
0
 10
491.732
 20
174.751
 11
491.592
 21
174.273
  0
LINE
  8
0
 10
491.592
 20
174.273
 11
491.323
 21
173.854
  0
LINE
  8
0
 10
491.323
 20
173.854
 11
490.946
 21
173.528
  0
LINE
  8
0
 10
490.946
 20
173.528
 11
490.493
 21
173.321
  0
LINE
  8
0
 10
490.493
 20
173.321
 11
490
 21
173.25
  0
LINE
  8
0
 10
490
 20
173.25
 11
489.507
 21
173.321
  0
LINE
  8
0
 10
399.505
 20
162.02
 11
399.012
 21
162.082
  0
LINE
  8
0
 10
399.012
 20
162.082
 11
398.527
 21
162.184
  0
LINE
  8
0
 10
398.527
 20
162.184
 11
398.052
 21
162.325
  0
LINE
  8
0
 10
398.052
 20
162.325
 11
397.59
 21
162.505
  0
LINE
  8
0
 10
397.59
 20
162.505
 11
397.144
 21
162.723
  0
LINE
  8
0
 10
397.144
 20
162.723
 11
396.718
 21
162.977
  0
LINE
  8
0
 10
396.718
 20
162.977
 11
396.315
 21
163.265
  0
LINE
  8
0
 10
396.315
 20
163.265
 11
395.936
 21
163.586
  0
LINE
  8
0
 10
395.936
 20
163.586
 11
395.586
 21
163.936
  0
LINE
  8
0
 10
395.586
 20
163.936
 11
395.265
 21
164.315
  0
LINE
  8
0
 10
395.265
 20
164.315
 11
394.977
 21
164.718
  0
LINE
  8
0
 10
394.977
 20
164.718
 11
394.723
 21
165.144
  0
LINE
  8
0
 10
394.723
 20
165.144
 11
394.505
 21
165.59
  0
LINE
  8
0
 10
394.505
 20
165.59
 11
394.325
 21
166.052
  0
LINE
  8
0
 10
394.325
 20
166.052
 11
394.184
 21
166.527
  0
LINE
  8
0
 10
394.184
 20
166.527
 11
394.082
 21
167.012
  0
LINE
  8
0
 10
394.082
 20
167.012
 11
394.021
 21
167.505
  0
LINE
  8
0
 10
394.021
 20
167.505
 11
394
 21
168
  0
LINE
  8
0
 10
394
 20
168
 11
394.021
 21
168.495
  0
LINE
  8
0
 10
394.021
 20
168.495
 11
394.082
 21
168.988
  0
LINE
  8
0
 10
394.082
 20
168.988
 11
394.184
 21
169.473
  0
LINE
  8
0
 10
394.184
 20
169.473
 11
394.325
 21
169.948
  0
LINE
  8
0
 10
394.325
 20
169.948
 11
394.505
 21
170.41
  0
LINE
  8
0
 10
394.505
 20
170.41
 11
394.723
 21
170.856
  0
LINE
  8
0
 10
394.723
 20
170.856
 11
394.977
 21
171.282
  0
LINE
  8
0
 10
394.977
 20
171.282
 11
395.265
 21
171.685
  0
LINE
  8
0
 10
395.265
 20
171.685
 11
395.586
 21
172.064
  0
LINE
  8
0
 10
395.586
 20
172.064
 11
395.936
 21
172.414
  0
LINE
  8
0
 10
395.936
 20
172.414
 11
396.315
 21
172.735
  0
LINE
  8
0
 10
396.315
 20
172.735
 11
396.718
 21
173.023
  0
LINE
  8
0
 10
396.718
 20
173.023
 11
397.144
 21
173.277
  0
LINE
  8
0
 10
397.144
 20
173.277
 11
397.59
 21
173.495
  0
LINE
  8
0
 10
397.59
 20
173.495
 11
398.052
 21
173.675
  0
LINE
  8
0
 10
398.052
 20
173.675
 11
398.527
 21
173.816
  0
LINE
  8
0
 10
398.527
 20
173.816
 11
399.012
 21
173.918
  0
LINE
  8
0
 10
399.012
 20
173.918
 11
399.505
 21
173.979
  0
LINE
  8
0
 10
399.505
 20
173.979
 11
400
 21
174
  0
LINE
  8
0
 10
400
 20
174
 11
400.495
 21
173.979
  0
LINE
  8
0
 10
400.495
 20
173.979
 11
400.988
 21
173.918
  0
LINE
  8
0
 10
400.988
 20
173.918
 11
401.473
 21
173.816
  0
LINE
  8
0
 10
401.473
 20
173.816
 11
401.948
 21
173.675
  0
LINE
  8
0
 10
401.948
 20
173.675
 11
402.41
 21
173.495
  0
LINE
  8
0
 10
402.41
 20
173.495
 11
402.856
 21
173.277
  0
LINE
  8
0
 10
402.856
 20
173.277
 11
403.282
 21
173.023
  0
LINE
  8
0
 10
403.282
 20
173.023
 11
403.685
 21
172.735
  0
LINE
  8
0
 10
403.685
 20
172.735
 11
404.064
 21
172.414
  0
LINE
  8
0
 10
404.064
 20
172.414
 11
404.414
 21
172.064
  0
LINE
  8
0
 10
404.414
 20
172.064
 11
404.735
 21
171.685
  0
LINE
  8
0
 10
404.735
 20
171.685
 11
405.023
 21
171.282
  0
LINE
  8
0
 10
405.023
 20
171.282
 11
405.277
 21
170.856
  0
LINE
  8
0
 10
405.277
 20
170.856
 11
405.495
 21
170.41
  0
LINE
  8
0
 10
405.495
 20
170.41
 11
405.675
 21
169.948
  0
LINE
  8
0
 10
405.675
 20
169.948
 11
405.816
 21
169.473
  0
LINE
  8
0
 10
405.816
 20
169.473
 11
405.918
 21
168.988
  0
LINE
  8
0
 10
405.918
 20
168.988
 11
405.979
 21
168.495
  0
LINE
  8
0
 10
405.979
 20
168.495
 11
406
 21
168
  0
LINE
  8
0
 10
406
 20
168
 11
405.979
 21
167.505
  0
LINE
  8
0
 10
405.979
 20
167.505
 11
405.918
 21
167.012
  0
LINE
  8
0
 10
405.918
 20
167.012
 11
405.816
 21
166.527
  0
LINE
  8
0
 10
405.816
 20
166.527
 11
405.675
 21
166.052
  0
LINE
  8
0
 10
405.675
 20
166.052
 11
405.495
 21
165.59
  0
LINE
  8
0
 10
405.495
 20
165.59
 11
405.277
 21
165.144
  0
LINE
  8
0
 10
405.277
 20
165.144
 11
405.023
 21
164.718
  0
LINE
  8
0
 10
405.023
 20
164.718
 11
404.735
 21
164.315
  0
LINE
  8
0
 10
404.735
 20
164.315
 11
404.414
 21
163.936
  0
LINE
  8
0
 10
404.414
 20
163.936
 11
404.064
 21
163.586
  0
LINE
  8
0
 10
404.064
 20
163.586
 11
403.685
 21
163.265
  0
LINE
  8
0
 10
403.685
 20
163.265
 11
403.282
 21
162.977
  0
LINE
  8
0
 10
403.282
 20
162.977
 11
402.856
 21
162.723
  0
LINE
  8
0
 10
402.856
 20
162.723
 11
402.41
 21
162.505
  0
LINE
  8
0
 10
402.41
 20
162.505
 11
401.948
 21
162.325
  0
LINE
  8
0
 10
401.948
 20
162.325
 11
401.473
 21
162.184
  0
LINE
  8
0
 10
401.473
 20
162.184
 11
400.988
 21
162.082
  0
LINE
  8
0
 10
400.988
 20
162.082
 11
400.495
 21
162.02
  0
LINE
  8
0
 10
400.495
 20
162.02
 11
400
 21
162
  0
LINE
  8
0
 10
400
 20
162
 11
399.505
 21
162.02
  0
LINE
  8
0
 10
395
 20
148
 11
395
 21
150
  0
LINE
  8
0
 10
395
 20
150
 11
405
 21
150
  0
LINE
  8
0
 10
405
 20
150
 11
405
 21
148
  0
LINE
  8
0
 10
405
 20
148
 11
395
 21
148
  0
LINE
  8
0
 10
399.751
 20
140.268
 11
399.273
 21
140.408
  0
LINE
  8
0
 10
399.273
 20
140.408
 11
398.854
 21
140.677
  0
LINE
  8
0
 10
398.854
 20
140.677
 11
398.528
 21
141.054
  0
LINE
  8
0
 10
398.528
 20
141.054
 11
398.321
 21
141.507
  0
LINE
  8
0
 10
398.321
 20
141.507
 11
398.25
 21
142
  0
LINE
  8
0
 10
398.25
 20
142
 11
398.321
 21
142.493
  0
LINE
  8
0
 10
398.321
 20
142.493
 11
398.528
 21
142.946
  0
LINE
  8
0
 10
398.528
 20
142.946
 11
398.854
 21
143.323
  0
LINE
  8
0
 10
398.854
 20
143.323
 11
399.273
 21
143.592
  0
LINE
  8
0
 10
399.273
 20
143.592
 11
399.751
 21
143.732
  0
LINE
  8
0
 10
399.751
 20
143.732
 11
400.249
 21
143.732
  0
LINE
  8
0
 10
400.249
 20
143.732
 11
400.727
 21
143.592
  0
LINE
  8
0
 10
400.727
 20
143.592
 11
401.146
 21
143.323
  0
LINE
  8
0
 10
401.146
 20
143.323
 11
401.472
 21
142.946
  0
LINE
  8
0
 10
401.472
 20
142.946
 11
401.679
 21
142.493
  0
LINE
  8
0
 10
401.679
 20
142.493
 11
401.75
 21
142
  0
LINE
  8
0
 10
401.75
 20
142
 11
401.679
 21
141.507
  0
LINE
  8
0
 10
401.679
 20
141.507
 11
401.472
 21
141.054
  0
LINE
  8
0
 10
401.472
 20
141.054
 11
401.146
 21
140.677
  0
LINE
  8
0
 10
401.146
 20
140.677
 11
400.727
 21
140.408
  0
LINE
  8
0
 10
400.727
 20
140.408
 11
400.249
 21
140.268
  0
LINE
  8
0
 10
400.249
 20
140.268
 11
399.751
 21
140.268
  0
LINE
  8
0
 10
-107
 20
125
 11
-110
 21
125
  0
LINE
  8
0
 10
-110
 20
125
 11
-110
 21
125.2
  0
LINE
  8
0
 10
-110
 20
125.2
 11
-130
 21
125.2
  0
LINE
  8
0
 10
-130
 20
125.2
 11
-130
 21
125
  0
LINE
  8
0
 10
-130
 20
125
 11
-167
 21
125
  0
LINE
  8
0
 10
-167
 20
125
 11
-167
 21
-125
  0
LINE
  8
0
 10
-167
 20
-125
 11
-107
 21
-125
  0
LINE
  8
0
 10
-107
 20
-125
 11
-107
 21
125
  0
LINE
  8
0
 10
-150.249
 20
113.268
 11
-150.727
 21
113.408
  0
LINE
  8
0
 10
-150.727
 20
113.408
 11
-151.146
 21
113.677
  0
LINE
  8
0
 10
-151.146
 20
113.677
 11
-151.472
 21
114.054
  0
LINE
  8
0
 10
-151.472
 20
114.054
 11
-151.679
 21
114.507
  0
LINE
  8
0
 10
-151.679
 20
114.507
 11
-151.75
 21
115
  0
LINE
  8
0
 10
-151.75
 20
115
 11
-151.679
 21
115.493
  0
LINE
  8
0
 10
-151.679
 20
115.493
 11
-151.472
 21
115.946
  0
LINE
  8
0
 10
-151.472
 20
115.946
 11
-151.146
 21
116.323
  0
LINE
  8
0
 10
-151.146
 20
116.323
 11
-150.727
 21
116.592
  0
LINE
  8
0
 10
-150.727
 20
116.592
 11
-150.249
 21
116.732
  0
LINE
  8
0
 10
-150.249
 20
116.732
 11
-149.751
 21
116.732
  0
LINE
  8
0
 10
-149.751
 20
116.732
 11
-149.273
 21
116.592
  0
LINE
  8
0
 10
-149.273
 20
116.592
 11
-148.854
 21
116.323
  0
LINE
  8
0
 10
-148.854
 20
116.323
 11
-148.528
 21
115.946
  0
LINE
  8
0
 10
-148.528
 20
115.946
 11
-148.321
 21
115.493
  0
LINE
  8
0
 10
-148.321
 20
115.493
 11
-148.25
 21
115
  0
LINE
  8
0
 10
-148.25
 20
115
 11
-148.321
 21
114.507
  0
LINE
  8
0
 10
-148.321
 20
114.507
 11
-148.528
 21
114.054
  0
LINE
  8
0
 10
-148.528
 20
114.054
 11
-148.854
 21
113.677
  0
LINE
  8
0
 10
-148.854
 20
113.677
 11
-149.273
 21
113.408
  0
LINE
  8
0
 10
-149.273
 20
113.408
 11
-149.751
 21
113.268
  0
LINE
  8
0
 10
-149.751
 20
113.268
 11
-150.249
 21
113.268
  0
LINE
  8
0
 10
-155
 20
107
 11
-155
 21
109
  0
LINE
  8
0
 10
-155
 20
109
 11
-145
 21
109
  0
LINE
  8
0
 10
-145
 20
109
 11
-145
 21
107
  0
LINE
  8
0
 10
-145
 20
107
 11
-155
 21
107
  0
LINE
  8
0
 10
-125
 20
55
 11
-125
 21
65
  0
LINE
  8
0
 10
-125
 20
65
 11
-123
 21
65
  0
LINE
  8
0
 10
-123
 20
65
 11
-123
 21
55
  0
LINE
  8
0
 10
-123
 20
55
 11
-125
 21
55
  0
LINE
  8
0
 10
-117.493
 20
58.3209
 11
-117.946
 21
58.5278
  0
LINE
  8
0
 10
-117.946
 20
58.5278
 11
-118.323
 21
58.854
  0
LINE
  8
0
 10
-118.323
 20
58.854
 11
-118.592
 21
59.273
  0
LINE
  8
0
 10
-118.592
 20
59.273
 11
-118.732
 21
59.751
  0
LINE
  8
0
 10
-118.732
 20
59.751
 11
-118.732
 21
60.249
  0
LINE
  8
0
 10
-118.732
 20
60.249
 11
-118.592
 21
60.727
  0
LINE
  8
0
 10
-118.592
 20
60.727
 11
-118.323
 21
61.146
  0
LINE
  8
0
 10
-118.323
 20
61.146
 11
-117.946
 21
61.4722
  0
LINE
  8
0
 10
-117.946
 20
61.4722
 11
-117.493
 21
61.6791
  0
LINE
  8
0
 10
-117.493
 20
61.6791
 11
-117
 21
61.75
  0
LINE
  8
0
 10
-117
 20
61.75
 11
-116.507
 21
61.6791
  0
LINE
  8
0
 10
-116.507
 20
61.6791
 11
-116.054
 21
61.4722
  0
LINE
  8
0
 10
-116.054
 20
61.4722
 11
-115.677
 21
61.146
  0
LINE
  8
0
 10
-115.677
 20
61.146
 11
-115.408
 21
60.727
  0
LINE
  8
0
 10
-115.408
 20
60.727
 11
-115.268
 21
60.249
  0
LINE
  8
0
 10
-115.268
 20
60.249
 11
-115.268
 21
59.751
  0
LINE
  8
0
 10
-115.268
 20
59.751
 11
-115.408
 21
59.273
  0
LINE
  8
0
 10
-115.408
 20
59.273
 11
-115.677
 21
58.854
  0
LINE
  8
0
 10
-115.677
 20
58.854
 11
-116.054
 21
58.5278
  0
LINE
  8
0
 10
-116.054
 20
58.5278
 11
-116.507
 21
58.3209
  0
LINE
  8
0
 10
-116.507
 20
58.3209
 11
-117
 21
58.25
  0
LINE
  8
0
 10
-117
 20
58.25
 11
-117.493
 21
58.3209
  0
LINE
  8
0
 10
-143.495
 20
19.0205
 11
-143.988
 21
19.0818
  0
LINE
  8
0
 10
-143.988
 20
19.0818
 11
-144.473
 21
19.1836
  0
LINE
  8
0
 10
-144.473
 20
19.1836
 11
-144.948
 21
19.3251
  0
LINE
  8
0
 10
-144.948
 20
19.3251
 11
-145.41
 21
19.5054
  0
LINE
  8
0
 10
-145.41
 20
19.5054
 11
-145.856
 21
19.7231
  0
LINE
  8
0
 10
-145.856
 20
19.7231
 11
-146.282
 21
19.977
  0
LINE
  8
0
 10
-146.282
 20
19.977
 11
-146.685
 21
20.2652
  0
LINE
  8
0
 10
-146.685
 20
20.2652
 11
-147.064
 21
20.5856
  0
LINE
  8
0
 10
-147.064
 20
20.5856
 11
-147.414
 21
20.9363
  0
LINE
  8
0
 10
-147.414
 20
20.9363
 11
-147.735
 21
21.3147
  0
LINE
  8
0
 10
-147.735
 20
21.3147
 11
-148.023
 21
21.7183
  0
LINE
  8
0
 10
-148.023
 20
21.7183
 11
-148.277
 21
22.1443
  0
LINE
  8
0
 10
-148.277
 20
22.1443
 11
-148.495
 21
22.5898
  0
LINE
  8
0
 10
-148.495
 20
22.5898
 11
-148.675
 21
23.0518
  0
LINE
  8
0
 10
-148.675
 20
23.0518
 11
-148.816
 21
23.5271
  0
LINE
  8
0
 10
-148.816
 20
23.5271
 11
-148.918
 21
24.0124
  0
LINE
  8
0
 10
-148.918
 20
24.0124
 11
-148.979
 21
24.5045
  0
LINE
  8
0
 10
-148.979
 20
24.5045
 11
-149
 21
25
  0
LINE
  8
0
 10
-149
 20
25
 11
-148.979
 21
25.4955
  0
LINE
  8
0
 10
-148.979
 20
25.4955
 11
-148.918
 21
25.9876
  0
LINE
  8
0
 10
-148.918
 20
25.9876
 11
-148.816
 21
26.4729
  0
LINE
  8
0
 10
-148.816
 20
26.4729
 11
-148.675
 21
26.9482
  0
LINE
  8
0
 10
-148.675
 20
26.9482
 11
-148.495
 21
27.4102
  0
LINE
  8
0
 10
-148.495
 20
27.4102
 11
-148.277
 21
27.8557
  0
LINE
  8
0
 10
-148.277
 20
27.8557
 11
-148.023
 21
28.2817
  0
LINE
  8
0
 10
-148.023
 20
28.2817
 11
-147.735
 21
28.6853
  0
LINE
  8
0
 10
-147.735
 20
28.6853
 11
-147.414
 21
29.0637
  0
LINE
  8
0
 10
-147.414
 20
29.0637
 11
-147.064
 21
29.4143
  0
LINE
  8
0
 10
-147.064
 20
29.4143
 11
-146.685
 21
29.7348
  0
LINE
  8
0
 10
-146.685
 20
29.7348
 11
-146.282
 21
30.023
  0
LINE
  8
0
 10
-146.282
 20
30.023
 11
-145.856
 21
30.2768
  0
LINE
  8
0
 10
-145.856
 20
30.2768
 11
-145.41
 21
30.4946
  0
LINE
  8
0
 10
-145.41
 20
30.4946
 11
-144.948
 21
30.6749
  0
LINE
  8
0
 10
-144.948
 20
30.6749
 11
-144.473
 21
30.8164
  0
LINE
  8
0
 10
-144.473
 20
30.8164
 11
-143.988
 21
30.9182
  0
LINE
  8
0
 10
-143.988
 20
30.9182
 11
-143.495
 21
30.9795
  0
LINE
  8
0
 10
-143.495
 20
30.9795
 11
-143
 21
31
  0
LINE
  8
0
 10
-143
 20
31
 11
-142.505
 21
30.9795
  0
LINE
  8
0
 10
-142.505
 20
30.9795
 11
-142.012
 21
30.9182
  0
LINE
  8
0
 10
-142.012
 20
30.9182
 11
-141.527
 21
30.8164
  0
LINE
  8
0
 10
-141.527
 20
30.8164
 11
-141.052
 21
30.6749
  0
LINE
  8
0
 10
-141.052
 20
30.6749
 11
-140.59
 21
30.4946
  0
LINE
  8
0
 10
-140.59
 20
30.4946
 11
-140.144
 21
30.2768
  0
LINE
  8
0
 10
-140.144
 20
30.2768
 11
-139.718
 21
30.023
  0
LINE
  8
0
 10
-139.718
 20
30.023
 11
-139.315
 21
29.7348
  0
LINE
  8
0
 10
-139.315
 20
29.7348
 11
-138.936
 21
29.4143
  0
LINE
  8
0
 10
-138.936
 20
29.4143
 11
-138.586
 21
29.0637
  0
LINE
  8
0
 10
-138.586
 20
29.0637
 11
-138.265
 21
28.6853
  0
LINE
  8
0
 10
-138.265
 20
28.6853
 11
-137.977
 21
28.2817
  0
LINE
  8
0
 10
-137.977
 20
28.2817
 11
-137.723
 21
27.8557
  0
LINE
  8
0
 10
-137.723
 20
27.8557
 11
-137.505
 21
27.4102
  0
LINE
  8
0
 10
-137.505
 20
27.4102
 11
-137.325
 21
26.9482
  0
LINE
  8
0
 10
-137.325
 20
26.9482
 11
-137.184
 21
26.4729
  0
LINE
  8
0
 10
-137.184
 20
26.4729
 11
-137.082
 21
25.9876
  0
LINE
  8
0
 10
-137.082
 20
25.9876
 11
-137.02
 21
25.4955
  0
LINE
  8
0
 10
-137.02
 20
25.4955
 11
-137
 21
25
  0
LINE
  8
0
 10
-137
 20
25
 11
-137.02
 21
24.5045
  0
LINE
  8
0
 10
-137.02
 20
24.5045
 11
-137.082
 21
24.0124
  0
LINE
  8
0
 10
-137.082
 20
24.0124
 11
-137.184
 21
23.5271
  0
LINE
  8
0
 10
-137.184
 20
23.5271
 11
-137.325
 21
23.0518
  0
LINE
  8
0
 10
-137.325
 20
23.0518
 11
-137.505
 21
22.5898
  0
LINE
  8
0
 10
-137.505
 20
22.5898
 11
-137.723
 21
22.1443
  0
LINE
  8
0
 10
-137.723
 20
22.1443
 11
-137.977
 21
21.7183
  0
LINE
  8
0
 10
-137.977
 20
21.7183
 11
-138.265
 21
21.3147
  0
LINE
  8
0
 10
-138.265
 20
21.3147
 11
-138.586
 21
20.9363
  0
LINE
  8
0
 10
-138.586
 20
20.9363
 11
-138.936
 21
20.5856
  0
LINE
  8
0
 10
-138.936
 20
20.5856
 11
-139.315
 21
20.2652
  0
LINE
  8
0
 10
-139.315
 20
20.2652
 11
-139.718
 21
19.977
  0
LINE
  8
0
 10
-139.718
 20
19.977
 11
-140.144
 21
19.7231
  0
LINE
  8
0
 10
-140.144
 20
19.7231
 11
-140.59
 21
19.5054
  0
LINE
  8
0
 10
-140.59
 20
19.5054
 11
-141.052
 21
19.3251
  0
LINE
  8
0
 10
-141.052
 20
19.3251
 11
-141.527
 21
19.1836
  0
LINE
  8
0
 10
-141.527
 20
19.1836
 11
-142.012
 21
19.0818
  0
LINE
  8
0
 10
-142.012
 20
19.0818
 11
-142.505
 21
19.0205
  0
LINE
  8
0
 10
-142.505
 20
19.0205
 11
-143
 21
19
  0
LINE
  8
0
 10
-143
 20
19
 11
-143.495
 21
19.0205
  0
LINE
  8
0
 10
-125
 20
-65
 11
-125
 21
-55
  0
LINE
  8
0
 10
-125
 20
-55
 11
-123
 21
-55
  0
LINE
  8
0
 10
-123
 20
-55
 11
-123
 21
-65
  0
LINE
  8
0
 10
-123
 20
-65
 11
-125
 21
-65
  0
LINE
  8
0
 10
-117.493
 20
-61.6791
 11
-117.946
 21
-61.4722
  0
LINE
  8
0
 10
-117.946
 20
-61.4722
 11
-118.323
 21
-61.146
  0
LINE
  8
0
 10
-118.323
 20
-61.146
 11
-118.592
 21
-60.727
  0
LINE
  8
0
 10
-118.592
 20
-60.727
 11
-118.732
 21
-60.249
  0
LINE
  8
0
 10
-118.732
 20
-60.249
 11
-118.732
 21
-59.751
  0
LINE
  8
0
 10
-118.732
 20
-59.751
 11
-118.592
 21
-59.273
  0
LINE
  8
0
 10
-118.592
 20
-59.273
 11
-118.323
 21
-58.854
  0
LINE
  8
0
 10
-118.323
 20
-58.854
 11
-117.946
 21
-58.5278
  0
LINE
  8
0
 10
-117.946
 20
-58.5278
 11
-117.493
 21
-58.3209
  0
LINE
  8
0
 10
-117.493
 20
-58.3209
 11
-117
 21
-58.25
  0
LINE
  8
0
 10
-117
 20
-58.25
 11
-116.507
 21
-58.3209
  0
LINE
  8
0
 10
-116.507
 20
-58.3209
 11
-116.054
 21
-58.5278
  0
LINE
  8
0
 10
-116.054
 20
-58.5278
 11
-115.677
 21
-58.854
  0
LINE
  8
0
 10
-115.677
 20
-58.854
 11
-115.408
 21
-59.273
  0
LINE
  8
0
 10
-115.408
 20
-59.273
 11
-115.268
 21
-59.751
  0
LINE
  8
0
 10
-115.268
 20
-59.751
 11
-115.268
 21
-60.249
  0
LINE
  8
0
 10
-115.268
 20
-60.249
 11
-115.408
 21
-60.727
  0
LINE
  8
0
 10
-115.408
 20
-60.727
 11
-115.677
 21
-61.146
  0
LINE
  8
0
 10
-115.677
 20
-61.146
 11
-116.054
 21
-61.4722
  0
LINE
  8
0
 10
-116.054
 20
-61.4722
 11
-116.507
 21
-61.6791
  0
LINE
  8
0
 10
-116.507
 20
-61.6791
 11
-117
 21
-61.75
  0
LINE
  8
0
 10
-117
 20
-61.75
 11
-117.493
 21
-61.6791
  0
LINE
  8
0
 10
-130
 20
-105
 11
-130
 21
-75
  0
LINE
  8
0
 10
-130
 20
-75
 11
-110
 21
-75
  0
LINE
  8
0
 10
-110
 20
-75
 11
-110
 21
-105
  0
LINE
  8
0
 10
-110
 20
-105
 11
-130
 21
-105
  0
LINE
  8
0
 10
-155
 20
-109
 11
-155
 21
-107
  0
LINE
  8
0
 10
-155
 20
-107
 11
-145
 21
-107
  0
LINE
  8
0
 10
-145
 20
-107
 11
-145
 21
-109
  0
LINE
  8
0
 10
-145
 20
-109
 11
-155
 21
-109
  0
LINE
  8
0
 10
-150.249
 20
-116.732
 11
-150.727
 21
-116.592
  0
LINE
  8
0
 10
-150.727
 20
-116.592
 11
-151.146
 21
-116.323
  0
LINE
  8
0
 10
-151.146
 20
-116.323
 11
-151.472
 21
-115.946
  0
LINE
  8
0
 10
-151.472
 20
-115.946
 11
-151.679
 21
-115.493
  0
LINE
  8
0
 10
-151.679
 20
-115.493
 11
-151.75
 21
-115
  0
LINE
  8
0
 10
-151.75
 20
-115
 11
-151.679
 21
-114.507
  0
LINE
  8
0
 10
-151.679
 20
-114.507
 11
-151.472
 21
-114.054
  0
LINE
  8
0
 10
-151.472
 20
-114.054
 11
-151.146
 21
-113.677
  0
LINE
  8
0
 10
-151.146
 20
-113.677
 11
-150.727
 21
-113.408
  0
LINE
  8
0
 10
-150.727
 20
-113.408
 11
-150.249
 21
-113.268
  0
LINE
  8
0
 10
-150.249
 20
-113.268
 11
-149.751
 21
-113.268
  0
LINE
  8
0
 10
-149.751
 20
-113.268
 11
-149.273
 21
-113.408
  0
LINE
  8
0
 10
-149.273
 20
-113.408
 11
-148.854
 21
-113.677
  0
LINE
  8
0
 10
-148.854
 20
-113.677
 11
-148.528
 21
-114.054
  0
LINE
  8
0
 10
-148.528
 20
-114.054
 11
-148.321
 21
-114.507
  0
LINE
  8
0
 10
-148.321
 20
-114.507
 11
-148.25
 21
-115
  0
LINE
  8
0
 10
-148.25
 20
-115
 11
-148.321
 21
-115.493
  0
LINE
  8
0
 10
-148.321
 20
-115.493
 11
-148.528
 21
-115.946
  0
LINE
  8
0
 10
-148.528
 20
-115.946
 11
-148.854
 21
-116.323
  0
LINE
  8
0
 10
-148.854
 20
-116.323
 11
-149.273
 21
-116.592
  0
LINE
  8
0
 10
-149.273
 20
-116.592
 11
-149.751
 21
-116.732
  0
LINE
  8
0
 10
-149.751
 20
-116.732
 11
-150.249
 21
-116.732
  0
LINE
  8
0
 10
-130
 20
-122.1
 11
-130
 21
-117.1
  0
LINE
  8
0
 10
-130
 20
-117.1
 11
-110
 21
-117.1
  0
LINE
  8
0
 10
-110
 20
-117.1
 11
-110
 21
-122.1
  0
LINE
  8
0
 10
-110
 20
-122.1
 11
-130
 21
-122.1
  0
LINE
  8
0
 10
293
 20
125
 11
233
 21
125
  0
LINE
  8
0
 10
233
 20
125
 11
233
 21
-125
  0
LINE
  8
0
 10
233
 20
-125
 11
293
 21
-125
  0
LINE
  8
0
 10
293
 20
-125
 11
293
 21
125
  0
LINE
  8
0
 10
270
 20
117.1
 11
270
 21
122.1
  0
LINE
  8
0
 10
270
 20
122.1
 11
290
 21
122.1
  0
LINE
  8
0
 10
290
 20
122.1
 11
290
 21
117.1
  0
LINE
  8
0
 10
290
 20
117.1
 11
270
 21
117.1
  0
LINE
  8
0
 10
249.751
 20
113.268
 11
249.273
 21
113.408
  0
LINE
  8
0
 10
249.273
 20
113.408
 11
248.854
 21
113.677
  0
LINE
  8
0
 10
248.854
 20
113.677
 11
248.528
 21
114.054
  0
LINE
  8
0
 10
248.528
 20
114.054
 11
248.321
 21
114.507
  0
LINE
  8
0
 10
248.321
 20
114.507
 11
248.25
 21
115
  0
LINE
  8
0
 10
248.25
 20
115
 11
248.321
 21
115.493
  0
LINE
  8
0
 10
248.321
 20
115.493
 11
248.528
 21
115.946
  0
LINE
  8
0
 10
248.528
 20
115.946
 11
248.854
 21
116.323
  0
LINE
  8
0
 10
248.854
 20
116.323
 11
249.273
 21
116.592
  0
LINE
  8
0
 10
249.273
 20
116.592
 11
249.751
 21
116.732
  0
LINE
  8
0
 10
249.751
 20
116.732
 11
250.249
 21
116.732
  0
LINE
  8
0
 10
250.249
 20
116.732
 11
250.727
 21
116.592
  0
LINE
  8
0
 10
250.727
 20
116.592
 11
251.146
 21
116.323
  0
LINE
  8
0
 10
251.146
 20
116.323
 11
251.472
 21
115.946
  0
LINE
  8
0
 10
251.472
 20
115.946
 11
251.679
 21
115.493
  0
LINE
  8
0
 10
251.679
 20
115.493
 11
251.75
 21
115
  0
LINE
  8
0
 10
251.75
 20
115
 11
251.679
 21
114.507
  0
LINE
  8
0
 10
251.679
 20
114.507
 11
251.472
 21
114.054
  0
LINE
  8
0
 10
251.472
 20
114.054
 11
251.146
 21
113.677
  0
LINE
  8
0
 10
251.146
 20
113.677
 11
250.727
 21
113.408
  0
LINE
  8
0
 10
250.727
 20
113.408
 11
250.249
 21
113.268
  0
LINE
  8
0
 10
250.249
 20
113.268
 11
249.751
 21
113.268
  0
LINE
  8
0
 10
245
 20
107
 11
245
 21
109
  0
LINE
  8
0
 10
245
 20
109
 11
255
 21
109
  0
LINE
  8
0
 10
255
 20
109
 11
255
 21
107
  0
LINE
  8
0
 10
255
 20
107
 11
245
 21
107
  0
LINE
  8
0
 10
275
 20
55
 11
275
 21
65
  0
LINE
  8
0
 10
275
 20
65
 11
277
 21
65
  0
LINE
  8
0
 10
277
 20
65
 11
277
 21
55
  0
LINE
  8
0
 10
277
 20
55
 11
275
 21
55
  0
LINE
  8
0
 10
282.507
 20
58.3209
 11
282.054
 21
58.5278
  0
LINE
  8
0
 10
282.054
 20
58.5278
 11
281.677
 21
58.854
  0
LINE
  8
0
 10
281.677
 20
58.854
 11
281.408
 21
59.273
  0
LINE
  8
0
 10
281.408
 20
59.273
 11
281.268
 21
59.751
  0
LINE
  8
0
 10
281.268
 20
59.751
 11
281.268
 21
60.249
  0
LINE
  8
0
 10
281.268
 20
60.249
 11
281.408
 21
60.727
  0
LINE
  8
0
 10
281.408
 20
60.727
 11
281.677
 21
61.146
  0
LINE
  8
0
 10
281.677
 20
61.146
 11
282.054
 21
61.4722
  0
LINE
  8
0
 10
282.054
 20
61.4722
 11
282.507
 21
61.6791
  0
LINE
  8
0
 10
282.507
 20
61.6791
 11
283
 21
61.75
  0
LINE
  8
0
 10
283
 20
61.75
 11
283.493
 21
61.6791
  0
LINE
  8
0
 10
283.493
 20
61.6791
 11
283.946
 21
61.4722
  0
LINE
  8
0
 10
283.946
 20
61.4722
 11
284.323
 21
61.146
  0
LINE
  8
0
 10
284.323
 20
61.146
 11
284.592
 21
60.727
  0
LINE
  8
0
 10
284.592
 20
60.727
 11
284.732
 21
60.249
  0
LINE
  8
0
 10
284.732
 20
60.249
 11
284.732
 21
59.751
  0
LINE
  8
0
 10
284.732
 20
59.751
 11
284.592
 21
59.273
  0
LINE
  8
0
 10
284.592
 20
59.273
 11
284.323
 21
58.854
  0
LINE
  8
0
 10
284.323
 20
58.854
 11
283.946
 21
58.5278
  0
LINE
  8
0
 10
283.946
 20
58.5278
 11
283.493
 21
58.3209
  0
LINE
  8
0
 10
283.493
 20
58.3209
 11
283
 21
58.25
  0
LINE
  8
0
 10
283
 20
58.25
 11
282.507
 21
58.3209
  0
LINE
  8
0
 10
275
 20
-65
 11
275
 21
-55
  0
LINE
  8
0
 10
275
 20
-55
 11
277
 21
-55
  0
LINE
  8
0
 10
277
 20
-55
 11
277
 21
-65
  0
LINE
  8
0
 10
277
 20
-65
 11
275
 21
-65
  0
LINE
  8
0
 10
282.507
 20
-61.6791
 11
282.054
 21
-61.4722
  0
LINE
  8
0
 10
282.054
 20
-61.4722
 11
281.677
 21
-61.146
  0
LINE
  8
0
 10
281.677
 20
-61.146
 11
281.408
 21
-60.727
  0
LINE
  8
0
 10
281.408
 20
-60.727
 11
281.268
 21
-60.249
  0
LINE
  8
0
 10
281.268
 20
-60.249
 11
281.268
 21
-59.751
  0
LINE
  8
0
 10
281.268
 20
-59.751
 11
281.408
 21
-59.273
  0
LINE
  8
0
 10
281.408
 20
-59.273
 11
281.677
 21
-58.854
  0
LINE
  8
0
 10
281.677
 20
-58.854
 11
282.054
 21
-58.5278
  0
LINE
  8
0
 10
282.054
 20
-58.5278
 11
282.507
 21
-58.3209
  0
LINE
  8
0
 10
282.507
 20
-58.3209
 11
283
 21
-58.25
  0
LINE
  8
0
 10
283
 20
-58.25
 11
283.493
 21
-58.3209
  0
LINE
  8
0
 10
283.493
 20
-58.3209
 11
283.946
 21
-58.5278
  0
LINE
  8
0
 10
283.946
 20
-58.5278
 11
284.323
 21
-58.854
  0
LINE
  8
0
 10
284.323
 20
-58.854
 11
284.592
 21
-59.273
  0
LINE
  8
0
 10
284.592
 20
-59.273
 11
284.732
 21
-59.751
  0
LINE
  8
0
 10
284.732
 20
-59.751
 11
284.732
 21
-60.249
  0
LINE
  8
0
 10
284.732
 20
-60.249
 11
284.592
 21
-60.727
  0
LINE
  8
0
 10
284.592
 20
-60.727
 11
284.323
 21
-61.146
  0
LINE
  8
0
 10
284.323
 20
-61.146
 11
283.946
 21
-61.4722
  0
LINE
  8
0
 10
283.946
 20
-61.4722
 11
283.493
 21
-61.6791
  0
LINE
  8
0
 10
283.493
 20
-61.6791
 11
283
 21
-61.75
  0
LINE
  8
0
 10
283
 20
-61.75
 11
282.507
 21
-61.6791
  0
LINE
  8
0
 10
245
 20
-109
 11
245
 21
-107
  0
LINE
  8
0
 10
245
 20
-107
 11
255
 21
-107
  0
LINE
  8
0
 10
255
 20
-107
 11
255
 21
-109
  0
LINE
  8
0
 10
255
 20
-109
 11
245
 21
-109
  0
LINE
  8
0
 10
249.751
 20
-116.732
 11
249.273
 21
-116.592
  0
LINE
  8
0
 10
249.273
 20
-116.592
 11
248.854
 21
-116.323
  0
LINE
  8
0
 10
248.854
 20
-116.323
 11
248.528
 21
-115.946
  0
LINE
  8
0
 10
248.528
 20
-115.946
 11
248.321
 21
-115.493
  0
LINE
  8
0
 10
248.321
 20
-115.493
 11
248.25
 21
-115
  0
LINE
  8
0
 10
248.25
 20
-115
 11
248.321
 21
-114.507
  0
LINE
  8
0
 10
248.321
 20
-114.507
 11
248.528
 21
-114.054
  0
LINE
  8
0
 10
248.528
 20
-114.054
 11
248.854
 21
-113.677
  0
LINE
  8
0
 10
248.854
 20
-113.677
 11
249.273
 21
-113.408
  0
LINE
  8
0
 10
249.273
 20
-113.408
 11
249.751
 21
-113.268
  0
LINE
  8
0
 10
249.751
 20
-113.268
 11
250.249
 21
-113.268
  0
LINE
  8
0
 10
250.249
 20
-113.268
 11
250.727
 21
-113.408
  0
LINE
  8
0
 10
250.727
 20
-113.408
 11
251.146
 21
-113.677
  0
LINE
  8
0
 10
251.146
 20
-113.677
 11
251.472
 21
-114.054
  0
LINE
  8
0
 10
251.472
 20
-114.054
 11
251.679
 21
-114.507
  0
LINE
  8
0
 10
251.679
 20
-114.507
 11
251.75
 21
-115
  0
LINE
  8
0
 10
251.75
 20
-115
 11
251.679
 21
-115.493
  0
LINE
  8
0
 10
251.679
 20
-115.493
 11
251.472
 21
-115.946
  0
LINE
  8
0
 10
251.472
 20
-115.946
 11
251.146
 21
-116.323
  0
LINE
  8
0
 10
251.146
 20
-116.323
 11
250.727
 21
-116.592
  0
LINE
  8
0
 10
250.727
 20
-116.592
 11
250.249
 21
-116.732
  0
LINE
  8
0
 10
250.249
 20
-116.732
 11
249.751
 21
-116.732
  0
LINE
  8
0
 10
270
 20
-122.1
 11
270
 21
-117.1
  0
LINE
  8
0
 10
270
 20
-117.1
 11
290
 21
-117.1
  0
LINE
  8
0
 10
290
 20
-117.1
 11
290
 21
-122.1
  0
LINE
  8
0
 10
290
 20
-122.1
 11
270
 21
-122.1
  0
LINE
  8
0
 10
567
 20
125
 11
507
 21
125
  0
LINE
  8
0
 10
507
 20
125
 11
507
 21
-125
  0
LINE
  8
0
 10
507
 20
-125
 11
567
 21
-125
  0
LINE
  8
0
 10
567
 20
-125
 11
567
 21
125
  0
LINE
  8
0
 10
510
 20
117.1
 11
510
 21
122.1
  0
LINE
  8
0
 10
510
 20
122.1
 11
530
 21
122.1
  0
LINE
  8
0
 10
530
 20
122.1
 11
530
 21
117.1
  0
LINE
  8
0
 10
530
 20
117.1
 11
510
 21
117.1
  0
LINE
  8
0
 10
549.751
 20
113.268
 11
549.273
 21
113.408
  0
LINE
  8
0
 10
549.273
 20
113.408
 11
548.854
 21
113.677
  0
LINE
  8
0
 10
548.854
 20
113.677
 11
548.528
 21
114.054
  0
LINE
  8
0
 10
548.528
 20
114.054
 11
548.321
 21
114.507
  0
LINE
  8
0
 10
548.321
 20
114.507
 11
548.25
 21
115
  0
LINE
  8
0
 10
548.25
 20
115
 11
548.321
 21
115.493
  0
LINE
  8
0
 10
548.321
 20
115.493
 11
548.528
 21
115.946
  0
LINE
  8
0
 10
548.528
 20
115.946
 11
548.854
 21
116.323
  0
LINE
  8
0
 10
548.854
 20
116.323
 11
549.273
 21
116.592
  0
LINE
  8
0
 10
549.273
 20
116.592
 11
549.751
 21
116.732
  0
LINE
  8
0
 10
549.751
 20
116.732
 11
550.249
 21
116.732
  0
LINE
  8
0
 10
550.249
 20
116.732
 11
550.727
 21
116.592
  0
LINE
  8
0
 10
550.727
 20
116.592
 11
551.146
 21
116.323
  0
LINE
  8
0
 10
551.146
 20
116.323
 11
551.472
 21
115.946
  0
LINE
  8
0
 10
551.472
 20
115.946
 11
551.679
 21
115.493
  0
LINE
  8
0
 10
551.679
 20
115.493
 11
551.75
 21
115
  0
LINE
  8
0
 10
551.75
 20
115
 11
551.679
 21
114.507
  0
LINE
  8
0
 10
551.679
 20
114.507
 11
551.472
 21
114.054
  0
LINE
  8
0
 10
551.472
 20
114.054
 11
551.146
 21
113.677
  0
LINE
  8
0
 10
551.146
 20
113.677
 11
550.727
 21
113.408
  0
LINE
  8
0
 10
550.727
 20
113.408
 11
550.249
 21
113.268
  0
LINE
  8
0
 10
550.249
 20
113.268
 11
549.751
 21
113.268
  0
LINE
  8
0
 10
545
 20
107
 11
545
 21
109
  0
LINE
  8
0
 10
545
 20
109
 11
555
 21
109
  0
LINE
  8
0
 10
555
 20
109
 11
555
 21
107
  0
LINE
  8
0
 10
555
 20
107
 11
545
 21
107
  0
LINE
  8
0
 10
523
 20
55
 11
523
 21
65
  0
LINE
  8
0
 10
523
 20
65
 11
525
 21
65
  0
LINE
  8
0
 10
525
 20
65
 11
525
 21
55
  0
LINE
  8
0
 10
525
 20
55
 11
523
 21
55
  0
LINE
  8
0
 10
516.507
 20
58.3209
 11
516.054
 21
58.5278
  0
LINE
  8
0
 10
516.054
 20
58.5278
 11
515.677
 21
58.854
  0
LINE
  8
0
 10
515.677
 20
58.854
 11
515.408
 21
59.273
  0
LINE
  8
0
 10
515.408
 20
59.273
 11
515.268
 21
59.751
  0
LINE
  8
0
 10
515.268
 20
59.751
 11
515.268
 21
60.249
  0
LINE
  8
0
 10
515.268
 20
60.249
 11
515.408
 21
60.727
  0
LINE
  8
0
 10
515.408
 20
60.727
 11
515.677
 21
61.146
  0
LINE
  8
0
 10
515.677
 20
61.146
 11
516.054
 21
61.4722
  0
LINE
  8
0
 10
516.054
 20
61.4722
 11
516.507
 21
61.6791
  0
LINE
  8
0
 10
516.507
 20
61.6791
 11
517
 21
61.75
  0
LINE
  8
0
 10
517
 20
61.75
 11
517.493
 21
61.6791
  0
LINE
  8
0
 10
517.493
 20
61.6791
 11
517.946
 21
61.4722
  0
LINE
  8
0
 10
517.946
 20
61.4722
 11
518.323
 21
61.146
  0
LINE
  8
0
 10
518.323
 20
61.146
 11
518.592
 21
60.727
  0
LINE
  8
0
 10
518.592
 20
60.727
 11
518.732
 21
60.249
  0
LINE
  8
0
 10
518.732
 20
60.249
 11
518.732
 21
59.751
  0
LINE
  8
0
 10
518.732
 20
59.751
 11
518.592
 21
59.273
  0
LINE
  8
0
 10
518.592
 20
59.273
 11
518.323
 21
58.854
  0
LINE
  8
0
 10
518.323
 20
58.854
 11
517.946
 21
58.5278
  0
LINE
  8
0
 10
517.946
 20
58.5278
 11
517.493
 21
58.3209
  0
LINE
  8
0
 10
517.493
 20
58.3209
 11
517
 21
58.25
  0
LINE
  8
0
 10
517
 20
58.25
 11
516.507
 21
58.3209
  0
LINE
  8
0
 10
523
 20
-65
 11
523
 21
-55
  0
LINE
  8
0
 10
523
 20
-55
 11
525
 21
-55
  0
LINE
  8
0
 10
525
 20
-55
 11
525
 21
-65
  0
LINE
  8
0
 10
525
 20
-65
 11
523
 21
-65
  0
LINE
  8
0
 10
516.507
 20
-61.6791
 11
516.054
 21
-61.4722
  0
LINE
  8
0
 10
516.054
 20
-61.4722
 11
515.677
 21
-61.146
  0
LINE
  8
0
 10
515.677
 20
-61.146
 11
515.408
 21
-60.727
  0
LINE
  8
0
 10
515.408
 20
-60.727
 11
515.268
 21
-60.249
  0
LINE
  8
0
 10
515.268
 20
-60.249
 11
515.268
 21
-59.751
  0
LINE
  8
0
 10
515.268
 20
-59.751
 11
515.408
 21
-59.273
  0
LINE
  8
0
 10
515.408
 20
-59.273
 11
515.677
 21
-58.854
  0
LINE
  8
0
 10
515.677
 20
-58.854
 11
516.054
 21
-58.5278
  0
LINE
  8
0
 10
516.054
 20
-58.5278
 11
516.507
 21
-58.3209
  0
LINE
  8
0
 10
516.507
 20
-58.3209
 11
517
 21
-58.25
  0
LINE
  8
0
 10
517
 20
-58.25
 11
517.493
 21
-58.3209
  0
LINE
  8
0
 10
517.493
 20
-58.3209
 11
517.946
 21
-58.5278
  0
LINE
  8
0
 10
517.946
 20
-58.5278
 11
518.323
 21
-58.854
  0
LINE
  8
0
 10
518.323
 20
-58.854
 11
518.592
 21
-59.273
  0
LINE
  8
0
 10
518.592
 20
-59.273
 11
518.732
 21
-59.751
  0
LINE
  8
0
 10
518.732
 20
-59.751
 11
518.732
 21
-60.249
  0
LINE
  8
0
 10
518.732
 20
-60.249
 11
518.592
 21
-60.727
  0
LINE
  8
0
 10
518.592
 20
-60.727
 11
518.323
 21
-61.146
  0
LINE
  8
0
 10
518.323
 20
-61.146
 11
517.946
 21
-61.4722
  0
LINE
  8
0
 10
517.946
 20
-61.4722
 11
517.493
 21
-61.6791
  0
LINE
  8
0
 10
517.493
 20
-61.6791
 11
517
 21
-61.75
  0
LINE
  8
0
 10
517
 20
-61.75
 11
516.507
 21
-61.6791
  0
LINE
  8
0
 10
545
 20
-109
 11
545
 21
-107
  0
LINE
  8
0
 10
545
 20
-107
 11
555
 21
-107
  0
LINE
  8
0
 10
555
 20
-107
 11
555
 21
-109
  0
LINE
  8
0
 10
555
 20
-109
 11
545
 21
-109
  0
LINE
  8
0
 10
549.751
 20
-116.732
 11
549.273
 21
-116.592
  0
LINE
  8
0
 10
549.273
 20
-116.592
 11
548.854
 21
-116.323
  0
LINE
  8
0
 10
548.854
 20
-116.323
 11
548.528
 21
-115.946
  0
LINE
  8
0
 10
548.528
 20
-115.946
 11
548.321
 21
-115.493
  0
LINE
  8
0
 10
548.321
 20
-115.493
 11
548.25
 21
-115
  0
LINE
  8
0
 10
548.25
 20
-115
 11
548.321
 21
-114.507
  0
LINE
  8
0
 10
548.321
 20
-114.507
 11
548.528
 21
-114.054
  0
LINE
  8
0
 10
548.528
 20
-114.054
 11
548.854
 21
-113.677
  0
LINE
  8
0
 10
548.854
 20
-113.677
 11
549.273
 21
-113.408
  0
LINE
  8
0
 10
549.273
 20
-113.408
 11
549.751
 21
-113.268
  0
LINE
  8
0
 10
549.751
 20
-113.268
 11
550.249
 21
-113.268
  0
LINE
  8
0
 10
550.249
 20
-113.268
 11
550.727
 21
-113.408
  0
LINE
  8
0
 10
550.727
 20
-113.408
 11
551.146
 21
-113.677
  0
LINE
  8
0
 10
551.146
 20
-113.677
 11
551.472
 21
-114.054
  0
LINE
  8
0
 10
551.472
 20
-114.054
 11
551.679
 21
-114.507
  0
LINE
  8
0
 10
551.679
 20
-114.507
 11
551.75
 21
-115
  0
LINE
  8
0
 10
551.75
 20
-115
 11
551.679
 21
-115.493
  0
LINE
  8
0
 10
551.679
 20
-115.493
 11
551.472
 21
-115.946
  0
LINE
  8
0
 10
551.472
 20
-115.946
 11
551.146
 21
-116.323
  0
LINE
  8
0
 10
551.146
 20
-116.323
 11
550.727
 21
-116.592
  0
LINE
  8
0
 10
550.727
 20
-116.592
 11
550.249
 21
-116.732
  0
LINE
  8
0
 10
550.249
 20
-116.732
 11
549.751
 21
-116.732
  0
LINE
  8
0
 10
510
 20
-122.1
 11
510
 21
-117.1
  0
LINE
  8
0
 10
510
 20
-117.1
 11
530
 21
-117.1
  0
LINE
  8
0
 10
530
 20
-117.1
 11
530
 21
-122.1
  0
LINE
  8
0
 10
530
 20
-122.1
 11
510
 21
-122.1
  0
LINE
  8
0
 10
167
 20
125
 11
107
 21
125
  0
LINE
  8
0
 10
107
 20
125
 11
107
 21
-125
  0
LINE
  8
0
 10
107
 20
-125
 11
167
 21
-125
  0
LINE
  8
0
 10
167
 20
-125
 11
167
 21
125
  0
LINE
  8
0
 10
149.751
 20
113.268
 11
149.273
 21
113.408
  0
LINE
  8
0
 10
149.273
 20
113.408
 11
148.854
 21
113.677
  0
LINE
  8
0
 10
148.854
 20
113.677
 11
148.528
 21
114.054
  0
LINE
  8
0
 10
148.528
 20
114.054
 11
148.321
 21
114.507
  0
LINE
  8
0
 10
148.321
 20
114.507
 11
148.25
 21
115
  0
LINE
  8
0
 10
148.25
 20
115
 11
148.321
 21
115.493
  0
LINE
  8
0
 10
148.321
 20
115.493
 11
148.528
 21
115.946
  0
LINE
  8
0
 10
148.528
 20
115.946
 11
148.854
 21
116.323
  0
LINE
  8
0
 10
148.854
 20
116.323
 11
149.273
 21
116.592
  0
LINE
  8
0
 10
149.273
 20
116.592
 11
149.751
 21
116.732
  0
LINE
  8
0
 10
149.751
 20
116.732
 11
150.249
 21
116.732
  0
LINE
  8
0
 10
150.249
 20
116.732
 11
150.727
 21
116.592
  0
LINE
  8
0
 10
150.727
 20
116.592
 11
151.146
 21
116.323
  0
LINE
  8
0
 10
151.146
 20
116.323
 11
151.472
 21
115.946
  0
LINE
  8
0
 10
151.472
 20
115.946
 11
151.679
 21
115.493
  0
LINE
  8
0
 10
151.679
 20
115.493
 11
151.75
 21
115
  0
LINE
  8
0
 10
151.75
 20
115
 11
151.679
 21
114.507
  0
LINE
  8
0
 10
151.679
 20
114.507
 11
151.472
 21
114.054
  0
LINE
  8
0
 10
151.472
 20
114.054
 11
151.146
 21
113.677
  0
LINE
  8
0
 10
151.146
 20
113.677
 11
150.727
 21
113.408
  0
LINE
  8
0
 10
150.727
 20
113.408
 11
150.249
 21
113.268
  0
LINE
  8
0
 10
150.249
 20
113.268
 11
149.751
 21
113.268
  0
LINE
  8
0
 10
145
 20
107
 11
145
 21
109
  0
LINE
  8
0
 10
145
 20
109
 11
155
 21
109
  0
LINE
  8
0
 10
155
 20
109
 11
155
 21
107
  0
LINE
  8
0
 10
155
 20
107
 11
145
 21
107
  0
LINE
  8
0
 10
123
 20
55
 11
123
 21
65
  0
LINE
  8
0
 10
123
 20
65
 11
125
 21
65
  0
LINE
  8
0
 10
125
 20
65
 11
125
 21
55
  0
LINE
  8
0
 10
125
 20
55
 11
123
 21
55
  0
LINE
  8
0
 10
116.507
 20
58.3209
 11
116.054
 21
58.5278
  0
LINE
  8
0
 10
116.054
 20
58.5278
 11
115.677
 21
58.854
  0
LINE
  8
0
 10
115.677
 20
58.854
 11
115.408
 21
59.273
  0
LINE
  8
0
 10
115.408
 20
59.273
 11
115.268
 21
59.751
  0
LINE
  8
0
 10
115.268
 20
59.751
 11
115.268
 21
60.249
  0
LINE
  8
0
 10
115.268
 20
60.249
 11
115.408
 21
60.727
  0
LINE
  8
0
 10
115.408
 20
60.727
 11
115.677
 21
61.146
  0
LINE
  8
0
 10
115.677
 20
61.146
 11
116.054
 21
61.4722
  0
LINE
  8
0
 10
116.054
 20
61.4722
 11
116.507
 21
61.6791
  0
LINE
  8
0
 10
116.507
 20
61.6791
 11
117
 21
61.75
  0
LINE
  8
0
 10
117
 20
61.75
 11
117.493
 21
61.6791
  0
LINE
  8
0
 10
117.493
 20
61.6791
 11
117.946
 21
61.4722
  0
LINE
  8
0
 10
117.946
 20
61.4722
 11
118.323
 21
61.146
  0
LINE
  8
0
 10
118.323
 20
61.146
 11
118.592
 21
60.727
  0
LINE
  8
0
 10
118.592
 20
60.727
 11
118.732
 21
60.249
  0
LINE
  8
0
 10
118.732
 20
60.249
 11
118.732
 21
59.751
  0
LINE
  8
0
 10
118.732
 20
59.751
 11
118.592
 21
59.273
  0
LINE
  8
0
 10
118.592
 20
59.273
 11
118.323
 21
58.854
  0
LINE
  8
0
 10
118.323
 20
58.854
 11
117.946
 21
58.5278
  0
LINE
  8
0
 10
117.946
 20
58.5278
 11
117.493
 21
58.3209
  0
LINE
  8
0
 10
117.493
 20
58.3209
 11
117
 21
58.25
  0
LINE
  8
0
 10
117
 20
58.25
 11
116.507
 21
58.3209
  0
LINE
  8
0
 10
123
 20
-65
 11
123
 21
-55
  0
LINE
  8
0
 10
123
 20
-55
 11
125
 21
-55
  0
LINE
  8
0
 10
125
 20
-55
 11
125
 21
-65
  0
LINE
  8
0
 10
125
 20
-65
 11
123
 21
-65
  0
LINE
  8
0
 10
116.507
 20
-61.6791
 11
116.054
 21
-61.4722
  0
LINE
  8
0
 10
116.054
 20
-61.4722
 11
115.677
 21
-61.146
  0
LINE
  8
0
 10
115.677
 20
-61.146
 11
115.408
 21
-60.727
  0
LINE
  8
0
 10
115.408
 20
-60.727
 11
115.268
 21
-60.249
  0
LINE
  8
0
 10
115.268
 20
-60.249
 11
115.268
 21
-59.751
  0
LINE
  8
0
 10
115.268
 20
-59.751
 11
115.408
 21
-59.273
  0
LINE
  8
0
 10
115.408
 20
-59.273
 11
115.677
 21
-58.854
  0
LINE
  8
0
 10
115.677
 20
-58.854
 11
116.054
 21
-58.5278
  0
LINE
  8
0
 10
116.054
 20
-58.5278
 11
116.507
 21
-58.3209
  0
LINE
  8
0
 10
116.507
 20
-58.3209
 11
117
 21
-58.25
  0
LINE
  8
0
 10
117
 20
-58.25
 11
117.493
 21
-58.3209
  0
LINE
  8
0
 10
117.493
 20
-58.3209
 11
117.946
 21
-58.5278
  0
LINE
  8
0
 10
117.946
 20
-58.5278
 11
118.323
 21
-58.854
  0
LINE
  8
0
 10
118.323
 20
-58.854
 11
118.592
 21
-59.273
  0
LINE
  8
0
 10
118.592
 20
-59.273
 11
118.732
 21
-59.751
  0
LINE
  8
0
 10
118.732
 20
-59.751
 11
118.732
 21
-60.249
  0
LINE
  8
0
 10
118.732
 20
-60.249
 11
118.592
 21
-60.727
  0
LINE
  8
0
 10
118.592
 20
-60.727
 11
118.323
 21
-61.146
  0
LINE
  8
0
 10
118.323
 20
-61.146
 11
117.946
 21
-61.4722
  0
LINE
  8
0
 10
117.946
 20
-61.4722
 11
117.493
 21
-61.6791
  0
LINE
  8
0
 10
117.493
 20
-61.6791
 11
117
 21
-61.75
  0
LINE
  8
0
 10
117
 20
-61.75
 11
116.507
 21
-61.6791
  0
LINE
  8
0
 10
145
 20
-109
 11
145
 21
-107
  0
LINE
  8
0
 10
145
 20
-107
 11
155
 21
-107
  0
LINE
  8
0
 10
155
 20
-107
 11
155
 21
-109
  0
LINE
  8
0
 10
155
 20
-109
 11
145
 21
-109
  0
LINE
  8
0
 10
149.751
 20
-116.732
 11
149.273
 21
-116.592
  0
LINE
  8
0
 10
149.273
 20
-116.592
 11
148.854
 21
-116.323
  0
LINE
  8
0
 10
148.854
 20
-116.323
 11
148.528
 21
-115.946
  0
LINE
  8
0
 10
148.528
 20
-115.946
 11
148.321
 21
-115.493
  0
LINE
  8
0
 10
148.321
 20
-115.493
 11
148.25
 21
-115
  0
LINE
  8
0
 10
148.25
 20
-115
 11
148.321
 21
-114.507
  0
LINE
  8
0
 10
148.321
 20
-114.507
 11
148.528
 21
-114.054
  0
LINE
  8
0
 10
148.528
 20
-114.054
 11
148.854
 21
-113.677
  0
LINE
  8
0
 10
148.854
 20
-113.677
 11
149.273
 21
-113.408
  0
LINE
  8
0
 10
149.273
 20
-113.408
 11
149.751
 21
-113.268
  0
LINE
  8
0
 10
149.751
 20
-113.268
 11
150.249
 21
-113.268
  0
LINE
  8
0
 10
150.249
 20
-113.268
 11
150.727
 21
-113.408
  0
LINE
  8
0
 10
150.727
 20
-113.408
 11
151.146
 21
-113.677
  0
LINE
  8
0
 10
151.146
 20
-113.677
 11
151.472
 21
-114.054
  0
LINE
  8
0
 10
151.472
 20
-114.054
 11
151.679
 21
-114.507
  0
LINE
  8
0
 10
151.679
 20
-114.507
 11
151.75
 21
-115
  0
LINE
  8
0
 10
151.75
 20
-115
 11
151.679
 21
-115.493
  0
LINE
  8
0
 10
151.679
 20
-115.493
 11
151.472
 21
-115.946
  0
LINE
  8
0
 10
151.472
 20
-115.946
 11
151.146
 21
-116.323
  0
LINE
  8
0
 10
151.146
 20
-116.323
 11
150.727
 21
-116.592
  0
LINE
  8
0
 10
150.727
 20
-116.592
 11
150.249
 21
-116.732
  0
LINE
  8
0
 10
150.249
 20
-116.732
 11
149.751
 21
-116.732
  0
LINE
  8
0
 10
110
 20
-122.1
 11
110
 21
-117.1
  0
LINE
  8
0
 10
110
 20
-117.1
 11
130
 21
-117.1
  0
LINE
  8
0
 10
130
 20
-117.1
 11
130
 21
-122.1
  0
LINE
  8
0
 10
130
 20
-122.1
 11
110
 21
-122.1
  0
LINE
  8
0
 10
497
 20
122
 11
303
 21
122
  0
LINE
  8
0
 10
303
 20
122
 11
303
 21
-122
  0
LINE
  8
0
 10
303
 20
-122
 11
497
 21
-122
  0
LINE
  8
0
 10
497
 20
-122
 11
497
 21
122
  0
LINE
  8
0
 10
399.751
 20
113.268
 11
399.273
 21
113.408
  0
LINE
  8
0
 10
399.273
 20
113.408
 11
398.854
 21
113.677
  0
LINE
  8
0
 10
398.854
 20
113.677
 11
398.528
 21
114.054
  0
LINE
  8
0
 10
398.528
 20
114.054
 11
398.321
 21
114.507
  0
LINE
  8
0
 10
398.321
 20
114.507
 11
398.25
 21
115
  0
LINE
  8
0
 10
398.25
 20
115
 11
398.321
 21
115.493
  0
LINE
  8
0
 10
398.321
 20
115.493
 11
398.528
 21
115.946
  0
LINE
  8
0
 10
398.528
 20
115.946
 11
398.854
 21
116.323
  0
LINE
  8
0
 10
398.854
 20
116.323
 11
399.273
 21
116.592
  0
LINE
  8
0
 10
399.273
 20
116.592
 11
399.751
 21
116.732
  0
LINE
  8
0
 10
399.751
 20
116.732
 11
400.249
 21
116.732
  0
LINE
  8
0
 10
400.249
 20
116.732
 11
400.727
 21
116.592
  0
LINE
  8
0
 10
400.727
 20
116.592
 11
401.146
 21
116.323
  0
LINE
  8
0
 10
401.146
 20
116.323
 11
401.472
 21
115.946
  0
LINE
  8
0
 10
401.472
 20
115.946
 11
401.679
 21
115.493
  0
LINE
  8
0
 10
401.679
 20
115.493
 11
401.75
 21
115
  0
LINE
  8
0
 10
401.75
 20
115
 11
401.679
 21
114.507
  0
LINE
  8
0
 10
401.679
 20
114.507
 11
401.472
 21
114.054
  0
LINE
  8
0
 10
401.472
 20
114.054
 11
401.146
 21
113.677
  0
LINE
  8
0
 10
401.146
 20
113.677
 11
400.727
 21
113.408
  0
LINE
  8
0
 10
400.727
 20
113.408
 11
400.249
 21
113.268
  0
LINE
  8
0
 10
400.249
 20
113.268
 11
399.751
 21
113.268
  0
LINE
  8
0
 10
309.507
 20
58.3209
 11
309.054
 21
58.5278
  0
LINE
  8
0
 10
309.054
 20
58.5278
 11
308.677
 21
58.854
  0
LINE
  8
0
 10
308.677
 20
58.854
 11
308.408
 21
59.273
  0
LINE
  8
0
 10
308.408
 20
59.273
 11
308.268
 21
59.7509
  0
LINE
  8
0
 10
308.268
 20
59.7509
 11
308.268
 21
60.249
  0
LINE
  8
0
 10
308.268
 20
60.249
 11
308.408
 21
60.727
  0
LINE
  8
0
 10
308.408
 20
60.727
 11
308.677
 21
61.146
  0
LINE
  8
0
 10
308.677
 20
61.146
 11
309.054
 21
61.4722
  0
LINE
  8
0
 10
309.054
 20
61.4722
 11
309.507
 21
61.6791
  0
LINE
  8
0
 10
309.507
 20
61.6791
 11
310
 21
61.75
  0
LINE
  8
0
 10
310
 20
61.75
 11
310.493
 21
61.6791
  0
LINE
  8
0
 10
310.493
 20
61.6791
 11
310.946
 21
61.4722
  0
LINE
  8
0
 10
310.946
 20
61.4722
 11
311.323
 21
61.146
  0
LINE
  8
0
 10
311.323
 20
61.146
 11
311.592
 21
60.727
  0
LINE
  8
0
 10
311.592
 20
60.727
 11
311.732
 21
60.249
  0
LINE
  8
0
 10
311.732
 20
60.249
 11
311.732
 21
59.7509
  0
LINE
  8
0
 10
311.732
 20
59.7509
 11
311.592
 21
59.273
  0
LINE
  8
0
 10
311.592
 20
59.273
 11
311.323
 21
58.854
  0
LINE
  8
0
 10
311.323
 20
58.854
 11
310.946
 21
58.5278
  0
LINE
  8
0
 10
310.946
 20
58.5278
 11
310.493
 21
58.3209
  0
LINE
  8
0
 10
310.493
 20
58.3209
 11
310
 21
58.25
  0
LINE
  8
0
 10
310
 20
58.25
 11
309.507
 21
58.3209
  0
LINE
  8
0
 10
489.507
 20
58.3209
 11
489.054
 21
58.5278
  0
LINE
  8
0
 10
489.054
 20
58.5278
 11
488.677
 21
58.854
  0
LINE
  8
0
 10
488.677
 20
58.854
 11
488.408
 21
59.273
  0
LINE
  8
0
 10
488.408
 20
59.273
 11
488.268
 21
59.7509
  0
LINE
  8
0
 10
488.268
 20
59.7509
 11
488.268
 21
60.249
  0
LINE
  8
0
 10
488.268
 20
60.249
 11
488.408
 21
60.727
  0
LINE
  8
0
 10
488.408
 20
60.727
 11
488.677
 21
61.146
  0
LINE
  8
0
 10
488.677
 20
61.146
 11
489.054
 21
61.4722
  0
LINE
  8
0
 10
489.054
 20
61.4722
 11
489.507
 21
61.6791
  0
LINE
  8
0
 10
489.507
 20
61.6791
 11
490
 21
61.75
  0
LINE
  8
0
 10
490
 20
61.75
 11
490.493
 21
61.6791
  0
LINE
  8
0
 10
490.493
 20
61.6791
 11
490.946
 21
61.4722
  0
LINE
  8
0
 10
490.946
 20
61.4722
 11
491.323
 21
61.146
  0
LINE
  8
0
 10
491.323
 20
61.146
 11
491.592
 21
60.727
  0
LINE
  8
0
 10
491.592
 20
60.727
 11
491.732
 21
60.249
  0
LINE
  8
0
 10
491.732
 20
60.249
 11
491.732
 21
59.7509
  0
LINE
  8
0
 10
491.732
 20
59.7509
 11
491.592
 21
59.273
  0
LINE
  8
0
 10
491.592
 20
59.273
 11
491.323
 21
58.854
  0
LINE
  8
0
 10
491.323
 20
58.854
 11
490.946
 21
58.5278
  0
LINE
  8
0
 10
490.946
 20
58.5278
 11
490.493
 21
58.3209
  0
LINE
  8
0
 10
490.493
 20
58.3209
 11
490
 21
58.25
  0
LINE
  8
0
 10
490
 20
58.25
 11
489.507
 21
58.3209
  0
LINE
  8
0
 10
489.507
 20
-61.6791
 11
489.054
 21
-61.4722
  0
LINE
  8
0
 10
489.054
 20
-61.4722
 11
488.677
 21
-61.146
  0
LINE
  8
0
 10
488.677
 20
-61.146
 11
488.408
 21
-60.727
  0
LINE
  8
0
 10
488.408
 20
-60.727
 11
488.268
 21
-60.249
  0
LINE
  8
0
 10
488.268
 20
-60.249
 11
488.268
 21
-59.7509
  0
LINE
  8
0
 10
488.268
 20
-59.7509
 11
488.408
 21
-59.273
  0
LINE
  8
0
 10
488.408
 20
-59.273
 11
488.677
 21
-58.854
  0
LINE
  8
0
 10
488.677
 20
-58.854
 11
489.054
 21
-58.5278
  0
LINE
  8
0
 10
489.054
 20
-58.5278
 11
489.507
 21
-58.3209
  0
LINE
  8
0
 10
489.507
 20
-58.3209
 11
490
 21
-58.25
  0
LINE
  8
0
 10
490
 20
-58.25
 11
490.493
 21
-58.3209
  0
LINE
  8
0
 10
490.493
 20
-58.3209
 11
490.946
 21
-58.5278
  0
LINE
  8
0
 10
490.946
 20
-58.5278
 11
491.323
 21
-58.854
  0
LINE
  8
0
 10
491.323
 20
-58.854
 11
491.592
 21
-59.273
  0
LINE
  8
0
 10
491.592
 20
-59.273
 11
491.732
 21
-59.7509
  0
LINE
  8
0
 10
491.732
 20
-59.7509
 11
491.732
 21
-60.249
  0
LINE
  8
0
 10
491.732
 20
-60.249
 11
491.592
 21
-60.727
  0
LINE
  8
0
 10
491.592
 20
-60.727
 11
491.323
 21
-61.146
  0
LINE
  8
0
 10
491.323
 20
-61.146
 11
490.946
 21
-61.4722
  0
LINE
  8
0
 10
490.946
 20
-61.4722
 11
490.493
 21
-61.6791
  0
LINE
  8
0
 10
490.493
 20
-61.6791
 11
490
 21
-61.75
  0
LINE
  8
0
 10
490
 20
-61.75
 11
489.507
 21
-61.6791
  0
LINE
  8
0
 10
309.507
 20
-61.6791
 11
309.054
 21
-61.4722
  0
LINE
  8
0
 10
309.054
 20
-61.4722
 11
308.677
 21
-61.146
  0
LINE
  8
0
 10
308.677
 20
-61.146
 11
308.408
 21
-60.727
  0
LINE
  8
0
 10
308.408
 20
-60.727
 11
308.268
 21
-60.249
  0
LINE
  8
0
 10
308.268
 20
-60.249
 11
308.268
 21
-59.7509
  0
LINE
  8
0
 10
308.268
 20
-59.7509
 11
308.408
 21
-59.273
  0
LINE
  8
0
 10
308.408
 20
-59.273
 11
308.677
 21
-58.854
  0
LINE
  8
0
 10
308.677
 20
-58.854
 11
309.054
 21
-58.5278
  0
LINE
  8
0
 10
309.054
 20
-58.5278
 11
309.507
 21
-58.3209
  0
LINE
  8
0
 10
309.507
 20
-58.3209
 11
310
 21
-58.25
  0
LINE
  8
0
 10
310
 20
-58.25
 11
310.493
 21
-58.3209
  0
LINE
  8
0
 10
310.493
 20
-58.3209
 11
310.946
 21
-58.5278
  0
LINE
  8
0
 10
310.946
 20
-58.5278
 11
311.323
 21
-58.854
  0
LINE
  8
0
 10
311.323
 20
-58.854
 11
311.592
 21
-59.273
  0
LINE
  8
0
 10
311.592
 20
-59.273
 11
311.732
 21
-59.7509
  0
LINE
  8
0
 10
311.732
 20
-59.7509
 11
311.732
 21
-60.249
  0
LINE
  8
0
 10
311.732
 20
-60.249
 11
311.592
 21
-60.727
  0
LINE
  8
0
 10
311.592
 20
-60.727
 11
311.323
 21
-61.146
  0
LINE
  8
0
 10
311.323
 20
-61.146
 11
310.946
 21
-61.4722
  0
LINE
  8
0
 10
310.946
 20
-61.4722
 11
310.493
 21
-61.6791
  0
LINE
  8
0
 10
310.493
 20
-61.6791
 11
310
 21
-61.75
  0
LINE
  8
0
 10
310
 20
-61.75
 11
309.507
 21
-61.6791
  0
LINE
  8
0
 10
399.751
 20
-116.732
 11
399.273
 21
-116.592
  0
LINE
  8
0
 10
399.273
 20
-116.592
 11
398.854
 21
-116.323
  0
LINE
  8
0
 10
398.854
 20
-116.323
 11
398.528
 21
-115.946
  0
LINE
  8
0
 10
398.528
 20
-115.946
 11
398.321
 21
-115.493
  0
LINE
  8
0
 10
398.321
 20
-115.493
 11
398.25
 21
-115
  0
LINE
  8
0
 10
398.25
 20
-115
 11
398.321
 21
-114.507
  0
LINE
  8
0
 10
398.321
 20
-114.507
 11
398.528
 21
-114.054
  0
LINE
  8
0
 10
398.528
 20
-114.054
 11
398.854
 21
-113.677
  0
LINE
  8
0
 10
398.854
 20
-113.677
 11
399.273
 21
-113.408
  0
LINE
  8
0
 10
399.273
 20
-113.408
 11
399.751
 21
-113.268
  0
LINE
  8
0
 10
399.751
 20
-113.268
 11
400.249
 21
-113.268
  0
LINE
  8
0
 10
400.249
 20
-113.268
 11
400.727
 21
-113.408
  0
LINE
  8
0
 10
400.727
 20
-113.408
 11
401.146
 21
-113.677
  0
LINE
  8
0
 10
401.146
 20
-113.677
 11
401.472
 21
-114.054
  0
LINE
  8
0
 10
401.472
 20
-114.054
 11
401.679
 21
-114.507
  0
LINE
  8
0
 10
401.679
 20
-114.507
 11
401.75
 21
-115
  0
LINE
  8
0
 10
401.75
 20
-115
 11
401.679
 21
-115.493
  0
LINE
  8
0
 10
401.679
 20
-115.493
 11
401.472
 21
-115.946
  0
LINE
  8
0
 10
401.472
 20
-115.946
 11
401.146
 21
-116.323
  0
LINE
  8
0
 10
401.146
 20
-116.323
 11
400.727
 21
-116.592
  0
LINE
  8
0
 10
400.727
 20
-116.592
 11
400.249
 21
-116.732
  0
LINE
  8
0
 10
400.249
 20
-116.732
 11
399.751
 21
-116.732
  0
LINE
  8
0
 10
97
 20
122
 11
-97
 21
122
  0
LINE
  8
0
 10
-97
 20
122
 11
-97
 21
-122
  0
LINE
  8
0
 10
-97
 20
-122
 11
97
 21
-122
  0
LINE
  8
0
 10
97
 20
-122
 11
97
 21
122
  0
LINE
  8
0
 10
-0.249039
 20
113.268
 11
-0.726974
 21
113.408
  0
LINE
  8
0
 10
-0.726974
 20
113.408
 11
-1.146
 21
113.677
  0
LINE
  8
0
 10
-1.146
 20
113.677
 11
-1.47218
 21
114.054
  0
LINE
  8
0
 10
-1.47218
 20
114.054
 11
-1.67911
 21
114.507
  0
LINE
  8
0
 10
-1.67911
 20
114.507
 11
-1.74998
 21
115
  0
LINE
  8
0
 10
-1.74998
 20
115
 11
-1.67911
 21
115.493
  0
LINE
  8
0
 10
-1.67911
 20
115.493
 11
-1.47218
 21
115.946
  0
LINE
  8
0
 10
-1.47218
 20
115.946
 11
-1.146
 21
116.323
  0
LINE
  8
0
 10
-1.146
 20
116.323
 11
-0.726974
 21
116.592
  0
LINE
  8
0
 10
-0.726974
 20
116.592
 11
-0.249039
 21
116.732
  0
LINE
  8
0
 10
-0.249039
 20
116.732
 11
0.249039
 21
116.732
  0
LINE
  8
0
 10
0.249039
 20
116.732
 11
0.726974
 21
116.592
  0
LINE
  8
0
 10
0.726974
 20
116.592
 11
1.146
 21
116.323
  0
LINE
  8
0
 10
1.146
 20
116.323
 11
1.47218
 21
115.946
  0
LINE
  8
0
 10
1.47218
 20
115.946
 11
1.67911
 21
115.493
  0
LINE
  8
0
 10
1.67911
 20
115.493
 11
1.75
 21
115
  0
LINE
  8
0
 10
1.75
 20
115
 11
1.67911
 21
114.507
  0
LINE
  8
0
 10
1.67911
 20
114.507
 11
1.47218
 21
114.054
  0
LINE
  8
0
 10
1.47218
 20
114.054
 11
1.146
 21
113.677
  0
LINE
  8
0
 10
1.146
 20
113.677
 11
0.726974
 21
113.408
  0
LINE
  8
0
 10
0.726974
 20
113.408
 11
0.249039
 21
113.268
  0
LINE
  8
0
 10
0.249039
 20
113.268
 11
-0.249039
 21
113.268
  0
LINE
  8
0
 10
-90.493
 20
58.3209
 11
-90.9461
 21
58.5278
  0
LINE
  8
0
 10
-90.9461
 20
58.5278
 11
-91.3226
 21
58.854
  0
LINE
  8
0
 10
-91.3226
 20
58.854
 11
-91.5918
 21
59.273
  0
LINE
  8
0
 10
-91.5918
 20
59.273
 11
-91.7322
 21
59.7509
  0
LINE
  8
0
 10
-91.7322
 20
59.7509
 11
-91.7322
 21
60.249
  0
LINE
  8
0
 10
-91.7322
 20
60.249
 11
-91.5918
 21
60.727
  0
LINE
  8
0
 10
-91.5918
 20
60.727
 11
-91.3226
 21
61.146
  0
LINE
  8
0
 10
-91.3226
 20
61.146
 11
-90.9461
 21
61.4722
  0
LINE
  8
0
 10
-90.9461
 20
61.4722
 11
-90.493
 21
61.6791
  0
LINE
  8
0
 10
-90.493
 20
61.6791
 11
-90
 21
61.75
  0
LINE
  8
0
 10
-90
 20
61.75
 11
-89.507
 21
61.6791
  0
LINE
  8
0
 10
-89.507
 20
61.6791
 11
-89.0539
 21
61.4722
  0
LINE
  8
0
 10
-89.0539
 20
61.4722
 11
-88.6774
 21
61.146
  0
LINE
  8
0
 10
-88.6774
 20
61.146
 11
-88.4081
 21
60.727
  0
LINE
  8
0
 10
-88.4081
 20
60.727
 11
-88.2678
 21
60.249
  0
LINE
  8
0
 10
-88.2678
 20
60.249
 11
-88.2678
 21
59.7509
  0
LINE
  8
0
 10
-88.2678
 20
59.7509
 11
-88.4081
 21
59.273
  0
LINE
  8
0
 10
-88.4081
 20
59.273
 11
-88.6774
 21
58.854
  0
LINE
  8
0
 10
-88.6774
 20
58.854
 11
-89.0539
 21
58.5278
  0
LINE
  8
0
 10
-89.0539
 20
58.5278
 11
-89.507
 21
58.3209
  0
LINE
  8
0
 10
-89.507
 20
58.3209
 11
-90
 21
58.25
  0
LINE
  8
0
 10
-90
 20
58.25
 11
-90.493
 21
58.3209
  0
LINE
  8
0
 10
89.507
 20
58.3209
 11
89.0539
 21
58.5278
  0
LINE
  8
0
 10
89.0539
 20
58.5278
 11
88.6774
 21
58.854
  0
LINE
  8
0
 10
88.6774
 20
58.854
 11
88.4081
 21
59.273
  0
LINE
  8
0
 10
88.4081
 20
59.273
 11
88.2678
 21
59.7509
  0
LINE
  8
0
 10
88.2678
 20
59.7509
 11
88.2678
 21
60.249
  0
LINE
  8
0
 10
88.2678
 20
60.249
 11
88.4081
 21
60.727
  0
LINE
  8
0
 10
88.4081
 20
60.727
 11
88.6774
 21
61.146
  0
LINE
  8
0
 10
88.6774
 20
61.146
 11
89.0539
 21
61.4722
  0
LINE
  8
0
 10
89.0539
 20
61.4722
 11
89.507
 21
61.6791
  0
LINE
  8
0
 10
89.507
 20
61.6791
 11
90
 21
61.75
  0
LINE
  8
0
 10
90
 20
61.75
 11
90.493
 21
61.6791
  0
LINE
  8
0
 10
90.493
 20
61.6791
 11
90.9461
 21
61.4722
  0
LINE
  8
0
 10
90.9461
 20
61.4722
 11
91.3226
 21
61.146
  0
LINE
  8
0
 10
91.3226
 20
61.146
 11
91.5918
 21
60.727
  0
LINE
  8
0
 10
91.5918
 20
60.727
 11
91.7322
 21
60.249
  0
LINE
  8
0
 10
91.7322
 20
60.249
 11
91.7322
 21
59.7509
  0
LINE
  8
0
 10
91.7322
 20
59.7509
 11
91.5918
 21
59.273
  0
LINE
  8
0
 10
91.5918
 20
59.273
 11
91.3226
 21
58.854
  0
LINE
  8
0
 10
91.3226
 20
58.854
 11
90.9461
 21
58.5278
  0
LINE
  8
0
 10
90.9461
 20
58.5278
 11
90.493
 21
58.3209
  0
LINE
  8
0
 10
90.493
 20
58.3209
 11
90
 21
58.25
  0
LINE
  8
0
 10
90
 20
58.25
 11
89.507
 21
58.3209
  0
LINE
  8
0
 10
-90.493
 20
-61.6791
 11
-90.9461
 21
-61.4722
  0
LINE
  8
0
 10
-90.9461
 20
-61.4722
 11
-91.3226
 21
-61.146
  0
LINE
  8
0
 10
-91.3226
 20
-61.146
 11
-91.5918
 21
-60.727
  0
LINE
  8
0
 10
-91.5918
 20
-60.727
 11
-91.7322
 21
-60.249
  0
LINE
  8
0
 10
-91.7322
 20
-60.249
 11
-91.7322
 21
-59.7509
  0
LINE
  8
0
 10
-91.7322
 20
-59.7509
 11
-91.5918
 21
-59.273
  0
LINE
  8
0
 10
-91.5918
 20
-59.273
 11
-91.3226
 21
-58.854
  0
LINE
  8
0
 10
-91.3226
 20
-58.854
 11
-90.9461
 21
-58.5278
  0
LINE
  8
0
 10
-90.9461
 20
-58.5278
 11
-90.493
 21
-58.3209
  0
LINE
  8
0
 10
-90.493
 20
-58.3209
 11
-90
 21
-58.25
  0
LINE
  8
0
 10
-90
 20
-58.25
 11
-89.507
 21
-58.3209
  0
LINE
  8
0
 10
-89.507
 20
-58.3209
 11
-89.0539
 21
-58.5278
  0
LINE
  8
0
 10
-89.0539
 20
-58.5278
 11
-88.6774
 21
-58.854
  0
LINE
  8
0
 10
-88.6774
 20
-58.854
 11
-88.4081
 21
-59.273
  0
LINE
  8
0
 10
-88.4081
 20
-59.273
 11
-88.2678
 21
-59.7509
  0
LINE
  8
0
 10
-88.2678
 20
-59.7509
 11
-88.2678
 21
-60.249
  0
LINE
  8
0
 10
-88.2678
 20
-60.249
 11
-88.4081
 21
-60.727
  0
LINE
  8
0
 10
-88.4081
 20
-60.727
 11
-88.6774
 21
-61.146
  0
LINE
  8
0
 10
-88.6774
 20
-61.146
 11
-89.0539
 21
-61.4722
  0
LINE
  8
0
 10
-89.0539
 20
-61.4722
 11
-89.507
 21
-61.6791
  0
LINE
  8
0
 10
-89.507
 20
-61.6791
 11
-90
 21
-61.75
  0
LINE
  8
0
 10
-90
 20
-61.75
 11
-90.493
 21
-61.6791
  0
LINE
  8
0
 10
89.507
 20
-61.6791
 11
89.0539
 21
-61.4722
  0
LINE
  8
0
 10
89.0539
 20
-61.4722
 11
88.6774
 21
-61.146
  0
LINE
  8
0
 10
88.6774
 20
-61.146
 11
88.4081
 21
-60.727
  0
LINE
  8
0
 10
88.4081
 20
-60.727
 11
88.2678
 21
-60.249
  0
LINE
  8
0
 10
88.2678
 20
-60.249
 11
88.2678
 21
-59.7509
  0
LINE
  8
0
 10
88.2678
 20
-59.7509
 11
88.4081
 21
-59.273
  0
LINE
  8
0
 10
88.4081
 20
-59.273
 11
88.6774
 21
-58.854
  0
LINE
  8
0
 10
88.6774
 20
-58.854
 11
89.0539
 21
-58.5278
  0
LINE
  8
0
 10
89.0539
 20
-58.5278
 11
89.507
 21
-58.3209
  0
LINE
  8
0
 10
89.507
 20
-58.3209
 11
90
 21
-58.25
  0
LINE
  8
0
 10
90
 20
-58.25
 11
90.493
 21
-58.3209
  0
LINE
  8
0
 10
90.493
 20
-58.3209
 11
90.9461
 21
-58.5278
  0
LINE
  8
0
 10
90.9461
 20
-58.5278
 11
91.3226
 21
-58.854
  0
LINE
  8
0
 10
91.3226
 20
-58.854
 11
91.5918
 21
-59.273
  0
LINE
  8
0
 10
91.5918
 20
-59.273
 11
91.7322
 21
-59.7509
  0
LINE
  8
0
 10
91.7322
 20
-59.7509
 11
91.7322
 21
-60.249
  0
LINE
  8
0
 10
91.7322
 20
-60.249
 11
91.5918
 21
-60.727
  0
LINE
  8
0
 10
91.5918
 20
-60.727
 11
91.3226
 21
-61.146
  0
LINE
  8
0
 10
91.3226
 20
-61.146
 11
90.9461
 21
-61.4722
  0
LINE
  8
0
 10
90.9461
 20
-61.4722
 11
90.493
 21
-61.6791
  0
LINE
  8
0
 10
90.493
 20
-61.6791
 11
90
 21
-61.75
  0
LINE
  8
0
 10
90
 20
-61.75
 11
89.507
 21
-61.6791
  0
LINE
  8
0
 10
-0.249039
 20
-116.732
 11
-0.726974
 21
-116.592
  0
LINE
  8
0
 10
-0.726974
 20
-116.592
 11
-1.146
 21
-116.323
  0
LINE
  8
0
 10
-1.146
 20
-116.323
 11
-1.47218
 21
-115.946
  0
LINE
  8
0
 10
-1.47218
 20
-115.946
 11
-1.67911
 21
-115.493
  0
LINE
  8
0
 10
-1.67911
 20
-115.493
 11
-1.75
 21
-115
  0
LINE
  8
0
 10
-1.75
 20
-115
 11
-1.67911
 21
-114.507
  0
LINE
  8
0
 10
-1.67911
 20
-114.507
 11
-1.47218
 21
-114.054
  0
LINE
  8
0
 10
-1.47218
 20
-114.054
 11
-1.146
 21
-113.677
  0
LINE
  8
0
 10
-1.146
 20
-113.677
 11
-0.726974
 21
-113.408
  0
LINE
  8
0
 10
-0.726974
 20
-113.408
 11
-0.249039
 21
-113.268
  0
LINE
  8
0
 10
-0.249039
 20
-113.268
 11
0.249039
 21
-113.268
  0
LINE
  8
0
 10
0.249039
 20
-113.268
 11
0.726974
 21
-113.408
  0
LINE
  8
0
 10
0.726974
 20
-113.408
 11
1.146
 21
-113.677
  0
LINE
  8
0
 10
1.146
 20
-113.677
 11
1.47218
 21
-114.054
  0
LINE
  8
0
 10
1.47218
 20
-114.054
 11
1.67911
 21
-114.507
  0
LINE
  8
0
 10
1.67911
 20
-114.507
 11
1.75
 21
-115
  0
LINE
  8
0
 10
1.75
 20
-115
 11
1.67911
 21
-115.493
  0
LINE
  8
0
 10
1.67911
 20
-115.493
 11
1.47218
 21
-115.946
  0
LINE
  8
0
 10
1.47218
 20
-115.946
 11
1.146
 21
-116.323
  0
LINE
  8
0
 10
1.146
 20
-116.323
 11
0.726974
 21
-116.592
  0
LINE
  8
0
 10
0.726974
 20
-116.592
 11
0.249039
 21
-116.732
  0
LINE
  8
0
 10
0.249039
 20
-116.732
 11
-0.249039
 21
-116.732
  0
LINE
  8
0
 10
97
 20
-132
 11
-97
 21
-132
  0
LINE
  8
0
 10
-97
 20
-132
 11
-97
 21
-192
  0
LINE
  8
0
 10
-97
 20
-192
 11
97
 21
-192
  0
LINE
  8
0
 10
97
 20
-192
 11
97
 21
-132
  0
LINE
  8
0
 10
-0.249039
 20
-143.732
 11
-0.726974
 21
-143.592
  0
LINE
  8
0
 10
-0.726974
 20
-143.592
 11
-1.146
 21
-143.323
  0
LINE
  8
0
 10
-1.146
 20
-143.323
 11
-1.47218
 21
-142.946
  0
LINE
  8
0
 10
-1.47218
 20
-142.946
 11
-1.67911
 21
-142.493
  0
LINE
  8
0
 10
-1.67911
 20
-142.493
 11
-1.75
 21
-142
  0
LINE
  8
0
 10
-1.75
 20
-142
 11
-1.67911
 21
-141.507
  0
LINE
  8
0
 10
-1.67911
 20
-141.507
 11
-1.47218
 21
-141.054
  0
LINE
  8
0
 10
-1.47218
 20
-141.054
 11
-1.146
 21
-140.677
  0
LINE
  8
0
 10
-1.146
 20
-140.677
 11
-0.726974
 21
-140.408
  0
LINE
  8
0
 10
-0.726974
 20
-140.408
 11
-0.249039
 21
-140.268
  0
LINE
  8
0
 10
-0.249039
 20
-140.268
 11
0.249039
 21
-140.268
  0
LINE
  8
0
 10
0.249039
 20
-140.268
 11
0.726974
 21
-140.408
  0
LINE
  8
0
 10
0.726974
 20
-140.408
 11
1.146
 21
-140.677
  0
LINE
  8
0
 10
1.146
 20
-140.677
 11
1.47218
 21
-141.054
  0
LINE
  8
0
 10
1.47218
 20
-141.054
 11
1.67911
 21
-141.507
  0
LINE
  8
0
 10
1.67911
 20
-141.507
 11
1.75
 21
-142
  0
LINE
  8
0
 10
1.75
 20
-142
 11
1.67911
 21
-142.493
  0
LINE
  8
0
 10
1.67911
 20
-142.493
 11
1.47218
 21
-142.946
  0
LINE
  8
0
 10
1.47218
 20
-142.946
 11
1.146
 21
-143.323
  0
LINE
  8
0
 10
1.146
 20
-143.323
 11
0.726974
 21
-143.592
  0
LINE
  8
0
 10
0.726974
 20
-143.592
 11
0.249039
 21
-143.732
  0
LINE
  8
0
 10
0.249039
 20
-143.732
 11
-0.249039
 21
-143.732
  0
LINE
  8
0
 10
-5
 20
-150
 11
-5
 21
-148
  0
LINE
  8
0
 10
-5
 20
-148
 11
5
 21
-148
  0
LINE
  8
0
 10
5
 20
-148
 11
5
 21
-150
  0
LINE
  8
0
 10
5
 20
-150
 11
-5
 21
-150
  0
LINE
  8
0
 10
-0.495468
 20
-173.979
 11
-0.987564
 21
-173.918
  0
LINE
  8
0
 10
-0.987564
 20
-173.918
 11
-1.4729
 21
-173.816
  0
LINE
  8
0
 10
-1.4729
 20
-173.816
 11
-1.9482
 21
-173.675
  0
LINE
  8
0
 10
-1.9482
 20
-173.675
 11
-2.41017
 21
-173.495
  0
LINE
  8
0
 10
-2.41017
 20
-173.495
 11
-2.85568
 21
-173.277
  0
LINE
  8
0
 10
-2.85568
 20
-173.277
 11
-3.28168
 21
-173.023
  0
LINE
  8
0
 10
-3.28168
 20
-173.023
 11
-3.68527
 21
-172.735
  0
LINE
  8
0
 10
-3.68527
 20
-172.735
 11
-4.06367
 21
-172.414
  0
LINE
  8
0
 10
-4.06367
 20
-172.414
 11
-4.41434
 21
-172.064
  0
LINE
  8
0
 10
-4.41434
 20
-172.064
 11
-4.73483
 21
-171.685
  0
LINE
  8
0
 10
-4.73483
 20
-171.685
 11
-5.02299
 21
-171.282
  0
LINE
  8
0
 10
-5.02299
 20
-171.282
 11
-5.27684
 21
-170.856
  0
LINE
  8
0
 10
-5.27684
 20
-170.856
 11
-5.49463
 21
-170.41
  0
LINE
  8
0
 10
-5.49463
 20
-170.41
 11
-5.6749
 21
-169.948
  0
LINE
  8
0
 10
-5.6749
 20
-169.948
 11
-5.81639
 21
-169.473
  0
LINE
  8
0
 10
-5.81639
 20
-169.473
 11
-5.91817
 21
-168.988
  0
LINE
  8
0
 10
-5.91817
 20
-168.988
 11
-5.97949
 21
-168.495
  0
LINE
  8
0
 10
-5.97949
 20
-168.495
 11
-6
 21
-168
  0
LINE
  8
0
 10
-6
 20
-168
 11
-5.97949
 21
-167.505
  0
LINE
  8
0
 10
-5.97949
 20
-167.505
 11
-5.91817
 21
-167.012
  0
LINE
  8
0
 10
-5.91817
 20
-167.012
 11
-5.81639
 21
-166.527
  0
LINE
  8
0
 10
-5.81639
 20
-166.527
 11
-5.6749
 21
-166.052
  0
LINE
  8
0
 10
-5.6749
 20
-166.052
 11
-5.49463
 21
-165.59
  0
LINE
  8
0
 10
-5.49463
 20
-165.59
 11
-5.27684
 21
-165.144
  0
LINE
  8
0
 10
-5.27684
 20
-165.144
 11
-5.02299
 21
-164.718
  0
LINE
  8
0
 10
-5.02299
 20
-164.718
 11
-4.73483
 21
-164.315
  0
LINE
  8
0
 10
-4.73483
 20
-164.315
 11
-4.41434
 21
-163.936
  0
LINE
  8
0
 10
-4.41434
 20
-163.936
 11
-4.06367
 21
-163.586
  0
LINE
  8
0
 10
-4.06367
 20
-163.586
 11
-3.68527
 21
-163.265
  0
LINE
  8
0
 10
-3.68527
 20
-163.265
 11
-3.28168
 21
-162.977
  0
LINE
  8
0
 10
-3.28168
 20
-162.977
 11
-2.85568
 21
-162.723
  0
LINE
  8
0
 10
-2.85568
 20
-162.723
 11
-2.41017
 21
-162.505
  0
LINE
  8
0
 10
-2.41017
 20
-162.505
 11
-1.9482
 21
-162.325
  0
LINE
  8
0
 10
-1.9482
 20
-162.325
 11
-1.4729
 21
-162.184
  0
LINE
  8
0
 10
-1.4729
 20
-162.184
 11
-0.987564
 21
-162.082
  0
LINE
  8
0
 10
-0.987564
 20
-162.082
 11
-0.495468
 21
-162.02
  0
LINE
  8
0
 10
-0.495468
 20
-162.02
 11
0
 21
-162
  0
LINE
  8
0
 10
0
 20
-162
 11
0.495468
 21
-162.02
  0
LINE
  8
0
 10
0.495468
 20
-162.02
 11
0.987564
 21
-162.082
  0
LINE
  8
0
 10
0.987564
 20
-162.082
 11
1.4729
 21
-162.184
  0
LINE
  8
0
 10
1.4729
 20
-162.184
 11
1.9482
 21
-162.325
  0
LINE
  8
0
 10
1.9482
 20
-162.325
 11
2.41017
 21
-162.505
  0
LINE
  8
0
 10
2.41017
 20
-162.505
 11
2.85568
 21
-162.723
  0
LINE
  8
0
 10
2.85568
 20
-162.723
 11
3.28168
 21
-162.977
  0
LINE
  8
0
 10
3.28168
 20
-162.977
 11
3.68527
 21
-163.265
  0
LINE
  8
0
 10
3.68527
 20
-163.265
 11
4.06367
 21
-163.586
  0
LINE
  8
0
 10
4.06367
 20
-163.586
 11
4.41434
 21
-163.936
  0
LINE
  8
0
 10
4.41434
 20
-163.936
 11
4.73483
 21
-164.315
  0
LINE
  8
0
 10
4.73483
 20
-164.315
 11
5.02299
 21
-164.718
  0
LINE
  8
0
 10
5.02299
 20
-164.718
 11
5.27684
 21
-165.144
  0
LINE
  8
0
 10
5.27684
 20
-165.144
 11
5.49463
 21
-165.59
  0
LINE
  8
0
 10
5.49463
 20
-165.59
 11
5.6749
 21
-166.052
  0
LINE
  8
0
 10
5.6749
 20
-166.052
 11
5.81639
 21
-166.527
  0
LINE
  8
0
 10
5.81639
 20
-166.527
 11
5.91817
 21
-167.012
  0
LINE
  8
0
 10
5.91817
 20
-167.012
 11
5.97949
 21
-167.505
  0
LINE
  8
0
 10
5.97949
 20
-167.505
 11
6
 21
-168
  0
LINE
  8
0
 10
6
 20
-168
 11
5.97949
 21
-168.495
  0
LINE
  8
0
 10
5.97949
 20
-168.495
 11
5.91817
 21
-168.988
  0
LINE
  8
0
 10
5.91817
 20
-168.988
 11
5.81639
 21
-169.473
  0
LINE
  8
0
 10
5.81639
 20
-169.473
 11
5.6749
 21
-169.948
  0
LINE
  8
0
 10
5.6749
 20
-169.948
 11
5.49463
 21
-170.41
  0
LINE
  8
0
 10
5.49463
 20
-170.41
 11
5.27684
 21
-170.856
  0
LINE
  8
0
 10
5.27684
 20
-170.856
 11
5.02299
 21
-171.282
  0
LINE
  8
0
 10
5.02299
 20
-171.282
 11
4.73483
 21
-171.685
  0
LINE
  8
0
 10
4.73483
 20
-171.685
 11
4.41434
 21
-172.064
  0
LINE
  8
0
 10
4.41434
 20
-172.064
 11
4.06367
 21
-172.414
  0
LINE
  8
0
 10
4.06367
 20
-172.414
 11
3.68527
 21
-172.735
  0
LINE
  8
0
 10
3.68527
 20
-172.735
 11
3.28168
 21
-173.023
  0
LINE
  8
0
 10
3.28168
 20
-173.023
 11
2.85568
 21
-173.277
  0
LINE
  8
0
 10
2.85568
 20
-173.277
 11
2.41017
 21
-173.495
  0
LINE
  8
0
 10
2.41017
 20
-173.495
 11
1.9482
 21
-173.675
  0
LINE
  8
0
 10
1.9482
 20
-173.675
 11
1.4729
 21
-173.816
  0
LINE
  8
0
 10
1.4729
 20
-173.816
 11
0.987564
 21
-173.918
  0
LINE
  8
0
 10
0.987564
 20
-173.918
 11
0.495468
 21
-173.979
  0
LINE
  8
0
 10
0.495468
 20
-173.979
 11
0
 21
-174
  0
LINE
  8
0
 10
0
 20
-174
 11
-0.495468
 21
-173.979
  0
LINE
  8
0
 10
89.507
 20
-176.679
 11
89.0539
 21
-176.472
  0
LINE
  8
0
 10
89.0539
 20
-176.472
 11
88.6774
 21
-176.146
  0
LINE
  8
0
 10
88.6774
 20
-176.146
 11
88.4081
 21
-175.727
  0
LINE
  8
0
 10
88.4081
 20
-175.727
 11
88.2678
 21
-175.249
  0
LINE
  8
0
 10
88.2678
 20
-175.249
 11
88.2678
 21
-174.751
  0
LINE
  8
0
 10
88.2678
 20
-174.751
 11
88.4081
 21
-174.273
  0
LINE
  8
0
 10
88.4081
 20
-174.273
 11
88.6774
 21
-173.854
  0
LINE
  8
0
 10
88.6774
 20
-173.854
 11
89.0539
 21
-173.528
  0
LINE
  8
0
 10
89.0539
 20
-173.528
 11
89.507
 21
-173.321
  0
LINE
  8
0
 10
89.507
 20
-173.321
 11
90
 21
-173.25
  0
LINE
  8
0
 10
90
 20
-173.25
 11
90.493
 21
-173.321
  0
LINE
  8
0
 10
90.493
 20
-173.321
 11
90.9461
 21
-173.528
  0
LINE
  8
0
 10
90.9461
 20
-173.528
 11
91.3226
 21
-173.854
  0
LINE
  8
0
 10
91.3226
 20
-173.854
 11
91.5918
 21
-174.273
  0
LINE
  8
0
 10
91.5918
 20
-174.273
 11
91.7322
 21
-174.751
  0
LINE
  8
0
 10
91.7322
 20
-174.751
 11
91.7322
 21
-175.249
  0
LINE
  8
0
 10
91.7322
 20
-175.249
 11
91.5918
 21
-175.727
  0
LINE
  8
0
 10
91.5918
 20
-175.727
 11
91.3226
 21
-176.146
  0
LINE
  8
0
 10
91.3226
 20
-176.146
 11
90.9461
 21
-176.472
  0
LINE
  8
0
 10
90.9461
 20
-176.472
 11
90.493
 21
-176.679
  0
LINE
  8
0
 10
90.493
 20
-176.679
 11
90
 21
-176.75
  0
LINE
  8
0
 10
90
 20
-176.75
 11
89.507
 21
-176.679
  0
LINE
  8
0
 10
-90.493
 20
-176.679
 11
-90.9461
 21
-176.472
  0
LINE
  8
0
 10
-90.9461
 20
-176.472
 11
-91.3226
 21
-176.146
  0
LINE
  8
0
 10
-91.3226
 20
-176.146
 11
-91.5918
 21
-175.727
  0
LINE
  8
0
 10
-91.5918
 20
-175.727
 11
-91.7322
 21
-175.249
  0
LINE
  8
0
 10
-91.7322
 20
-175.249
 11
-91.7322
 21
-174.751
  0
LINE
  8
0
 10
-91.7322
 20
-174.751
 11
-91.5918
 21
-174.273
  0
LINE
  8
0
 10
-91.5918
 20
-174.273
 11
-91.3226
 21
-173.854
  0
LINE
  8
0
 10
-91.3226
 20
-173.854
 11
-90.9461
 21
-173.528
  0
LINE
  8
0
 10
-90.9461
 20
-173.528
 11
-90.493
 21
-173.321
  0
LINE
  8
0
 10
-90.493
 20
-173.321
 11
-90
 21
-173.25
  0
LINE
  8
0
 10
-90
 20
-173.25
 11
-89.507
 21
-173.321
  0
LINE
  8
0
 10
-89.507
 20
-173.321
 11
-89.0539
 21
-173.528
  0
LINE
  8
0
 10
-89.0539
 20
-173.528
 11
-88.6774
 21
-173.854
  0
LINE
  8
0
 10
-88.6774
 20
-173.854
 11
-88.4081
 21
-174.273
  0
LINE
  8
0
 10
-88.4081
 20
-174.273
 11
-88.2678
 21
-174.751
  0
LINE
  8
0
 10
-88.2678
 20
-174.751
 11
-88.2678
 21
-175.249
  0
LINE
  8
0
 10
-88.2678
 20
-175.249
 11
-88.4081
 21
-175.727
  0
LINE
  8
0
 10
-88.4081
 20
-175.727
 11
-88.6774
 21
-176.146
  0
LINE
  8
0
 10
-88.6774
 20
-176.146
 11
-89.0539
 21
-176.472
  0
LINE
  8
0
 10
-89.0539
 20
-176.472
 11
-89.507
 21
-176.679
  0
LINE
  8
0
 10
-89.507
 20
-176.679
 11
-90
 21
-176.75
  0
LINE
  8
0
 10
-90
 20
-176.75
 11
-90.493
 21
-176.679
  0
LINE
  8
0
 10
497
 20
-132
 11
303
 21
-132
  0
LINE
  8
0
 10
303
 20
-132
 11
303
 21
-192
  0
LINE
  8
0
 10
303
 20
-192
 11
497
 21
-192
  0
LINE
  8
0
 10
497
 20
-192
 11
497
 21
-132
  0
LINE
  8
0
 10
399.751
 20
-143.732
 11
399.273
 21
-143.592
  0
LINE
  8
0
 10
399.273
 20
-143.592
 11
398.854
 21
-143.323
  0
LINE
  8
0
 10
398.854
 20
-143.323
 11
398.528
 21
-142.946
  0
LINE
  8
0
 10
398.528
 20
-142.946
 11
398.321
 21
-142.493
  0
LINE
  8
0
 10
398.321
 20
-142.493
 11
398.25
 21
-142
  0
LINE
  8
0
 10
398.25
 20
-142
 11
398.321
 21
-141.507
  0
LINE
  8
0
 10
398.321
 20
-141.507
 11
398.528
 21
-141.054
  0
LINE
  8
0
 10
398.528
 20
-141.054
 11
398.854
 21
-140.677
  0
LINE
  8
0
 10
398.854
 20
-140.677
 11
399.273
 21
-140.408
  0
LINE
  8
0
 10
399.273
 20
-140.408
 11
399.751
 21
-140.268
  0
LINE
  8
0
 10
399.751
 20
-140.268
 11
400.249
 21
-140.268
  0
LINE
  8
0
 10
400.249
 20
-140.268
 11
400.727
 21
-140.408
  0
LINE
  8
0
 10
400.727
 20
-140.408
 11
401.146
 21
-140.677
  0
LINE
  8
0
 10
401.146
 20
-140.677
 11
401.472
 21
-141.054
  0
LINE
  8
0
 10
401.472
 20
-141.054
 11
401.679
 21
-141.507
  0
LINE
  8
0
 10
401.679
 20
-141.507
 11
401.75
 21
-142
  0
LINE
  8
0
 10
401.75
 20
-142
 11
401.679
 21
-142.493
  0
LINE
  8
0
 10
401.679
 20
-142.493
 11
401.472
 21
-142.946
  0
LINE
  8
0
 10
401.472
 20
-142.946
 11
401.146
 21
-143.323
  0
LINE
  8
0
 10
401.146
 20
-143.323
 11
400.727
 21
-143.592
  0
LINE
  8
0
 10
400.727
 20
-143.592
 11
400.249
 21
-143.732
  0
LINE
  8
0
 10
400.249
 20
-143.732
 11
399.751
 21
-143.732
  0
LINE
  8
0
 10
395
 20
-150
 11
395
 21
-148
  0
LINE
  8
0
 10
395
 20
-148
 11
405
 21
-148
  0
LINE
  8
0
 10
405
 20
-148
 11
405
 21
-150
  0
LINE
  8
0
 10
405
 20
-150
 11
395
 21
-150
  0
LINE
  8
0
 10
399.505
 20
-173.979
 11
399.012
 21
-173.918
  0
LINE
  8
0
 10
399.012
 20
-173.918
 11
398.527
 21
-173.816
  0
LINE
  8
0
 10
398.527
 20
-173.816
 11
398.052
 21
-173.675
  0
LINE
  8
0
 10
398.052
 20
-173.675
 11
397.59
 21
-173.495
  0
LINE
  8
0
 10
397.59
 20
-173.495
 11
397.144
 21
-173.277
  0
LINE
  8
0
 10
397.144
 20
-173.277
 11
396.718
 21
-173.023
  0
LINE
  8
0
 10
396.718
 20
-173.023
 11
396.315
 21
-172.735
  0
LINE
  8
0
 10
396.315
 20
-172.735
 11
395.936
 21
-172.414
  0
LINE
  8
0
 10
395.936
 20
-172.414
 11
395.586
 21
-172.064
  0
LINE
  8
0
 10
395.586
 20
-172.064
 11
395.265
 21
-171.685
  0
LINE
  8
0
 10
395.265
 20
-171.685
 11
394.977
 21
-171.282
  0
LINE
  8
0
 10
394.977
 20
-171.282
 11
394.723
 21
-170.856
  0
LINE
  8
0
 10
394.723
 20
-170.856
 11
394.505
 21
-170.41
  0
LINE
  8
0
 10
394.505
 20
-170.41
 11
394.325
 21
-169.948
  0
LINE
  8
0
 10
394.325
 20
-169.948
 11
394.184
 21
-169.473
  0
LINE
  8
0
 10
394.184
 20
-169.473
 11
394.082
 21
-168.988
  0
LINE
  8
0
 10
394.082
 20
-168.988
 11
394.021
 21
-168.495
  0
LINE
  8
0
 10
394.021
 20
-168.495
 11
394
 21
-168
  0
LINE
  8
0
 10
394
 20
-168
 11
394.021
 21
-167.505
  0
LINE
  8
0
 10
394.021
 20
-167.505
 11
394.082
 21
-167.012
  0
LINE
  8
0
 10
394.082
 20
-167.012
 11
394.184
 21
-166.527
  0
LINE
  8
0
 10
394.184
 20
-166.527
 11
394.325
 21
-166.052
  0
LINE
  8
0
 10
394.325
 20
-166.052
 11
394.505
 21
-165.59
  0
LINE
  8
0
 10
394.505
 20
-165.59
 11
394.723
 21
-165.144
  0
LINE
  8
0
 10
394.723
 20
-165.144
 11
394.977
 21
-164.718
  0
LINE
  8
0
 10
394.977
 20
-164.718
 11
395.265
 21
-164.315
  0
LINE
  8
0
 10
395.265
 20
-164.315
 11
395.586
 21
-163.936
  0
LINE
  8
0
 10
395.586
 20
-163.936
 11
395.936
 21
-163.586
  0
LINE
  8
0
 10
395.936
 20
-163.586
 11
396.315
 21
-163.265
  0
LINE
  8
0
 10
396.315
 20
-163.265
 11
396.718
 21
-162.977
  0
LINE
  8
0
 10
396.718
 20
-162.977
 11
397.144
 21
-162.723
  0
LINE
  8
0
 10
397.144
 20
-162.723
 11
397.59
 21
-162.505
  0
LINE
  8
0
 10
397.59
 20
-162.505
 11
398.052
 21
-162.325
  0
LINE
  8
0
 10
398.052
 20
-162.325
 11
398.527
 21
-162.184
  0
LINE
  8
0
 10
398.527
 20
-162.184
 11
399.012
 21
-162.082
  0
LINE
  8
0
 10
399.012
 20
-162.082
 11
399.505
 21
-162.02
  0
LINE
  8
0
 10
399.505
 20
-162.02
 11
400
 21
-162
  0
LINE
  8
0
 10
400
 20
-162
 11
400.495
 21
-162.02
  0
LINE
  8
0
 10
400.495
 20
-162.02
 11
400.988
 21
-162.082
  0
LINE
  8
0
 10
400.988
 20
-162.082
 11
401.473
 21
-162.184
  0
LINE
  8
0
 10
401.473
 20
-162.184
 11
401.948
 21
-162.325
  0
LINE
  8
0
 10
401.948
 20
-162.325
 11
402.41
 21
-162.505
  0
LINE
  8
0
 10
402.41
 20
-162.505
 11
402.856
 21
-162.723
  0
LINE
  8
0
 10
402.856
 20
-162.723
 11
403.282
 21
-162.977
  0
LINE
  8
0
 10
403.282
 20
-162.977
 11
403.685
 21
-163.265
  0
LINE
  8
0
 10
403.685
 20
-163.265
 11
404.064
 21
-163.586
  0
LINE
  8
0
 10
404.064
 20
-163.586
 11
404.414
 21
-163.936
  0
LINE
  8
0
 10
404.414
 20
-163.936
 11
404.735
 21
-164.315
  0
LINE
  8
0
 10
404.735
 20
-164.315
 11
405.023
 21
-164.718
  0
LINE
  8
0
 10
405.023
 20
-164.718
 11
405.277
 21
-165.144
  0
LINE
  8
0
 10
405.277
 20
-165.144
 11
405.495
 21
-165.59
  0
LINE
  8
0
 10
405.495
 20
-165.59
 11
405.675
 21
-166.052
  0
LINE
  8
0
 10
405.675
 20
-166.052
 11
405.816
 21
-166.527
  0
LINE
  8
0
 10
405.816
 20
-166.527
 11
405.918
 21
-167.012
  0
LINE
  8
0
 10
405.918
 20
-167.012
 11
405.979
 21
-167.505
  0
LINE
  8
0
 10
405.979
 20
-167.505
 11
406
 21
-168
  0
LINE
  8
0
 10
406
 20
-168
 11
405.979
 21
-168.495
  0
LINE
  8
0
 10
405.979
 20
-168.495
 11
405.918
 21
-168.988
  0
LINE
  8
0
 10
405.918
 20
-168.988
 11
405.816
 21
-169.473
  0
LINE
  8
0
 10
405.816
 20
-169.473
 11
405.675
 21
-169.948
  0
LINE
  8
0
 10
405.675
 20
-169.948
 11
405.495
 21
-170.41
  0
LINE
  8
0
 10
405.495
 20
-170.41
 11
405.277
 21
-170.856
  0
LINE
  8
0
 10
405.277
 20
-170.856
 11
405.023
 21
-171.282
  0
LINE
  8
0
 10
405.023
 20
-171.282
 11
404.735
 21
-171.685
  0
LINE
  8
0
 10
404.735
 20
-171.685
 11
404.414
 21
-172.064
  0
LINE
  8
0
 10
404.414
 20
-172.064
 11
404.064
 21
-172.414
  0
LINE
  8
0
 10
404.064
 20
-172.414
 11
403.685
 21
-172.735
  0
LINE
  8
0
 10
403.685
 20
-172.735
 11
403.282
 21
-173.023
  0
LINE
  8
0
 10
403.282
 20
-173.023
 11
402.856
 21
-173.277
  0
LINE
  8
0
 10
402.856
 20
-173.277
 11
402.41
 21
-173.495
  0
LINE
  8
0
 10
402.41
 20
-173.495
 11
401.948
 21
-173.675
  0
LINE
  8
0
 10
401.948
 20
-173.675
 11
401.473
 21
-173.816
  0
LINE
  8
0
 10
401.473
 20
-173.816
 11
400.988
 21
-173.918
  0
LINE
  8
0
 10
400.988
 20
-173.918
 11
400.495
 21
-173.979
  0
LINE
  8
0
 10
400.495
 20
-173.979
 11
400
 21
-174
  0
LINE
  8
0
 10
400
 20
-174
 11
399.505
 21
-173.979
  0
LINE
  8
0
 10
489.507
 20
-176.679
 11
489.054
 21
-176.472
  0
LINE
  8
0
 10
489.054
 20
-176.472
 11
488.677
 21
-176.146
  0
LINE
  8
0
 10
488.677
 20
-176.146
 11
488.408
 21
-175.727
  0
LINE
  8
0
 10
488.408
 20
-175.727
 11
488.268
 21
-175.249
  0
LINE
  8
0
 10
488.268
 20
-175.249
 11
488.268
 21
-174.751
  0
LINE
  8
0
 10
488.268
 20
-174.751
 11
488.408
 21
-174.273
  0
LINE
  8
0
 10
488.408
 20
-174.273
 11
488.677
 21
-173.854
  0
LINE
  8
0
 10
488.677
 20
-173.854
 11
489.054
 21
-173.528
  0
LINE
  8
0
 10
489.054
 20
-173.528
 11
489.507
 21
-173.321
  0
LINE
  8
0
 10
489.507
 20
-173.321
 11
490
 21
-173.25
  0
LINE
  8
0
 10
490
 20
-173.25
 11
490.493
 21
-173.321
  0
LINE
  8
0
 10
490.493
 20
-173.321
 11
490.946
 21
-173.528
  0
LINE
  8
0
 10
490.946
 20
-173.528
 11
491.323
 21
-173.854
  0
LINE
  8
0
 10
491.323
 20
-173.854
 11
491.592
 21
-174.273
  0
LINE
  8
0
 10
491.592
 20
-174.273
 11
491.732
 21
-174.751
  0
LINE
  8
0
 10
491.732
 20
-174.751
 11
491.732
 21
-175.249
  0
LINE
  8
0
 10
491.732
 20
-175.249
 11
491.592
 21
-175.727
  0
LINE
  8
0
 10
491.592
 20
-175.727
 11
491.323
 21
-176.146
  0
LINE
  8
0
 10
491.323
 20
-176.146
 11
490.946
 21
-176.472
  0
LINE
  8
0
 10
490.946
 20
-176.472
 11
490.493
 21
-176.679
  0
LINE
  8
0
 10
490.493
 20
-176.679
 11
490
 21
-176.75
  0
LINE
  8
0
 10
490
 20
-176.75
 11
489.507
 21
-176.679
  0
LINE
  8
0
 10
309.507
 20
-176.679
 11
309.054
 21
-176.472
  0
LINE
  8
0
 10
309.054
 20
-176.472
 11
308.677
 21
-176.146
  0
LINE
  8
0
 10
308.677
 20
-176.146
 11
308.408
 21
-175.727
  0
LINE
  8
0
 10
308.408
 20
-175.727
 11
308.268
 21
-175.249
  0
LINE
  8
0
 10
308.268
 20
-175.249
 11
308.268
 21
-174.751
  0
LINE
  8
0
 10
308.268
 20
-174.751
 11
308.408
 21
-174.273
  0
LINE
  8
0
 10
308.408
 20
-174.273
 11
308.677
 21
-173.854
  0
LINE
  8
0
 10
308.677
 20
-173.854
 11
309.054
 21
-173.528
  0
LINE
  8
0
 10
309.054
 20
-173.528
 11
309.507
 21
-173.321
  0
LINE
  8
0
 10
309.507
 20
-173.321
 11
310
 21
-173.25
  0
LINE
  8
0
 10
310
 20
-173.25
 11
310.493
 21
-173.321
  0
LINE
  8
0
 10
310.493
 20
-173.321
 11
310.946
 21
-173.528
  0
LINE
  8
0
 10
310.946
 20
-173.528
 11
311.323
 21
-173.854
  0
LINE
  8
0
 10
311.323
 20
-173.854
 11
311.592
 21
-174.273
  0
LINE
  8
0
 10
311.592
 20
-174.273
 11
311.732
 21
-174.751
  0
LINE
  8
0
 10
311.732
 20
-174.751
 11
311.732
 21
-175.249
  0
LINE
  8
0
 10
311.732
 20
-175.249
 11
311.592
 21
-175.727
  0
LINE
  8
0
 10
311.592
 20
-175.727
 11
311.323
 21
-176.146
  0
LINE
  8
0
 10
311.323
 20
-176.146
 11
310.946
 21
-176.472
  0
LINE
  8
0
 10
310.946
 20
-176.472
 11
310.493
 21
-176.679
  0
LINE
  8
0
 10
310.493
 20
-176.679
 11
310
 21
-176.75
  0
LINE
  8
0
 10
310
 20
-176.75
 11
309.507
 21
-176.679
  0
ENDSEC
  0
SECTION
  2
OBJECTS
  0
DICTIONARY
  0
ENDSEC
  0
EOF
