<?xml version="1.0" standalone="no"?>
<!DOCTYPE svg PUBLIC "-//W3C//DTD SVG 1.1//EN" "http://www.w3.org/Graphics/SVG/1.1/DTD/svg11.dtd">
<svg width="734mm" height="384mm" viewBox="-167 -192 734 384" xmlns="http://www.w3.org/2000/svg" version="1.1">
<title>OpenSCAD Model</title>
<path d="
M 50.2,-135 L 100,-135 L 100,-165 L 97.8,-165 L 97.8,-179.6 L 100,-179.6
 L 100,-192 L -100,-192 L -100,-179.6 L -97.8,-179.6 L -97.8,-165 L -100,-165
 L -100,-154.8 L -92.1,-154.8 L -92.1,-139.2 L -100,-139.2 L -100,-135 L -50.2,-135
 L -50.2,-131.6 L 50.2,-131.6 z
M 450.2,-135 L 500,-135 L 500,-165 L 497.8,-165 L 497.8,-179.6 L 500,-179.6
 L 500,-192 L 300,-192 L 300,-179.6 L 302.2,-179.6 L 302.2,-165 L 300,-165
 L 300,-135 L 349.8,-135 L 349.8,-131.6 L 450.2,-131.6 z
M 399.009,-156.041 L 398.025,-156.164 L 397.054,-156.367 L 396.104,-156.65 L 395.18,-157.011 L 394.289,-157.446
 L 393.437,-157.954 L 392.629,-158.53 L 391.873,-159.171 L 391.171,-159.873 L 390.53,-160.629 L 389.954,-161.437
 L 389.446,-162.289 L 389.011,-163.18 L 388.65,-164.104 L 388.367,-165.054 L 388.164,-166.025 L 388.041,-167.009
 L 388,-168 L 388.041,-168.991 L 388.164,-169.975 L 388.367,-170.946 L 388.65,-171.896 L 389.011,-172.82
 L 389.446,-173.711 L 389.954,-174.563 L 390.53,-175.371 L 391.171,-176.127 L 391.873,-176.829 L 392.629,-177.47
 L 393.437,-178.046 L 394.289,-178.554 L 395.18,-178.989 L 396.104,-179.35 L 397.054,-179.633 L 398.025,-179.836
 L 399.009,-179.959 L 400,-180 L 400.991,-179.959 L 401.975,-179.836 L 402.946,-179.633 L 403.896,-179.35
 L 404.82,-178.989 L 405.711,-178.554 L 406.563,-178.046 L 407.371,-177.47 L 408.127,-176.829 L 408.829,-176.127
 L 409.47,-175.371 L 410.046,-174.563 L 410.554,-173.711 L 410.989,-172.82 L 411.35,-171.896 L 411.633,-170.946
 L 411.836,-169.975 L 411.959,-168.991 L 412,-168 L 411.959,-167.009 L 411.836,-166.025 L 411.633,-165.054
 L 411.35,-164.104 L 410.989,-163.18 L 410.554,-162.289 L 410.046,-161.437 L 409.47,-160.629 L 408.829,-159.873
 L 408.127,-159.171 L 407.371,-158.53 L 406.563,-157.954 L 405.711,-157.446 L 404.82,-157.011 L 403.896,-156.65
 L 402.946,-156.367 L 401.975,-156.164 L 400.991,-156.041 L 400,-156 z
M -140,122 L -130,122 L -130,117.1 L -114,117.1 L -114,122 L -110,122
 L -110,50.2 L -106.6,50.2 L -106.6,-50.2 L -110,-50.2 L -110,-122 L -114,-122
 L -114,-125.2 L -130,-125.2 L -130,-122 L -140,-122 L -140,-125 L -155,-125
 L -155,-122 L -167,-122 L -167,122 L -155,122 L -155,125 L -140,125
 z
M -143.991,-13.041 L -144.975,-13.1637 L -145.946,-13.3672 L -146.896,-13.6502 L -147.82,-14.0107 L -148.711,-14.4463
 L -149.563,-14.954 L -150.371,-15.5303 L -151.127,-16.1713 L -151.829,-16.8726 L -152.47,-17.6294 L -153.046,-18.4366
 L -153.554,-19.2886 L -153.989,-20.1796 L -154.35,-21.1036 L -154.633,-22.0542 L -154.836,-23.0249 L -154.959,-24.009
 L -155,-25 L -154.959,-25.991 L -154.836,-26.9751 L -154.633,-27.9458 L -154.35,-28.8964 L -153.989,-29.8203
 L -153.554,-30.7114 L -153.046,-31.5634 L -152.47,-32.3705 L -151.829,-33.1274 L -151.127,-33.8287 L -150.371,-34.4697
 L -149.563,-35.046 L -148.711,-35.5537 L -147.82,-35.9893 L -146.896,-36.3498 L -145.946,-36.6328 L -144.975,-36.8363
 L -143.991,-36.959 L -143,-37 L -142.009,-36.959 L -141.025,-36.8363 L -140.054,-36.6328 L -139.104,-36.3498
 L -138.18,-35.9893 L -137.289,-35.5537 L -136.437,-35.046 L -135.629,-34.4697 L -134.873,-33.8287 L -134.171,-33.1274
 L -133.53,-32.3705 L -132.954,-31.5634 L -132.446,-30.7114 L -132.011,-29.8203 L -131.65,-28.8964 L -131.367,-27.9458
 L -131.164,-26.9751 L -131.041,-25.991 L -131,-25 L -131.041,-24.009 L -131.164,-23.0249 L -131.367,-22.0542
 L -131.65,-21.1036 L -132.011,-20.1796 L -132.446,-19.2886 L -132.954,-18.4366 L -133.53,-17.6294 L -134.171,-16.8726
 L -134.873,-16.1713 L -135.629,-15.5303 L -136.437,-14.954 L -137.289,-14.4463 L -138.18,-14.0107 L -139.104,-13.6502
 L -140.054,-13.3672 L -141.025,-13.1637 L -142.009,-13.041 L -143,-13 z
M -130,95 L -130,75 L -114,75 L -114,95 z
M 555,122 L 567,122 L 567,-122 L 555,-122 L 555,-125 L 540,-125
 L 540,-122 L 530,-122 L 530,-117.1 L 514,-117.1 L 514,-122 L 510,-122
 L 510,-50.2 L 506.6,-50.2 L 506.6,50.2 L 510,50.2 L 510,122 L 514,122
 L 514,117.1 L 530,117.1 L 530,122 L 540,122 L 540,125 L 555,125
 z
M 349.8,122.2 L 450.2,122.2 L 450.2,125 L 500,125 L 500,50.2 L 497.2,50.2
 L 497.2,-50.2 L 500,-50.2 L 500,-125 L 450.2,-125 L 450.2,-122.2 L 349.8,-122.2
 L 349.8,-125 L 300,-125 L 300,-50.2 L 302.8,-50.2 L 302.8,50.2 L 300,50.2
 L 300,125 L 349.8,125 z
M 155,122 L 167,122 L 167,-122 L 155,-122 L 155,-125 L 140,-125
 L 140,-122 L 110,-122 L 110,-50.2 L 106.6,-50.2 L 106.6,50.2 L 110,50.2
 L 110,122 L 114,122 L 114,117.1 L 130,117.1 L 130,122 L 140,122
 L 140,125 L 155,125 z
M -50.2,122.2 L 50.2,122.2 L 50.2,125 L 100,125 L 100,50.2 L 97.2,50.2
 L 97.2,-50.2 L 100,-50.2 L 100,-125 L 50.2,-125 L 50.2,-122.2 L -50.2,-122.2
 L -50.2,-125 L -100,-125 L -100,-50.2 L -97.2,-50.2 L -97.2,50.2 L -100,50.2
 L -100,125 L -50.2,125 z
M 260,122 L 270,122 L 270,117.1 L 286,117.1 L 286,122 L 290,122
 L 290,50.2 L 293.4,50.2 L 293.4,-50.2 L 290,-50.2 L 290,-122 L 286,-122
 L 286,-117.1 L 270,-117.1 L 270,-122 L 260,-122 L 260,-125 L 245,-125
 L 245,-122 L 233,-122 L 233,122 L 245,122 L 245,125 L 260,125
 z
M 100,179.6 L 97.8,179.6 L 97.8,165 L 100,165 L 100,135 L 50.2,135
 L 50.2,131.6 L -50.2,131.6 L -50.2,135 L -100,135 L -100,165 L -97.8,165
 L -97.8,179.6 L -100,179.6 L -100,192 L 100,192 z
M -0.990952,179.959 L -1.97513,179.836 L -2.94582,179.633 L -3.89639,179.35 L -4.82034,178.989 L -5.71136,178.554
 L -6.56337,178.046 L -7.37054,177.47 L -8.12737,176.829 L -8.82867,176.127 L -9.46968,175.371 L -10.046,174.563
 L -10.5537,173.711 L -10.9893,172.82 L -11.3498,171.896 L -11.6328,170.946 L -11.8363,169.975 L -11.959,168.991
 L -12,168 L -11.959,167.009 L -11.8363,166.025 L -11.6328,165.054 L -11.3498,164.104 L -10.9893,163.18
 L -10.5537,162.289 L -10.046,161.437 L -9.46968,160.629 L -8.82867,159.873 L -8.12737,159.171 L -7.37054,158.53
 L -6.56337,157.954 L -5.71136,157.446 L -4.82034,157.011 L -3.89639,156.65 L -2.94582,156.367 L -1.97513,156.164
 L -0.990952,156.041 L 0,156 L 0.990952,156.041 L 1.97513,156.164 L 2.94582,156.367 L 3.89639,156.65
 L 4.82034,157.011 L 5.71136,157.446 L 6.56337,157.954 L 7.37054,158.53 L 8.12737,159.171 L 8.82867,159.873
 L 9.46968,160.629 L 10.046,161.437 L 10.5537,162.289 L 10.9893,163.18 L 11.3498,164.104 L 11.6328,165.054
 L 11.8363,166.025 L 11.959,167.009 L 12,168 L 11.959,168.991 L 11.8363,169.975 L 11.6328,170.946
 L 11.3498,171.896 L 10.9893,172.82 L 10.5537,173.711 L 10.046,174.563 L 9.46968,175.371 L 8.82867,176.127
 L 8.12737,176.829 L 7.37054,177.47 L 6.56337,178.046 L 5.71136,178.554 L 4.82034,178.989 L 3.89639,179.35
 L 2.94582,179.633 L 1.97513,179.836 L 0.990952,179.959 L 0,180 z
M 500,179.6 L 497.8,179.6 L 497.8,165 L 500,165 L 500,135 L 450.2,135
 L 450.2,131.6 L 349.8,131.6 L 349.8,135 L 300,135 L 300,165 L 302.2,165
 L 302.2,179.6 L 300,179.6 L 300,192 L 500,192 z
M 399.009,179.959 L 398.025,179.836 L 397.054,179.633 L 396.104,179.35 L 395.18,178.989 L 394.289,178.554
 L 393.437,178.046 L 392.629,177.47 L 391.873,176.829 L 391.171,176.127 L 390.53,175.371 L 389.954,174.563
 L 389.446,173.711 L 389.011,172.82 L 388.65,171.896 L 388.367,170.946 L 388.164,169.975 L 388.041,168.991
 L 388,168 L 388.041,167.009 L 388.164,166.025 L 388.367,165.054 L 388.65,164.104 L 389.011,163.18
 L 389.446,162.289 L 389.954,161.437 L 390.53,160.629 L 391.171,159.873 L 391.873,159.171 L 392.629,158.53
 L 393.437,157.954 L 394.289,157.446 L 395.18,157.011 L 396.104,156.65 L 397.054,156.367 L 398.025,156.164
 L 399.009,156.041 L 400,156 L 400.991,156.041 L 401.975,156.164 L 402.946,156.367 L 403.896,156.65
 L 404.82,157.011 L 405.711,157.446 L 406.563,157.954 L 407.371,158.53 L 408.127,159.171 L 408.829,159.873
 L 409.47,160.629 L 410.046,161.437 L 410.554,162.289 L 410.989,163.18 L 411.35,164.104 L 411.633,165.054
 L 411.836,166.025 L 411.959,167.009 L 412,168 L 411.959,168.991 L 411.836,169.975 L 411.633,170.946
 L 411.35,171.896 L 410.989,172.82 L 410.554,173.711 L 410.046,174.563 L 409.47,175.371 L 408.829,176.127
 L 408.127,176.829 L 407.371,177.47 L 406.563,178.046 L 405.711,178.554 L 404.82,178.989 L 403.896,179.35
 L 402.946,179.633 L 401.975,179.836 L 400.991,179.959 L 400,180 z
" stroke="black" fill="lightgray" stroke-width="0.5"/>
</svg>
